<svg width="48" height="48" viewBox="0 0 48 48" fill="none" xmlns="http://www.w3.org/2000/svg">
<path d="M44.0008 33.8402V39.8402C44.0031 40.3972 43.889 40.9485 43.6659 41.4589C43.4427 41.9692 43.1154 42.4274 42.705 42.8039C42.2946 43.1805 41.81 43.4672 41.2823 43.6456C40.7547 43.8241 40.1956 43.8903 39.6408 43.8402C33.4865 43.1715 27.5748 41.0685 22.3808 37.7002C17.5485 34.6295 13.4515 30.5325 10.3808 25.7002C7.0008 20.4826 4.89733 14.5422 4.24084 8.36019C4.19086 7.80713 4.25659 7.24971 4.43384 6.72344C4.61109 6.19717 4.89598 5.71357 5.27037 5.30344C5.64477 4.8933 6.10045 4.56561 6.60842 4.34124C7.1164 4.11686 7.66552 4.00072 8.22084 4.00019H14.2208C15.1915 3.99064 16.1324 4.33435 16.8684 4.96726C17.6043 5.60017 18.085 6.47909 18.2208 7.44019C18.4741 9.36033 18.9437 11.2456 19.6208 13.0602C19.8899 13.776 19.9482 14.554 19.7887 15.302C19.6291 16.0499 19.2586 16.7364 18.7208 17.2802L16.1808 19.8202C19.028 24.8273 23.1738 28.9731 28.1808 31.8202L30.7208 29.2802C31.2646 28.7425 31.9512 28.3719 32.6991 28.2124C33.447 28.0529 34.225 28.1111 34.9408 28.3802C36.7554 29.0573 38.6407 29.5269 40.5608 29.7802C41.5324 29.9173 42.4196 30.4066 43.0539 31.1552C43.6882 31.9038 44.0252 32.8593 44.0008 33.8402Z" stroke="#392D2B" stroke-width="4" stroke-linecap="round" stroke-linejoin="round"/>
</svg>
