<svg width="105" height="177" viewBox="0 0 105 177" fill="none" xmlns="http://www.w3.org/2000/svg">
<path d="M76.3643 105.632V103.926" stroke="#BCB7B8" stroke-width="0.522388" stroke-linecap="round" stroke-linejoin="round"/>
<path d="M1.73535 124.825V123.119" stroke="#BCB7B8" stroke-width="0.522388" stroke-linecap="round" stroke-linejoin="round"/>
<path d="M76.3643 128.348V105.632" stroke="#BCB7B8" stroke-width="0.522388" stroke-linecap="round" stroke-linejoin="round"/>
<path d="M65.8594 8.80749V97.8347L76.3631 103.926" stroke="#BCB7B8" stroke-width="0.522388" stroke-linecap="round" stroke-linejoin="round"/>
<path d="M22.3916 111.836L45.8245 98.2473V39.6018" stroke="#BCB7B8" stroke-width="0.522388" stroke-linecap="round" stroke-linejoin="round"/>
<path d="M55.4874 33.9798V103.852L45.8232 98.248" stroke="#BCB7B8" stroke-width="0.522388" stroke-linecap="round" stroke-linejoin="round"/>
<path d="M55.4863 103.852L65.8595 97.8357" stroke="#BCB7B8" stroke-width="0.522388" stroke-linecap="round" stroke-linejoin="round"/>
<path d="M76.3656 103.927L22.5223 135.17L12.0186 129.079L22.3917 123.063" stroke="#BCB7B8" stroke-width="0.522388" stroke-linecap="round" stroke-linejoin="round"/>
<path d="M12.1271 28.0753L1.73535 34.0917L1.73535 123.119" stroke="#BCB7B8" stroke-width="0.522388" stroke-linecap="round" stroke-linejoin="round"/>
<path d="M22.5215 136.858V159.574" stroke="#BCB7B8" stroke-width="0.522388" stroke-linecap="round" stroke-linejoin="round"/>
<path d="M20.9906 71.4641L13.416 75.8499" stroke="#BCB7B8" stroke-width="0.522388" stroke-linecap="round" stroke-linejoin="round"/>
<path d="M13.416 65.3911L20.9906 69.7768L13.416 74.1626" stroke="#BCB7B8" stroke-width="0.522388" stroke-linecap="round" stroke-linejoin="round"/>
<path d="M20.9902 88.9324V71.4643" stroke="#BCB7B8" stroke-width="0.522388" stroke-linecap="round" stroke-linejoin="round"/>
<path d="M20.9906 52.3091L13.416 56.6948" stroke="#BCB7B8" stroke-width="0.522388" stroke-linecap="round" stroke-linejoin="round"/>
<path d="M13.416 84.5466L20.9906 88.9324" stroke="#BCB7B8" stroke-width="0.522388" stroke-linecap="round" stroke-linejoin="round"/>
<path d="M22.5215 159.574L32.8946 153.557V130.841L22.5215 136.858" stroke="#BCB7B8" stroke-width="0.522388" stroke-linecap="round" stroke-linejoin="round"/>
<path d="M22.5189 136.858L1.73535 124.825L1.73535 147.541L22.5189 159.574" stroke="#BCB7B8" stroke-width="0.522388" stroke-linecap="round" stroke-linejoin="round"/>
<path d="M20.9906 69.7776V53.9963L13.416 58.3821" stroke="#BCB7B8" stroke-width="0.522388" stroke-linecap="round" stroke-linejoin="round"/>
<path d="M64.4594 63.7241L56.8848 68.1099" stroke="#BCB7B8" stroke-width="0.522388" stroke-linecap="round" stroke-linejoin="round"/>
<path d="M64.4619 44.5505V28.788" stroke="#BCB7B8" stroke-width="0.522388" stroke-linecap="round" stroke-linejoin="round"/>
<path d="M56.8848 76.8056L64.4594 81.1914V96.9539L56.8848 92.5681" stroke="#BCB7B8" stroke-width="0.522388" stroke-linecap="round" stroke-linejoin="round"/>
<path d="M56.8848 40.1648L64.4594 44.5505" stroke="#BCB7B8" stroke-width="0.522388" stroke-linecap="round" stroke-linejoin="round"/>
<path d="M64.4594 27.0818V11.3193L56.8848 15.705" stroke="#BCB7B8" stroke-width="0.522388" stroke-linecap="round" stroke-linejoin="round"/>
<path d="M56.8848 101.34L64.4594 96.9543" stroke="#BCB7B8" stroke-width="0.522388" stroke-linecap="round" stroke-linejoin="round"/>
<path d="M20.9902 122.181V106.4" stroke="#BCB7B8" stroke-width="0.522388" stroke-linecap="round" stroke-linejoin="round"/>
<path d="M20.9906 36.5278L13.416 40.9136" stroke="#BCB7B8" stroke-width="0.522388" stroke-linecap="round" stroke-linejoin="round"/>
<path d="M13.416 126.567L20.9906 122.182" stroke="#BCB7B8" stroke-width="0.522388" stroke-linecap="round" stroke-linejoin="round"/>
<path d="M12.0152 129.079L1.73535 123.119" stroke="#BCB7B8" stroke-width="0.522388" stroke-linecap="round" stroke-linejoin="round"/>
<path d="M65.9902 134.364L76.3634 128.348" stroke="#BCB7B8" stroke-width="0.522388" stroke-linecap="round" stroke-linejoin="round"/>
<path d="M65.9902 111.648L76.3634 105.632" stroke="#BCB7B8" stroke-width="0.522388" stroke-linecap="round" stroke-linejoin="round"/>
<path d="M20.9906 106.401L13.416 110.787" stroke="#BCB7B8" stroke-width="0.522388" stroke-linecap="round" stroke-linejoin="round"/>
<path d="M20.9906 122.181L13.416 117.796" stroke="#BCB7B8" stroke-width="0.522388" stroke-linecap="round" stroke-linejoin="round"/>
<path d="M20.9906 104.714L13.416 109.1" stroke="#BCB7B8" stroke-width="0.522388" stroke-linecap="round" stroke-linejoin="round"/>
<path d="M1.73535 34.092L12.0152 40.0334L12.0152 129.079" stroke="#BCB7B8" stroke-width="0.522388" stroke-linecap="round" stroke-linejoin="round"/>
<path d="M22.3917 34.0168L12.0186 40.0332" stroke="#BCB7B8" stroke-width="0.522388" stroke-linecap="round" stroke-linejoin="round"/>
<path d="M13.416 100.328L20.9906 104.714V88.9324" stroke="#BCB7B8" stroke-width="0.522388" stroke-linecap="round" stroke-linejoin="round"/>
<path d="M55.5987 2.84765L45.2256 8.86401" stroke="#BCB7B8" stroke-width="0.522388" stroke-linecap="round" stroke-linejoin="round"/>
<path d="M64.4594 44.5503L56.8848 48.936" stroke="#BCB7B8" stroke-width="0.522388" stroke-linecap="round" stroke-linejoin="round"/>
<path d="M56.8848 57.6326L64.4594 62.0183V46.2558L56.8848 50.6416" stroke="#BCB7B8" stroke-width="0.522388" stroke-linecap="round" stroke-linejoin="round"/>
<path d="M22.5215 135.17V136.856" stroke="#BCB7B8" stroke-width="0.522388" stroke-linecap="round" stroke-linejoin="round"/>
<path d="M65.8595 8.80738L55.4863 14.8237" stroke="#BCB7B8" stroke-width="0.522388" stroke-linecap="round" stroke-linejoin="round"/>
<path d="M64.4594 62.0183L56.8848 66.4041" stroke="#BCB7B8" stroke-width="0.522388" stroke-linecap="round" stroke-linejoin="round"/>
<path d="M22.3916 51.4851L55.4886 32.2927" stroke="#BCB7B8" stroke-width="0.522388" stroke-linecap="round" stroke-linejoin="round"/>
<path d="M55.4863 14.8244V16.5112" stroke="#BCB7B8" stroke-width="0.522388" stroke-linecap="round" stroke-linejoin="round"/>
<path d="M64.4619 81.1914V63.7233" stroke="#BCB7B8" stroke-width="0.522388" stroke-linecap="round" stroke-linejoin="round"/>
<path d="M22.3916 40.2771L45.8245 26.6887" stroke="#BCB7B8" stroke-width="0.522388" stroke-linecap="round" stroke-linejoin="round"/>
<path d="M65.99 111.648V134.364L46.4004 123.006" stroke="#BCB7B8" stroke-width="0.522388" stroke-linecap="round" stroke-linejoin="round"/>
<path d="M56.8848 22.6958L64.4594 27.0815L56.8848 31.4673" stroke="#BCB7B8" stroke-width="0.522388" stroke-linecap="round" stroke-linejoin="round"/>
<path d="M64.4594 28.7868L56.8848 33.1726" stroke="#BCB7B8" stroke-width="0.522388" stroke-linecap="round" stroke-linejoin="round"/>
<path d="M13.416 47.9233L20.9906 52.3091V36.5278" stroke="#BCB7B8" stroke-width="0.522388" stroke-linecap="round" stroke-linejoin="round"/>
<path d="M55.4863 16.5105V32.2917" stroke="#BCB7B8" stroke-width="0.522388" stroke-linecap="round" stroke-linejoin="round"/>
<path d="M45.8232 22.1333V26.6877L55.4874 32.2917" stroke="#BCB7B8" stroke-width="0.522388" stroke-linecap="round" stroke-linejoin="round"/>
<path d="M104.35 27.6819V142.855" stroke="#BCB7B8" stroke-width="0.522388" stroke-linecap="round" stroke-linejoin="round"/>
<path d="M104.347 27.6819L57.0898 0.261493V3.71014" stroke="#BCB7B8" stroke-width="0.522388" stroke-linecap="round" stroke-linejoin="round"/>
<path d="M57.0901 0.261279L0.261719 33.2295L0.261719 148.384L47.5192 175.804" stroke="#BCB7B8" stroke-width="0.522388" stroke-linecap="round" stroke-linejoin="round"/>
<path d="M1.7356 147.541L0.261719 148.384" stroke="#BCB7B8" stroke-width="0.522388" stroke-linecap="round" stroke-linejoin="round"/>
<path d="M47.5215 175.804L49.014 174.942" stroke="#BCB7B8" stroke-width="0.522388" stroke-linecap="round" stroke-linejoin="round"/>
<path d="M76.3643 128.348L102.875 143.717L104.349 142.855L102.875 141.993" stroke="#BCB7B8" stroke-width="0.522388" stroke-linecap="round" stroke-linejoin="round"/>
<path d="M22.3916 123.062V111.835L22.3916 53.19L45.8245 39.6016L55.4886 33.9788" stroke="#BCB7B8" stroke-width="0.522388" stroke-linecap="round" stroke-linejoin="round"/>
<path d="M13.416 75.8506V84.5471" stroke="#BCB7B8" stroke-width="0.522388" stroke-linecap="round" stroke-linejoin="round"/>
<path d="M13.416 58.3814L13.416 65.3911V74.1626" stroke="#BCB7B8" stroke-width="0.522388" stroke-linecap="round" stroke-linejoin="round"/>
<path d="M56.8848 92.5686V101.34" stroke="#BCB7B8" stroke-width="0.522388" stroke-linecap="round" stroke-linejoin="round"/>
<path d="M56.8848 33.1735V40.1645V48.936" stroke="#BCB7B8" stroke-width="0.522388" stroke-linecap="round" stroke-linejoin="round"/>
<path d="M13.416 40.9136L13.416 47.9233V56.6948" stroke="#BCB7B8" stroke-width="0.522388" stroke-linecap="round" stroke-linejoin="round"/>
<path d="M13.416 110.786L13.416 117.796V126.567" stroke="#BCB7B8" stroke-width="0.522388" stroke-linecap="round" stroke-linejoin="round"/>
<path d="M32.8945 130.841L46.402 123.007L65.9916 111.649" stroke="#BCB7B8" stroke-width="0.522388" stroke-linecap="round" stroke-linejoin="round"/>
<path d="M13.416 100.328V109.1" stroke="#BCB7B8" stroke-width="0.522388" stroke-linecap="round" stroke-linejoin="round"/>
<path d="M22.3916 35.7219L45.8245 22.1336L55.4886 16.5108" stroke="#BCB7B8" stroke-width="0.522388" stroke-linecap="round" stroke-linejoin="round"/>
<path d="M56.8848 50.6416V57.6325V66.4041" stroke="#BCB7B8" stroke-width="0.522388" stroke-linecap="round" stroke-linejoin="round"/>
<path d="M56.8848 68.1094V76.8059" stroke="#BCB7B8" stroke-width="0.522388" stroke-linecap="round" stroke-linejoin="round"/>
<path d="M55.5967 2.84845L57.0892 3.71061L65.8579 8.80859" stroke="#BCB7B8" stroke-width="0.522388" stroke-linecap="round" stroke-linejoin="round"/>
<path d="M22.3916 34.0164L54.0334 15.6674" stroke="#BCB7B8" stroke-width="0.522388" stroke-linecap="round" stroke-linejoin="round"/>
<path d="M22.3916 51.4851V40.277V35.7226" stroke="#BCB7B8" stroke-width="0.522388" stroke-linecap="round" stroke-linejoin="round"/>
<path d="M56.8848 15.7048V22.6958V31.4673" stroke="#BCB7B8" stroke-width="0.522388" stroke-linecap="round" stroke-linejoin="round"/>
<path d="M102.874 143.717V141.993V30.2685L65.8594 8.80825" stroke="#BCB7B8" stroke-width="0.522388" stroke-linecap="round" stroke-linejoin="round"/>
<path d="M22.5215 159.573L49.014 174.942" stroke="#BCB7B8" stroke-width="0.522388" stroke-linecap="round" stroke-linejoin="round"/>
<path d="M54.0342 15.6675L55.4334 14.8615L55.4894 14.8241" stroke="#BCB7B8" stroke-width="0.522388" stroke-linecap="round" stroke-linejoin="round"/>
<path d="M45.225 8.86407L12.1279 28.0752" stroke="#BCB7B8" stroke-width="0.522388" stroke-linecap="round" stroke-linejoin="round"/>
<path d="M13.416 84.5466L13.416 100.328" stroke="#BCB7B8" stroke-width="0.522388" stroke-linecap="round" stroke-linejoin="round"/>
<path d="M56.8848 92.5684V76.8058" stroke="#BCB7B8" stroke-width="0.522388" stroke-linecap="round" stroke-linejoin="round"/>
<path d="M0.261719 33.2293L47.5192 60.6497L104.348 27.6815" stroke="#BCB7B8" stroke-width="0.522388" stroke-linecap="round" stroke-linejoin="round"/>
<path d="M47.5215 60.6499L47.5215 175.804" stroke="#BCB7B8" stroke-width="0.522388" stroke-linecap="round" stroke-linejoin="round"/>
<path d="M102.877 30.2678L49.0146 61.4929L49.0146 174.942" stroke="#BCB7B8" stroke-width="0.522388" stroke-linecap="round" stroke-linejoin="round"/>
<path d="M1.73535 34.0918L49.0115 61.4934" stroke="#BCB7B8" stroke-width="0.522388" stroke-linecap="round" stroke-linejoin="round"/>
</svg>
