<svg width="224" height="20" viewBox="0 0 224 20" fill="none" xmlns="http://www.w3.org/2000/svg">
<g clip-path="url(#clip0_14578_1346)">
<mask id="path-1-inside-1_14578_1346" fill="white">
<path d="M135.618 -20.8035C133.286 -20.8035 131.395 -22.6943 131.395 -25.0267C131.395 -27.3592 133.286 -29.25 135.618 -29.25C137.951 -29.25 139.841 -27.3592 139.841 -25.0267C139.841 -22.6943 137.951 -20.8035 135.618 -20.8035Z"/>
<path d="M126.233 -20.8035C123.901 -20.8035 122.01 -22.6943 122.01 -25.0267C122.01 -27.3592 123.901 -29.25 126.233 -29.25C128.566 -29.25 130.456 -27.3592 130.456 -25.0267C130.456 -22.6943 128.566 -20.8035 126.233 -20.8035Z"/>
<path d="M116.848 -20.8035C114.516 -20.8035 112.625 -22.6943 112.625 -25.0267C112.625 -27.3592 114.516 -29.25 116.848 -29.25C119.181 -29.25 121.071 -27.3592 121.071 -25.0267C121.071 -22.6943 119.181 -20.8035 116.848 -20.8035Z"/>
<path d="M79.308 -20.8035C76.9755 -20.8035 75.0847 -22.6943 75.0847 -25.0267C75.0847 -27.3592 76.9755 -29.25 79.308 -29.25C81.6404 -29.25 83.5312 -27.3592 83.5312 -25.0267C83.5312 -22.6943 81.6404 -20.8035 79.308 -20.8035Z"/>
<path d="M69.923 -20.8035C67.5905 -20.8035 65.6997 -22.6943 65.6997 -25.0267C65.6997 -27.3592 67.5905 -29.25 69.923 -29.25C72.2554 -29.25 74.1462 -27.3592 74.1462 -25.0267C74.1462 -22.6943 72.2554 -20.8035 69.923 -20.8035Z"/>
<path d="M60.5379 -20.8035C58.2055 -20.8035 56.3147 -22.6943 56.3147 -25.0267C56.3147 -27.3592 58.2055 -29.25 60.5379 -29.25C62.8704 -29.25 64.7612 -27.3592 64.7612 -25.0267C64.7612 -22.6943 62.8704 -20.8035 60.5379 -20.8035Z"/>
<path d="M51.1529 -20.8035C48.8205 -20.8035 46.9296 -22.6943 46.9296 -25.0267C46.9296 -27.3592 48.8205 -29.25 51.1529 -29.25C53.4853 -29.25 55.3762 -27.3592 55.3762 -25.0267C55.3762 -22.6943 53.4853 -20.8035 51.1529 -20.8035Z"/>
<path d="M41.7679 -20.8035C39.4354 -20.8035 37.5446 -22.6943 37.5446 -25.0267C37.5446 -27.3592 39.4354 -29.25 41.7679 -29.25C44.1003 -29.25 45.9911 -27.3592 45.9911 -25.0267C45.9911 -22.6943 44.1003 -20.8035 41.7679 -20.8035Z"/>
<path d="M32.3828 -20.8035C30.0504 -20.8035 28.1596 -22.6943 28.1596 -25.0267C28.1596 -27.3592 30.0504 -29.25 32.3828 -29.25C34.7153 -29.25 36.6061 -27.3592 36.6061 -25.0267C36.6061 -22.6943 34.7153 -20.8035 32.3828 -20.8035Z"/>
<path d="M22.9978 -20.8035C20.6654 -20.8035 18.7746 -22.6943 18.7746 -25.0267C18.7746 -27.3592 20.6654 -29.25 22.9978 -29.25C25.3303 -29.25 27.2211 -27.3592 27.2211 -25.0267C27.2211 -22.6943 25.3303 -20.8035 22.9978 -20.8035Z"/>
<path d="M13.6128 -20.8035C11.2803 -20.8035 9.38953 -22.6943 9.38953 -25.0267C9.38953 -27.3592 11.2803 -29.25 13.6128 -29.25C15.9452 -29.25 17.8361 -27.3592 17.8361 -25.0267C17.8361 -22.6943 15.9452 -20.8035 13.6128 -20.8035Z"/>
<path d="M4.22776 -20.8035C1.89532 -20.8035 0.00450265 -22.6943 0.00450265 -25.0267C0.00450265 -27.3592 1.89532 -29.25 4.22776 -29.25C6.56021 -29.25 8.45103 -27.3592 8.45103 -25.0267C8.45103 -22.6943 6.56021 -20.8035 4.22776 -20.8035Z"/>
<path d="M220.083 -10.7928C217.751 -10.7928 215.86 -12.6836 215.86 -15.016C215.86 -17.3485 217.751 -19.2393 220.083 -19.2393C222.416 -19.2393 224.307 -17.3485 224.307 -15.016C224.307 -12.6836 222.416 -10.7928 220.083 -10.7928Z"/>
<path d="M210.698 -10.7928C208.366 -10.7928 206.475 -12.6836 206.475 -15.016C206.475 -17.3485 208.366 -19.2393 210.698 -19.2393C213.031 -19.2393 214.922 -17.3485 214.922 -15.016C214.922 -12.6836 213.031 -10.7928 210.698 -10.7928Z"/>
<path d="M201.313 -10.7928C198.981 -10.7928 197.09 -12.6836 197.09 -15.016C197.09 -17.3485 198.981 -19.2393 201.313 -19.2393C203.646 -19.2393 205.537 -17.3485 205.537 -15.016C205.537 -12.6836 203.646 -10.7928 201.313 -10.7928Z"/>
<path d="M163.773 -10.7928C161.441 -10.7928 159.55 -12.6836 159.55 -15.016C159.55 -17.3485 161.441 -19.2393 163.773 -19.2393C166.106 -19.2393 167.996 -17.3485 167.996 -15.016C167.996 -12.6836 166.106 -10.7928 163.773 -10.7928Z"/>
<path d="M154.388 -10.7928C152.056 -10.7928 150.165 -12.6836 150.165 -15.016C150.165 -17.3485 152.056 -19.2393 154.388 -19.2393C156.721 -19.2393 158.611 -17.3485 158.611 -15.016C158.611 -12.6836 156.721 -10.7928 154.388 -10.7928Z"/>
<path d="M135.618 -10.7928C133.286 -10.7928 131.395 -12.6836 131.395 -15.016C131.395 -17.3485 133.286 -19.2393 135.618 -19.2393C137.951 -19.2393 139.841 -17.3485 139.841 -15.016C139.841 -12.6836 137.951 -10.7928 135.618 -10.7928Z"/>
<path d="M126.233 -10.7928C123.901 -10.7928 122.01 -12.6836 122.01 -15.016C122.01 -17.3485 123.901 -19.2393 126.233 -19.2393C128.566 -19.2393 130.456 -17.3485 130.456 -15.016C130.456 -12.6836 128.566 -10.7928 126.233 -10.7928Z"/>
<path d="M116.848 -10.7928C114.516 -10.7928 112.625 -12.6836 112.625 -15.016C112.625 -17.3485 114.516 -19.2393 116.848 -19.2393C119.181 -19.2393 121.071 -17.3485 121.071 -15.016C121.071 -12.6836 119.181 -10.7928 116.848 -10.7928Z"/>
<path d="M107.463 -10.7928C105.131 -10.7928 103.24 -12.6836 103.24 -15.016C103.24 -17.3485 105.131 -19.2393 107.463 -19.2393C109.796 -19.2393 111.686 -17.3485 111.686 -15.016C111.686 -12.6836 109.796 -10.7928 107.463 -10.7928Z"/>
<path d="M88.693 -10.7928C86.3606 -10.7928 84.4697 -12.6836 84.4697 -15.016C84.4697 -17.3485 86.3606 -19.2393 88.693 -19.2393C91.0254 -19.2393 92.9163 -17.3485 92.9163 -15.016C92.9163 -12.6836 91.0254 -10.7928 88.693 -10.7928Z"/>
<path d="M79.308 -10.7928C76.9755 -10.7928 75.0847 -12.6836 75.0847 -15.016C75.0847 -17.3485 76.9755 -19.2393 79.308 -19.2393C81.6404 -19.2393 83.5312 -17.3485 83.5312 -15.016C83.5312 -12.6836 81.6404 -10.7928 79.308 -10.7928Z"/>
<path d="M69.923 -10.7928C67.5905 -10.7928 65.6997 -12.6836 65.6997 -15.016C65.6997 -17.3485 67.5905 -19.2393 69.923 -19.2393C72.2554 -19.2393 74.1462 -17.3485 74.1462 -15.016C74.1462 -12.6836 72.2554 -10.7928 69.923 -10.7928Z"/>
<path d="M60.5379 -10.7928C58.2055 -10.7928 56.3147 -12.6836 56.3147 -15.016C56.3147 -17.3485 58.2055 -19.2393 60.5379 -19.2393C62.8704 -19.2393 64.7612 -17.3485 64.7612 -15.016C64.7612 -12.6836 62.8704 -10.7928 60.5379 -10.7928Z"/>
<path d="M51.1529 -10.7928C48.8205 -10.7928 46.9296 -12.6836 46.9296 -15.016C46.9296 -17.3485 48.8205 -19.2393 51.1529 -19.2393C53.4853 -19.2393 55.3762 -17.3485 55.3762 -15.016C55.3762 -12.6836 53.4853 -10.7928 51.1529 -10.7928Z"/>
<path d="M41.7679 -10.7928C39.4354 -10.7928 37.5446 -12.6836 37.5446 -15.016C37.5446 -17.3485 39.4354 -19.2393 41.7679 -19.2393C44.1003 -19.2393 45.9911 -17.3485 45.9911 -15.016C45.9911 -12.6836 44.1003 -10.7928 41.7679 -10.7928Z"/>
<path d="M32.3828 -10.7928C30.0504 -10.7928 28.1596 -12.6836 28.1596 -15.016C28.1596 -17.3485 30.0504 -19.2393 32.3828 -19.2393C34.7153 -19.2393 36.6061 -17.3485 36.6061 -15.016C36.6061 -12.6836 34.7153 -10.7928 32.3828 -10.7928Z"/>
<path d="M22.9978 -10.7928C20.6654 -10.7928 18.7746 -12.6836 18.7746 -15.016C18.7746 -17.3485 20.6654 -19.2393 22.9978 -19.2393C25.3303 -19.2393 27.2211 -17.3485 27.2211 -15.016C27.2211 -12.6836 25.3303 -10.7928 22.9978 -10.7928Z"/>
<path d="M13.6128 -10.7928C11.2803 -10.7928 9.38953 -12.6836 9.38953 -15.016C9.38953 -17.3485 11.2803 -19.2393 13.6128 -19.2393C15.9452 -19.2393 17.8361 -17.3485 17.8361 -15.016C17.8361 -12.6836 15.9452 -10.7928 13.6128 -10.7928Z"/>
<path d="M4.22776 -10.7928C1.89532 -10.7928 0.00450265 -12.6836 0.00450265 -15.016C0.00450265 -17.3485 1.89532 -19.2393 4.22776 -19.2393C6.56021 -19.2393 8.45103 -17.3485 8.45103 -15.016C8.45103 -12.6836 6.56021 -10.7928 4.22776 -10.7928Z"/>
<path d="M220.083 -0.782089C217.751 -0.782089 215.86 -2.67291 215.86 -5.00535C215.86 -7.33779 217.751 -9.22861 220.083 -9.22861C222.416 -9.22861 224.307 -7.33779 224.307 -5.00535C224.307 -2.67291 222.416 -0.782089 220.083 -0.782089Z"/>
<path d="M210.698 -0.782089C208.366 -0.782089 206.475 -2.67291 206.475 -5.00535C206.475 -7.33779 208.366 -9.22861 210.698 -9.22861C213.031 -9.22861 214.922 -7.33779 214.922 -5.00535C214.922 -2.67291 213.031 -0.782089 210.698 -0.782089Z"/>
<path d="M201.313 -0.782089C198.981 -0.782089 197.09 -2.67291 197.09 -5.00535C197.09 -7.33779 198.981 -9.22861 201.313 -9.22861C203.646 -9.22861 205.537 -7.33779 205.537 -5.00535C205.537 -2.67291 203.646 -0.782089 201.313 -0.782089Z"/>
<path d="M173.158 -0.782089C170.826 -0.782089 168.935 -2.67291 168.935 -5.00535C168.935 -7.33779 170.826 -9.22861 173.158 -9.22861C175.491 -9.22861 177.382 -7.33779 177.382 -5.00535C177.382 -2.67291 175.491 -0.782089 173.158 -0.782089Z"/>
<path d="M163.773 -0.782089C161.441 -0.782089 159.55 -2.67291 159.55 -5.00535C159.55 -7.33779 161.441 -9.22861 163.773 -9.22861C166.106 -9.22861 167.996 -7.33779 167.996 -5.00535C167.996 -2.67291 166.106 -0.782089 163.773 -0.782089Z"/>
<path d="M154.388 -0.782089C152.056 -0.782089 150.165 -2.67291 150.165 -5.00535C150.165 -7.33779 152.056 -9.22861 154.388 -9.22861C156.721 -9.22861 158.611 -7.33779 158.611 -5.00535C158.611 -2.67291 156.721 -0.782089 154.388 -0.782089Z"/>
<path d="M145.003 -0.782089C142.671 -0.782089 140.78 -2.67291 140.78 -5.00535C140.78 -7.33779 142.671 -9.22861 145.003 -9.22861C147.336 -9.22861 149.226 -7.33779 149.226 -5.00535C149.226 -2.67291 147.336 -0.782089 145.003 -0.782089Z"/>
<path d="M135.618 -0.782089C133.286 -0.782089 131.395 -2.67291 131.395 -5.00535C131.395 -7.33779 133.286 -9.22861 135.618 -9.22861C137.951 -9.22861 139.841 -7.33779 139.841 -5.00535C139.841 -2.67291 137.951 -0.782089 135.618 -0.782089Z"/>
<path d="M126.233 -0.782089C123.901 -0.782089 122.01 -2.67291 122.01 -5.00535C122.01 -7.33779 123.901 -9.22861 126.233 -9.22861C128.566 -9.22861 130.456 -7.33779 130.456 -5.00535C130.456 -2.67291 128.566 -0.782089 126.233 -0.782089Z"/>
<path d="M116.848 -0.782089C114.516 -0.782089 112.625 -2.67291 112.625 -5.00535C112.625 -7.33779 114.516 -9.22861 116.848 -9.22861C119.181 -9.22861 121.071 -7.33779 121.071 -5.00535C121.071 -2.67291 119.181 -0.782089 116.848 -0.782089Z"/>
<path d="M107.463 -0.782089C105.131 -0.782089 103.24 -2.67291 103.24 -5.00535C103.24 -7.33779 105.131 -9.22861 107.463 -9.22861C109.796 -9.22861 111.686 -7.33779 111.686 -5.00535C111.686 -2.67291 109.796 -0.782089 107.463 -0.782089Z"/>
<path d="M98.078 -0.782089C95.7456 -0.782089 93.8548 -2.67291 93.8548 -5.00535C93.8548 -7.33779 95.7456 -9.22861 98.078 -9.22861C100.41 -9.22861 102.301 -7.33779 102.301 -5.00535C102.301 -2.67291 100.41 -0.782089 98.078 -0.782089Z"/>
<path d="M88.693 -0.782089C86.3606 -0.782089 84.4697 -2.67291 84.4697 -5.00535C84.4697 -7.33779 86.3606 -9.22861 88.693 -9.22861C91.0254 -9.22861 92.9163 -7.33779 92.9163 -5.00535C92.9163 -2.67291 91.0254 -0.782089 88.693 -0.782089Z"/>
<path d="M79.308 -0.782089C76.9755 -0.782089 75.0847 -2.67291 75.0847 -5.00535C75.0847 -7.33779 76.9755 -9.22861 79.308 -9.22861C81.6404 -9.22861 83.5312 -7.33779 83.5312 -5.00535C83.5312 -2.67291 81.6404 -0.782089 79.308 -0.782089Z"/>
<path d="M69.923 -0.782089C67.5905 -0.782089 65.6997 -2.67291 65.6997 -5.00535C65.6997 -7.33779 67.5905 -9.22861 69.923 -9.22861C72.2554 -9.22861 74.1462 -7.33779 74.1462 -5.00535C74.1462 -2.67291 72.2554 -0.782089 69.923 -0.782089Z"/>
<path d="M60.5379 -0.782089C58.2055 -0.782089 56.3147 -2.67291 56.3147 -5.00535C56.3147 -7.33779 58.2055 -9.22861 60.5379 -9.22861C62.8704 -9.22861 64.7612 -7.33779 64.7612 -5.00535C64.7612 -2.67291 62.8704 -0.782089 60.5379 -0.782089Z"/>
<path d="M51.1529 -0.782089C48.8205 -0.782089 46.9296 -2.67291 46.9296 -5.00535C46.9296 -7.33779 48.8205 -9.22861 51.1529 -9.22861C53.4853 -9.22861 55.3762 -7.33779 55.3762 -5.00535C55.3762 -2.67291 53.4853 -0.782089 51.1529 -0.782089Z"/>
<path d="M41.7679 -0.782089C39.4354 -0.782089 37.5446 -2.67291 37.5446 -5.00535C37.5446 -7.33779 39.4354 -9.22861 41.7679 -9.22861C44.1003 -9.22861 45.9911 -7.33779 45.9911 -5.00535C45.9911 -2.67291 44.1003 -0.782089 41.7679 -0.782089Z"/>
<path d="M32.3828 -0.782089C30.0504 -0.782089 28.1596 -2.67291 28.1596 -5.00535C28.1596 -7.33779 30.0504 -9.22861 32.3828 -9.22861C34.7153 -9.22861 36.6061 -7.33779 36.6061 -5.00535C36.6061 -2.67291 34.7153 -0.782089 32.3828 -0.782089Z"/>
<path d="M22.9978 -0.782089C20.6654 -0.782089 18.7746 -2.67291 18.7746 -5.00535C18.7746 -7.33779 20.6654 -9.22861 22.9978 -9.22861C25.3303 -9.22861 27.2211 -7.33779 27.2211 -5.00535C27.2211 -2.67291 25.3303 -0.782089 22.9978 -0.782089Z"/>
<path d="M13.6128 -0.782089C11.2803 -0.782089 9.38953 -2.67291 9.38953 -5.00535C9.38953 -7.33779 11.2803 -9.22861 13.6128 -9.22861C15.9452 -9.22861 17.8361 -7.33779 17.8361 -5.00535C17.8361 -2.67291 15.9452 -0.782089 13.6128 -0.782089Z"/>
<path d="M4.22776 -0.782089C1.89532 -0.782089 0.00450265 -2.67291 0.00450265 -5.00535C0.00450265 -7.33779 1.89532 -9.22861 4.22776 -9.22861C6.56021 -9.22861 8.45103 -7.33779 8.45103 -5.00535C8.45103 -2.67291 6.56021 -0.782089 4.22776 -0.782089Z"/>
<path d="M220.083 9.22861C217.751 9.22861 215.86 7.33779 215.86 5.00535C215.86 2.6729 217.751 0.782082 220.083 0.782082C222.416 0.782082 224.307 2.6729 224.307 5.00535C224.307 7.33779 222.416 9.22861 220.083 9.22861Z"/>
<path d="M210.698 9.22861C208.366 9.22861 206.475 7.33779 206.475 5.00535C206.475 2.6729 208.366 0.782082 210.698 0.782082C213.031 0.782082 214.922 2.6729 214.922 5.00535C214.922 7.33779 213.031 9.22861 210.698 9.22861Z"/>
<path d="M201.313 9.22861C198.981 9.22861 197.09 7.33779 197.09 5.00535C197.09 2.6729 198.981 0.782082 201.313 0.782082C203.646 0.782082 205.537 2.6729 205.537 5.00535C205.537 7.33779 203.646 9.22861 201.313 9.22861Z"/>
<path d="M191.928 9.22861C189.596 9.22861 187.705 7.33779 187.705 5.00535C187.705 2.6729 189.596 0.782082 191.928 0.782082C194.261 0.782082 196.152 2.6729 196.152 5.00535C196.152 7.33779 194.261 9.22861 191.928 9.22861Z"/>
<path d="M154.388 9.22861C152.056 9.22861 150.165 7.33779 150.165 5.00535C150.165 2.6729 152.056 0.782082 154.388 0.782082C156.721 0.782082 158.611 2.6729 158.611 5.00535C158.611 7.33779 156.721 9.22861 154.388 9.22861Z"/>
<path d="M145.003 9.22861C142.671 9.22861 140.78 7.33779 140.78 5.00535C140.78 2.6729 142.671 0.782082 145.003 0.782082C147.336 0.782082 149.226 2.6729 149.226 5.00535C149.226 7.33779 147.336 9.22861 145.003 9.22861Z"/>
<path d="M135.618 9.22861C133.286 9.22861 131.395 7.33779 131.395 5.00535C131.395 2.6729 133.286 0.782082 135.618 0.782082C137.951 0.782082 139.841 2.6729 139.841 5.00535C139.841 7.33779 137.951 9.22861 135.618 9.22861Z"/>
<path d="M126.233 9.22861C123.901 9.22861 122.01 7.33779 122.01 5.00535C122.01 2.6729 123.901 0.782082 126.233 0.782082C128.566 0.782082 130.456 2.6729 130.456 5.00535C130.456 7.33779 128.566 9.22861 126.233 9.22861Z"/>
<path d="M116.848 9.22861C114.516 9.22861 112.625 7.33779 112.625 5.00535C112.625 2.6729 114.516 0.782082 116.848 0.782082C119.181 0.782082 121.071 2.6729 121.071 5.00535C121.071 7.33779 119.181 9.22861 116.848 9.22861Z"/>
<path d="M107.463 9.22861C105.131 9.22861 103.24 7.33779 103.24 5.00535C103.24 2.6729 105.131 0.782082 107.463 0.782082C109.796 0.782082 111.686 2.6729 111.686 5.00535C111.686 7.33779 109.796 9.22861 107.463 9.22861Z"/>
<path d="M98.078 9.22861C95.7456 9.22861 93.8548 7.33779 93.8548 5.00535C93.8548 2.6729 95.7456 0.782082 98.078 0.782082C100.41 0.782082 102.301 2.6729 102.301 5.00535C102.301 7.33779 100.41 9.22861 98.078 9.22861Z"/>
<path d="M79.308 9.22861C76.9755 9.22861 75.0847 7.33779 75.0847 5.00535C75.0847 2.6729 76.9755 0.782082 79.308 0.782082C81.6404 0.782082 83.5312 2.6729 83.5312 5.00535C83.5312 7.33779 81.6404 9.22861 79.308 9.22861Z"/>
<path d="M69.923 9.22861C67.5905 9.22861 65.6997 7.33779 65.6997 5.00535C65.6997 2.6729 67.5905 0.782082 69.923 0.782082C72.2554 0.782082 74.1462 2.6729 74.1462 5.00535C74.1462 7.33779 72.2554 9.22861 69.923 9.22861Z"/>
<path d="M60.5379 9.22861C58.2055 9.22861 56.3147 7.33779 56.3147 5.00535C56.3147 2.6729 58.2055 0.782082 60.5379 0.782082C62.8704 0.782082 64.7612 2.6729 64.7612 5.00535C64.7612 7.33779 62.8704 9.22861 60.5379 9.22861Z"/>
<path d="M51.1529 9.22861C48.8205 9.22861 46.9296 7.33779 46.9296 5.00535C46.9296 2.6729 48.8205 0.782082 51.1529 0.782082C53.4853 0.782082 55.3762 2.6729 55.3762 5.00535C55.3762 7.33779 53.4853 9.22861 51.1529 9.22861Z"/>
<path d="M41.7679 9.22861C39.4354 9.22861 37.5446 7.33779 37.5446 5.00535C37.5446 2.6729 39.4354 0.782082 41.7679 0.782082C44.1003 0.782082 45.9911 2.6729 45.9911 5.00535C45.9911 7.33779 44.1003 9.22861 41.7679 9.22861Z"/>
<path d="M32.3828 9.22861C30.0504 9.22861 28.1596 7.33779 28.1596 5.00535C28.1596 2.6729 30.0504 0.782082 32.3828 0.782082C34.7153 0.782082 36.6061 2.6729 36.6061 5.00535C36.6061 7.33779 34.7153 9.22861 32.3828 9.22861Z"/>
<path d="M22.9978 9.22861C20.6654 9.22861 18.7746 7.33779 18.7746 5.00535C18.7746 2.6729 20.6654 0.782082 22.9978 0.782082C25.3303 0.782082 27.2211 2.6729 27.2211 5.00535C27.2211 7.33779 25.3303 9.22861 22.9978 9.22861Z"/>
<path d="M13.6128 9.22861C11.2803 9.22861 9.38953 7.33779 9.38953 5.00535C9.38953 2.6729 11.2803 0.782082 13.6128 0.782082C15.9452 0.782082 17.8361 2.6729 17.8361 5.00535C17.8361 7.33779 15.9452 9.22861 13.6128 9.22861Z"/>
<path d="M220.083 19.2393C217.751 19.2393 215.86 17.3485 215.86 15.016C215.86 12.6836 217.751 10.7928 220.083 10.7928C222.416 10.7928 224.307 12.6836 224.307 15.016C224.307 17.3485 222.416 19.2393 220.083 19.2393Z"/>
<path d="M210.698 19.2393C208.366 19.2393 206.475 17.3485 206.475 15.016C206.475 12.6836 208.366 10.7928 210.698 10.7928C213.031 10.7928 214.922 12.6836 214.922 15.016C214.922 17.3485 213.031 19.2393 210.698 19.2393Z"/>
<path d="M201.313 19.2393C198.981 19.2393 197.09 17.3485 197.09 15.016C197.09 12.6836 198.981 10.7928 201.313 10.7928C203.646 10.7928 205.537 12.6836 205.537 15.016C205.537 17.3485 203.646 19.2393 201.313 19.2393Z"/>
<path d="M191.928 19.2393C189.596 19.2393 187.705 17.3485 187.705 15.016C187.705 12.6836 189.596 10.7928 191.928 10.7928C194.261 10.7928 196.152 12.6836 196.152 15.016C196.152 17.3485 194.261 19.2393 191.928 19.2393Z"/>
<path d="M163.773 19.2393C161.441 19.2393 159.55 17.3485 159.55 15.016C159.55 12.6836 161.441 10.7928 163.773 10.7928C166.106 10.7928 167.996 12.6836 167.996 15.016C167.996 17.3485 166.106 19.2393 163.773 19.2393Z"/>
<path d="M154.388 19.2393C152.056 19.2393 150.165 17.3485 150.165 15.016C150.165 12.6836 152.056 10.7928 154.388 10.7928C156.721 10.7928 158.611 12.6836 158.611 15.016C158.611 17.3485 156.721 19.2393 154.388 19.2393Z"/>
<path d="M145.003 19.2393C142.671 19.2393 140.78 17.3485 140.78 15.016C140.78 12.6836 142.671 10.7928 145.003 10.7928C147.336 10.7928 149.226 12.6836 149.226 15.016C149.226 17.3485 147.336 19.2393 145.003 19.2393Z"/>
<path d="M135.618 19.2393C133.286 19.2393 131.395 17.3485 131.395 15.016C131.395 12.6836 133.286 10.7928 135.618 10.7928C137.951 10.7928 139.841 12.6836 139.841 15.016C139.841 17.3485 137.951 19.2393 135.618 19.2393Z"/>
<path d="M126.233 19.2393C123.901 19.2393 122.01 17.3485 122.01 15.016C122.01 12.6836 123.901 10.7928 126.233 10.7928C128.566 10.7928 130.456 12.6836 130.456 15.016C130.456 17.3485 128.566 19.2393 126.233 19.2393Z"/>
<path d="M116.848 19.2393C114.516 19.2393 112.625 17.3485 112.625 15.016C112.625 12.6836 114.516 10.7928 116.848 10.7928C119.181 10.7928 121.071 12.6836 121.071 15.016C121.071 17.3485 119.181 19.2393 116.848 19.2393Z"/>
<path d="M98.078 19.2393C95.7456 19.2393 93.8548 17.3485 93.8548 15.016C93.8548 12.6836 95.7456 10.7928 98.078 10.7928C100.41 10.7928 102.301 12.6836 102.301 15.016C102.301 17.3485 100.41 19.2393 98.078 19.2393Z"/>
<path d="M88.693 19.2393C86.3606 19.2393 84.4697 17.3485 84.4697 15.016C84.4697 12.6836 86.3606 10.7928 88.693 10.7928C91.0254 10.7928 92.9163 12.6836 92.9163 15.016C92.9163 17.3485 91.0254 19.2393 88.693 19.2393Z"/>
<path d="M79.308 19.2393C76.9755 19.2393 75.0847 17.3485 75.0847 15.016C75.0847 12.6836 76.9755 10.7928 79.308 10.7928C81.6404 10.7928 83.5312 12.6836 83.5312 15.016C83.5312 17.3485 81.6404 19.2393 79.308 19.2393Z"/>
<path d="M69.923 19.2393C67.5905 19.2393 65.6997 17.3485 65.6997 15.016C65.6997 12.6836 67.5905 10.7928 69.923 10.7928C72.2554 10.7928 74.1462 12.6836 74.1462 15.016C74.1462 17.3485 72.2554 19.2393 69.923 19.2393Z"/>
<path d="M60.5379 19.2393C58.2055 19.2393 56.3147 17.3485 56.3147 15.016C56.3147 12.6836 58.2055 10.7928 60.5379 10.7928C62.8704 10.7928 64.7612 12.6836 64.7612 15.016C64.7612 17.3485 62.8704 19.2393 60.5379 19.2393Z"/>
<path d="M51.1529 19.2393C48.8205 19.2393 46.9296 17.3485 46.9296 15.016C46.9296 12.6836 48.8205 10.7928 51.1529 10.7928C53.4853 10.7928 55.3762 12.6836 55.3762 15.016C55.3762 17.3485 53.4853 19.2393 51.1529 19.2393Z"/>
<path d="M41.7679 19.2393C39.4354 19.2393 37.5446 17.3485 37.5446 15.016C37.5446 12.6836 39.4354 10.7928 41.7679 10.7928C44.1003 10.7928 45.9911 12.6836 45.9911 15.016C45.9911 17.3485 44.1003 19.2393 41.7679 19.2393Z"/>
<path d="M32.3828 19.2393C30.0504 19.2393 28.1596 17.3485 28.1596 15.016C28.1596 12.6836 30.0504 10.7928 32.3828 10.7928C34.7153 10.7928 36.6061 12.6836 36.6061 15.016C36.6061 17.3485 34.7153 19.2393 32.3828 19.2393Z"/>
<path d="M220.083 29.25C217.751 29.25 215.86 27.3592 215.86 25.0267C215.86 22.6943 217.751 20.8035 220.083 20.8035C222.416 20.8035 224.307 22.6943 224.307 25.0267C224.307 27.3592 222.416 29.25 220.083 29.25Z"/>
<path d="M182.543 29.25C180.211 29.25 178.32 27.3592 178.32 25.0267C178.32 22.6943 180.211 20.8035 182.543 20.8035C184.876 20.8035 186.767 22.6943 186.767 25.0267C186.767 27.3592 184.876 29.25 182.543 29.25Z"/>
<path d="M173.158 29.25C170.826 29.25 168.935 27.3592 168.935 25.0267C168.935 22.6943 170.826 20.8035 173.158 20.8035C175.491 20.8035 177.382 22.6943 177.382 25.0267C177.382 27.3592 175.491 29.25 173.158 29.25Z"/>
<path d="M163.773 29.25C161.441 29.25 159.55 27.3592 159.55 25.0267C159.55 22.6943 161.441 20.8035 163.773 20.8035C166.106 20.8035 167.996 22.6943 167.996 25.0267C167.996 27.3592 166.106 29.25 163.773 29.25Z"/>
<path d="M154.388 29.25C152.056 29.25 150.165 27.3592 150.165 25.0267C150.165 22.6943 152.056 20.8035 154.388 20.8035C156.721 20.8035 158.611 22.6943 158.611 25.0267C158.611 27.3592 156.721 29.25 154.388 29.25Z"/>
<path d="M145.003 29.25C142.671 29.25 140.78 27.3592 140.78 25.0267C140.78 22.6943 142.671 20.8035 145.003 20.8035C147.336 20.8035 149.226 22.6943 149.226 25.0267C149.226 27.3592 147.336 29.25 145.003 29.25Z"/>
<path d="M135.618 29.25C133.286 29.25 131.395 27.3592 131.395 25.0267C131.395 22.6943 133.286 20.8035 135.618 20.8035C137.951 20.8035 139.841 22.6943 139.841 25.0267C139.841 27.3592 137.951 29.25 135.618 29.25Z"/>
<path d="M126.233 29.25C123.901 29.25 122.01 27.3592 122.01 25.0267C122.01 22.6943 123.901 20.8035 126.233 20.8035C128.566 20.8035 130.456 22.6943 130.456 25.0267C130.456 27.3592 128.566 29.25 126.233 29.25Z"/>
<path d="M116.848 29.25C114.516 29.25 112.625 27.3592 112.625 25.0267C112.625 22.6943 114.516 20.8035 116.848 20.8035C119.181 20.8035 121.071 22.6943 121.071 25.0267C121.071 27.3592 119.181 29.25 116.848 29.25Z"/>
<path d="M88.693 29.25C86.3606 29.25 84.4697 27.3592 84.4697 25.0267C84.4697 22.6943 86.3606 20.8035 88.693 20.8035C91.0254 20.8035 92.9163 22.6943 92.9163 25.0267C92.9163 27.3592 91.0254 29.25 88.693 29.25Z"/>
<path d="M79.308 29.25C76.9755 29.25 75.0847 27.3592 75.0847 25.0267C75.0847 22.6943 76.9755 20.8035 79.308 20.8035C81.6404 20.8035 83.5312 22.6943 83.5312 25.0267C83.5312 27.3592 81.6404 29.25 79.308 29.25Z"/>
<path d="M69.923 29.25C67.5905 29.25 65.6997 27.3592 65.6997 25.0267C65.6997 22.6943 67.5905 20.8035 69.923 20.8035C72.2554 20.8035 74.1462 22.6943 74.1462 25.0267C74.1462 27.3592 72.2554 29.25 69.923 29.25Z"/>
<path d="M60.5379 29.25C58.2055 29.25 56.3147 27.3592 56.3147 25.0267C56.3147 22.6943 58.2055 20.8035 60.5379 20.8035C62.8704 20.8035 64.7612 22.6943 64.7612 25.0267C64.7612 27.3592 62.8704 29.25 60.5379 29.25Z"/>
<path d="M51.1529 29.25C48.8205 29.25 46.9296 27.3592 46.9296 25.0267C46.9296 22.6943 48.8205 20.8035 51.1529 20.8035C53.4853 20.8035 55.3762 22.6943 55.3762 25.0267C55.3762 27.3592 53.4853 29.25 51.1529 29.25Z"/>
<path d="M41.7679 29.25C39.4354 29.25 37.5446 27.3592 37.5446 25.0267C37.5446 22.6943 39.4354 20.8035 41.7679 20.8035C44.1003 20.8035 45.9911 22.6943 45.9911 25.0267C45.9911 27.3592 44.1003 29.25 41.7679 29.25Z"/>
<path d="M32.3828 29.25C30.0504 29.25 28.1596 27.3592 28.1596 25.0267C28.1596 22.6943 30.0504 20.8035 32.3828 20.8035C34.7153 20.8035 36.6061 22.6943 36.6061 25.0267C36.6061 27.3592 34.7153 29.25 32.3828 29.25Z"/>
<path d="M22.9978 29.25C20.6654 29.25 18.7746 27.3592 18.7746 25.0267C18.7746 22.6943 20.6654 20.8035 22.9978 20.8035C25.3303 20.8035 27.2211 22.6943 27.2211 25.0267C27.2211 27.3592 25.3303 29.25 22.9978 29.25Z"/>
<path d="M13.6128 29.25C11.2803 29.25 9.38953 27.3592 9.38953 25.0267C9.38953 22.6943 11.2803 20.8035 13.6128 20.8035C15.9452 20.8035 17.8361 22.6943 17.8361 25.0267C17.8361 27.3592 15.9452 29.25 13.6128 29.25Z"/>
<path d="M4.22776 29.25C1.89532 29.25 0.00450265 27.3592 0.00450265 25.0267C0.00450265 22.6943 1.89532 20.8035 4.22776 20.8035C6.56021 20.8035 8.45103 22.6943 8.45103 25.0267C8.45103 27.3592 6.56021 29.25 4.22776 29.25Z"/>
</mask>
<path d="M135.618 -20.8035C133.286 -20.8035 131.395 -22.6943 131.395 -25.0267C131.395 -27.3592 133.286 -29.25 135.618 -29.25C137.951 -29.25 139.841 -27.3592 139.841 -25.0267C139.841 -22.6943 137.951 -20.8035 135.618 -20.8035Z" fill="#392D2B"/>
<path d="M126.233 -20.8035C123.901 -20.8035 122.01 -22.6943 122.01 -25.0267C122.01 -27.3592 123.901 -29.25 126.233 -29.25C128.566 -29.25 130.456 -27.3592 130.456 -25.0267C130.456 -22.6943 128.566 -20.8035 126.233 -20.8035Z" fill="#392D2B"/>
<path d="M116.848 -20.8035C114.516 -20.8035 112.625 -22.6943 112.625 -25.0267C112.625 -27.3592 114.516 -29.25 116.848 -29.25C119.181 -29.25 121.071 -27.3592 121.071 -25.0267C121.071 -22.6943 119.181 -20.8035 116.848 -20.8035Z" fill="#392D2B"/>
<path d="M79.308 -20.8035C76.9755 -20.8035 75.0847 -22.6943 75.0847 -25.0267C75.0847 -27.3592 76.9755 -29.25 79.308 -29.25C81.6404 -29.25 83.5312 -27.3592 83.5312 -25.0267C83.5312 -22.6943 81.6404 -20.8035 79.308 -20.8035Z" fill="#392D2B"/>
<path d="M69.923 -20.8035C67.5905 -20.8035 65.6997 -22.6943 65.6997 -25.0267C65.6997 -27.3592 67.5905 -29.25 69.923 -29.25C72.2554 -29.25 74.1462 -27.3592 74.1462 -25.0267C74.1462 -22.6943 72.2554 -20.8035 69.923 -20.8035Z" fill="#392D2B"/>
<path d="M60.5379 -20.8035C58.2055 -20.8035 56.3147 -22.6943 56.3147 -25.0267C56.3147 -27.3592 58.2055 -29.25 60.5379 -29.25C62.8704 -29.25 64.7612 -27.3592 64.7612 -25.0267C64.7612 -22.6943 62.8704 -20.8035 60.5379 -20.8035Z" fill="#392D2B"/>
<path d="M51.1529 -20.8035C48.8205 -20.8035 46.9296 -22.6943 46.9296 -25.0267C46.9296 -27.3592 48.8205 -29.25 51.1529 -29.25C53.4853 -29.25 55.3762 -27.3592 55.3762 -25.0267C55.3762 -22.6943 53.4853 -20.8035 51.1529 -20.8035Z" fill="#392D2B"/>
<path d="M41.7679 -20.8035C39.4354 -20.8035 37.5446 -22.6943 37.5446 -25.0267C37.5446 -27.3592 39.4354 -29.25 41.7679 -29.25C44.1003 -29.25 45.9911 -27.3592 45.9911 -25.0267C45.9911 -22.6943 44.1003 -20.8035 41.7679 -20.8035Z" fill="#392D2B"/>
<path d="M32.3828 -20.8035C30.0504 -20.8035 28.1596 -22.6943 28.1596 -25.0267C28.1596 -27.3592 30.0504 -29.25 32.3828 -29.25C34.7153 -29.25 36.6061 -27.3592 36.6061 -25.0267C36.6061 -22.6943 34.7153 -20.8035 32.3828 -20.8035Z" fill="#392D2B"/>
<path d="M22.9978 -20.8035C20.6654 -20.8035 18.7746 -22.6943 18.7746 -25.0267C18.7746 -27.3592 20.6654 -29.25 22.9978 -29.25C25.3303 -29.25 27.2211 -27.3592 27.2211 -25.0267C27.2211 -22.6943 25.3303 -20.8035 22.9978 -20.8035Z" fill="#392D2B"/>
<path d="M13.6128 -20.8035C11.2803 -20.8035 9.38953 -22.6943 9.38953 -25.0267C9.38953 -27.3592 11.2803 -29.25 13.6128 -29.25C15.9452 -29.25 17.8361 -27.3592 17.8361 -25.0267C17.8361 -22.6943 15.9452 -20.8035 13.6128 -20.8035Z" fill="#392D2B"/>
<path d="M4.22776 -20.8035C1.89532 -20.8035 0.00450265 -22.6943 0.00450265 -25.0267C0.00450265 -27.3592 1.89532 -29.25 4.22776 -29.25C6.56021 -29.25 8.45103 -27.3592 8.45103 -25.0267C8.45103 -22.6943 6.56021 -20.8035 4.22776 -20.8035Z" fill="#392D2B"/>
<path d="M220.083 -10.7928C217.751 -10.7928 215.86 -12.6836 215.86 -15.016C215.86 -17.3485 217.751 -19.2393 220.083 -19.2393C222.416 -19.2393 224.307 -17.3485 224.307 -15.016C224.307 -12.6836 222.416 -10.7928 220.083 -10.7928Z" fill="#392D2B"/>
<path d="M210.698 -10.7928C208.366 -10.7928 206.475 -12.6836 206.475 -15.016C206.475 -17.3485 208.366 -19.2393 210.698 -19.2393C213.031 -19.2393 214.922 -17.3485 214.922 -15.016C214.922 -12.6836 213.031 -10.7928 210.698 -10.7928Z" fill="#392D2B"/>
<path d="M201.313 -10.7928C198.981 -10.7928 197.09 -12.6836 197.09 -15.016C197.09 -17.3485 198.981 -19.2393 201.313 -19.2393C203.646 -19.2393 205.537 -17.3485 205.537 -15.016C205.537 -12.6836 203.646 -10.7928 201.313 -10.7928Z" fill="#392D2B"/>
<path d="M163.773 -10.7928C161.441 -10.7928 159.55 -12.6836 159.55 -15.016C159.55 -17.3485 161.441 -19.2393 163.773 -19.2393C166.106 -19.2393 167.996 -17.3485 167.996 -15.016C167.996 -12.6836 166.106 -10.7928 163.773 -10.7928Z" fill="#392D2B"/>
<path d="M154.388 -10.7928C152.056 -10.7928 150.165 -12.6836 150.165 -15.016C150.165 -17.3485 152.056 -19.2393 154.388 -19.2393C156.721 -19.2393 158.611 -17.3485 158.611 -15.016C158.611 -12.6836 156.721 -10.7928 154.388 -10.7928Z" fill="#392D2B"/>
<path d="M135.618 -10.7928C133.286 -10.7928 131.395 -12.6836 131.395 -15.016C131.395 -17.3485 133.286 -19.2393 135.618 -19.2393C137.951 -19.2393 139.841 -17.3485 139.841 -15.016C139.841 -12.6836 137.951 -10.7928 135.618 -10.7928Z" fill="#392D2B"/>
<path d="M126.233 -10.7928C123.901 -10.7928 122.01 -12.6836 122.01 -15.016C122.01 -17.3485 123.901 -19.2393 126.233 -19.2393C128.566 -19.2393 130.456 -17.3485 130.456 -15.016C130.456 -12.6836 128.566 -10.7928 126.233 -10.7928Z" fill="#392D2B"/>
<path d="M116.848 -10.7928C114.516 -10.7928 112.625 -12.6836 112.625 -15.016C112.625 -17.3485 114.516 -19.2393 116.848 -19.2393C119.181 -19.2393 121.071 -17.3485 121.071 -15.016C121.071 -12.6836 119.181 -10.7928 116.848 -10.7928Z" fill="#392D2B"/>
<path d="M107.463 -10.7928C105.131 -10.7928 103.24 -12.6836 103.24 -15.016C103.24 -17.3485 105.131 -19.2393 107.463 -19.2393C109.796 -19.2393 111.686 -17.3485 111.686 -15.016C111.686 -12.6836 109.796 -10.7928 107.463 -10.7928Z" fill="#392D2B"/>
<path d="M88.693 -10.7928C86.3606 -10.7928 84.4697 -12.6836 84.4697 -15.016C84.4697 -17.3485 86.3606 -19.2393 88.693 -19.2393C91.0254 -19.2393 92.9163 -17.3485 92.9163 -15.016C92.9163 -12.6836 91.0254 -10.7928 88.693 -10.7928Z" fill="#392D2B"/>
<path d="M79.308 -10.7928C76.9755 -10.7928 75.0847 -12.6836 75.0847 -15.016C75.0847 -17.3485 76.9755 -19.2393 79.308 -19.2393C81.6404 -19.2393 83.5312 -17.3485 83.5312 -15.016C83.5312 -12.6836 81.6404 -10.7928 79.308 -10.7928Z" fill="#392D2B"/>
<path d="M69.923 -10.7928C67.5905 -10.7928 65.6997 -12.6836 65.6997 -15.016C65.6997 -17.3485 67.5905 -19.2393 69.923 -19.2393C72.2554 -19.2393 74.1462 -17.3485 74.1462 -15.016C74.1462 -12.6836 72.2554 -10.7928 69.923 -10.7928Z" fill="#392D2B"/>
<path d="M60.5379 -10.7928C58.2055 -10.7928 56.3147 -12.6836 56.3147 -15.016C56.3147 -17.3485 58.2055 -19.2393 60.5379 -19.2393C62.8704 -19.2393 64.7612 -17.3485 64.7612 -15.016C64.7612 -12.6836 62.8704 -10.7928 60.5379 -10.7928Z" fill="#392D2B"/>
<path d="M51.1529 -10.7928C48.8205 -10.7928 46.9296 -12.6836 46.9296 -15.016C46.9296 -17.3485 48.8205 -19.2393 51.1529 -19.2393C53.4853 -19.2393 55.3762 -17.3485 55.3762 -15.016C55.3762 -12.6836 53.4853 -10.7928 51.1529 -10.7928Z" fill="#392D2B"/>
<path d="M41.7679 -10.7928C39.4354 -10.7928 37.5446 -12.6836 37.5446 -15.016C37.5446 -17.3485 39.4354 -19.2393 41.7679 -19.2393C44.1003 -19.2393 45.9911 -17.3485 45.9911 -15.016C45.9911 -12.6836 44.1003 -10.7928 41.7679 -10.7928Z" fill="#392D2B"/>
<path d="M32.3828 -10.7928C30.0504 -10.7928 28.1596 -12.6836 28.1596 -15.016C28.1596 -17.3485 30.0504 -19.2393 32.3828 -19.2393C34.7153 -19.2393 36.6061 -17.3485 36.6061 -15.016C36.6061 -12.6836 34.7153 -10.7928 32.3828 -10.7928Z" fill="#392D2B"/>
<path d="M22.9978 -10.7928C20.6654 -10.7928 18.7746 -12.6836 18.7746 -15.016C18.7746 -17.3485 20.6654 -19.2393 22.9978 -19.2393C25.3303 -19.2393 27.2211 -17.3485 27.2211 -15.016C27.2211 -12.6836 25.3303 -10.7928 22.9978 -10.7928Z" fill="#392D2B"/>
<path d="M13.6128 -10.7928C11.2803 -10.7928 9.38953 -12.6836 9.38953 -15.016C9.38953 -17.3485 11.2803 -19.2393 13.6128 -19.2393C15.9452 -19.2393 17.8361 -17.3485 17.8361 -15.016C17.8361 -12.6836 15.9452 -10.7928 13.6128 -10.7928Z" fill="#392D2B"/>
<path d="M4.22776 -10.7928C1.89532 -10.7928 0.00450265 -12.6836 0.00450265 -15.016C0.00450265 -17.3485 1.89532 -19.2393 4.22776 -19.2393C6.56021 -19.2393 8.45103 -17.3485 8.45103 -15.016C8.45103 -12.6836 6.56021 -10.7928 4.22776 -10.7928Z" fill="#392D2B"/>
<path d="M220.083 -0.782089C217.751 -0.782089 215.86 -2.67291 215.86 -5.00535C215.86 -7.33779 217.751 -9.22861 220.083 -9.22861C222.416 -9.22861 224.307 -7.33779 224.307 -5.00535C224.307 -2.67291 222.416 -0.782089 220.083 -0.782089Z" fill="#392D2B"/>
<path d="M210.698 -0.782089C208.366 -0.782089 206.475 -2.67291 206.475 -5.00535C206.475 -7.33779 208.366 -9.22861 210.698 -9.22861C213.031 -9.22861 214.922 -7.33779 214.922 -5.00535C214.922 -2.67291 213.031 -0.782089 210.698 -0.782089Z" fill="#392D2B"/>
<path d="M201.313 -0.782089C198.981 -0.782089 197.09 -2.67291 197.09 -5.00535C197.09 -7.33779 198.981 -9.22861 201.313 -9.22861C203.646 -9.22861 205.537 -7.33779 205.537 -5.00535C205.537 -2.67291 203.646 -0.782089 201.313 -0.782089Z" fill="#392D2B"/>
<path d="M173.158 -0.782089C170.826 -0.782089 168.935 -2.67291 168.935 -5.00535C168.935 -7.33779 170.826 -9.22861 173.158 -9.22861C175.491 -9.22861 177.382 -7.33779 177.382 -5.00535C177.382 -2.67291 175.491 -0.782089 173.158 -0.782089Z" fill="#392D2B"/>
<path d="M163.773 -0.782089C161.441 -0.782089 159.55 -2.67291 159.55 -5.00535C159.55 -7.33779 161.441 -9.22861 163.773 -9.22861C166.106 -9.22861 167.996 -7.33779 167.996 -5.00535C167.996 -2.67291 166.106 -0.782089 163.773 -0.782089Z" fill="#392D2B"/>
<path d="M154.388 -0.782089C152.056 -0.782089 150.165 -2.67291 150.165 -5.00535C150.165 -7.33779 152.056 -9.22861 154.388 -9.22861C156.721 -9.22861 158.611 -7.33779 158.611 -5.00535C158.611 -2.67291 156.721 -0.782089 154.388 -0.782089Z" fill="#392D2B"/>
<path d="M145.003 -0.782089C142.671 -0.782089 140.78 -2.67291 140.78 -5.00535C140.78 -7.33779 142.671 -9.22861 145.003 -9.22861C147.336 -9.22861 149.226 -7.33779 149.226 -5.00535C149.226 -2.67291 147.336 -0.782089 145.003 -0.782089Z" fill="#392D2B"/>
<path d="M135.618 -0.782089C133.286 -0.782089 131.395 -2.67291 131.395 -5.00535C131.395 -7.33779 133.286 -9.22861 135.618 -9.22861C137.951 -9.22861 139.841 -7.33779 139.841 -5.00535C139.841 -2.67291 137.951 -0.782089 135.618 -0.782089Z" fill="#392D2B"/>
<path d="M126.233 -0.782089C123.901 -0.782089 122.01 -2.67291 122.01 -5.00535C122.01 -7.33779 123.901 -9.22861 126.233 -9.22861C128.566 -9.22861 130.456 -7.33779 130.456 -5.00535C130.456 -2.67291 128.566 -0.782089 126.233 -0.782089Z" fill="#392D2B"/>
<path d="M116.848 -0.782089C114.516 -0.782089 112.625 -2.67291 112.625 -5.00535C112.625 -7.33779 114.516 -9.22861 116.848 -9.22861C119.181 -9.22861 121.071 -7.33779 121.071 -5.00535C121.071 -2.67291 119.181 -0.782089 116.848 -0.782089Z" fill="#392D2B"/>
<path d="M107.463 -0.782089C105.131 -0.782089 103.24 -2.67291 103.24 -5.00535C103.24 -7.33779 105.131 -9.22861 107.463 -9.22861C109.796 -9.22861 111.686 -7.33779 111.686 -5.00535C111.686 -2.67291 109.796 -0.782089 107.463 -0.782089Z" fill="#392D2B"/>
<path d="M98.078 -0.782089C95.7456 -0.782089 93.8548 -2.67291 93.8548 -5.00535C93.8548 -7.33779 95.7456 -9.22861 98.078 -9.22861C100.41 -9.22861 102.301 -7.33779 102.301 -5.00535C102.301 -2.67291 100.41 -0.782089 98.078 -0.782089Z" fill="#392D2B"/>
<path d="M88.693 -0.782089C86.3606 -0.782089 84.4697 -2.67291 84.4697 -5.00535C84.4697 -7.33779 86.3606 -9.22861 88.693 -9.22861C91.0254 -9.22861 92.9163 -7.33779 92.9163 -5.00535C92.9163 -2.67291 91.0254 -0.782089 88.693 -0.782089Z" fill="#392D2B"/>
<path d="M79.308 -0.782089C76.9755 -0.782089 75.0847 -2.67291 75.0847 -5.00535C75.0847 -7.33779 76.9755 -9.22861 79.308 -9.22861C81.6404 -9.22861 83.5312 -7.33779 83.5312 -5.00535C83.5312 -2.67291 81.6404 -0.782089 79.308 -0.782089Z" fill="#392D2B"/>
<path d="M69.923 -0.782089C67.5905 -0.782089 65.6997 -2.67291 65.6997 -5.00535C65.6997 -7.33779 67.5905 -9.22861 69.923 -9.22861C72.2554 -9.22861 74.1462 -7.33779 74.1462 -5.00535C74.1462 -2.67291 72.2554 -0.782089 69.923 -0.782089Z" fill="#392D2B"/>
<path d="M60.5379 -0.782089C58.2055 -0.782089 56.3147 -2.67291 56.3147 -5.00535C56.3147 -7.33779 58.2055 -9.22861 60.5379 -9.22861C62.8704 -9.22861 64.7612 -7.33779 64.7612 -5.00535C64.7612 -2.67291 62.8704 -0.782089 60.5379 -0.782089Z" fill="#392D2B"/>
<path d="M51.1529 -0.782089C48.8205 -0.782089 46.9296 -2.67291 46.9296 -5.00535C46.9296 -7.33779 48.8205 -9.22861 51.1529 -9.22861C53.4853 -9.22861 55.3762 -7.33779 55.3762 -5.00535C55.3762 -2.67291 53.4853 -0.782089 51.1529 -0.782089Z" fill="#392D2B"/>
<path d="M41.7679 -0.782089C39.4354 -0.782089 37.5446 -2.67291 37.5446 -5.00535C37.5446 -7.33779 39.4354 -9.22861 41.7679 -9.22861C44.1003 -9.22861 45.9911 -7.33779 45.9911 -5.00535C45.9911 -2.67291 44.1003 -0.782089 41.7679 -0.782089Z" fill="#392D2B"/>
<path d="M32.3828 -0.782089C30.0504 -0.782089 28.1596 -2.67291 28.1596 -5.00535C28.1596 -7.33779 30.0504 -9.22861 32.3828 -9.22861C34.7153 -9.22861 36.6061 -7.33779 36.6061 -5.00535C36.6061 -2.67291 34.7153 -0.782089 32.3828 -0.782089Z" fill="#392D2B"/>
<path d="M22.9978 -0.782089C20.6654 -0.782089 18.7746 -2.67291 18.7746 -5.00535C18.7746 -7.33779 20.6654 -9.22861 22.9978 -9.22861C25.3303 -9.22861 27.2211 -7.33779 27.2211 -5.00535C27.2211 -2.67291 25.3303 -0.782089 22.9978 -0.782089Z" fill="#392D2B"/>
<path d="M13.6128 -0.782089C11.2803 -0.782089 9.38953 -2.67291 9.38953 -5.00535C9.38953 -7.33779 11.2803 -9.22861 13.6128 -9.22861C15.9452 -9.22861 17.8361 -7.33779 17.8361 -5.00535C17.8361 -2.67291 15.9452 -0.782089 13.6128 -0.782089Z" fill="#392D2B"/>
<path d="M4.22776 -0.782089C1.89532 -0.782089 0.00450265 -2.67291 0.00450265 -5.00535C0.00450265 -7.33779 1.89532 -9.22861 4.22776 -9.22861C6.56021 -9.22861 8.45103 -7.33779 8.45103 -5.00535C8.45103 -2.67291 6.56021 -0.782089 4.22776 -0.782089Z" fill="#392D2B"/>
<path d="M220.083 9.22861C217.751 9.22861 215.86 7.33779 215.86 5.00535C215.86 2.6729 217.751 0.782082 220.083 0.782082C222.416 0.782082 224.307 2.6729 224.307 5.00535C224.307 7.33779 222.416 9.22861 220.083 9.22861Z" fill="#392D2B"/>
<path d="M210.698 9.22861C208.366 9.22861 206.475 7.33779 206.475 5.00535C206.475 2.6729 208.366 0.782082 210.698 0.782082C213.031 0.782082 214.922 2.6729 214.922 5.00535C214.922 7.33779 213.031 9.22861 210.698 9.22861Z" fill="#392D2B"/>
<path d="M201.313 9.22861C198.981 9.22861 197.09 7.33779 197.09 5.00535C197.09 2.6729 198.981 0.782082 201.313 0.782082C203.646 0.782082 205.537 2.6729 205.537 5.00535C205.537 7.33779 203.646 9.22861 201.313 9.22861Z" fill="#392D2B"/>
<path d="M191.928 9.22861C189.596 9.22861 187.705 7.33779 187.705 5.00535C187.705 2.6729 189.596 0.782082 191.928 0.782082C194.261 0.782082 196.152 2.6729 196.152 5.00535C196.152 7.33779 194.261 9.22861 191.928 9.22861Z" fill="#392D2B"/>
<path d="M154.388 9.22861C152.056 9.22861 150.165 7.33779 150.165 5.00535C150.165 2.6729 152.056 0.782082 154.388 0.782082C156.721 0.782082 158.611 2.6729 158.611 5.00535C158.611 7.33779 156.721 9.22861 154.388 9.22861Z" fill="#392D2B"/>
<path d="M145.003 9.22861C142.671 9.22861 140.78 7.33779 140.78 5.00535C140.78 2.6729 142.671 0.782082 145.003 0.782082C147.336 0.782082 149.226 2.6729 149.226 5.00535C149.226 7.33779 147.336 9.22861 145.003 9.22861Z" fill="#392D2B"/>
<path d="M135.618 9.22861C133.286 9.22861 131.395 7.33779 131.395 5.00535C131.395 2.6729 133.286 0.782082 135.618 0.782082C137.951 0.782082 139.841 2.6729 139.841 5.00535C139.841 7.33779 137.951 9.22861 135.618 9.22861Z" fill="#392D2B"/>
<path d="M126.233 9.22861C123.901 9.22861 122.01 7.33779 122.01 5.00535C122.01 2.6729 123.901 0.782082 126.233 0.782082C128.566 0.782082 130.456 2.6729 130.456 5.00535C130.456 7.33779 128.566 9.22861 126.233 9.22861Z" fill="#392D2B"/>
<path d="M116.848 9.22861C114.516 9.22861 112.625 7.33779 112.625 5.00535C112.625 2.6729 114.516 0.782082 116.848 0.782082C119.181 0.782082 121.071 2.6729 121.071 5.00535C121.071 7.33779 119.181 9.22861 116.848 9.22861Z" fill="#392D2B"/>
<path d="M107.463 9.22861C105.131 9.22861 103.24 7.33779 103.24 5.00535C103.24 2.6729 105.131 0.782082 107.463 0.782082C109.796 0.782082 111.686 2.6729 111.686 5.00535C111.686 7.33779 109.796 9.22861 107.463 9.22861Z" fill="#392D2B"/>
<path d="M98.078 9.22861C95.7456 9.22861 93.8548 7.33779 93.8548 5.00535C93.8548 2.6729 95.7456 0.782082 98.078 0.782082C100.41 0.782082 102.301 2.6729 102.301 5.00535C102.301 7.33779 100.41 9.22861 98.078 9.22861Z" fill="#392D2B"/>
<path d="M79.308 9.22861C76.9755 9.22861 75.0847 7.33779 75.0847 5.00535C75.0847 2.6729 76.9755 0.782082 79.308 0.782082C81.6404 0.782082 83.5312 2.6729 83.5312 5.00535C83.5312 7.33779 81.6404 9.22861 79.308 9.22861Z" fill="#392D2B"/>
<path d="M69.923 9.22861C67.5905 9.22861 65.6997 7.33779 65.6997 5.00535C65.6997 2.6729 67.5905 0.782082 69.923 0.782082C72.2554 0.782082 74.1462 2.6729 74.1462 5.00535C74.1462 7.33779 72.2554 9.22861 69.923 9.22861Z" fill="#392D2B"/>
<path d="M60.5379 9.22861C58.2055 9.22861 56.3147 7.33779 56.3147 5.00535C56.3147 2.6729 58.2055 0.782082 60.5379 0.782082C62.8704 0.782082 64.7612 2.6729 64.7612 5.00535C64.7612 7.33779 62.8704 9.22861 60.5379 9.22861Z" fill="#392D2B"/>
<path d="M51.1529 9.22861C48.8205 9.22861 46.9296 7.33779 46.9296 5.00535C46.9296 2.6729 48.8205 0.782082 51.1529 0.782082C53.4853 0.782082 55.3762 2.6729 55.3762 5.00535C55.3762 7.33779 53.4853 9.22861 51.1529 9.22861Z" fill="#392D2B"/>
<path d="M41.7679 9.22861C39.4354 9.22861 37.5446 7.33779 37.5446 5.00535C37.5446 2.6729 39.4354 0.782082 41.7679 0.782082C44.1003 0.782082 45.9911 2.6729 45.9911 5.00535C45.9911 7.33779 44.1003 9.22861 41.7679 9.22861Z" fill="#392D2B"/>
<path d="M32.3828 9.22861C30.0504 9.22861 28.1596 7.33779 28.1596 5.00535C28.1596 2.6729 30.0504 0.782082 32.3828 0.782082C34.7153 0.782082 36.6061 2.6729 36.6061 5.00535C36.6061 7.33779 34.7153 9.22861 32.3828 9.22861Z" fill="#392D2B"/>
<path d="M22.9978 9.22861C20.6654 9.22861 18.7746 7.33779 18.7746 5.00535C18.7746 2.6729 20.6654 0.782082 22.9978 0.782082C25.3303 0.782082 27.2211 2.6729 27.2211 5.00535C27.2211 7.33779 25.3303 9.22861 22.9978 9.22861Z" fill="#392D2B"/>
<path d="M13.6128 9.22861C11.2803 9.22861 9.38953 7.33779 9.38953 5.00535C9.38953 2.6729 11.2803 0.782082 13.6128 0.782082C15.9452 0.782082 17.8361 2.6729 17.8361 5.00535C17.8361 7.33779 15.9452 9.22861 13.6128 9.22861Z" fill="#392D2B"/>
<path d="M220.083 19.2393C217.751 19.2393 215.86 17.3485 215.86 15.016C215.86 12.6836 217.751 10.7928 220.083 10.7928C222.416 10.7928 224.307 12.6836 224.307 15.016C224.307 17.3485 222.416 19.2393 220.083 19.2393Z" fill="#392D2B"/>
<path d="M210.698 19.2393C208.366 19.2393 206.475 17.3485 206.475 15.016C206.475 12.6836 208.366 10.7928 210.698 10.7928C213.031 10.7928 214.922 12.6836 214.922 15.016C214.922 17.3485 213.031 19.2393 210.698 19.2393Z" fill="#392D2B"/>
<path d="M201.313 19.2393C198.981 19.2393 197.09 17.3485 197.09 15.016C197.09 12.6836 198.981 10.7928 201.313 10.7928C203.646 10.7928 205.537 12.6836 205.537 15.016C205.537 17.3485 203.646 19.2393 201.313 19.2393Z" fill="#392D2B"/>
<path d="M191.928 19.2393C189.596 19.2393 187.705 17.3485 187.705 15.016C187.705 12.6836 189.596 10.7928 191.928 10.7928C194.261 10.7928 196.152 12.6836 196.152 15.016C196.152 17.3485 194.261 19.2393 191.928 19.2393Z" fill="#392D2B"/>
<path d="M163.773 19.2393C161.441 19.2393 159.55 17.3485 159.55 15.016C159.55 12.6836 161.441 10.7928 163.773 10.7928C166.106 10.7928 167.996 12.6836 167.996 15.016C167.996 17.3485 166.106 19.2393 163.773 19.2393Z" fill="#392D2B"/>
<path d="M154.388 19.2393C152.056 19.2393 150.165 17.3485 150.165 15.016C150.165 12.6836 152.056 10.7928 154.388 10.7928C156.721 10.7928 158.611 12.6836 158.611 15.016C158.611 17.3485 156.721 19.2393 154.388 19.2393Z" fill="#392D2B"/>
<path d="M145.003 19.2393C142.671 19.2393 140.78 17.3485 140.78 15.016C140.78 12.6836 142.671 10.7928 145.003 10.7928C147.336 10.7928 149.226 12.6836 149.226 15.016C149.226 17.3485 147.336 19.2393 145.003 19.2393Z" fill="#392D2B"/>
<path d="M135.618 19.2393C133.286 19.2393 131.395 17.3485 131.395 15.016C131.395 12.6836 133.286 10.7928 135.618 10.7928C137.951 10.7928 139.841 12.6836 139.841 15.016C139.841 17.3485 137.951 19.2393 135.618 19.2393Z" fill="#392D2B"/>
<path d="M126.233 19.2393C123.901 19.2393 122.01 17.3485 122.01 15.016C122.01 12.6836 123.901 10.7928 126.233 10.7928C128.566 10.7928 130.456 12.6836 130.456 15.016C130.456 17.3485 128.566 19.2393 126.233 19.2393Z" fill="#392D2B"/>
<path d="M116.848 19.2393C114.516 19.2393 112.625 17.3485 112.625 15.016C112.625 12.6836 114.516 10.7928 116.848 10.7928C119.181 10.7928 121.071 12.6836 121.071 15.016C121.071 17.3485 119.181 19.2393 116.848 19.2393Z" fill="#392D2B"/>
<path d="M98.078 19.2393C95.7456 19.2393 93.8548 17.3485 93.8548 15.016C93.8548 12.6836 95.7456 10.7928 98.078 10.7928C100.41 10.7928 102.301 12.6836 102.301 15.016C102.301 17.3485 100.41 19.2393 98.078 19.2393Z" fill="#392D2B"/>
<path d="M88.693 19.2393C86.3606 19.2393 84.4697 17.3485 84.4697 15.016C84.4697 12.6836 86.3606 10.7928 88.693 10.7928C91.0254 10.7928 92.9163 12.6836 92.9163 15.016C92.9163 17.3485 91.0254 19.2393 88.693 19.2393Z" fill="#392D2B"/>
<path d="M79.308 19.2393C76.9755 19.2393 75.0847 17.3485 75.0847 15.016C75.0847 12.6836 76.9755 10.7928 79.308 10.7928C81.6404 10.7928 83.5312 12.6836 83.5312 15.016C83.5312 17.3485 81.6404 19.2393 79.308 19.2393Z" fill="#392D2B"/>
<path d="M69.923 19.2393C67.5905 19.2393 65.6997 17.3485 65.6997 15.016C65.6997 12.6836 67.5905 10.7928 69.923 10.7928C72.2554 10.7928 74.1462 12.6836 74.1462 15.016C74.1462 17.3485 72.2554 19.2393 69.923 19.2393Z" fill="#392D2B"/>
<path d="M60.5379 19.2393C58.2055 19.2393 56.3147 17.3485 56.3147 15.016C56.3147 12.6836 58.2055 10.7928 60.5379 10.7928C62.8704 10.7928 64.7612 12.6836 64.7612 15.016C64.7612 17.3485 62.8704 19.2393 60.5379 19.2393Z" fill="#392D2B"/>
<path d="M51.1529 19.2393C48.8205 19.2393 46.9296 17.3485 46.9296 15.016C46.9296 12.6836 48.8205 10.7928 51.1529 10.7928C53.4853 10.7928 55.3762 12.6836 55.3762 15.016C55.3762 17.3485 53.4853 19.2393 51.1529 19.2393Z" fill="#392D2B"/>
<path d="M41.7679 19.2393C39.4354 19.2393 37.5446 17.3485 37.5446 15.016C37.5446 12.6836 39.4354 10.7928 41.7679 10.7928C44.1003 10.7928 45.9911 12.6836 45.9911 15.016C45.9911 17.3485 44.1003 19.2393 41.7679 19.2393Z" fill="#392D2B"/>
<path d="M32.3828 19.2393C30.0504 19.2393 28.1596 17.3485 28.1596 15.016C28.1596 12.6836 30.0504 10.7928 32.3828 10.7928C34.7153 10.7928 36.6061 12.6836 36.6061 15.016C36.6061 17.3485 34.7153 19.2393 32.3828 19.2393Z" fill="#392D2B"/>
<path d="M220.083 29.25C217.751 29.25 215.86 27.3592 215.86 25.0267C215.86 22.6943 217.751 20.8035 220.083 20.8035C222.416 20.8035 224.307 22.6943 224.307 25.0267C224.307 27.3592 222.416 29.25 220.083 29.25Z" fill="#392D2B"/>
<path d="M182.543 29.25C180.211 29.25 178.32 27.3592 178.32 25.0267C178.32 22.6943 180.211 20.8035 182.543 20.8035C184.876 20.8035 186.767 22.6943 186.767 25.0267C186.767 27.3592 184.876 29.25 182.543 29.25Z" fill="#392D2B"/>
<path d="M173.158 29.25C170.826 29.25 168.935 27.3592 168.935 25.0267C168.935 22.6943 170.826 20.8035 173.158 20.8035C175.491 20.8035 177.382 22.6943 177.382 25.0267C177.382 27.3592 175.491 29.25 173.158 29.25Z" fill="#392D2B"/>
<path d="M163.773 29.25C161.441 29.25 159.55 27.3592 159.55 25.0267C159.55 22.6943 161.441 20.8035 163.773 20.8035C166.106 20.8035 167.996 22.6943 167.996 25.0267C167.996 27.3592 166.106 29.25 163.773 29.25Z" fill="#392D2B"/>
<path d="M154.388 29.25C152.056 29.25 150.165 27.3592 150.165 25.0267C150.165 22.6943 152.056 20.8035 154.388 20.8035C156.721 20.8035 158.611 22.6943 158.611 25.0267C158.611 27.3592 156.721 29.25 154.388 29.25Z" fill="#392D2B"/>
<path d="M145.003 29.25C142.671 29.25 140.78 27.3592 140.78 25.0267C140.78 22.6943 142.671 20.8035 145.003 20.8035C147.336 20.8035 149.226 22.6943 149.226 25.0267C149.226 27.3592 147.336 29.25 145.003 29.25Z" fill="#392D2B"/>
<path d="M135.618 29.25C133.286 29.25 131.395 27.3592 131.395 25.0267C131.395 22.6943 133.286 20.8035 135.618 20.8035C137.951 20.8035 139.841 22.6943 139.841 25.0267C139.841 27.3592 137.951 29.25 135.618 29.25Z" fill="#392D2B"/>
<path d="M126.233 29.25C123.901 29.25 122.01 27.3592 122.01 25.0267C122.01 22.6943 123.901 20.8035 126.233 20.8035C128.566 20.8035 130.456 22.6943 130.456 25.0267C130.456 27.3592 128.566 29.25 126.233 29.25Z" fill="#392D2B"/>
<path d="M116.848 29.25C114.516 29.25 112.625 27.3592 112.625 25.0267C112.625 22.6943 114.516 20.8035 116.848 20.8035C119.181 20.8035 121.071 22.6943 121.071 25.0267C121.071 27.3592 119.181 29.25 116.848 29.25Z" fill="#392D2B"/>
<path d="M88.693 29.25C86.3606 29.25 84.4697 27.3592 84.4697 25.0267C84.4697 22.6943 86.3606 20.8035 88.693 20.8035C91.0254 20.8035 92.9163 22.6943 92.9163 25.0267C92.9163 27.3592 91.0254 29.25 88.693 29.25Z" fill="#392D2B"/>
<path d="M79.308 29.25C76.9755 29.25 75.0847 27.3592 75.0847 25.0267C75.0847 22.6943 76.9755 20.8035 79.308 20.8035C81.6404 20.8035 83.5312 22.6943 83.5312 25.0267C83.5312 27.3592 81.6404 29.25 79.308 29.25Z" fill="#392D2B"/>
<path d="M69.923 29.25C67.5905 29.25 65.6997 27.3592 65.6997 25.0267C65.6997 22.6943 67.5905 20.8035 69.923 20.8035C72.2554 20.8035 74.1462 22.6943 74.1462 25.0267C74.1462 27.3592 72.2554 29.25 69.923 29.25Z" fill="#392D2B"/>
<path d="M60.5379 29.25C58.2055 29.25 56.3147 27.3592 56.3147 25.0267C56.3147 22.6943 58.2055 20.8035 60.5379 20.8035C62.8704 20.8035 64.7612 22.6943 64.7612 25.0267C64.7612 27.3592 62.8704 29.25 60.5379 29.25Z" fill="#392D2B"/>
<path d="M51.1529 29.25C48.8205 29.25 46.9296 27.3592 46.9296 25.0267C46.9296 22.6943 48.8205 20.8035 51.1529 20.8035C53.4853 20.8035 55.3762 22.6943 55.3762 25.0267C55.3762 27.3592 53.4853 29.25 51.1529 29.25Z" fill="#392D2B"/>
<path d="M41.7679 29.25C39.4354 29.25 37.5446 27.3592 37.5446 25.0267C37.5446 22.6943 39.4354 20.8035 41.7679 20.8035C44.1003 20.8035 45.9911 22.6943 45.9911 25.0267C45.9911 27.3592 44.1003 29.25 41.7679 29.25Z" fill="#392D2B"/>
<path d="M32.3828 29.25C30.0504 29.25 28.1596 27.3592 28.1596 25.0267C28.1596 22.6943 30.0504 20.8035 32.3828 20.8035C34.7153 20.8035 36.6061 22.6943 36.6061 25.0267C36.6061 27.3592 34.7153 29.25 32.3828 29.25Z" fill="#392D2B"/>
<path d="M22.9978 29.25C20.6654 29.25 18.7746 27.3592 18.7746 25.0267C18.7746 22.6943 20.6654 20.8035 22.9978 20.8035C25.3303 20.8035 27.2211 22.6943 27.2211 25.0267C27.2211 27.3592 25.3303 29.25 22.9978 29.25Z" fill="#392D2B"/>
<path d="M13.6128 29.25C11.2803 29.25 9.38953 27.3592 9.38953 25.0267C9.38953 22.6943 11.2803 20.8035 13.6128 20.8035C15.9452 20.8035 17.8361 22.6943 17.8361 25.0267C17.8361 27.3592 15.9452 29.25 13.6128 29.25Z" fill="#392D2B"/>
<path d="M4.22776 29.25C1.89532 29.25 0.00450265 27.3592 0.00450265 25.0267C0.00450265 22.6943 1.89532 20.8035 4.22776 20.8035C6.56021 20.8035 8.45103 22.6943 8.45103 25.0267C8.45103 27.3592 6.56021 29.25 4.22776 29.25Z" fill="#392D2B"/>
<path d="M135.618 -20.8035C133.286 -20.8035 131.395 -22.6943 131.395 -25.0267C131.395 -27.3592 133.286 -29.25 135.618 -29.25C137.951 -29.25 139.841 -27.3592 139.841 -25.0267C139.841 -22.6943 137.951 -20.8035 135.618 -20.8035Z" stroke="#392D2B" stroke-width="1.4625" mask="url(#path-1-inside-1_14578_1346)"/>
<path d="M126.233 -20.8035C123.901 -20.8035 122.01 -22.6943 122.01 -25.0267C122.01 -27.3592 123.901 -29.25 126.233 -29.25C128.566 -29.25 130.456 -27.3592 130.456 -25.0267C130.456 -22.6943 128.566 -20.8035 126.233 -20.8035Z" stroke="#392D2B" stroke-width="1.4625" mask="url(#path-1-inside-1_14578_1346)"/>
<path d="M116.848 -20.8035C114.516 -20.8035 112.625 -22.6943 112.625 -25.0267C112.625 -27.3592 114.516 -29.25 116.848 -29.25C119.181 -29.25 121.071 -27.3592 121.071 -25.0267C121.071 -22.6943 119.181 -20.8035 116.848 -20.8035Z" stroke="#392D2B" stroke-width="1.4625" mask="url(#path-1-inside-1_14578_1346)"/>
<path d="M79.308 -20.8035C76.9755 -20.8035 75.0847 -22.6943 75.0847 -25.0267C75.0847 -27.3592 76.9755 -29.25 79.308 -29.25C81.6404 -29.25 83.5312 -27.3592 83.5312 -25.0267C83.5312 -22.6943 81.6404 -20.8035 79.308 -20.8035Z" stroke="#392D2B" stroke-width="1.4625" mask="url(#path-1-inside-1_14578_1346)"/>
<path d="M69.923 -20.8035C67.5905 -20.8035 65.6997 -22.6943 65.6997 -25.0267C65.6997 -27.3592 67.5905 -29.25 69.923 -29.25C72.2554 -29.25 74.1462 -27.3592 74.1462 -25.0267C74.1462 -22.6943 72.2554 -20.8035 69.923 -20.8035Z" stroke="#392D2B" stroke-width="1.4625" mask="url(#path-1-inside-1_14578_1346)"/>
<path d="M60.5379 -20.8035C58.2055 -20.8035 56.3147 -22.6943 56.3147 -25.0267C56.3147 -27.3592 58.2055 -29.25 60.5379 -29.25C62.8704 -29.25 64.7612 -27.3592 64.7612 -25.0267C64.7612 -22.6943 62.8704 -20.8035 60.5379 -20.8035Z" stroke="#392D2B" stroke-width="1.4625" mask="url(#path-1-inside-1_14578_1346)"/>
<path d="M51.1529 -20.8035C48.8205 -20.8035 46.9296 -22.6943 46.9296 -25.0267C46.9296 -27.3592 48.8205 -29.25 51.1529 -29.25C53.4853 -29.25 55.3762 -27.3592 55.3762 -25.0267C55.3762 -22.6943 53.4853 -20.8035 51.1529 -20.8035Z" stroke="#392D2B" stroke-width="1.4625" mask="url(#path-1-inside-1_14578_1346)"/>
<path d="M41.7679 -20.8035C39.4354 -20.8035 37.5446 -22.6943 37.5446 -25.0267C37.5446 -27.3592 39.4354 -29.25 41.7679 -29.25C44.1003 -29.25 45.9911 -27.3592 45.9911 -25.0267C45.9911 -22.6943 44.1003 -20.8035 41.7679 -20.8035Z" stroke="#392D2B" stroke-width="1.4625" mask="url(#path-1-inside-1_14578_1346)"/>
<path d="M32.3828 -20.8035C30.0504 -20.8035 28.1596 -22.6943 28.1596 -25.0267C28.1596 -27.3592 30.0504 -29.25 32.3828 -29.25C34.7153 -29.25 36.6061 -27.3592 36.6061 -25.0267C36.6061 -22.6943 34.7153 -20.8035 32.3828 -20.8035Z" stroke="#392D2B" stroke-width="1.4625" mask="url(#path-1-inside-1_14578_1346)"/>
<path d="M22.9978 -20.8035C20.6654 -20.8035 18.7746 -22.6943 18.7746 -25.0267C18.7746 -27.3592 20.6654 -29.25 22.9978 -29.25C25.3303 -29.25 27.2211 -27.3592 27.2211 -25.0267C27.2211 -22.6943 25.3303 -20.8035 22.9978 -20.8035Z" stroke="#392D2B" stroke-width="1.4625" mask="url(#path-1-inside-1_14578_1346)"/>
<path d="M13.6128 -20.8035C11.2803 -20.8035 9.38953 -22.6943 9.38953 -25.0267C9.38953 -27.3592 11.2803 -29.25 13.6128 -29.25C15.9452 -29.25 17.8361 -27.3592 17.8361 -25.0267C17.8361 -22.6943 15.9452 -20.8035 13.6128 -20.8035Z" stroke="#392D2B" stroke-width="1.4625" mask="url(#path-1-inside-1_14578_1346)"/>
<path d="M4.22776 -20.8035C1.89532 -20.8035 0.00450265 -22.6943 0.00450265 -25.0267C0.00450265 -27.3592 1.89532 -29.25 4.22776 -29.25C6.56021 -29.25 8.45103 -27.3592 8.45103 -25.0267C8.45103 -22.6943 6.56021 -20.8035 4.22776 -20.8035Z" stroke="#392D2B" stroke-width="1.4625" mask="url(#path-1-inside-1_14578_1346)"/>
<path d="M220.083 -10.7928C217.751 -10.7928 215.86 -12.6836 215.86 -15.016C215.86 -17.3485 217.751 -19.2393 220.083 -19.2393C222.416 -19.2393 224.307 -17.3485 224.307 -15.016C224.307 -12.6836 222.416 -10.7928 220.083 -10.7928Z" stroke="#392D2B" stroke-width="1.4625" mask="url(#path-1-inside-1_14578_1346)"/>
<path d="M210.698 -10.7928C208.366 -10.7928 206.475 -12.6836 206.475 -15.016C206.475 -17.3485 208.366 -19.2393 210.698 -19.2393C213.031 -19.2393 214.922 -17.3485 214.922 -15.016C214.922 -12.6836 213.031 -10.7928 210.698 -10.7928Z" stroke="#392D2B" stroke-width="1.4625" mask="url(#path-1-inside-1_14578_1346)"/>
<path d="M201.313 -10.7928C198.981 -10.7928 197.09 -12.6836 197.09 -15.016C197.09 -17.3485 198.981 -19.2393 201.313 -19.2393C203.646 -19.2393 205.537 -17.3485 205.537 -15.016C205.537 -12.6836 203.646 -10.7928 201.313 -10.7928Z" stroke="#392D2B" stroke-width="1.4625" mask="url(#path-1-inside-1_14578_1346)"/>
<path d="M163.773 -10.7928C161.441 -10.7928 159.55 -12.6836 159.55 -15.016C159.55 -17.3485 161.441 -19.2393 163.773 -19.2393C166.106 -19.2393 167.996 -17.3485 167.996 -15.016C167.996 -12.6836 166.106 -10.7928 163.773 -10.7928Z" stroke="#392D2B" stroke-width="1.4625" mask="url(#path-1-inside-1_14578_1346)"/>
<path d="M154.388 -10.7928C152.056 -10.7928 150.165 -12.6836 150.165 -15.016C150.165 -17.3485 152.056 -19.2393 154.388 -19.2393C156.721 -19.2393 158.611 -17.3485 158.611 -15.016C158.611 -12.6836 156.721 -10.7928 154.388 -10.7928Z" stroke="#392D2B" stroke-width="1.4625" mask="url(#path-1-inside-1_14578_1346)"/>
<path d="M135.618 -10.7928C133.286 -10.7928 131.395 -12.6836 131.395 -15.016C131.395 -17.3485 133.286 -19.2393 135.618 -19.2393C137.951 -19.2393 139.841 -17.3485 139.841 -15.016C139.841 -12.6836 137.951 -10.7928 135.618 -10.7928Z" stroke="#392D2B" stroke-width="1.4625" mask="url(#path-1-inside-1_14578_1346)"/>
<path d="M126.233 -10.7928C123.901 -10.7928 122.01 -12.6836 122.01 -15.016C122.01 -17.3485 123.901 -19.2393 126.233 -19.2393C128.566 -19.2393 130.456 -17.3485 130.456 -15.016C130.456 -12.6836 128.566 -10.7928 126.233 -10.7928Z" stroke="#392D2B" stroke-width="1.4625" mask="url(#path-1-inside-1_14578_1346)"/>
<path d="M116.848 -10.7928C114.516 -10.7928 112.625 -12.6836 112.625 -15.016C112.625 -17.3485 114.516 -19.2393 116.848 -19.2393C119.181 -19.2393 121.071 -17.3485 121.071 -15.016C121.071 -12.6836 119.181 -10.7928 116.848 -10.7928Z" stroke="#392D2B" stroke-width="1.4625" mask="url(#path-1-inside-1_14578_1346)"/>
<path d="M107.463 -10.7928C105.131 -10.7928 103.24 -12.6836 103.24 -15.016C103.24 -17.3485 105.131 -19.2393 107.463 -19.2393C109.796 -19.2393 111.686 -17.3485 111.686 -15.016C111.686 -12.6836 109.796 -10.7928 107.463 -10.7928Z" stroke="#392D2B" stroke-width="1.4625" mask="url(#path-1-inside-1_14578_1346)"/>
<path d="M88.693 -10.7928C86.3606 -10.7928 84.4697 -12.6836 84.4697 -15.016C84.4697 -17.3485 86.3606 -19.2393 88.693 -19.2393C91.0254 -19.2393 92.9163 -17.3485 92.9163 -15.016C92.9163 -12.6836 91.0254 -10.7928 88.693 -10.7928Z" stroke="#392D2B" stroke-width="1.4625" mask="url(#path-1-inside-1_14578_1346)"/>
<path d="M79.308 -10.7928C76.9755 -10.7928 75.0847 -12.6836 75.0847 -15.016C75.0847 -17.3485 76.9755 -19.2393 79.308 -19.2393C81.6404 -19.2393 83.5312 -17.3485 83.5312 -15.016C83.5312 -12.6836 81.6404 -10.7928 79.308 -10.7928Z" stroke="#392D2B" stroke-width="1.4625" mask="url(#path-1-inside-1_14578_1346)"/>
<path d="M69.923 -10.7928C67.5905 -10.7928 65.6997 -12.6836 65.6997 -15.016C65.6997 -17.3485 67.5905 -19.2393 69.923 -19.2393C72.2554 -19.2393 74.1462 -17.3485 74.1462 -15.016C74.1462 -12.6836 72.2554 -10.7928 69.923 -10.7928Z" stroke="#392D2B" stroke-width="1.4625" mask="url(#path-1-inside-1_14578_1346)"/>
<path d="M60.5379 -10.7928C58.2055 -10.7928 56.3147 -12.6836 56.3147 -15.016C56.3147 -17.3485 58.2055 -19.2393 60.5379 -19.2393C62.8704 -19.2393 64.7612 -17.3485 64.7612 -15.016C64.7612 -12.6836 62.8704 -10.7928 60.5379 -10.7928Z" stroke="#392D2B" stroke-width="1.4625" mask="url(#path-1-inside-1_14578_1346)"/>
<path d="M51.1529 -10.7928C48.8205 -10.7928 46.9296 -12.6836 46.9296 -15.016C46.9296 -17.3485 48.8205 -19.2393 51.1529 -19.2393C53.4853 -19.2393 55.3762 -17.3485 55.3762 -15.016C55.3762 -12.6836 53.4853 -10.7928 51.1529 -10.7928Z" stroke="#392D2B" stroke-width="1.4625" mask="url(#path-1-inside-1_14578_1346)"/>
<path d="M41.7679 -10.7928C39.4354 -10.7928 37.5446 -12.6836 37.5446 -15.016C37.5446 -17.3485 39.4354 -19.2393 41.7679 -19.2393C44.1003 -19.2393 45.9911 -17.3485 45.9911 -15.016C45.9911 -12.6836 44.1003 -10.7928 41.7679 -10.7928Z" stroke="#392D2B" stroke-width="1.4625" mask="url(#path-1-inside-1_14578_1346)"/>
<path d="M32.3828 -10.7928C30.0504 -10.7928 28.1596 -12.6836 28.1596 -15.016C28.1596 -17.3485 30.0504 -19.2393 32.3828 -19.2393C34.7153 -19.2393 36.6061 -17.3485 36.6061 -15.016C36.6061 -12.6836 34.7153 -10.7928 32.3828 -10.7928Z" stroke="#392D2B" stroke-width="1.4625" mask="url(#path-1-inside-1_14578_1346)"/>
<path d="M22.9978 -10.7928C20.6654 -10.7928 18.7746 -12.6836 18.7746 -15.016C18.7746 -17.3485 20.6654 -19.2393 22.9978 -19.2393C25.3303 -19.2393 27.2211 -17.3485 27.2211 -15.016C27.2211 -12.6836 25.3303 -10.7928 22.9978 -10.7928Z" stroke="#392D2B" stroke-width="1.4625" mask="url(#path-1-inside-1_14578_1346)"/>
<path d="M13.6128 -10.7928C11.2803 -10.7928 9.38953 -12.6836 9.38953 -15.016C9.38953 -17.3485 11.2803 -19.2393 13.6128 -19.2393C15.9452 -19.2393 17.8361 -17.3485 17.8361 -15.016C17.8361 -12.6836 15.9452 -10.7928 13.6128 -10.7928Z" stroke="#392D2B" stroke-width="1.4625" mask="url(#path-1-inside-1_14578_1346)"/>
<path d="M4.22776 -10.7928C1.89532 -10.7928 0.00450265 -12.6836 0.00450265 -15.016C0.00450265 -17.3485 1.89532 -19.2393 4.22776 -19.2393C6.56021 -19.2393 8.45103 -17.3485 8.45103 -15.016C8.45103 -12.6836 6.56021 -10.7928 4.22776 -10.7928Z" stroke="#392D2B" stroke-width="1.4625" mask="url(#path-1-inside-1_14578_1346)"/>
<path d="M220.083 -0.782089C217.751 -0.782089 215.86 -2.67291 215.86 -5.00535C215.86 -7.33779 217.751 -9.22861 220.083 -9.22861C222.416 -9.22861 224.307 -7.33779 224.307 -5.00535C224.307 -2.67291 222.416 -0.782089 220.083 -0.782089Z" stroke="#392D2B" stroke-width="1.4625" mask="url(#path-1-inside-1_14578_1346)"/>
<path d="M210.698 -0.782089C208.366 -0.782089 206.475 -2.67291 206.475 -5.00535C206.475 -7.33779 208.366 -9.22861 210.698 -9.22861C213.031 -9.22861 214.922 -7.33779 214.922 -5.00535C214.922 -2.67291 213.031 -0.782089 210.698 -0.782089Z" stroke="#392D2B" stroke-width="1.4625" mask="url(#path-1-inside-1_14578_1346)"/>
<path d="M201.313 -0.782089C198.981 -0.782089 197.09 -2.67291 197.09 -5.00535C197.09 -7.33779 198.981 -9.22861 201.313 -9.22861C203.646 -9.22861 205.537 -7.33779 205.537 -5.00535C205.537 -2.67291 203.646 -0.782089 201.313 -0.782089Z" stroke="#392D2B" stroke-width="1.4625" mask="url(#path-1-inside-1_14578_1346)"/>
<path d="M173.158 -0.782089C170.826 -0.782089 168.935 -2.67291 168.935 -5.00535C168.935 -7.33779 170.826 -9.22861 173.158 -9.22861C175.491 -9.22861 177.382 -7.33779 177.382 -5.00535C177.382 -2.67291 175.491 -0.782089 173.158 -0.782089Z" stroke="#392D2B" stroke-width="1.4625" mask="url(#path-1-inside-1_14578_1346)"/>
<path d="M163.773 -0.782089C161.441 -0.782089 159.55 -2.67291 159.55 -5.00535C159.55 -7.33779 161.441 -9.22861 163.773 -9.22861C166.106 -9.22861 167.996 -7.33779 167.996 -5.00535C167.996 -2.67291 166.106 -0.782089 163.773 -0.782089Z" stroke="#392D2B" stroke-width="1.4625" mask="url(#path-1-inside-1_14578_1346)"/>
<path d="M154.388 -0.782089C152.056 -0.782089 150.165 -2.67291 150.165 -5.00535C150.165 -7.33779 152.056 -9.22861 154.388 -9.22861C156.721 -9.22861 158.611 -7.33779 158.611 -5.00535C158.611 -2.67291 156.721 -0.782089 154.388 -0.782089Z" stroke="#392D2B" stroke-width="1.4625" mask="url(#path-1-inside-1_14578_1346)"/>
<path d="M145.003 -0.782089C142.671 -0.782089 140.78 -2.67291 140.78 -5.00535C140.78 -7.33779 142.671 -9.22861 145.003 -9.22861C147.336 -9.22861 149.226 -7.33779 149.226 -5.00535C149.226 -2.67291 147.336 -0.782089 145.003 -0.782089Z" stroke="#392D2B" stroke-width="1.4625" mask="url(#path-1-inside-1_14578_1346)"/>
<path d="M135.618 -0.782089C133.286 -0.782089 131.395 -2.67291 131.395 -5.00535C131.395 -7.33779 133.286 -9.22861 135.618 -9.22861C137.951 -9.22861 139.841 -7.33779 139.841 -5.00535C139.841 -2.67291 137.951 -0.782089 135.618 -0.782089Z" stroke="#392D2B" stroke-width="1.4625" mask="url(#path-1-inside-1_14578_1346)"/>
<path d="M126.233 -0.782089C123.901 -0.782089 122.01 -2.67291 122.01 -5.00535C122.01 -7.33779 123.901 -9.22861 126.233 -9.22861C128.566 -9.22861 130.456 -7.33779 130.456 -5.00535C130.456 -2.67291 128.566 -0.782089 126.233 -0.782089Z" stroke="#392D2B" stroke-width="1.4625" mask="url(#path-1-inside-1_14578_1346)"/>
<path d="M116.848 -0.782089C114.516 -0.782089 112.625 -2.67291 112.625 -5.00535C112.625 -7.33779 114.516 -9.22861 116.848 -9.22861C119.181 -9.22861 121.071 -7.33779 121.071 -5.00535C121.071 -2.67291 119.181 -0.782089 116.848 -0.782089Z" stroke="#392D2B" stroke-width="1.4625" mask="url(#path-1-inside-1_14578_1346)"/>
<path d="M107.463 -0.782089C105.131 -0.782089 103.24 -2.67291 103.24 -5.00535C103.24 -7.33779 105.131 -9.22861 107.463 -9.22861C109.796 -9.22861 111.686 -7.33779 111.686 -5.00535C111.686 -2.67291 109.796 -0.782089 107.463 -0.782089Z" stroke="#392D2B" stroke-width="1.4625" mask="url(#path-1-inside-1_14578_1346)"/>
<path d="M98.078 -0.782089C95.7456 -0.782089 93.8548 -2.67291 93.8548 -5.00535C93.8548 -7.33779 95.7456 -9.22861 98.078 -9.22861C100.41 -9.22861 102.301 -7.33779 102.301 -5.00535C102.301 -2.67291 100.41 -0.782089 98.078 -0.782089Z" stroke="#392D2B" stroke-width="1.4625" mask="url(#path-1-inside-1_14578_1346)"/>
<path d="M88.693 -0.782089C86.3606 -0.782089 84.4697 -2.67291 84.4697 -5.00535C84.4697 -7.33779 86.3606 -9.22861 88.693 -9.22861C91.0254 -9.22861 92.9163 -7.33779 92.9163 -5.00535C92.9163 -2.67291 91.0254 -0.782089 88.693 -0.782089Z" stroke="#392D2B" stroke-width="1.4625" mask="url(#path-1-inside-1_14578_1346)"/>
<path d="M79.308 -0.782089C76.9755 -0.782089 75.0847 -2.67291 75.0847 -5.00535C75.0847 -7.33779 76.9755 -9.22861 79.308 -9.22861C81.6404 -9.22861 83.5312 -7.33779 83.5312 -5.00535C83.5312 -2.67291 81.6404 -0.782089 79.308 -0.782089Z" stroke="#392D2B" stroke-width="1.4625" mask="url(#path-1-inside-1_14578_1346)"/>
<path d="M69.923 -0.782089C67.5905 -0.782089 65.6997 -2.67291 65.6997 -5.00535C65.6997 -7.33779 67.5905 -9.22861 69.923 -9.22861C72.2554 -9.22861 74.1462 -7.33779 74.1462 -5.00535C74.1462 -2.67291 72.2554 -0.782089 69.923 -0.782089Z" stroke="#392D2B" stroke-width="1.4625" mask="url(#path-1-inside-1_14578_1346)"/>
<path d="M60.5379 -0.782089C58.2055 -0.782089 56.3147 -2.67291 56.3147 -5.00535C56.3147 -7.33779 58.2055 -9.22861 60.5379 -9.22861C62.8704 -9.22861 64.7612 -7.33779 64.7612 -5.00535C64.7612 -2.67291 62.8704 -0.782089 60.5379 -0.782089Z" stroke="#392D2B" stroke-width="1.4625" mask="url(#path-1-inside-1_14578_1346)"/>
<path d="M51.1529 -0.782089C48.8205 -0.782089 46.9296 -2.67291 46.9296 -5.00535C46.9296 -7.33779 48.8205 -9.22861 51.1529 -9.22861C53.4853 -9.22861 55.3762 -7.33779 55.3762 -5.00535C55.3762 -2.67291 53.4853 -0.782089 51.1529 -0.782089Z" stroke="#392D2B" stroke-width="1.4625" mask="url(#path-1-inside-1_14578_1346)"/>
<path d="M41.7679 -0.782089C39.4354 -0.782089 37.5446 -2.67291 37.5446 -5.00535C37.5446 -7.33779 39.4354 -9.22861 41.7679 -9.22861C44.1003 -9.22861 45.9911 -7.33779 45.9911 -5.00535C45.9911 -2.67291 44.1003 -0.782089 41.7679 -0.782089Z" stroke="#392D2B" stroke-width="1.4625" mask="url(#path-1-inside-1_14578_1346)"/>
<path d="M32.3828 -0.782089C30.0504 -0.782089 28.1596 -2.67291 28.1596 -5.00535C28.1596 -7.33779 30.0504 -9.22861 32.3828 -9.22861C34.7153 -9.22861 36.6061 -7.33779 36.6061 -5.00535C36.6061 -2.67291 34.7153 -0.782089 32.3828 -0.782089Z" stroke="#392D2B" stroke-width="1.4625" mask="url(#path-1-inside-1_14578_1346)"/>
<path d="M22.9978 -0.782089C20.6654 -0.782089 18.7746 -2.67291 18.7746 -5.00535C18.7746 -7.33779 20.6654 -9.22861 22.9978 -9.22861C25.3303 -9.22861 27.2211 -7.33779 27.2211 -5.00535C27.2211 -2.67291 25.3303 -0.782089 22.9978 -0.782089Z" stroke="#392D2B" stroke-width="1.4625" mask="url(#path-1-inside-1_14578_1346)"/>
<path d="M13.6128 -0.782089C11.2803 -0.782089 9.38953 -2.67291 9.38953 -5.00535C9.38953 -7.33779 11.2803 -9.22861 13.6128 -9.22861C15.9452 -9.22861 17.8361 -7.33779 17.8361 -5.00535C17.8361 -2.67291 15.9452 -0.782089 13.6128 -0.782089Z" stroke="#392D2B" stroke-width="1.4625" mask="url(#path-1-inside-1_14578_1346)"/>
<path d="M4.22776 -0.782089C1.89532 -0.782089 0.00450265 -2.67291 0.00450265 -5.00535C0.00450265 -7.33779 1.89532 -9.22861 4.22776 -9.22861C6.56021 -9.22861 8.45103 -7.33779 8.45103 -5.00535C8.45103 -2.67291 6.56021 -0.782089 4.22776 -0.782089Z" stroke="#392D2B" stroke-width="1.4625" mask="url(#path-1-inside-1_14578_1346)"/>
<path d="M220.083 9.22861C217.751 9.22861 215.86 7.33779 215.86 5.00535C215.86 2.6729 217.751 0.782082 220.083 0.782082C222.416 0.782082 224.307 2.6729 224.307 5.00535C224.307 7.33779 222.416 9.22861 220.083 9.22861Z" stroke="#392D2B" stroke-width="1.4625" mask="url(#path-1-inside-1_14578_1346)"/>
<path d="M210.698 9.22861C208.366 9.22861 206.475 7.33779 206.475 5.00535C206.475 2.6729 208.366 0.782082 210.698 0.782082C213.031 0.782082 214.922 2.6729 214.922 5.00535C214.922 7.33779 213.031 9.22861 210.698 9.22861Z" stroke="#392D2B" stroke-width="1.4625" mask="url(#path-1-inside-1_14578_1346)"/>
<path d="M201.313 9.22861C198.981 9.22861 197.09 7.33779 197.09 5.00535C197.09 2.6729 198.981 0.782082 201.313 0.782082C203.646 0.782082 205.537 2.6729 205.537 5.00535C205.537 7.33779 203.646 9.22861 201.313 9.22861Z" stroke="#392D2B" stroke-width="1.4625" mask="url(#path-1-inside-1_14578_1346)"/>
<path d="M191.928 9.22861C189.596 9.22861 187.705 7.33779 187.705 5.00535C187.705 2.6729 189.596 0.782082 191.928 0.782082C194.261 0.782082 196.152 2.6729 196.152 5.00535C196.152 7.33779 194.261 9.22861 191.928 9.22861Z" stroke="#392D2B" stroke-width="1.4625" mask="url(#path-1-inside-1_14578_1346)"/>
<path d="M154.388 9.22861C152.056 9.22861 150.165 7.33779 150.165 5.00535C150.165 2.6729 152.056 0.782082 154.388 0.782082C156.721 0.782082 158.611 2.6729 158.611 5.00535C158.611 7.33779 156.721 9.22861 154.388 9.22861Z" stroke="#392D2B" stroke-width="1.4625" mask="url(#path-1-inside-1_14578_1346)"/>
<path d="M145.003 9.22861C142.671 9.22861 140.78 7.33779 140.78 5.00535C140.78 2.6729 142.671 0.782082 145.003 0.782082C147.336 0.782082 149.226 2.6729 149.226 5.00535C149.226 7.33779 147.336 9.22861 145.003 9.22861Z" stroke="#392D2B" stroke-width="1.4625" mask="url(#path-1-inside-1_14578_1346)"/>
<path d="M135.618 9.22861C133.286 9.22861 131.395 7.33779 131.395 5.00535C131.395 2.6729 133.286 0.782082 135.618 0.782082C137.951 0.782082 139.841 2.6729 139.841 5.00535C139.841 7.33779 137.951 9.22861 135.618 9.22861Z" stroke="#392D2B" stroke-width="1.4625" mask="url(#path-1-inside-1_14578_1346)"/>
<path d="M126.233 9.22861C123.901 9.22861 122.01 7.33779 122.01 5.00535C122.01 2.6729 123.901 0.782082 126.233 0.782082C128.566 0.782082 130.456 2.6729 130.456 5.00535C130.456 7.33779 128.566 9.22861 126.233 9.22861Z" stroke="#392D2B" stroke-width="1.4625" mask="url(#path-1-inside-1_14578_1346)"/>
<path d="M116.848 9.22861C114.516 9.22861 112.625 7.33779 112.625 5.00535C112.625 2.6729 114.516 0.782082 116.848 0.782082C119.181 0.782082 121.071 2.6729 121.071 5.00535C121.071 7.33779 119.181 9.22861 116.848 9.22861Z" stroke="#392D2B" stroke-width="1.4625" mask="url(#path-1-inside-1_14578_1346)"/>
<path d="M107.463 9.22861C105.131 9.22861 103.24 7.33779 103.24 5.00535C103.24 2.6729 105.131 0.782082 107.463 0.782082C109.796 0.782082 111.686 2.6729 111.686 5.00535C111.686 7.33779 109.796 9.22861 107.463 9.22861Z" stroke="#392D2B" stroke-width="1.4625" mask="url(#path-1-inside-1_14578_1346)"/>
<path d="M98.078 9.22861C95.7456 9.22861 93.8548 7.33779 93.8548 5.00535C93.8548 2.6729 95.7456 0.782082 98.078 0.782082C100.41 0.782082 102.301 2.6729 102.301 5.00535C102.301 7.33779 100.41 9.22861 98.078 9.22861Z" stroke="#392D2B" stroke-width="1.4625" mask="url(#path-1-inside-1_14578_1346)"/>
<path d="M79.308 9.22861C76.9755 9.22861 75.0847 7.33779 75.0847 5.00535C75.0847 2.6729 76.9755 0.782082 79.308 0.782082C81.6404 0.782082 83.5312 2.6729 83.5312 5.00535C83.5312 7.33779 81.6404 9.22861 79.308 9.22861Z" stroke="#392D2B" stroke-width="1.4625" mask="url(#path-1-inside-1_14578_1346)"/>
<path d="M69.923 9.22861C67.5905 9.22861 65.6997 7.33779 65.6997 5.00535C65.6997 2.6729 67.5905 0.782082 69.923 0.782082C72.2554 0.782082 74.1462 2.6729 74.1462 5.00535C74.1462 7.33779 72.2554 9.22861 69.923 9.22861Z" stroke="#392D2B" stroke-width="1.4625" mask="url(#path-1-inside-1_14578_1346)"/>
<path d="M60.5379 9.22861C58.2055 9.22861 56.3147 7.33779 56.3147 5.00535C56.3147 2.6729 58.2055 0.782082 60.5379 0.782082C62.8704 0.782082 64.7612 2.6729 64.7612 5.00535C64.7612 7.33779 62.8704 9.22861 60.5379 9.22861Z" stroke="#392D2B" stroke-width="1.4625" mask="url(#path-1-inside-1_14578_1346)"/>
<path d="M51.1529 9.22861C48.8205 9.22861 46.9296 7.33779 46.9296 5.00535C46.9296 2.6729 48.8205 0.782082 51.1529 0.782082C53.4853 0.782082 55.3762 2.6729 55.3762 5.00535C55.3762 7.33779 53.4853 9.22861 51.1529 9.22861Z" stroke="#392D2B" stroke-width="1.4625" mask="url(#path-1-inside-1_14578_1346)"/>
<path d="M41.7679 9.22861C39.4354 9.22861 37.5446 7.33779 37.5446 5.00535C37.5446 2.6729 39.4354 0.782082 41.7679 0.782082C44.1003 0.782082 45.9911 2.6729 45.9911 5.00535C45.9911 7.33779 44.1003 9.22861 41.7679 9.22861Z" stroke="#392D2B" stroke-width="1.4625" mask="url(#path-1-inside-1_14578_1346)"/>
<path d="M32.3828 9.22861C30.0504 9.22861 28.1596 7.33779 28.1596 5.00535C28.1596 2.6729 30.0504 0.782082 32.3828 0.782082C34.7153 0.782082 36.6061 2.6729 36.6061 5.00535C36.6061 7.33779 34.7153 9.22861 32.3828 9.22861Z" stroke="#392D2B" stroke-width="1.4625" mask="url(#path-1-inside-1_14578_1346)"/>
<path d="M22.9978 9.22861C20.6654 9.22861 18.7746 7.33779 18.7746 5.00535C18.7746 2.6729 20.6654 0.782082 22.9978 0.782082C25.3303 0.782082 27.2211 2.6729 27.2211 5.00535C27.2211 7.33779 25.3303 9.22861 22.9978 9.22861Z" stroke="#392D2B" stroke-width="1.4625" mask="url(#path-1-inside-1_14578_1346)"/>
<path d="M13.6128 9.22861C11.2803 9.22861 9.38953 7.33779 9.38953 5.00535C9.38953 2.6729 11.2803 0.782082 13.6128 0.782082C15.9452 0.782082 17.8361 2.6729 17.8361 5.00535C17.8361 7.33779 15.9452 9.22861 13.6128 9.22861Z" stroke="#392D2B" stroke-width="1.4625" mask="url(#path-1-inside-1_14578_1346)"/>
<path d="M220.083 19.2393C217.751 19.2393 215.86 17.3485 215.86 15.016C215.86 12.6836 217.751 10.7928 220.083 10.7928C222.416 10.7928 224.307 12.6836 224.307 15.016C224.307 17.3485 222.416 19.2393 220.083 19.2393Z" stroke="#392D2B" stroke-width="1.4625" mask="url(#path-1-inside-1_14578_1346)"/>
<path d="M210.698 19.2393C208.366 19.2393 206.475 17.3485 206.475 15.016C206.475 12.6836 208.366 10.7928 210.698 10.7928C213.031 10.7928 214.922 12.6836 214.922 15.016C214.922 17.3485 213.031 19.2393 210.698 19.2393Z" stroke="#392D2B" stroke-width="1.4625" mask="url(#path-1-inside-1_14578_1346)"/>
<path d="M201.313 19.2393C198.981 19.2393 197.09 17.3485 197.09 15.016C197.09 12.6836 198.981 10.7928 201.313 10.7928C203.646 10.7928 205.537 12.6836 205.537 15.016C205.537 17.3485 203.646 19.2393 201.313 19.2393Z" stroke="#392D2B" stroke-width="1.4625" mask="url(#path-1-inside-1_14578_1346)"/>
<path d="M191.928 19.2393C189.596 19.2393 187.705 17.3485 187.705 15.016C187.705 12.6836 189.596 10.7928 191.928 10.7928C194.261 10.7928 196.152 12.6836 196.152 15.016C196.152 17.3485 194.261 19.2393 191.928 19.2393Z" stroke="#392D2B" stroke-width="1.4625" mask="url(#path-1-inside-1_14578_1346)"/>
<path d="M163.773 19.2393C161.441 19.2393 159.55 17.3485 159.55 15.016C159.55 12.6836 161.441 10.7928 163.773 10.7928C166.106 10.7928 167.996 12.6836 167.996 15.016C167.996 17.3485 166.106 19.2393 163.773 19.2393Z" stroke="#392D2B" stroke-width="1.4625" mask="url(#path-1-inside-1_14578_1346)"/>
<path d="M154.388 19.2393C152.056 19.2393 150.165 17.3485 150.165 15.016C150.165 12.6836 152.056 10.7928 154.388 10.7928C156.721 10.7928 158.611 12.6836 158.611 15.016C158.611 17.3485 156.721 19.2393 154.388 19.2393Z" stroke="#392D2B" stroke-width="1.4625" mask="url(#path-1-inside-1_14578_1346)"/>
<path d="M145.003 19.2393C142.671 19.2393 140.78 17.3485 140.78 15.016C140.78 12.6836 142.671 10.7928 145.003 10.7928C147.336 10.7928 149.226 12.6836 149.226 15.016C149.226 17.3485 147.336 19.2393 145.003 19.2393Z" stroke="#392D2B" stroke-width="1.4625" mask="url(#path-1-inside-1_14578_1346)"/>
<path d="M135.618 19.2393C133.286 19.2393 131.395 17.3485 131.395 15.016C131.395 12.6836 133.286 10.7928 135.618 10.7928C137.951 10.7928 139.841 12.6836 139.841 15.016C139.841 17.3485 137.951 19.2393 135.618 19.2393Z" stroke="#392D2B" stroke-width="1.4625" mask="url(#path-1-inside-1_14578_1346)"/>
<path d="M126.233 19.2393C123.901 19.2393 122.01 17.3485 122.01 15.016C122.01 12.6836 123.901 10.7928 126.233 10.7928C128.566 10.7928 130.456 12.6836 130.456 15.016C130.456 17.3485 128.566 19.2393 126.233 19.2393Z" stroke="#392D2B" stroke-width="1.4625" mask="url(#path-1-inside-1_14578_1346)"/>
<path d="M116.848 19.2393C114.516 19.2393 112.625 17.3485 112.625 15.016C112.625 12.6836 114.516 10.7928 116.848 10.7928C119.181 10.7928 121.071 12.6836 121.071 15.016C121.071 17.3485 119.181 19.2393 116.848 19.2393Z" stroke="#392D2B" stroke-width="1.4625" mask="url(#path-1-inside-1_14578_1346)"/>
<path d="M98.078 19.2393C95.7456 19.2393 93.8548 17.3485 93.8548 15.016C93.8548 12.6836 95.7456 10.7928 98.078 10.7928C100.41 10.7928 102.301 12.6836 102.301 15.016C102.301 17.3485 100.41 19.2393 98.078 19.2393Z" stroke="#392D2B" stroke-width="1.4625" mask="url(#path-1-inside-1_14578_1346)"/>
<path d="M88.693 19.2393C86.3606 19.2393 84.4697 17.3485 84.4697 15.016C84.4697 12.6836 86.3606 10.7928 88.693 10.7928C91.0254 10.7928 92.9163 12.6836 92.9163 15.016C92.9163 17.3485 91.0254 19.2393 88.693 19.2393Z" stroke="#392D2B" stroke-width="1.4625" mask="url(#path-1-inside-1_14578_1346)"/>
<path d="M79.308 19.2393C76.9755 19.2393 75.0847 17.3485 75.0847 15.016C75.0847 12.6836 76.9755 10.7928 79.308 10.7928C81.6404 10.7928 83.5312 12.6836 83.5312 15.016C83.5312 17.3485 81.6404 19.2393 79.308 19.2393Z" stroke="#392D2B" stroke-width="1.4625" mask="url(#path-1-inside-1_14578_1346)"/>
<path d="M69.923 19.2393C67.5905 19.2393 65.6997 17.3485 65.6997 15.016C65.6997 12.6836 67.5905 10.7928 69.923 10.7928C72.2554 10.7928 74.1462 12.6836 74.1462 15.016C74.1462 17.3485 72.2554 19.2393 69.923 19.2393Z" stroke="#392D2B" stroke-width="1.4625" mask="url(#path-1-inside-1_14578_1346)"/>
<path d="M60.5379 19.2393C58.2055 19.2393 56.3147 17.3485 56.3147 15.016C56.3147 12.6836 58.2055 10.7928 60.5379 10.7928C62.8704 10.7928 64.7612 12.6836 64.7612 15.016C64.7612 17.3485 62.8704 19.2393 60.5379 19.2393Z" stroke="#392D2B" stroke-width="1.4625" mask="url(#path-1-inside-1_14578_1346)"/>
<path d="M51.1529 19.2393C48.8205 19.2393 46.9296 17.3485 46.9296 15.016C46.9296 12.6836 48.8205 10.7928 51.1529 10.7928C53.4853 10.7928 55.3762 12.6836 55.3762 15.016C55.3762 17.3485 53.4853 19.2393 51.1529 19.2393Z" stroke="#392D2B" stroke-width="1.4625" mask="url(#path-1-inside-1_14578_1346)"/>
<path d="M41.7679 19.2393C39.4354 19.2393 37.5446 17.3485 37.5446 15.016C37.5446 12.6836 39.4354 10.7928 41.7679 10.7928C44.1003 10.7928 45.9911 12.6836 45.9911 15.016C45.9911 17.3485 44.1003 19.2393 41.7679 19.2393Z" stroke="#392D2B" stroke-width="1.4625" mask="url(#path-1-inside-1_14578_1346)"/>
<path d="M32.3828 19.2393C30.0504 19.2393 28.1596 17.3485 28.1596 15.016C28.1596 12.6836 30.0504 10.7928 32.3828 10.7928C34.7153 10.7928 36.6061 12.6836 36.6061 15.016C36.6061 17.3485 34.7153 19.2393 32.3828 19.2393Z" stroke="#392D2B" stroke-width="1.4625" mask="url(#path-1-inside-1_14578_1346)"/>
<path d="M220.083 29.25C217.751 29.25 215.86 27.3592 215.86 25.0267C215.86 22.6943 217.751 20.8035 220.083 20.8035C222.416 20.8035 224.307 22.6943 224.307 25.0267C224.307 27.3592 222.416 29.25 220.083 29.25Z" stroke="#392D2B" stroke-width="1.4625" mask="url(#path-1-inside-1_14578_1346)"/>
<path d="M182.543 29.25C180.211 29.25 178.32 27.3592 178.32 25.0267C178.32 22.6943 180.211 20.8035 182.543 20.8035C184.876 20.8035 186.767 22.6943 186.767 25.0267C186.767 27.3592 184.876 29.25 182.543 29.25Z" stroke="#392D2B" stroke-width="1.4625" mask="url(#path-1-inside-1_14578_1346)"/>
<path d="M173.158 29.25C170.826 29.25 168.935 27.3592 168.935 25.0267C168.935 22.6943 170.826 20.8035 173.158 20.8035C175.491 20.8035 177.382 22.6943 177.382 25.0267C177.382 27.3592 175.491 29.25 173.158 29.25Z" stroke="#392D2B" stroke-width="1.4625" mask="url(#path-1-inside-1_14578_1346)"/>
<path d="M163.773 29.25C161.441 29.25 159.55 27.3592 159.55 25.0267C159.55 22.6943 161.441 20.8035 163.773 20.8035C166.106 20.8035 167.996 22.6943 167.996 25.0267C167.996 27.3592 166.106 29.25 163.773 29.25Z" stroke="#392D2B" stroke-width="1.4625" mask="url(#path-1-inside-1_14578_1346)"/>
<path d="M154.388 29.25C152.056 29.25 150.165 27.3592 150.165 25.0267C150.165 22.6943 152.056 20.8035 154.388 20.8035C156.721 20.8035 158.611 22.6943 158.611 25.0267C158.611 27.3592 156.721 29.25 154.388 29.25Z" stroke="#392D2B" stroke-width="1.4625" mask="url(#path-1-inside-1_14578_1346)"/>
<path d="M145.003 29.25C142.671 29.25 140.78 27.3592 140.78 25.0267C140.78 22.6943 142.671 20.8035 145.003 20.8035C147.336 20.8035 149.226 22.6943 149.226 25.0267C149.226 27.3592 147.336 29.25 145.003 29.25Z" stroke="#392D2B" stroke-width="1.4625" mask="url(#path-1-inside-1_14578_1346)"/>
<path d="M135.618 29.25C133.286 29.25 131.395 27.3592 131.395 25.0267C131.395 22.6943 133.286 20.8035 135.618 20.8035C137.951 20.8035 139.841 22.6943 139.841 25.0267C139.841 27.3592 137.951 29.25 135.618 29.25Z" stroke="#392D2B" stroke-width="1.4625" mask="url(#path-1-inside-1_14578_1346)"/>
<path d="M126.233 29.25C123.901 29.25 122.01 27.3592 122.01 25.0267C122.01 22.6943 123.901 20.8035 126.233 20.8035C128.566 20.8035 130.456 22.6943 130.456 25.0267C130.456 27.3592 128.566 29.25 126.233 29.25Z" stroke="#392D2B" stroke-width="1.4625" mask="url(#path-1-inside-1_14578_1346)"/>
<path d="M116.848 29.25C114.516 29.25 112.625 27.3592 112.625 25.0267C112.625 22.6943 114.516 20.8035 116.848 20.8035C119.181 20.8035 121.071 22.6943 121.071 25.0267C121.071 27.3592 119.181 29.25 116.848 29.25Z" stroke="#392D2B" stroke-width="1.4625" mask="url(#path-1-inside-1_14578_1346)"/>
<path d="M88.693 29.25C86.3606 29.25 84.4697 27.3592 84.4697 25.0267C84.4697 22.6943 86.3606 20.8035 88.693 20.8035C91.0254 20.8035 92.9163 22.6943 92.9163 25.0267C92.9163 27.3592 91.0254 29.25 88.693 29.25Z" stroke="#392D2B" stroke-width="1.4625" mask="url(#path-1-inside-1_14578_1346)"/>
<path d="M79.308 29.25C76.9755 29.25 75.0847 27.3592 75.0847 25.0267C75.0847 22.6943 76.9755 20.8035 79.308 20.8035C81.6404 20.8035 83.5312 22.6943 83.5312 25.0267C83.5312 27.3592 81.6404 29.25 79.308 29.25Z" stroke="#392D2B" stroke-width="1.4625" mask="url(#path-1-inside-1_14578_1346)"/>
<path d="M69.923 29.25C67.5905 29.25 65.6997 27.3592 65.6997 25.0267C65.6997 22.6943 67.5905 20.8035 69.923 20.8035C72.2554 20.8035 74.1462 22.6943 74.1462 25.0267C74.1462 27.3592 72.2554 29.25 69.923 29.25Z" stroke="#392D2B" stroke-width="1.4625" mask="url(#path-1-inside-1_14578_1346)"/>
<path d="M60.5379 29.25C58.2055 29.25 56.3147 27.3592 56.3147 25.0267C56.3147 22.6943 58.2055 20.8035 60.5379 20.8035C62.8704 20.8035 64.7612 22.6943 64.7612 25.0267C64.7612 27.3592 62.8704 29.25 60.5379 29.25Z" stroke="#392D2B" stroke-width="1.4625" mask="url(#path-1-inside-1_14578_1346)"/>
<path d="M51.1529 29.25C48.8205 29.25 46.9296 27.3592 46.9296 25.0267C46.9296 22.6943 48.8205 20.8035 51.1529 20.8035C53.4853 20.8035 55.3762 22.6943 55.3762 25.0267C55.3762 27.3592 53.4853 29.25 51.1529 29.25Z" stroke="#392D2B" stroke-width="1.4625" mask="url(#path-1-inside-1_14578_1346)"/>
<path d="M41.7679 29.25C39.4354 29.25 37.5446 27.3592 37.5446 25.0267C37.5446 22.6943 39.4354 20.8035 41.7679 20.8035C44.1003 20.8035 45.9911 22.6943 45.9911 25.0267C45.9911 27.3592 44.1003 29.25 41.7679 29.25Z" stroke="#392D2B" stroke-width="1.4625" mask="url(#path-1-inside-1_14578_1346)"/>
<path d="M32.3828 29.25C30.0504 29.25 28.1596 27.3592 28.1596 25.0267C28.1596 22.6943 30.0504 20.8035 32.3828 20.8035C34.7153 20.8035 36.6061 22.6943 36.6061 25.0267C36.6061 27.3592 34.7153 29.25 32.3828 29.25Z" stroke="#392D2B" stroke-width="1.4625" mask="url(#path-1-inside-1_14578_1346)"/>
<path d="M22.9978 29.25C20.6654 29.25 18.7746 27.3592 18.7746 25.0267C18.7746 22.6943 20.6654 20.8035 22.9978 20.8035C25.3303 20.8035 27.2211 22.6943 27.2211 25.0267C27.2211 27.3592 25.3303 29.25 22.9978 29.25Z" stroke="#392D2B" stroke-width="1.4625" mask="url(#path-1-inside-1_14578_1346)"/>
<path d="M13.6128 29.25C11.2803 29.25 9.38953 27.3592 9.38953 25.0267C9.38953 22.6943 11.2803 20.8035 13.6128 20.8035C15.9452 20.8035 17.8361 22.6943 17.8361 25.0267C17.8361 27.3592 15.9452 29.25 13.6128 29.25Z" stroke="#392D2B" stroke-width="1.4625" mask="url(#path-1-inside-1_14578_1346)"/>
<path d="M4.22776 29.25C1.89532 29.25 0.00450265 27.3592 0.00450265 25.0267C0.00450265 22.6943 1.89532 20.8035 4.22776 20.8035C6.56021 20.8035 8.45103 22.6943 8.45103 25.0267C8.45103 27.3592 6.56021 29.25 4.22776 29.25Z" stroke="#392D2B" stroke-width="1.4625" mask="url(#path-1-inside-1_14578_1346)"/>
</g>
<defs>
<clipPath id="clip0_14578_1346">
<rect width="224" height="20" fill="white"/>
</clipPath>
</defs>
</svg>
