<svg width="171" height="104" viewBox="0 0 171 104" fill="none" xmlns="http://www.w3.org/2000/svg">
<path d="M122.019 76.4797C122.019 76.4797 110.689 103.322 82.3635 103.322C55.4543 104.6 42.7078 79.0361 42.7078 79.0361C42.7078 79.0361 12.966 90.54 1.63565 64.9758C-5.72901 48.3591 13.6302 31.7425 22.8798 31.7425C22.8798 31.7425 26.3453 16.404 42.7078 12.5694C59.0703 8.7348 73.0052 16.178 72.4496 17.6822C71.895 19.1839 82.3635 -5.32548 107.856 1.06552C130.517 6.74647 130.517 29.1861 130.517 29.1861C130.517 29.1861 174.421 22.795 170.173 59.863C161.675 94.3745 122.019 76.4797 122.019 76.4797Z" fill="#F6F5F2"/>
</svg>
