<svg preserveAspectRatio="none" width="100%" height="100%" overflow="visible" style="display: block;" viewBox="0 0 170.462 103.368" fill="none" xmlns="http://www.w3.org/2000/svg">
<g id="Frame 48097377">
<path id="Vector 44" d="M122.019 76.4797C122.019 76.4797 110.689 103.322 82.3635 103.322C55.4543 104.6 42.7078 79.0361 42.7078 79.0361C42.7078 79.0361 12.966 90.54 1.63565 64.9758C-5.72901 48.3591 13.6302 31.7425 22.8798 31.7425C22.8798 31.7425 26.3453 16.404 42.7078 12.5694C59.0703 8.7348 73.0052 16.178 72.4496 17.6822C71.895 19.1839 82.3635 -5.32548 107.856 1.06552C130.517 6.74647 130.517 29.1861 130.517 29.1861C130.517 29.1861 174.421 22.795 170.173 59.863C161.675 94.3745 122.019 76.4797 122.019 76.4797Z" fill="var(--fill-0, #F6F5F2)"/>
<g id="LOGO">
<g id="Union" filter="url(#filter0_f_0_83)">
<path d="M86.781 45.398C89.717 45.398 92.0974 47.6928 92.0974 50.523C92.0974 50.6182 92.0946 50.7127 92.0891 50.8065C92.0664 51.1948 92.4556 51.5371 92.8366 51.4591C93.1942 51.3858 93.565 51.3472 93.9451 51.3472C96.8809 51.3475 99.2605 53.6421 99.2605 56.4722C99.2603 59.3021 96.8808 61.596 93.9451 61.5962C92.8903 61.5962 91.9073 61.2999 91.0807 60.7891C90.7687 60.5964 90.3255 60.751 90.2095 61.0988C89.3156 63.7796 86.7096 65.7202 83.6316 65.7203C80.7531 65.7203 78.2865 64.0232 77.2473 61.6109C77.1354 61.3509 76.835 61.2201 76.5668 61.3105C76.0186 61.4952 75.4297 61.5962 74.8162 61.5962C71.8803 61.5962 69.5 59.3023 69.4998 56.4722C69.4998 54.2856 70.9203 52.4186 72.9204 51.6826C73.0784 51.6244 73.2001 51.4945 73.2487 51.3332C73.8913 49.1998 75.9328 47.6402 78.3533 47.6402C79.4065 47.6402 80.3878 47.9357 81.2137 48.4451C81.4937 48.6179 81.8795 48.51 82.032 48.2185C82.907 46.5456 84.7047 45.398 86.781 45.398Z" fill="var(--fill-0, #B7D1EA)"/>
</g>
<path id="Union_2" d="M86.781 45.398C89.717 45.398 92.0974 47.6928 92.0974 50.523C92.0974 50.6182 92.0946 50.7127 92.0891 50.8065C92.0664 51.1948 92.4556 51.5371 92.8366 51.4591C93.1942 51.3858 93.565 51.3472 93.9451 51.3472C96.8809 51.3475 99.2605 53.6421 99.2605 56.4722C99.2603 59.3021 96.8808 61.596 93.9451 61.5962C92.8903 61.5962 91.9073 61.2999 91.0807 60.7891C90.7687 60.5964 90.3255 60.751 90.2095 61.0988C89.3156 63.7796 86.7096 65.7202 83.6316 65.7203C80.7531 65.7203 78.2865 64.0232 77.2473 61.6109C77.1354 61.3509 76.835 61.2201 76.5668 61.3105C76.0186 61.4952 75.4297 61.5962 74.8162 61.5962C71.8803 61.5962 69.5 59.3023 69.4998 56.4722C69.4998 54.2856 70.9203 52.4186 72.9204 51.6826C73.0784 51.6244 73.2001 51.4945 73.2487 51.3332C73.8913 49.1998 75.9328 47.6402 78.3533 47.6402C79.4065 47.6402 80.3878 47.9357 81.2137 48.4451C81.4937 48.6179 81.8795 48.51 82.032 48.2185C82.907 46.5456 84.7047 45.398 86.781 45.398Z" fill="var(--fill-0, #B7D1EA)"/>
<g id="Logo">
<path id="c" d="M54.5189 31.9493C51.7609 31.9493 50.2459 35.29 50.2459 39.835C50.2459 45.3511 52.3436 50.3622 56.1116 50.3622C57.7809 50.3622 59.7213 49.3113 61.2996 47.7796C61.4746 47.6097 61.7609 47.6264 61.9073 47.8215C62.0167 47.9674 62.0124 48.1692 61.8951 48.3089C60.2394 50.2806 57.9501 52.5764 54.4413 52.5764C50.0517 52.5764 46.439 49.0026 46.439 42.2046C46.439 35.7562 49.469 30.8228 55.9951 30.8228C59.6466 30.8228 61.3169 32.2989 61.3169 33.7362C61.3169 34.785 60.5789 35.9116 59.2581 35.9116C56.7331 35.9116 57.5101 31.9493 54.5189 31.9493Z" fill="var(--fill-0, #262521)"/>
<path id="e" d="M111.488 80.6535C106.954 80.6535 102.961 77.1574 102.961 70.2817C102.961 63.8333 106.371 58.8999 111.987 58.8999C115.152 58.8999 118.769 60.5519 119.115 66.0291C119.146 66.5219 118.766 66.9383 118.275 66.9856L107.91 67.9834C107.416 68.031 107.037 68.4489 107.063 68.9448C107.325 74.0567 109.539 78.4393 113.318 78.4393C115.191 78.4393 117.211 77.3791 118.897 75.8364C119.075 75.673 119.356 75.6894 119.508 75.8781C119.632 76.0337 119.628 76.2565 119.494 76.4043C117.709 78.3719 115.114 80.6535 111.488 80.6535ZM111.446 60.0265C109.158 60.0265 107.749 62.1119 107.25 65.1999C107.161 65.7564 107.606 66.2418 108.17 66.2418H114.188C114.734 66.2418 115.173 65.7854 115.12 65.2419C114.661 60.5721 112.615 60.0265 111.446 60.0265Z" fill="var(--fill-0, #262521)"/>
<path id="n" d="M93.3074 87.173C93.5055 87.1933 93.6583 87.3599 93.6583 87.559C93.6583 87.7728 93.4849 87.9462 93.2711 87.9462H84.2907C84.0794 87.9462 83.908 87.7748 83.908 87.5635C83.908 87.3631 84.0642 87.1967 84.264 87.1812C87.0635 86.9628 87.1711 86.7376 87.1711 82.8185V72.8352C87.1711 69.604 86.3689 69.1361 84.8476 69.0852C84.6439 69.0784 84.4781 68.9146 84.4781 68.7108C84.4781 68.507 84.6435 68.3428 84.847 68.3321C86.7128 68.2342 88.3702 67.3866 90.2751 65.7597C90.3698 65.6788 90.5063 65.6676 90.6118 65.7336C90.6946 65.7854 90.7449 65.8761 90.7449 65.9737V68.0751C90.7449 68.8591 91.6345 69.3086 92.2728 68.8534C94.5212 67.2497 95.7378 66.581 97.5429 66.581C100.728 66.581 102.088 68.7176 102.088 73.146V82.8185C102.088 86.7389 102.231 86.9271 105.036 87.1772C105.235 87.1949 105.39 87.3615 105.39 87.5612C105.39 87.7738 105.217 87.9462 105.005 87.9462H96.024C95.8116 87.9462 95.6394 87.774 95.6394 87.5616C95.6394 87.3617 95.7943 87.1953 95.9934 87.1774C98.4076 86.9601 98.514 86.7152 98.514 82.8185V74.9717C98.514 69.9218 96.7271 68.7564 95.0567 68.7564C93.0368 68.7564 90.7449 70.8541 90.7449 74.4667V82.8185C90.7449 86.7169 90.8868 86.9248 93.3074 87.173Z" fill="var(--fill-0, #262521)"/>
<path id="o" d="M77.0331 88.3345C82.5491 88.3345 85.5791 84.4111 85.5791 78.0016C85.5791 71.1259 81.9665 66.5809 76.5281 66.5809C70.8954 66.5809 67.982 70.5044 67.982 76.875C67.982 83.7896 71.517 88.3345 77.0331 88.3345ZM77.1884 67.5909C79.6746 67.5909 81.6168 70.1159 81.6168 76.0981C81.6168 81.8473 80.063 87.3245 76.2561 87.3245C73.6535 87.3245 72.0608 84.7996 72.0608 78.895C72.0608 72.9905 73.5369 67.5909 77.1884 67.5909Z" fill="var(--fill-0, #262521)"/>
<path id="t" d="M68.817 86.3774C69.0504 86.2494 69.346 86.3136 69.4848 86.5407C69.5895 86.7121 69.576 86.9315 69.4493 87.0873C68.8493 87.8255 68.3199 88.3346 66.4717 88.3346C64.0244 88.3346 62.2375 86.8196 62.2375 84.1004V69.5206L62.2376 69.1322V68.3164C62.2376 67.2354 62.2376 66.4157 62.2328 64.0825C62.2324 63.8676 62.4065 63.6919 62.6215 63.6919C62.8198 63.6919 62.9883 63.84 63.0303 64.0338C63.2199 64.9071 63.9507 67.1908 66.4717 67.7564C67.2662 67.9346 68.137 68.1316 68.6064 68.2379C68.8092 68.2838 68.953 68.464 68.953 68.6719C68.953 68.8926 68.7914 69.0799 68.5731 69.1123L66.6291 69.4008C66.1592 69.4705 65.8113 69.8738 65.8113 70.3489V83.5566C65.8113 85.7708 66.5494 86.6254 67.9478 86.6254C68.2608 86.6254 68.4997 86.5515 68.817 86.3774Z" fill="var(--fill-0, #262521)"/>
<path id="s" d="M53.5542 80.6756C51.6906 80.5706 50.2897 79.5886 49.2862 79.532C48.7982 79.5045 48.42 79.6273 48.1675 80.0333C48.0314 80.252 47.8096 80.4215 47.5524 80.407C47.259 80.3905 47.0272 80.1519 47.0191 79.8581L46.8409 73.3973C46.8312 73.0472 47.1097 72.7569 47.4598 72.752C47.737 72.748 47.9841 72.9269 48.0674 73.1914C49.1347 76.5781 49.9792 79.1564 53.2766 79.6484C55.427 79.7696 57.5864 78.8797 57.7219 76.4751C58.0192 71.2004 46.9523 70.5461 47.2998 64.0599C47.4637 61.1511 49.9995 58.6872 55.1127 58.9754C56.833 59.0723 57.6691 59.5474 58.6249 59.6013C59.1127 59.6288 59.4402 59.422 59.7346 58.8205C59.8356 58.6141 60.0429 58.4751 60.2722 58.488C60.5424 58.5032 60.7575 58.7199 60.7707 58.9902L61.0529 64.7527C61.0687 65.0757 60.8148 65.3479 60.4915 65.3547C60.2426 65.3599 60.0191 65.203 59.9338 64.9691C58.8069 61.88 57.4372 60.118 54.9603 59.9784C53.001 59.868 51.1717 60.8543 51.0668 62.7159C50.8089 67.2924 61.7996 68.1288 61.4411 75.1284C61.2269 78.9292 56.9471 80.8668 53.5542 80.6756Z" fill="var(--fill-0, #262521)"/>
<path id="d" d="M122.163 51.8008C122.163 52.0147 121.99 52.188 121.776 52.188H116.544C116.065 52.188 115.676 51.7993 115.676 51.3198C115.676 50.4718 114.528 50.089 113.916 50.6759C112.652 51.8873 111.267 52.5765 109.616 52.5765C105.654 52.5765 102.91 48.6266 102.91 43.4562C102.91 37.096 106.819 33.169 111.481 33.169C112.411 33.169 113.33 33.3334 114.127 33.5828C114.838 33.8053 115.676 33.3088 115.676 32.5638V32.1668C115.676 29.8247 114.874 29.4211 113.352 29.3749C113.149 29.3687 112.983 29.2047 112.983 29.0009C112.983 28.7971 113.148 28.6329 113.352 28.6222C115.218 28.5243 116.875 27.6767 118.78 26.0498C118.875 25.9689 119.011 25.9577 119.117 26.0237C119.199 26.0754 119.25 26.1661 119.25 26.2637V47.0604C119.25 50.9588 119.392 51.1667 121.812 51.4149C122.01 51.4352 122.163 51.6017 122.163 51.8008ZM110.781 50.7896C112.82 50.7896 114.783 48.9986 115.651 45.3412C115.668 45.2711 115.676 45.1983 115.676 45.1262V39.7339C115.676 35.7716 113.267 34.412 111.286 34.412C108.295 34.412 106.755 37.096 106.755 42.99C106.755 47.6943 108.14 50.7896 110.781 50.7896Z" fill="var(--fill-0, #262521)"/>
<path id="o_2" d="M77.0331 22.0679C82.5491 22.0679 85.5791 25.9913 85.5791 32.4009C85.5791 39.2765 81.9665 43.8215 76.5281 43.8215C70.8954 43.8215 67.982 39.8981 67.982 33.5274C67.982 26.6129 71.517 22.0679 77.0331 22.0679ZM77.1884 42.8115C79.6746 42.8115 81.6168 40.2865 81.6168 34.3043C81.6168 28.5551 80.063 23.0779 76.2561 23.0779C73.6535 23.0779 72.0608 25.6029 72.0608 31.5074C72.0608 37.4119 73.5369 42.8115 77.1884 42.8115Z" fill="var(--fill-0, #262521)"/>
<path id="l" d="M69.0945 42.6607C69.2926 42.6808 69.4452 42.8474 69.4452 43.0465C69.4452 43.2603 69.2718 43.4337 69.058 43.4337H59.728C59.5166 43.4337 59.3453 43.2623 59.3453 43.051C59.3453 42.8506 59.5015 42.6843 59.7013 42.6687C62.5007 42.4503 62.6083 42.2251 62.6083 38.306V28.2049C62.6083 25.8628 61.8062 25.4592 60.2848 25.413C60.0811 25.4068 59.9153 25.2428 59.9153 25.039C59.9153 24.8351 60.0807 24.671 60.2843 24.6603C62.15 24.5624 63.8075 23.7148 65.7124 22.0878C65.807 22.007 65.9435 21.9958 66.0491 22.0618C66.1319 22.1135 66.1821 22.2042 66.1821 22.3018V38.306C66.1821 42.2056 66.6437 42.4125 69.0945 42.6607Z" fill="var(--fill-0, #262521)"/>
<path id="u" d="M101.965 22.0861C102.048 22.1378 102.098 22.2285 102.098 22.3261V38.2126C102.098 38.3044 102.099 38.3941 102.099 38.4819V42.7701C102.099 43.2994 101.67 43.7286 101.141 43.7286H99.4831C98.9537 43.7286 98.5246 43.2994 98.5246 42.7701V42.2344C98.5246 41.4504 97.6349 41.0009 96.9967 41.4562C94.7483 43.0598 93.5317 43.7286 91.7266 43.7286C88.5412 43.7286 87.1816 41.592 87.1816 38.7174V28.229C87.1816 25.8499 86.9378 25.3741 85.7039 25.3271C85.5593 25.3216 85.4274 25.2383 85.3675 25.1065C85.2565 24.8622 85.4357 24.5834 85.7027 24.5556C87.171 24.403 88.5009 23.644 90.2857 22.1124C90.3801 22.0314 90.5167 22.0202 90.6222 22.0861C90.705 22.1378 90.7553 22.2285 90.7553 22.3261V36.8919C90.7554 40.3878 92.5423 41.5532 94.2127 41.5533C96.2326 41.5533 98.5246 39.4555 98.5246 37.7851V28.229C98.5246 25.887 97.7224 25.4834 96.2011 25.4372C95.9974 25.431 95.8317 25.267 95.8317 25.0632C95.8317 24.8595 95.997 24.6954 96.2005 24.6847C98.0663 24.5867 99.7238 23.7391 101.629 22.1122C101.723 22.0313 101.86 22.0202 101.965 22.0861Z" fill="var(--fill-0, #262521)"/>
</g>
<g id="Logo_2">
<path id="Vector" fill-rule="evenodd" clip-rule="evenodd" d="M92.4341 53.2154C93.0713 53.2154 93.6024 53.4278 94.0121 53.8527L94.0576 53.8982C94.4521 54.3231 94.6342 54.8997 94.6342 55.5976C94.6342 56.2956 94.5432 56.6446 94.3611 56.9936C94.179 57.3426 93.9059 57.6157 93.5569 57.7978C93.2079 57.995 92.8286 58.0861 92.4341 58.0861C91.7816 58.0861 91.2505 57.8737 90.8408 57.4488C90.4312 57.0239 90.2339 56.417 90.2339 55.6432C90.2339 54.8693 90.4615 54.1562 90.9622 53.7313C91.3719 53.3823 91.8575 53.2154 92.4341 53.2154ZM92.4341 54.1258C92.1002 54.1258 91.8423 54.2472 91.6147 54.49C91.4023 54.7328 91.2809 55.1121 91.2809 55.6432C91.2809 56.1742 91.4023 56.5687 91.6147 56.8115C91.8271 57.0543 92.1002 57.1757 92.4341 57.1757C92.7527 57.1757 93.0258 57.0543 93.2382 56.8115C93.4507 56.5687 93.5721 56.1894 93.5721 55.628C93.5721 55.0666 93.4507 54.7328 93.2382 54.5052C93.0258 54.2624 92.7527 54.141 92.4341 54.141V54.1258Z" fill="var(--fill-0, #F9F9F9)"/>
<path id="Vector_2" fill-rule="evenodd" clip-rule="evenodd" d="M75.8944 53.1705C76.2586 53.1705 76.5772 53.216 76.8503 53.3222H76.8959C77.1538 53.4436 77.3511 53.5953 77.4876 53.7774C77.6242 53.9747 77.7152 54.2175 77.7759 54.5209L77.8063 54.6727L76.7745 54.8092V54.6575C76.7289 54.4602 76.6379 54.3237 76.5165 54.2175C76.3951 54.1264 76.213 54.0657 75.9399 54.0657C75.6061 54.0657 75.4089 54.1264 75.3026 54.2023C75.1813 54.2933 75.1357 54.3844 75.1357 54.4754C75.1357 54.5361 75.1357 54.5816 75.1813 54.6271C75.1813 54.6423 75.1813 54.6423 75.1813 54.6423C75.2268 54.6878 75.2875 54.7485 75.3937 54.794C75.4544 54.8244 75.6668 54.8851 76.031 54.9761C76.562 55.1127 76.9262 55.2341 77.1538 55.3251C77.3814 55.4162 77.5787 55.5679 77.7 55.7651C77.8366 55.9624 77.8973 56.2052 77.8973 56.4783C77.8973 56.7514 77.8214 57.0245 77.6545 57.2673C77.4876 57.5101 77.26 57.6922 76.9717 57.8287C76.6834 57.9501 76.3496 58.026 75.9854 58.026C75.3937 58.026 74.9233 57.9046 74.5895 57.6467C74.2557 57.3887 74.0584 56.9942 73.9674 56.5086L73.937 56.3569L74.9688 56.19V56.3417C75.0295 56.5997 75.1206 56.7969 75.2723 56.9183C75.424 57.0397 75.6516 57.1156 75.9703 57.1156C76.2889 57.1156 76.5013 57.0549 76.6379 56.9487C76.7745 56.8273 76.8352 56.7059 76.8352 56.5693C76.8352 56.448 76.7896 56.3721 76.6834 56.2962C76.6531 56.281 76.5772 56.2355 76.4558 56.2052C76.3344 56.1597 76.1675 56.1141 75.9703 56.0686C75.424 55.9321 75.0295 55.8107 74.8019 55.7045C74.5743 55.5982 74.3922 55.4313 74.2557 55.2341C74.1343 55.0368 74.0736 54.8092 74.0736 54.5664C74.0736 54.354 74.1191 54.1416 74.2253 53.9595C74.3315 53.7774 74.4681 53.6105 74.635 53.4891L74.6805 53.4588C74.8019 53.3829 74.9688 53.307 75.1509 53.2615C75.3633 53.2008 75.5909 53.1705 75.8337 53.1705H75.8944Z" fill="var(--fill-0, #F9F9F9)"/>
<path id="Vector_3" fill-rule="evenodd" clip-rule="evenodd" d="M81.463 55.8554C81.463 56.25 81.4781 56.4927 81.5085 56.5989C81.554 56.7658 81.6299 56.8872 81.7513 56.9783H81.7816C81.903 57.0693 82.0396 57.1148 82.2368 57.1148C82.4341 57.1148 82.6161 57.0693 82.7831 56.9631C82.95 56.8569 83.0713 56.7355 83.132 56.5686C83.2079 56.4017 83.2383 56.1286 83.2383 55.7644V53.276H84.2852V57.9494H83.3293V57.57C82.9955 57.8887 82.5858 58.0556 82.0851 58.0556C81.812 58.0556 81.5388 57.9949 81.2961 57.8887C81.0533 57.7825 80.8712 57.6459 80.7346 57.4638C80.6132 57.2969 80.5374 57.0845 80.4767 56.8569C80.4463 56.69 80.4312 56.4472 80.4312 56.1286V53.276H81.4781V55.8554H81.463Z" fill="var(--fill-0, #F9F9F9)"/>
<path id="Vector_4" fill-rule="evenodd" clip-rule="evenodd" d="M88.5495 57.9499H87.5632V57.6616C87.2749 57.9196 86.9259 58.0561 86.4859 58.0561C86.1066 58.0561 85.7576 57.9499 85.4389 57.7375C85.1203 57.5251 84.8775 57.2368 84.7106 56.8726C84.5437 56.5084 84.4527 56.0836 84.4527 55.6132C84.4527 55.158 84.5285 54.7483 84.6803 54.369C84.832 53.9897 85.0748 53.6862 85.3934 53.4738C85.712 53.2613 86.061 53.1703 86.4555 53.1703C86.7438 53.1703 87.0018 53.231 87.2294 53.3524L87.2749 53.3827C87.366 53.4282 87.4418 53.4889 87.5177 53.5496V52.2447H88.5495V57.9499ZM86.5314 54.0807C86.2431 54.0807 86.0155 54.1869 85.8183 54.4297C85.6362 54.6573 85.53 55.0366 85.53 55.6132C85.53 56.1595 85.6514 56.5388 85.8486 56.7816C86.061 57.0243 86.3038 57.1457 86.5769 57.1457C86.8501 57.1457 87.0928 57.0395 87.2901 56.7967C87.4873 56.5691 87.5936 56.205 87.5936 55.6739C87.5936 55.0821 87.4722 54.6876 87.2749 54.4449C87.0625 54.2021 86.8197 54.0807 86.5314 54.0807Z" fill="var(--fill-0, #F9F9F9)"/>
<path id="Vector_5" fill-rule="evenodd" clip-rule="evenodd" d="M79.415 53.2765H80.1585V54.1566H79.415V56.5691C79.415 56.6754 79.415 56.7512 79.415 56.8119C79.415 56.8726 79.415 56.903 79.4302 56.9181C79.4302 56.9485 79.4605 56.9788 79.4909 56.994C79.5212 57.0092 79.5667 57.0243 79.673 57.0243C79.7792 57.0243 79.8399 57.0243 79.9764 56.994H80.1282C80.1282 56.9788 80.2647 57.9196 80.2647 57.9196L80.1282 57.9499C79.9157 57.9954 79.7336 58.0106 79.5516 58.0106C79.2633 58.0106 79.0357 57.9651 78.8536 57.8589C78.6867 57.7527 78.5501 57.6313 78.4743 57.4492C78.4287 57.3582 78.4136 57.2368 78.3984 57.085C78.3832 56.9333 78.368 56.736 78.368 56.5084V54.1414H77.8218V53.2613H78.368V52.2447H79.3998V53.2613L79.415 53.2765Z" fill="var(--fill-0, #F9F9F9)"/>
<path id="Vector_6" fill-rule="evenodd" clip-rule="evenodd" d="M90.0057 57.9655H88.9587V53.2769H90.0057V57.9503V57.9655Z" fill="var(--fill-0, #F9F9F9)"/>
</g>
</g>
</g>
<defs>
<filter id="filter0_f_0_83" x="67.0716" y="42.9698" width="34.6171" height="25.1786" filterUnits="userSpaceOnUse" color-interpolation-filters="sRGB">
<feFlood flood-opacity="0" result="BackgroundImageFix"/>
<feBlend mode="normal" in="SourceGraphic" in2="BackgroundImageFix" result="shape"/>
<feGaussianBlur stdDeviation="1.21408" result="effect1_foregroundBlur_0_83"/>
</filter>
</defs>
</svg>
