<svg width="171" height="104" viewBox="0 0 171 104" fill="none" xmlns="http://www.w3.org/2000/svg">
<g filter="url(#filter0_f_14604_6284)">
<path d="M86.7812 45.3979C89.7173 45.3979 92.0977 47.6927 92.0977 50.5229C92.0976 50.6181 92.0948 50.7127 92.0893 50.8065C92.0666 51.1948 92.4559 51.5371 92.8369 51.459C93.1944 51.3858 93.5652 51.3472 93.9453 51.3472C96.8811 51.3474 99.2607 53.6421 99.2607 56.4722C99.2605 59.3021 96.881 61.5959 93.9453 61.5962C92.8906 61.5962 91.9076 61.2999 91.0809 60.7891C90.7689 60.5963 90.3257 60.7509 90.2097 61.0988C89.3159 63.7796 86.7099 65.7201 83.6318 65.7202C80.7534 65.7202 78.2867 64.0232 77.2476 61.6109C77.1356 61.3509 76.8352 61.22 76.567 61.3104C76.0188 61.4952 75.4299 61.5961 74.8164 61.5962C71.8805 61.5962 69.5002 59.3022 69.5 56.4722C69.5 54.2856 70.9205 52.4185 72.9206 51.6826C73.0787 51.6244 73.2003 51.4944 73.2489 51.3332C73.8915 49.1998 75.9331 47.6401 78.3535 47.6401C79.4067 47.6401 80.3881 47.9357 81.2139 48.4451C81.4939 48.6178 81.8797 48.51 82.0322 48.2185C82.9072 46.5456 84.705 45.398 86.7812 45.3979Z" fill="#B7D1EA"/>
</g>
<path d="M86.7812 45.3979C89.7173 45.3979 92.0977 47.6927 92.0977 50.5229C92.0976 50.6181 92.0948 50.7127 92.0893 50.8065C92.0666 51.1948 92.4559 51.5371 92.8369 51.459C93.1944 51.3858 93.5652 51.3472 93.9453 51.3472C96.8811 51.3474 99.2607 53.6421 99.2607 56.4722C99.2605 59.3021 96.881 61.5959 93.9453 61.5962C92.8906 61.5962 91.9076 61.2999 91.0809 60.7891C90.7689 60.5963 90.3257 60.7509 90.2097 61.0988C89.3159 63.7796 86.7099 65.7201 83.6318 65.7202C80.7534 65.7202 78.2867 64.0232 77.2476 61.6109C77.1356 61.3509 76.8352 61.22 76.567 61.3104C76.0188 61.4952 75.4299 61.5961 74.8164 61.5962C71.8805 61.5962 69.5002 59.3022 69.5 56.4722C69.5 54.2856 70.9205 52.4185 72.9206 51.6826C73.0787 51.6244 73.2003 51.4944 73.2489 51.3332C73.8915 49.1998 75.9331 47.6401 78.3535 47.6401C79.4067 47.6401 80.3881 47.9357 81.2139 48.4451C81.4939 48.6178 81.8797 48.51 82.0322 48.2185C82.9072 46.5456 84.705 45.398 86.7812 45.3979Z" fill="#B7D1EA"/>
<path d="M54.5194 31.9493C51.7613 31.9493 50.2463 35.29 50.2463 39.8349C50.2463 45.351 52.344 50.3621 56.112 50.3621C57.7813 50.3621 59.7217 49.3113 61.3 47.7796C61.475 47.6097 61.7613 47.6263 61.9077 47.8215C62.0171 47.9674 62.0128 48.1692 61.8955 48.3089C60.2398 50.2806 57.9505 52.5763 54.4417 52.5763C50.0521 52.5763 46.4395 49.0025 46.4395 42.2045C46.4395 35.7562 49.4694 30.8228 55.9955 30.8228C59.647 30.8228 61.3173 32.2989 61.3173 33.7362C61.3173 34.785 60.5793 35.9115 59.2585 35.9115C56.7336 35.9115 57.5105 31.9493 54.5194 31.9493Z" fill="#262521"/>
<path d="M111.488 80.6535C106.954 80.6535 102.961 77.1574 102.961 70.2817C102.961 63.8333 106.372 58.8999 111.987 58.8999C115.153 58.8999 118.77 60.5519 119.115 66.0291C119.146 66.5219 118.767 66.9382 118.275 66.9855L107.911 67.9834C107.416 68.031 107.038 68.4489 107.063 68.9448C107.325 74.0566 109.54 78.4393 113.318 78.4393C115.192 78.4393 117.212 77.3791 118.897 75.8364C119.076 75.6729 119.356 75.6894 119.508 75.878C119.633 76.0336 119.628 76.2564 119.494 76.4043C117.71 78.3719 115.114 80.6535 111.488 80.6535ZM111.447 60.0264C109.158 60.0264 107.749 62.1119 107.251 65.1999C107.161 65.7564 107.607 66.2417 108.17 66.2417H114.188C114.734 66.2417 115.173 65.7854 115.12 65.2419C114.661 60.5721 112.616 60.0264 111.447 60.0264Z" fill="#262521"/>
<path d="M93.3076 87.173C93.5056 87.1933 93.6585 87.3599 93.6585 87.559C93.6585 87.7728 93.4851 87.9462 93.2713 87.9462H84.2909C84.0795 87.9462 83.9082 87.7748 83.9082 87.5635C83.9082 87.3631 84.0644 87.1968 84.2642 87.1812C87.0637 86.9628 87.1712 86.7376 87.1712 82.8185V72.8352C87.1712 69.604 86.3691 69.1361 84.8477 69.0852C84.644 69.0784 84.4782 68.9146 84.4782 68.7108C84.4782 68.507 84.6436 68.3428 84.8472 68.3321C86.7129 68.2342 88.3704 67.3866 90.2753 65.7597C90.3699 65.6788 90.5064 65.6676 90.612 65.7336C90.6948 65.7854 90.745 65.8761 90.745 65.9737V68.0751C90.745 68.8591 91.6347 69.3086 92.273 68.8534C94.5213 67.2497 95.738 66.581 97.543 66.581C100.728 66.581 102.088 68.7176 102.088 73.146V82.8185C102.088 86.7389 102.232 86.9271 105.037 87.1772C105.236 87.1949 105.39 87.3615 105.39 87.5612C105.39 87.7738 105.218 87.9462 105.005 87.9462H96.0242C95.8118 87.9462 95.6396 87.774 95.6396 87.5616C95.6396 87.3617 95.7945 87.1953 95.9935 87.1774C98.4078 86.9601 98.5142 86.7152 98.5142 82.8185V74.9717C98.5142 69.9218 96.7273 68.7564 95.0569 68.7564C93.0369 68.7564 90.745 70.8541 90.745 74.4667V82.8185C90.745 86.7169 90.887 86.9248 93.3076 87.173Z" fill="#262521"/>
<path d="M77.0335 88.3345C82.5495 88.3345 85.5795 84.4111 85.5795 78.0015C85.5795 71.1258 81.9669 66.5809 76.5285 66.5809C70.8958 66.5809 67.9824 70.5043 67.9824 76.875C67.9824 83.7895 71.5174 88.3345 77.0335 88.3345ZM77.1888 67.5909C79.675 67.5909 81.6172 70.1159 81.6172 76.0981C81.6172 81.8472 80.0634 87.3245 76.2565 87.3245C73.6539 87.3245 72.0612 84.7995 72.0612 78.895C72.0612 72.9904 73.5374 67.5909 77.1888 67.5909Z" fill="#262521"/>
<path d="M68.8175 86.3774C69.0508 86.2494 69.3464 86.3136 69.4852 86.5407C69.5899 86.712 69.5764 86.9315 69.4497 87.0873C68.8497 87.8255 68.3203 88.3345 66.4721 88.3345C64.0248 88.3345 62.2379 86.8196 62.2379 84.1004V69.5206L62.238 69.1321V68.3164C62.238 67.2353 62.238 66.4156 62.2332 64.0825C62.2328 63.8675 62.4069 63.6919 62.6219 63.6919C62.8202 63.6919 62.9887 63.84 63.0308 64.0338C63.2203 64.9071 63.9511 67.1908 66.4721 67.7563C67.2666 67.9346 68.1374 68.1315 68.6069 68.2378C68.8096 68.2838 68.9534 68.464 68.9534 68.6719C68.9534 68.8925 68.7918 69.0799 68.5735 69.1123L66.6295 69.4007C66.1596 69.4704 65.8117 69.8738 65.8117 70.3488V83.5565C65.8117 85.7707 66.5498 86.6253 67.9482 86.6253C68.2612 86.6253 68.5001 86.5515 68.8175 86.3774Z" fill="#262521"/>
<path d="M53.5547 80.6756C51.691 80.5706 50.2901 79.5885 49.2866 79.532C48.7986 79.5045 48.4204 79.6272 48.1679 80.0332C48.0318 80.2519 47.81 80.4214 47.5528 80.4069C47.2594 80.3904 47.0276 80.1518 47.0195 79.8581L46.8413 73.3972C46.8316 73.0472 47.1101 72.7569 47.4602 72.7519C47.7374 72.748 47.9845 72.9269 48.0678 73.1913C49.1351 76.5781 49.9796 79.1564 53.277 79.6484C55.4274 79.7695 57.5868 78.8796 57.7223 76.475C58.0196 71.2004 46.9527 70.5461 47.3002 64.0599C47.4641 61.1511 49.9999 58.6872 55.1131 58.9753C56.8334 59.0723 57.6696 59.5474 58.6253 59.6012C59.1131 59.6287 59.4407 59.4219 59.735 58.8204C59.836 58.6141 60.0433 58.475 60.2726 58.4879C60.5428 58.5032 60.7579 58.7199 60.7711 58.9901L61.0533 64.7527C61.0691 65.0756 60.8152 65.3479 60.492 65.3547C60.243 65.3598 60.0195 65.203 59.9342 64.969C58.8073 61.8799 57.4376 60.1179 54.9607 59.9783C53.0015 59.8679 51.1721 60.8542 51.0672 62.7159C50.8093 67.2924 61.8 68.1287 61.4415 75.1283C61.2274 78.9292 56.9475 80.8668 53.5547 80.6756Z" fill="#262521"/>
<path d="M122.164 51.8008C122.164 52.0146 121.99 52.188 121.776 52.188H116.545C116.065 52.188 115.676 51.7992 115.676 51.3197C115.676 50.4717 114.528 50.089 113.916 50.6758C112.652 51.8873 111.267 52.5764 109.616 52.5764C105.654 52.5764 102.91 48.6265 102.91 43.4561C102.91 37.096 106.819 33.1689 111.481 33.1689C112.412 33.1689 113.33 33.3333 114.128 33.5828C114.839 33.8052 115.676 33.3088 115.676 32.5637V32.1667C115.676 29.8247 114.874 29.4211 113.353 29.3749C113.149 29.3687 112.983 29.2046 112.983 29.0008C112.983 28.797 113.149 28.6329 113.352 28.6222C115.218 28.5242 116.875 27.6767 118.78 26.0497C118.875 25.9688 119.011 25.9577 119.117 26.0237C119.2 26.0754 119.25 26.1661 119.25 26.2637V47.0603C119.25 50.9587 119.392 51.1666 121.813 51.4148C122.011 51.4351 122.164 51.6017 122.164 51.8008ZM110.782 50.7895C112.821 50.7895 114.784 48.9986 115.651 45.3412C115.668 45.271 115.676 45.1982 115.676 45.1262V39.7338C115.676 35.7716 113.268 34.412 111.287 34.412C108.296 34.412 106.756 37.096 106.756 42.99C106.756 47.6942 108.14 50.7895 110.782 50.7895Z" fill="#262521"/>
<path d="M77.0335 22.0679C82.5495 22.0679 85.5795 25.9913 85.5795 32.4008C85.5795 39.2765 81.9669 43.8214 76.5285 43.8214C70.8958 43.8214 67.9824 39.898 67.9824 33.5273C67.9824 26.6128 71.5174 22.0679 77.0335 22.0679ZM77.1888 42.8115C79.675 42.8115 81.6172 40.2865 81.6172 34.3043C81.6172 28.5551 80.0634 23.0779 76.2565 23.0779C73.6539 23.0779 72.0612 25.6028 72.0612 31.5074C72.0612 37.4119 73.5374 42.8115 77.1888 42.8115Z" fill="#262521"/>
<path d="M69.0949 42.6607C69.293 42.6808 69.4456 42.8473 69.4456 43.0465C69.4456 43.2603 69.2722 43.4336 69.0584 43.4336H59.7284C59.517 43.4336 59.3457 43.2623 59.3457 43.051C59.3457 42.8506 59.5019 42.6842 59.7017 42.6686C62.5012 42.4503 62.6087 42.225 62.6087 38.306V28.2048C62.6087 25.8628 61.8066 25.4592 60.2852 25.413C60.0815 25.4068 59.9157 25.2427 59.9157 25.0389C59.9157 24.8351 60.0811 24.671 60.2847 24.6603C62.1504 24.5623 63.8079 23.7148 65.7128 22.0878C65.8074 22.0069 65.9439 21.9958 66.0495 22.0618C66.1323 22.1135 66.1825 22.2042 66.1825 22.3018V38.306C66.1825 42.2056 66.6441 42.4124 69.0949 42.6607Z" fill="#262521"/>
<path d="M101.966 22.0861C102.048 22.1378 102.099 22.2285 102.099 22.3261V38.2126C102.099 38.3043 102.099 38.3941 102.1 38.4818V42.77C102.1 43.2994 101.671 43.7285 101.141 43.7285H99.4835C98.9541 43.7285 98.525 43.2994 98.525 42.77V42.2344C98.525 41.4504 97.6353 41.0009 96.9971 41.4561C94.7487 43.0598 93.5321 43.7285 91.727 43.7285C88.5417 43.7285 87.182 41.592 87.182 38.7174V28.229C87.182 25.8499 86.9382 25.3741 85.7044 25.3271C85.5597 25.3216 85.4278 25.2383 85.3679 25.1065C85.2569 24.8621 85.4361 24.5833 85.7031 24.5556C87.1714 24.403 88.5013 23.644 90.2861 22.1124C90.3805 22.0314 90.5171 22.0201 90.6226 22.0861C90.7054 22.1378 90.7557 22.2285 90.7557 22.3261V36.8918C90.7558 40.3878 92.5427 41.5532 94.2131 41.5532C96.233 41.5532 98.525 39.4555 98.525 37.7851V28.229C98.525 25.887 97.7228 25.4833 96.2015 25.4372C95.9978 25.431 95.8321 25.2669 95.8321 25.0632C95.8321 24.8594 95.9974 24.6953 96.2009 24.6846C98.0667 24.5867 99.7242 23.7391 101.629 22.1121C101.724 22.0313 101.86 22.0201 101.966 22.0861Z" fill="#262521"/>
<path fill-rule="evenodd" clip-rule="evenodd" d="M92.4345 53.2153C93.0718 53.2153 93.6029 53.4278 94.0126 53.8526L94.0581 53.8981C94.4526 54.323 94.6347 54.8996 94.6347 55.5976C94.6347 56.2955 94.5436 56.6445 94.3616 56.9935C94.1795 57.3425 93.9064 57.6156 93.5574 57.7977C93.2084 57.995 92.829 58.086 92.4345 58.086C91.7821 58.086 91.251 57.8736 90.8413 57.4487C90.4316 57.0239 90.2344 56.4169 90.2344 55.6431C90.2344 54.8692 90.462 54.1561 90.9627 53.7312C91.3724 53.3822 91.8579 53.2153 92.4345 53.2153ZM92.4345 54.1257C92.1007 54.1257 91.8428 54.2471 91.6152 54.4899C91.4027 54.7327 91.2813 55.112 91.2813 55.6431C91.2813 56.1742 91.4027 56.5687 91.6152 56.8114C91.8276 57.0542 92.1007 57.1756 92.4345 57.1756C92.7532 57.1756 93.0263 57.0542 93.2387 56.8114C93.4511 56.5687 93.5725 56.1893 93.5725 55.6279C93.5725 55.0665 93.4511 54.7327 93.2387 54.5051C93.0263 54.2623 92.7532 54.1409 92.4345 54.1409V54.1257Z" fill="#F9F9F9"/>
<path fill-rule="evenodd" clip-rule="evenodd" d="M75.8949 53.1704C76.259 53.1704 76.5777 53.2159 76.8508 53.3221H76.8963C77.1543 53.4435 77.3515 53.5953 77.4881 53.7773C77.6246 53.9746 77.7157 54.2174 77.7764 54.5208L77.8067 54.6726L76.7749 54.8091V54.6574C76.7294 54.4602 76.6384 54.3236 76.517 54.2174C76.3956 54.1263 76.2135 54.0656 75.9404 54.0656C75.6066 54.0656 75.4093 54.1263 75.3031 54.2022C75.1817 54.2932 75.1362 54.3843 75.1362 54.4753C75.1362 54.536 75.1362 54.5815 75.1817 54.6271C75.1817 54.6422 75.1817 54.6422 75.1817 54.6422C75.2272 54.6878 75.2879 54.7484 75.3942 54.794C75.4548 54.8243 75.6673 54.885 76.0314 54.9761C76.5625 55.1126 76.9267 55.234 77.1543 55.325C77.3819 55.4161 77.5791 55.5678 77.7005 55.7651C77.8371 55.9623 77.8978 56.2051 77.8978 56.4782C77.8978 56.7513 77.8219 57.0245 77.655 57.2672C77.4881 57.51 77.2605 57.6921 76.9722 57.8287C76.6839 57.95 76.3501 58.0259 75.9859 58.0259C75.3942 58.0259 74.9238 57.9045 74.59 57.6466C74.2561 57.3886 74.0589 56.9941 73.9678 56.5086L73.9375 56.3568L74.9693 56.1899V56.3417C75.03 56.5996 75.121 56.7969 75.2728 56.9183C75.4245 57.0396 75.6521 57.1155 75.9707 57.1155C76.2894 57.1155 76.5018 57.0548 76.6384 56.9486C76.7749 56.8272 76.8356 56.7058 76.8356 56.5693C76.8356 56.4479 76.7901 56.372 76.6839 56.2961C76.6535 56.281 76.5777 56.2354 76.4563 56.2051C76.3349 56.1596 76.168 56.1141 75.9707 56.0685C75.4245 55.932 75.03 55.8106 74.8024 55.7044C74.5748 55.5982 74.3927 55.4313 74.2561 55.234C74.1348 55.0367 74.0741 54.8091 74.0741 54.5664C74.0741 54.3539 74.1196 54.1415 74.2258 53.9594C74.332 53.7773 74.4686 53.6104 74.6355 53.4891L74.681 53.4587C74.8024 53.3828 74.9693 53.307 75.1514 53.2615C75.3638 53.2008 75.5914 53.1704 75.8342 53.1704H75.8949Z" fill="#F9F9F9"/>
<path fill-rule="evenodd" clip-rule="evenodd" d="M81.4634 55.8554C81.4634 56.2499 81.4786 56.4927 81.509 56.5989C81.5545 56.7658 81.6303 56.8872 81.7517 56.9782H81.7821C81.9035 57.0692 82.04 57.1148 82.2373 57.1148C82.4345 57.1148 82.6166 57.0692 82.7835 56.963C82.9504 56.8568 83.0718 56.7354 83.1325 56.5685C83.2084 56.4016 83.2387 56.1285 83.2387 55.7643V53.2759H84.2857V57.9493H83.3298V57.57C82.996 57.8886 82.5863 58.0555 82.0855 58.0555C81.8124 58.0555 81.5393 57.9948 81.2965 57.8886C81.0538 57.7824 80.8717 57.6458 80.7351 57.4638C80.6137 57.2968 80.5379 57.0844 80.4772 56.8568C80.4468 56.6899 80.4316 56.4471 80.4316 56.1285V53.2759H81.4786V55.8554H81.4634Z" fill="#F9F9F9"/>
<path fill-rule="evenodd" clip-rule="evenodd" d="M88.55 57.9498H87.5637V57.6616C87.2754 57.9195 86.9264 58.0561 86.4864 58.0561C86.107 58.0561 85.758 57.9498 85.4394 57.7374C85.1208 57.525 84.878 57.2367 84.7111 56.8725C84.5442 56.5084 84.4531 56.0835 84.4531 55.6131C84.4531 55.1579 84.529 54.7482 84.6807 54.3689C84.8325 53.9896 85.0752 53.6861 85.3939 53.4737C85.7125 53.2613 86.0615 53.1702 86.456 53.1702C86.7443 53.1702 87.0023 53.2309 87.2299 53.3523L87.2754 53.3826C87.3664 53.4282 87.4423 53.4889 87.5182 53.5495V52.2446H88.55V57.9498ZM86.5319 54.0806C86.2436 54.0806 86.016 54.1868 85.8187 54.4296C85.6367 54.6572 85.5304 55.0365 85.5304 55.6131C85.5304 56.1594 85.6518 56.5387 85.8491 56.7815C86.0615 57.0243 86.3043 57.1457 86.5774 57.1457C86.8505 57.1457 87.0933 57.0394 87.2906 56.7967C87.4878 56.5691 87.594 56.2049 87.594 55.6738C87.594 55.0821 87.4726 54.6876 87.2754 54.4448C87.063 54.202 86.8202 54.0806 86.5319 54.0806Z" fill="#F9F9F9"/>
<path fill-rule="evenodd" clip-rule="evenodd" d="M79.4155 53.2764H80.159V54.1565H79.4155V56.5691C79.4155 56.6753 79.4155 56.7511 79.4155 56.8118C79.4155 56.8725 79.4155 56.9029 79.4307 56.9181C79.4307 56.9484 79.461 56.9787 79.4913 56.9939C79.5217 57.0091 79.5672 57.0243 79.6734 57.0243C79.7796 57.0243 79.8403 57.0243 79.9769 56.9939H80.1286C80.1286 56.9787 80.2652 57.9195 80.2652 57.9195L80.1286 57.9498C79.9162 57.9954 79.7341 58.0105 79.552 58.0105C79.2637 58.0105 79.0361 57.965 78.8541 57.8588C78.6872 57.7526 78.5506 57.6312 78.4747 57.4491C78.4292 57.3581 78.414 57.2367 78.3989 57.085C78.3837 56.9332 78.3685 56.736 78.3685 56.5084V54.1413H77.8223V53.2613H78.3685V52.2446H79.4003V53.2613L79.4155 53.2764Z" fill="#F9F9F9"/>
<path fill-rule="evenodd" clip-rule="evenodd" d="M90.006 57.9655H88.959V53.2769H90.006V57.9503V57.9655Z" fill="#F9F9F9"/>
<defs>
<filter id="filter0_f_14604_6284" x="67.0718" y="42.9698" width="34.618" height="25.1786" filterUnits="userSpaceOnUse" color-interpolation-filters="sRGB">
<feFlood flood-opacity="0" result="BackgroundImageFix"/>
<feBlend mode="normal" in="SourceGraphic" in2="BackgroundImageFix" result="shape"/>
<feGaussianBlur stdDeviation="1.21408" result="effect1_foregroundBlur_14604_6284"/>
</filter>
</defs>
</svg>
