<svg width="198" height="251" viewBox="0 0 198 251" fill="none" xmlns="http://www.w3.org/2000/svg">
<path d="M109.642 250.308L7.82141 207.043L0.425207 45.7618M109.642 250.308L191.075 195.491C193.114 147.242 197.632 46.4414 197.632 34.6624M109.642 250.308L110.435 76.3418M0.233031 41.5712C-0.106747 39.2683 0.0744678 34.3906 3.51755 33.3033C6.96064 32.216 64.7532 10.7269 93.2191 0.118286L194.02 24.8088C195.719 25.4884 197.632 26.9607 197.632 32.3972M0.233031 41.5712L110.435 73.7369M0.233031 41.5712L0.425207 45.7618M197.632 32.3972L110.435 73.7369M197.632 32.3972C197.632 32.846 197.632 33.3033 197.632 34.6624M110.435 73.7369V76.3418M110.435 73.7369C111.114 70.4523 110.435 65.2424 109.642 62.1844M197.632 34.6624L195.719 35.3419M110.435 76.3418L0.425207 45.7618M110.435 76.3418L112.02 75.6623M112.02 75.6623L195.719 35.3419M112.02 75.6623V97.1815M192.321 121.985L111.412 168.082L112.02 97.1815M192.321 121.985L195.719 35.3419M192.321 121.985L112.02 97.1815M189.49 194.698L111.001 247.363L111.412 200.814M189.49 194.698L192.321 124.59L146.338 150.893M189.49 194.698L146.338 179.521M146.338 179.521L111.412 200.814M146.338 179.521V150.893M111.412 200.814L111.68 170.46L146.338 150.893M73.8518 153.698V155.963L90.0478 161.626V159.248L73.8518 153.698ZM36.9292 139.994V142.372L22.3187 137.162V134.444L36.9292 139.994Z" stroke="#BCB7B8" stroke-width="0.226519"/>
</svg>
