<svg width="201" height="180" viewBox="0 0 201 180" fill="none" xmlns="http://www.w3.org/2000/svg">
<path d="M85.6963 154.658V153.992" stroke="#BCB7B8" stroke-width="0.346145" stroke-linecap="round" stroke-linejoin="round"/>
<path d="M40.0283 130.983L45.8139 133.98" stroke="#BCB7B8" stroke-width="0.346145" stroke-linecap="round" stroke-linejoin="round"/>
<path d="M7.24316 113.977L13.0287 116.974" stroke="#BCB7B8" stroke-width="0.346145" stroke-linecap="round" stroke-linejoin="round"/>
<path d="M169.587 110.497L170.329 110.12" stroke="#BCB7B8" stroke-width="0.346145" stroke-linecap="round" stroke-linejoin="round"/>
<path d="M169.587 90.8268L170.329 90.4494" stroke="#BCB7B8" stroke-width="0.346145" stroke-linecap="round" stroke-linejoin="round"/>
<path d="M170.325 90.4441V110.114" stroke="#BCB7B8" stroke-width="0.346145" stroke-linecap="round" stroke-linejoin="round"/>
<path d="M169.587 90.827V110.497" stroke="#BCB7B8" stroke-width="0.346145" stroke-linecap="round" stroke-linejoin="round"/>
<path d="M170.329 130.455L169.587 130.833V111.163L170.329 110.785V130.455Z" stroke="#BCB7B8" stroke-width="0.346145" stroke-linecap="round" stroke-linejoin="round"/>
<path d="M85.0524 134.648L0.172852 90.6239L0.172852 130.652L85.0524 174.654V134.648Z" stroke="#BCB7B8" stroke-width="0.346145" stroke-linecap="round" stroke-linejoin="round"/>
<path d="M85.0518 174.654L85.6946 174.321" stroke="#BCB7B8" stroke-width="0.346145" stroke-linecap="round" stroke-linejoin="round"/>
<path d="M85.0518 134.648L85.6946 134.315" stroke="#BCB7B8" stroke-width="0.346145" stroke-linecap="round" stroke-linejoin="round"/>
<path d="M78.6247 151.652V150.986L72.1963 147.656V148.322L78.6247 151.652Z" stroke="#BCB7B8" stroke-width="0.346145" stroke-linecap="round" stroke-linejoin="round"/>
<path d="M6.60254 113.642V114.308L13.0309 117.639V116.973" stroke="#BCB7B8" stroke-width="0.346145" stroke-linecap="round" stroke-linejoin="round"/>
<path d="M39.3877 130.652V131.318L45.8161 134.648V133.982" stroke="#BCB7B8" stroke-width="0.346145" stroke-linecap="round" stroke-linejoin="round"/>
<path d="M6.60254 114.316L7.24538 113.983" stroke="#BCB7B8" stroke-width="0.346145" stroke-linecap="round" stroke-linejoin="round"/>
<path d="M39.3877 131.319L40.0305 130.986" stroke="#BCB7B8" stroke-width="0.346145" stroke-linecap="round" stroke-linejoin="round"/>
<path d="M0.344682 88.6086L0.270508 88.746" stroke="#BCB7B8" stroke-width="0.346145" stroke-linecap="round" stroke-linejoin="round"/>
<path d="M0.271749 88.7427L0.222302 88.8981L0.197575 89.0313L0.172852 89.1645V89.2977" stroke="#BCB7B8" stroke-width="0.346145" stroke-linecap="round" stroke-linejoin="round"/>
<path d="M3.21307 86.8734L2.96582 86.9178" stroke="#BCB7B8" stroke-width="0.346145" stroke-linecap="round" stroke-linejoin="round"/>
<path d="M0.717062 88.09L0.618164 88.2274" stroke="#BCB7B8" stroke-width="0.346145" stroke-linecap="round" stroke-linejoin="round"/>
<path d="M3.97998 86.7201L3.70801 86.7645" stroke="#BCB7B8" stroke-width="0.346145" stroke-linecap="round" stroke-linejoin="round"/>
<path d="M2.74432 86.9903L2.49707 87.078" stroke="#BCB7B8" stroke-width="0.346145" stroke-linecap="round" stroke-linejoin="round"/>
<path d="M0.839445 87.9592L0.71582 88.0966" stroke="#BCB7B8" stroke-width="0.346145" stroke-linecap="round" stroke-linejoin="round"/>
<path d="M2.96569 86.9157L2.74316 86.9823" stroke="#BCB7B8" stroke-width="0.346145" stroke-linecap="round" stroke-linejoin="round"/>
<path d="M5.31592 86.6288H5.04395" stroke="#BCB7B8" stroke-width="0.346145" stroke-linecap="round" stroke-linejoin="round"/>
<path d="M2.27299 87.1378L2.0752 87.2255" stroke="#BCB7B8" stroke-width="0.346145" stroke-linecap="round" stroke-linejoin="round"/>
<path d="M0.493119 88.3303L0.418945 88.4677" stroke="#BCB7B8" stroke-width="0.346145" stroke-linecap="round" stroke-linejoin="round"/>
<path d="M1.67924 87.3981L1.48145 87.5126" stroke="#BCB7B8" stroke-width="0.346145" stroke-linecap="round" stroke-linejoin="round"/>
<path d="M3.46307 86.8092L3.21582 86.8759" stroke="#BCB7B8" stroke-width="0.346145" stroke-linecap="round" stroke-linejoin="round"/>
<path d="M4.22869 86.6978L3.98145 86.7177" stroke="#BCB7B8" stroke-width="0.346145" stroke-linecap="round" stroke-linejoin="round"/>
<path d="M4.77295 86.6548L4.50098 86.6747" stroke="#BCB7B8" stroke-width="0.346145" stroke-linecap="round" stroke-linejoin="round"/>
<path d="M2.07897 87.2354L1.85645 87.3231" stroke="#BCB7B8" stroke-width="0.346145" stroke-linecap="round" stroke-linejoin="round"/>
<path d="M2.49694 87.0749L2.27441 87.1415" stroke="#BCB7B8" stroke-width="0.346145" stroke-linecap="round" stroke-linejoin="round"/>
<path d="M1.1376 87.7321L0.989258 87.8466" stroke="#BCB7B8" stroke-width="0.346145" stroke-linecap="round" stroke-linejoin="round"/>
<path d="M3.70916 86.7648L3.46191 86.8092" stroke="#BCB7B8" stroke-width="0.346145" stroke-linecap="round" stroke-linejoin="round"/>
<path d="M0.422807 88.465L0.348633 88.6024" stroke="#BCB7B8" stroke-width="0.346145" stroke-linecap="round" stroke-linejoin="round"/>
<path d="M0.989168 87.8483L0.84082 87.9628" stroke="#BCB7B8" stroke-width="0.346145" stroke-linecap="round" stroke-linejoin="round"/>
<path d="M1.31077 87.6244L1.1377 87.7389" stroke="#BCB7B8" stroke-width="0.346145" stroke-linecap="round" stroke-linejoin="round"/>
<path d="M4.49951 86.6763L4.22754 86.6962" stroke="#BCB7B8" stroke-width="0.346145" stroke-linecap="round" stroke-linejoin="round"/>
<path d="M1.48264 87.5143L1.30957 87.6288" stroke="#BCB7B8" stroke-width="0.346145" stroke-linecap="round" stroke-linejoin="round"/>
<path d="M5.04248 86.6245L4.77051 86.6444" stroke="#BCB7B8" stroke-width="0.346145" stroke-linecap="round" stroke-linejoin="round"/>
<path d="M1.85374 87.3241L1.68066 87.4118" stroke="#BCB7B8" stroke-width="0.346145" stroke-linecap="round" stroke-linejoin="round"/>
<path d="M0.616788 88.2231L0.493164 88.3376" stroke="#BCB7B8" stroke-width="0.346145" stroke-linecap="round" stroke-linejoin="round"/>
<path d="M254.836 46.6218V45.9558L85.0518 133.982V134.648" stroke="#BCB7B8" stroke-width="0.346145" stroke-linecap="round" stroke-linejoin="round"/>
<path d="M0.172852 90.622L0.172852 89.956L85.0524 133.98" stroke="#BCB7B8" stroke-width="0.346145" stroke-linecap="round" stroke-linejoin="round"/>
<path d="M0.81569 89.6317L0.172852 89.9647" stroke="#BCB7B8" stroke-width="0.346145" stroke-linecap="round" stroke-linejoin="round"/>
<path d="M0.172852 131.322L85.0524 175.324L254.836 87.2974V86.6314" stroke="#BCB7B8" stroke-width="0.346145" stroke-linecap="round" stroke-linejoin="round"/>
<path d="M85.0518 175.324V174.658" stroke="#BCB7B8" stroke-width="0.346145" stroke-linecap="round" stroke-linejoin="round"/>
<path d="M0.172852 131.319L0.172852 130.653" stroke="#BCB7B8" stroke-width="0.346145" stroke-linecap="round" stroke-linejoin="round"/>
<path d="M8.03613 167.728L8.08459 167.748" stroke="#BCB7B8" stroke-width="0.346145" stroke-linecap="round" stroke-linejoin="round"/>
<path d="M8.25857 167.66V167.593L8.23384 167.549L8.20911 167.482L8.15966 167.438L8.13494 167.393L8.08549 167.349L8.03604 167.327H7.98659L7.93714 167.349L7.91242 167.371L7.8877 167.393V167.46V167.504L7.91242 167.571L7.93714 167.615L7.98659 167.682L8.03604 167.726" stroke="#BCB7B8" stroke-width="0.346145" stroke-linecap="round" stroke-linejoin="round"/>
<path d="M8.08691 167.747L8.13636 167.77H8.16109H8.21054L8.23526 167.747L8.25999 167.702V167.656" stroke="#BCB7B8" stroke-width="0.346145" stroke-linecap="round" stroke-linejoin="round"/>
<path d="M30.9072 179.587L30.9557 179.606" stroke="#BCB7B8" stroke-width="0.346145" stroke-linecap="round" stroke-linejoin="round"/>
<path d="M31.1036 179.497V179.43L31.0789 179.386L31.0542 179.319L31.0047 179.275L30.9553 179.231L30.9058 179.186L30.8564 179.164H30.8069L30.7575 179.186L30.7327 179.208L30.708 179.253V179.297V179.342L30.7327 179.408L30.7575 179.453L30.8069 179.519L30.8564 179.564L30.9058 179.586" stroke="#BCB7B8" stroke-width="0.346145" stroke-linecap="round" stroke-linejoin="round"/>
<path d="M30.9541 179.606H31.0036H31.053L31.0777 179.583L31.1024 179.538V179.492" stroke="#BCB7B8" stroke-width="0.346145" stroke-linecap="round" stroke-linejoin="round"/>
<path d="M85.6963 154.658L150.598 121.002" stroke="#BCB7B8" stroke-width="0.346145" stroke-linecap="round" stroke-linejoin="round"/>
<path d="M85.6963 153.989L169.587 110.497" stroke="#BCB7B8" stroke-width="0.346145" stroke-linecap="round" stroke-linejoin="round"/>
<path d="M85.6963 174.32V154.65" stroke="#BCB7B8" stroke-width="0.346145" stroke-linecap="round" stroke-linejoin="round"/>
<path d="M7.24538 113.978L6.60254 113.645" stroke="#BCB7B8" stroke-width="0.346145" stroke-linecap="round" stroke-linejoin="round"/>
<path d="M40.0305 130.99L39.3877 130.657" stroke="#BCB7B8" stroke-width="0.346145" stroke-linecap="round" stroke-linejoin="round"/>
<path d="M254.836 45.2976L254.194 45.6306L85.0524 133.324L0.81569 89.6328L0.172852 89.2997" stroke="#BCB7B8" stroke-width="0.346145" stroke-linecap="round" stroke-linejoin="round"/>
<path d="M1.85645 87.3231L169.959 0.184652" stroke="#BCB7B8" stroke-width="0.346145" stroke-linecap="round" stroke-linejoin="round"/>
<path d="M150.599 120.99L169.587 111.155" stroke="#BCB7B8" stroke-width="0.346145" stroke-linecap="round" stroke-linejoin="round"/>
<path d="M170.325 110.114L254.191 66.6226" stroke="#BCB7B8" stroke-width="0.346145" stroke-linecap="round" stroke-linejoin="round"/>
<path d="M85.6963 153.989V134.319" stroke="#BCB7B8" stroke-width="0.346145" stroke-linecap="round" stroke-linejoin="round"/>
<path d="M85.6963 174.32L169.587 130.829" stroke="#BCB7B8" stroke-width="0.346145" stroke-linecap="round" stroke-linejoin="round"/>
<path d="M85.6963 134.313L150.598 100.657" stroke="#BCB7B8" stroke-width="0.346145" stroke-linecap="round" stroke-linejoin="round"/>
<path d="M170.325 110.78L235.227 77.1236L254.191 67.2886" stroke="#BCB7B8" stroke-width="0.346145" stroke-linecap="round" stroke-linejoin="round"/>
<path d="M150.599 100.66L169.587 90.825" stroke="#BCB7B8" stroke-width="0.346145" stroke-linecap="round" stroke-linejoin="round"/>
<path d="M170.325 130.457L254.191 86.9651" stroke="#BCB7B8" stroke-width="0.346145" stroke-linecap="round" stroke-linejoin="round"/>
<path d="M170.325 90.4481L235.227 56.7916" stroke="#BCB7B8" stroke-width="0.346145" stroke-linecap="round" stroke-linejoin="round"/>
<path d="M169.587 110.497L150.599 100.662" stroke="#BCB7B8" stroke-width="0.346145" stroke-linecap="round" stroke-linejoin="round"/>
<path d="M169.587 130.833L150.599 120.998" stroke="#BCB7B8" stroke-width="0.346145" stroke-linecap="round" stroke-linejoin="round"/>
<path d="M169.958 0.173129L253.156 43.3094" stroke="#BCB7B8" stroke-width="0.346145" stroke-linecap="round" stroke-linejoin="round"/>
<path d="M85.0518 127.974V133.324" stroke="#BCB7B8" stroke-width="0.346145" stroke-linecap="round" stroke-linejoin="round"/>
<path d="M169.958 0.17792V1.28796" stroke="#BCB7B8" stroke-width="0.346145" stroke-linecap="round" stroke-linejoin="round"/>
</svg>
