<svg width="201" height="136" viewBox="0 0 201 136" fill="none" xmlns="http://www.w3.org/2000/svg">
<mask id="path-1-inside-1_14642_7491" fill="white">
<path d="M243.758 126.434C244.999 125.709 246.224 124.961 247.435 124.19C246.276 121.848 245.068 118.949 243.911 116.17L243.91 116.169L243.91 116.169C243.261 114.612 242.629 113.093 242.029 111.73C239.67 106.375 237.357 101.003 235.044 95.6302L235.043 95.6279C231.993 88.5441 228.942 81.4603 225.788 74.4155C218.793 70.1657 211.273 65.8841 203.927 61.7011L203.921 61.698L203.918 61.6961C201.287 60.1982 198.678 58.7129 196.124 57.2463L116.865 11.4627C114.97 10.3671 112.987 9.1971 110.968 8.00598L110.968 8.00547L110.964 8.00354L110.963 8.00295C106.255 5.22492 101.352 2.33217 96.9215 0C95.7587 0.448029 91.1134 3.18402 88.5106 4.71697L88.5088 4.71807L88.5061 4.71962L88.5035 4.72117L88.5013 4.72245L88.4995 4.72351L88.4924 4.72771L88.4913 4.72836C87.9082 5.07176 87.4292 5.35388 87.117 5.535L0.1959 55.7179L0 55.9757C0.0947179 56.2157 0.296597 56.6607 0.511906 57.1353L0.511975 57.1355L0.512086 57.1357C0.839544 57.8576 1.19803 58.6478 1.25775 58.8893C3.9249 65.3128 6.74928 71.7477 9.56883 78.1716L9.56917 78.1724L9.56948 78.1731L9.56987 78.174C11.3788 82.2954 13.1858 86.4123 14.948 90.5187L18.9963 99.9261C19.1419 100.268 19.2973 100.644 19.4602 101.038C20.0544 102.475 20.7481 104.153 21.426 105.291C21.8267 105.964 22.8728 106.557 23.8739 107.125C24.4459 107.449 25.0032 107.765 25.4171 108.083L25.5432 108.181C30.8367 105.035 36.2054 101.962 41.5739 98.8894C45.9146 96.405 50.2551 93.9206 54.5558 91.3975C56.815 92.5236 60.0388 94.4475 62.9142 96.1636L62.9151 96.1641C64.1834 96.9211 65.3839 97.6375 66.404 98.2272L89.507 111.596L119.766 129.065C121.042 129.804 122.353 130.549 123.671 131.299L123.677 131.302L123.681 131.305L123.682 131.305L123.683 131.305C126.232 132.754 128.81 134.22 131.227 135.695C133.944 133.94 137.363 132.012 140.57 130.205L140.57 130.205L140.571 130.204C141.955 129.424 143.299 128.666 144.53 127.955L187.258 103.262C187.855 102.917 188.579 102.488 189.36 102.025L189.361 102.024L189.369 102.019L189.373 102.017L189.373 102.017C191.517 100.744 194.094 99.2153 195.704 98.469C198.018 100.022 201.563 102.008 204.692 103.76C205.952 104.466 207.145 105.134 208.163 105.721L232.48 119.789C233.315 120.276 234.374 120.869 235.52 121.511C238.454 123.154 241.959 125.118 243.758 126.434Z"/>
</mask>
<path d="M215.314 80.206L215.366 80.2969L215.366 80.2969L215.314 80.206ZM198.913 89.6979L198.965 89.7888L198.965 89.7888L198.913 89.6979ZM153.164 116.088L153.112 115.997L153.112 115.997L153.164 116.088ZM135.26 126.446L135.312 126.537L135.313 126.537L135.26 126.446ZM128.995 130.107L128.941 130.197L128.991 130.227L129.043 130.2L128.995 130.107ZM112.842 120.714L112.789 120.805L112.79 120.805L112.842 120.714ZM1.92165 56.6388L1.86541 56.7276L1.86913 56.7297L1.92165 56.6388ZM0.9873 55.8873L0.934774 55.7964L0.818832 55.8634L0.911531 55.96L0.9873 55.8873ZM20.5095 71.7304L20.4567 71.8212L20.457 71.8214L20.5095 71.7304ZM39.4113 82.6372L39.4646 82.5468L39.4638 82.5463L39.4113 82.6372ZM54.0807 91.0173L54.134 91.1078L54.2925 91.0144L54.1315 90.9254L54.0807 91.0173ZM43.4424 97.1968L43.3902 97.1056L43.3861 97.1082L43.4424 97.1968ZM23.7759 102.906L23.8724 102.864L23.8723 102.864L23.7759 102.906ZM19.9109 93.9553L19.8143 93.9967L19.8145 93.997L19.9109 93.9553ZM9.7974 70.3465L9.70066 70.3874L9.70088 70.3879L9.7974 70.3465ZM229.763 94.336L229.859 94.2943L229.859 94.2936L229.763 94.336ZM243.13 125.226L243.087 125.322L243.333 125.432L243.226 125.185L243.13 125.226ZM224.803 75.38L224.828 75.2781L224.787 75.2678L224.75 75.289L224.803 75.38ZM224.945 75.4156L225.036 75.3632L225.014 75.3246L224.971 75.3138L224.945 75.4156ZM224.194 81.1996L224.254 81.2853L224.285 81.2634L224.295 81.2266L224.194 81.1996ZM219.515 83.9761L219.463 83.8851L219.463 83.8852L219.515 83.9761ZM211.63 88.5204L211.577 88.4294L211.577 88.4295L211.63 88.5204ZM148.451 125.045L148.504 125.136L148.504 125.136L148.451 125.045ZM137.143 131.559L137.09 131.468L137.09 131.468L137.143 131.559ZM18.9464 70.1341L18.8934 70.2248L18.8938 70.225L18.9464 70.1341ZM11.5737 65.9101L11.6251 65.8186H11.6251L11.5737 65.9101ZM7.00335 63.2586L7.06063 63.1706L7.06063 63.1706L7.00335 63.2586ZM2.2083 57.8911L2.11267 57.9345L2.11598 57.9418L2.12038 57.9485L2.2083 57.8911ZM2.1363 57.7323L2.10067 57.6335L1.99373 57.6721L2.04067 57.7756L2.1363 57.7323ZM245.354 124.874L245.403 124.967L245.41 124.963L245.354 124.874ZM244.259 125.399L244.222 125.497L244.263 125.513L244.303 125.495L244.259 125.399ZM244.001 125.301L243.909 125.352L243.928 125.386L243.964 125.4L244.001 125.301ZM239.857 116.005L239.953 115.964L239.953 115.964L239.857 116.005ZM234.175 102.842L234.271 102.8L234.271 102.8L234.175 102.842ZM227.35 87.1209L227.253 87.1618L227.253 87.1627L227.35 87.1209ZM224.861 81.2395L224.757 81.2235L224.753 81.2495L224.762 81.2744L224.861 81.2395ZM225.787 76.1991L225.846 76.1124L225.718 76.0253L225.684 76.1758L225.787 76.1991ZM9.15825 70.5568L9.06154 70.5977L9.0618 70.5983L9.15825 70.5568ZM14.0571 81.9466L13.9606 81.9881L13.9608 81.9884L14.0571 81.9466ZM21.4692 99.0363L21.5656 98.9946L21.5655 98.9945L21.4692 99.0363ZM18.675 97.7148L18.7717 97.6738L18.7714 97.6733L18.675 97.7148ZM13.2938 85.2174L13.3902 85.1759L13.3901 85.1757L13.2938 85.2174ZM5.9556 68.2617L6.05197 68.22L6.05165 68.2193L5.9556 68.2617ZM1.9122 58.9725L1.85652 58.8835L1.78608 58.9275L1.81276 59.0062L1.9122 58.9725ZM2.30265 58.7283L2.38407 58.662L2.32555 58.5901L2.24697 58.6393L2.30265 58.7283ZM126.479 17.6223L126.426 17.7132L126.426 17.7132L126.479 17.6223ZM219.97 71.6362L220.022 71.5454L220.022 71.5453L219.97 71.6362ZM86.6361 6.40455L86.6886 6.49547L86.6887 6.49542L86.6361 6.40455ZM236.863 121.703L236.81 121.794V121.794L236.863 121.703ZM206.641 104.225L206.693 104.134L206.693 104.134L206.641 104.225ZM139.385 124.719L139.333 124.629L139.333 124.629L139.385 124.719ZM8.7066 61.1719L8.65359 61.2626L8.65408 61.2629L8.7066 61.1719ZM123.178 127.296L123.231 127.205L123.231 127.205L123.178 127.296ZM130.538 134.703L130.486 134.794L130.733 134.937L130.637 134.668L130.538 134.703ZM116.824 12.0052L116.878 11.9148L116.877 11.9145L116.824 12.0052ZM96.8767 0.522601L96.928 0.430963L96.8794 0.403753L96.8296 0.428798L96.8767 0.522601ZM89.499 4.71642L89.5526 4.80668V4.80668L89.499 4.71642ZM132.821 127.893L132.768 127.803L132.767 127.804L132.821 127.893ZM132.822 127.893L132.875 127.984L132.876 127.983L132.822 127.893ZM217.823 78.7391L217.776 78.645L217.77 78.6485L217.823 78.7391ZM217.823 78.739L217.87 78.8331L217.876 78.8295L217.823 78.739ZM225.07 74.6349L225.118 74.7279L225.272 74.6476L225.13 74.5487L225.07 74.6349ZM221.262 72.3715L221.314 72.28L221.313 72.2796L221.262 72.3715ZM116.825 12.0056L116.771 12.0959L116.772 12.0962L116.825 12.0056ZM221.261 72.3711L221.21 72.4625L221.21 72.463L221.261 72.3711ZM18.2508 70.3814L18.1925 70.4688L18.1973 70.4717L18.2508 70.3814ZM18.2507 70.3813L18.309 70.2938L18.3048 70.2913L18.2507 70.3813ZM7.0722 64.1236L7.09752 64.0218L6.94646 63.9842L6.96823 64.1383L7.0722 64.1236ZM8.88294 68.4206L8.97771 68.3753L8.97714 68.3742L8.88294 68.4206ZM8.88306 68.4208L8.78829 68.466L8.78886 68.4672L8.88306 68.4208ZM24.3569 104.23L24.4538 104.19L24.4532 104.189L24.3569 104.23ZM24.3569 104.23L24.26 104.271L24.2609 104.273L24.3569 104.23ZM25.7601 107.599L25.6612 107.634L25.7093 107.77L25.8238 107.683L25.7601 107.599ZM29.2975 105.368L29.2488 105.274L29.2451 105.277L29.2975 105.368ZM29.2976 105.368L29.3462 105.461L29.3488 105.459L29.2976 105.368ZM30.9075 104.423L30.8528 104.334H30.8528L30.9075 104.423ZM36.6381 101.143L36.5878 101.051L36.5872 101.051L36.6381 101.143ZM36.6389 101.143L36.6891 101.235L36.6898 101.235L36.6389 101.143ZM18.2516 70.3818L18.3061 70.2921L18.3051 70.2915L18.2516 70.3818ZM18.2521 70.3821L18.1976 70.4719L18.1976 70.4719L18.2521 70.3821ZM29.2987 105.367L29.3508 105.458L29.3511 105.458L29.2987 105.367ZM29.2985 105.367L29.3497 105.459L29.3506 105.458L29.2985 105.367ZM24.3566 104.23L24.4529 104.188L24.4526 104.187L24.3566 104.23ZM2.18379 57.7152L2.21942 57.8139L2.2195 57.8139L2.18379 57.7152ZM11.1643 65.6802L11.2157 65.5887L11.2149 65.5882L11.1643 65.6802ZM129.241 131.542L129.338 131.5L129.337 131.5L129.241 131.542ZM128.876 130.7L128.973 130.658L128.962 130.633L128.939 130.616L128.876 130.7ZM124.554 128.078L124.606 127.987V127.987L124.554 128.078ZM6.88871 60.0927L6.83305 60.1818L6.83482 60.1828L6.88871 60.0927ZM6.88862 60.0927L6.94428 60.0036L6.94251 60.0025L6.88862 60.0927ZM2.9124 57.795L2.96213 57.7025L2.96211 57.7025L2.9124 57.795ZM18.2538 70.3831L18.3079 70.2932L18.3077 70.293L18.2538 70.3831ZM18.253 70.3827L18.1984 70.4724L18.1991 70.4728L18.253 70.3827ZM129.236 131.53L129.332 131.489L129.332 131.488L129.236 131.53ZM129.24 131.54L129.144 131.582L129.144 131.582L129.24 131.54ZM11.1636 65.6798L11.2142 65.5878L11.213 65.5872L11.1636 65.6798ZM11.1635 65.6798L11.1121 65.7714L11.1141 65.7724L11.1635 65.6798ZM3.02236 59.5917L3.1028 59.5242L3.10266 59.5241L3.02236 59.5917ZM3.02212 59.5914L2.94169 59.6589L2.94182 59.6591L3.02212 59.5914ZM4.68967 65.5012L4.78748 65.4625L4.78482 65.4568L4.68967 65.5012ZM4.6897 65.5013L4.59186 65.54L4.59482 65.5462L4.6897 65.5013ZM19.2967 99.1979L19.3938 99.158L19.3936 99.1575L19.2967 99.1979ZM19.2968 99.1982L19.1997 99.2381L19.1999 99.2386L19.2968 99.1982ZM19.2969 99.1984L19.2 99.2388L19.2 99.2388L19.2969 99.1984ZM21.9888 105.124L21.8964 105.174L21.8964 105.174L21.9888 105.124ZM24.6303 106.911L24.6737 106.816H24.6737L24.6303 106.911ZM24.912 107.04L24.8679 107.135L25.0949 107.24L25.0109 107.005L24.912 107.04ZM22.5822 101.53L22.6779 101.487V101.487L22.5822 101.53ZM8.55638 69.1172L8.65334 69.0767L8.65183 69.0734L8.55638 69.1172ZM8.55635 69.1171L8.45933 69.1574L8.4609 69.1608L8.55635 69.1171ZM5.94 63.2851L6.0327 63.2358V63.2358L5.94 63.2851ZM8.55664 69.1178L8.65393 69.0783L8.65355 69.0774L8.55664 69.1178ZM8.55687 69.1183L8.45958 69.1579L8.45991 69.1587L8.55687 69.1183ZM4.69021 65.5024L4.59493 65.5465L4.59506 65.5468L4.69021 65.5024ZM4.68998 65.5019L4.78526 65.4577L4.78486 65.4569L4.68998 65.5019ZM229.036 92.6225L228.94 92.6632L228.94 92.6634L229.036 92.6225ZM224.11 81.9436L224.163 81.8532L224.11 81.8218L224.056 81.8532L224.11 81.9436ZM223.89 82.0734L223.943 82.1639L223.943 82.1638L223.89 82.0734ZM223.885 82.0759L223.832 81.9853L223.832 81.9854L223.885 82.0759ZM196.235 98.0425L196.184 97.9506L196.043 98.0284L196.171 98.126L196.235 98.0425ZM204.753 103.156L204.701 103.247L204.701 103.247L204.753 103.156ZM238.22 122.501L238.166 122.592L238.173 122.595L238.22 122.501ZM238.22 122.502L238.272 122.41L238.267 122.408L238.22 122.502ZM238.221 122.502L238.274 122.411L238.272 122.41L238.221 122.502ZM229.038 92.6265L229.135 92.5858L229.135 92.5856L229.038 92.6265ZM204.752 103.155L204.804 103.064L204.804 103.064L204.752 103.155ZM203.637 102.526L203.585 102.617V102.617L203.637 102.526ZM220.549 83.3905L220.6 83.4823L220.601 83.482L220.549 83.3905ZM130.787 133.712L130.689 133.751L130.69 133.753L130.787 133.712ZM130.787 133.712L130.884 133.673L130.883 133.671L130.787 133.712ZM129.329 130.61L129.269 130.523L129.19 130.578L129.238 130.662L129.329 130.61ZM136.799 126.187L136.851 126.278L136.855 126.276L136.799 126.187ZM136.8 126.186L136.749 126.094L136.744 126.097L136.8 126.186ZM229.285 83.8703L229.382 83.8302V83.8302L229.285 83.8703ZM230.03 85.6525L229.934 85.695L229.934 85.6951L230.03 85.6525ZM239.602 107.733L239.698 107.692L239.698 107.692L239.602 107.733ZM239.605 107.742L239.509 107.783L239.509 107.783L239.605 107.742ZM246.641 124.051L246.702 124.137L246.771 124.087L246.737 124.009L246.641 124.051ZM245.695 124.663L245.749 124.752L245.75 124.752L245.695 124.663ZM245.691 124.665L245.637 124.575L245.636 124.575L245.691 124.665ZM240.44 117.387L240.343 117.428V117.428L240.44 117.387ZM226.528 85.2445L226.432 85.2865L226.432 85.2872L226.528 85.2445ZM226.527 85.2433L226.624 85.2013L226.623 85.2006L226.527 85.2433ZM136.801 126.185L136.852 126.277L136.853 126.277L136.801 126.185ZM130.788 133.714L130.884 133.674L130.884 133.673L130.788 133.714ZM130.894 133.968L130.798 134.008L130.798 134.008L130.894 133.968ZM130.997 134.211L130.9 134.252L130.903 134.257L130.997 134.211ZM131.126 134.495L131.222 134.454L131.222 134.454L131.126 134.495ZM131.222 134.679L131.144 134.749L131.144 134.749L131.222 134.679ZM131.518 134.845L131.561 134.749L131.561 134.749L131.518 134.845ZM131.533 134.852L131.49 134.947L131.536 134.968L131.582 134.945L131.533 134.852ZM135.133 132.761L135.082 132.669L135.078 132.672L135.133 132.761ZM135.133 132.761L135.184 132.853L135.187 132.851L135.133 132.761ZM135.134 132.76L135.188 132.851L135.193 132.848L135.134 132.76ZM135.135 132.76L135.081 132.67L135.077 132.673L135.135 132.76ZM135.139 132.758L135.193 132.848L135.193 132.847L135.139 132.758ZM220.547 83.3917L220.496 83.2999L220.496 83.3002L220.547 83.3917ZM215.314 80.206L215.261 80.1152L198.86 89.607L198.913 89.6979L198.965 89.7888L215.366 80.2969L215.314 80.206ZM198.913 89.6979L198.86 89.6069L153.112 115.997L153.164 116.088L153.217 116.179L198.965 89.7888L198.913 89.6979ZM153.164 116.088L153.112 115.997L135.208 126.355L135.26 126.446L135.313 126.537L153.217 116.179L153.164 116.088ZM128.995 130.107L129.048 130.017C123.691 126.84 118.306 123.707 112.894 120.623L112.842 120.714L112.79 120.805C118.201 123.889 123.585 127.021 128.941 130.197L128.995 130.107ZM1.92165 56.6388L1.97785 56.5501C1.7471 56.4039 1.61221 56.3168 1.48814 56.2183C1.36476 56.1204 1.25012 56.0096 1.06307 55.8146L0.9873 55.8873L0.911531 55.96C1.09993 56.1564 1.22259 56.2757 1.35758 56.3828C1.4919 56.4894 1.63645 56.5824 1.86545 56.7275L1.92165 56.6388ZM20.5095 71.7304L20.457 71.8214L39.3588 82.7282L39.4113 82.6372L39.4638 82.5463L20.562 71.6395L20.5095 71.7304ZM39.4113 82.6372L39.358 82.7277C44.2098 85.5888 49.1009 88.3829 54.0299 91.1092L54.0807 91.0173L54.1315 90.9254C49.2043 88.2001 44.3148 85.407 39.4646 82.5468L39.4113 82.6372ZM54.0807 91.0173L54.0274 90.9268C50.4942 93.008 46.9485 95.0677 43.3902 97.1057L43.4424 97.1968L43.4946 97.288C47.0536 95.2495 50.6001 93.1894 54.134 91.1078L54.0807 91.0173ZM23.7759 102.906L23.8723 102.864L20.0072 93.9137L19.9109 93.9553L19.8145 93.997L23.6795 102.947L23.7759 102.906ZM19.9109 93.9553L20.0074 93.914L9.89392 70.3052L9.7974 70.3465L9.70088 70.3879L19.8143 93.9967L19.9109 93.9553ZM229.763 94.336L229.667 94.3777L243.033 125.268L243.13 125.226L243.226 125.185L229.859 94.2943L229.763 94.336ZM224.803 75.38L224.777 75.4818L224.92 75.5175L224.945 75.4156L224.971 75.3138L224.828 75.2781L224.803 75.38ZM224.945 75.4156L224.854 75.4681C224.861 75.4791 224.871 75.5078 224.879 75.5633C224.886 75.6162 224.891 75.6845 224.892 75.7674C224.895 75.9331 224.884 76.1487 224.863 76.4C224.821 76.9023 224.737 77.5384 224.639 78.1852C224.443 79.4803 224.19 80.8063 224.092 81.1727L224.194 81.1996L224.295 81.2266C224.396 80.8481 224.651 79.5122 224.847 78.2167C224.945 77.5681 225.029 76.9267 225.072 76.4177C225.094 76.1634 225.105 75.9399 225.102 75.7642C225.101 75.6764 225.096 75.5984 225.087 75.5332C225.077 75.4708 225.063 75.4097 225.036 75.3632L224.945 75.4156ZM219.515 83.9761L219.463 83.8852L211.577 88.4294L211.63 88.5204L211.682 88.6114L219.568 84.0671L219.515 83.9761ZM148.451 125.045L148.399 124.954L137.09 131.468L137.143 131.559L137.195 131.65L148.504 125.136L148.451 125.045ZM18.9464 70.1341L18.9993 70.0435C16.5532 68.6144 14.0951 67.2062 11.6251 65.8186L11.5737 65.9101L11.5223 66.0017C13.9912 67.3887 16.4483 68.7964 18.8934 70.2248L18.9464 70.1341ZM7.00335 63.2586L7.06063 63.1706C6.81618 63.0115 6.43553 62.6612 5.98675 62.2017C5.54037 61.7445 5.03336 61.1864 4.53799 60.6183C3.54557 59.48 2.60671 58.3093 2.29622 57.8337L2.2083 57.8911L2.12038 57.9485C2.43974 58.4377 3.38751 59.6183 4.3797 60.7563C4.87663 61.3262 5.38643 61.8875 5.8365 62.3484C6.28417 62.8068 6.67963 63.1732 6.94607 63.3466L7.00335 63.2586ZM2.2083 57.8911L2.30393 57.8478L2.23194 57.689L2.1363 57.7323L2.04067 57.7756L2.11267 57.9345L2.2083 57.8911ZM245.354 124.874L245.306 124.781C244.938 124.971 244.595 125.131 244.216 125.304L244.259 125.399L244.303 125.495C244.683 125.322 245.03 125.16 245.402 124.967L245.354 124.874ZM244.259 125.399L244.296 125.301L244.038 125.203L244.001 125.301L243.964 125.4L244.222 125.497L244.259 125.399ZM239.857 116.005L239.953 115.964L234.271 102.8L234.175 102.842L234.078 102.884L239.76 116.047L239.857 116.005ZM234.175 102.842L234.271 102.8L227.446 87.0791L227.35 87.1209L227.253 87.1627L234.078 102.884L234.175 102.842ZM224.861 81.2395L224.965 81.2556C225.215 79.6372 225.528 77.8087 225.889 76.2224L225.787 76.1991L225.684 76.1758C225.322 77.7692 225.008 79.6034 224.757 81.2235L224.861 81.2395ZM9.15825 70.5568L9.0618 70.5983L13.9606 81.9881L14.0571 81.9466L14.1536 81.9052L9.25471 70.5154L9.15825 70.5568ZM14.0571 81.9466L13.9608 81.9884L21.3729 99.0781L21.4692 99.0363L21.5655 98.9945L14.1534 81.9049L14.0571 81.9466ZM18.675 97.7148L18.7714 97.6733L13.3902 85.1759L13.2938 85.2174L13.1973 85.2589L18.5786 97.7563L18.675 97.7148ZM13.2938 85.2174L13.3901 85.1757L6.05196 68.22L5.9556 68.2617L5.85924 68.3034L13.1974 85.2591L13.2938 85.2174ZM1.9122 58.9725L1.96788 59.0615L2.35833 58.8173L2.30265 58.7283L2.24697 58.6393L1.85652 58.8835L1.9122 58.9725ZM126.479 17.6223L126.426 17.7132L219.917 71.7272L219.97 71.6362L220.022 71.5453L126.531 17.5314L126.479 17.6223ZM112.842 120.714L112.894 120.623L1.97417 56.5479L1.92165 56.6388L1.86913 56.7297L112.789 120.805L112.842 120.714ZM0.9873 55.8873L1.03983 55.9782L86.6886 6.49547L86.6361 6.40455L86.5836 6.31363L0.934774 55.7964L0.9873 55.8873ZM236.863 121.703L236.915 121.612L206.693 104.134L206.641 104.225L206.588 104.316L236.81 121.794L236.863 121.703ZM211.63 88.5204L211.577 88.4295L148.399 124.954L148.451 125.045L148.504 125.136L211.682 88.6113L211.63 88.5204ZM139.385 124.719L139.438 124.81L224.855 75.4709L224.803 75.38L224.75 75.289L139.333 124.629L139.385 124.719ZM8.7066 61.1719L8.65408 61.2629L123.126 127.387L123.178 127.296L123.231 127.205L8.75912 61.081L8.7066 61.1719ZM130.538 134.703L130.591 134.612L18.9989 70.0433L18.9464 70.1341L18.8938 70.225L130.486 134.794L130.538 134.703ZM116.824 12.0052L116.877 11.9145C110.231 8.03516 103.537 4.12776 96.928 0.430963L96.8767 0.522601L96.8255 0.61424C103.433 4.30994 110.125 8.21635 116.771 12.0959L116.824 12.0052ZM96.8767 0.522601L96.8296 0.428798C94.7364 1.4816 91.9419 3.14243 89.4453 4.62615L89.499 4.71642L89.5526 4.80668C92.0516 3.32154 94.8389 1.66514 96.9239 0.616404L96.8767 0.522601ZM89.499 4.71642L89.4453 4.62615C88.4183 5.2365 87.4415 5.81699 86.5835 6.31368L86.6361 6.40455L86.6887 6.49542C87.548 5.99801 88.5259 5.41685 89.5526 4.80668L89.499 4.71642ZM128.995 130.107L129.043 130.2C130.181 129.612 131.549 128.785 132.876 127.983L132.821 127.893L132.767 127.804C131.438 128.607 130.077 129.429 128.946 130.014L128.995 130.107ZM132.821 127.893L132.874 127.984L132.875 127.984L132.822 127.893L132.769 127.803L132.768 127.803L132.821 127.893ZM132.822 127.893L132.876 127.983C133.727 127.469 134.562 126.964 135.312 126.537L135.26 126.446L135.208 126.354C134.455 126.783 133.618 127.289 132.767 127.803L132.822 127.893ZM215.314 80.206L215.366 80.2969C216.195 79.8168 217.033 79.3247 217.876 78.8296L217.823 78.7391L217.77 78.6485C216.926 79.1437 216.089 79.6355 215.261 80.1152L215.314 80.206ZM217.823 78.7391L217.87 78.833L217.87 78.8329L217.823 78.739L217.776 78.6451L217.776 78.6452L217.823 78.7391ZM217.823 78.739L217.876 78.8295C220.278 77.4191 222.721 75.9844 225.118 74.7279L225.07 74.6349L225.021 74.5419C222.618 75.8012 220.171 77.2386 217.77 78.6484L217.823 78.739ZM225.07 74.6349L225.13 74.5487C224.253 73.9385 222.631 73.0233 221.314 72.28L221.262 72.3715L221.21 72.4629C222.532 73.2087 224.143 74.118 225.01 74.7211L225.07 74.6349ZM116.824 12.0052L116.771 12.0956L116.771 12.0959L116.825 12.0056L116.878 11.9152L116.878 11.9148L116.824 12.0052ZM116.825 12.0056L116.772 12.0962C120.006 13.9841 123.229 15.8656 126.426 17.7132L126.479 17.6223L126.531 17.5314C123.335 15.6841 120.112 13.8028 116.878 11.9149L116.825 12.0056ZM219.97 71.6362L219.917 71.727C220.272 71.9332 220.721 72.1866 221.21 72.4625L221.261 72.3711L221.313 72.2796C220.824 72.0035 220.376 71.7508 220.022 71.5454L219.97 71.6362ZM221.261 72.3711L221.21 72.463L221.211 72.4634L221.262 72.3715L221.313 72.2796L221.312 72.2792L221.261 72.3711ZM18.2508 70.3814L18.3091 70.294L18.309 70.2939L18.2507 70.3813L18.1925 70.4687L18.1926 70.4687L18.2508 70.3814ZM18.2507 70.3813L18.3048 70.2913C16.4749 69.1909 14.0081 67.7077 11.8344 66.4586C10.7476 65.8341 9.73308 65.2677 8.90755 64.8367C8.08669 64.4081 7.44082 64.107 7.09752 64.0218L7.0722 64.1236L7.04688 64.2255C7.36117 64.3036 7.98388 64.5913 8.81037 65.0228C9.6322 65.4519 10.6439 66.0167 11.7297 66.6407C13.9014 67.8885 16.3663 69.3707 18.1966 70.4713L18.2507 70.3813ZM7.0722 64.1236L6.96823 64.1383C7.03197 64.5895 7.2976 65.2838 7.63753 66.0514C7.9792 66.823 8.4022 67.682 8.78874 68.4669L8.88294 68.4206L8.97714 68.3742C8.59015 67.5883 8.16916 66.7333 7.82954 65.9664C7.48817 65.1955 7.2352 64.5268 7.17617 64.109L7.0722 64.1236ZM8.88294 68.4206L8.78818 68.4658L8.7883 68.466L8.88306 68.4208L8.97782 68.3756L8.9777 68.3753L8.88294 68.4206ZM8.88306 68.4208L8.78886 68.4672C9.1614 69.2237 9.49905 69.9096 9.70066 70.3874L9.7974 70.3465L9.89414 70.3057C9.68957 69.8209 9.34856 69.1285 8.97726 68.3744L8.88306 68.4208ZM24.3569 104.23L24.26 104.271L24.26 104.271L24.3569 104.23L24.4538 104.19L24.4538 104.19L24.3569 104.23ZM24.3569 104.23L24.2609 104.273C24.763 105.406 25.2997 106.617 25.6612 107.634L25.7601 107.599L25.859 107.564C25.4943 106.538 24.954 105.319 24.4529 104.188L24.3569 104.23ZM25.7601 107.599L25.8238 107.683C26.866 106.888 28.1245 106.163 29.3498 105.459L29.2975 105.368L29.2451 105.277C28.0225 105.98 26.7515 106.711 25.6964 107.516L25.7601 107.599ZM29.2975 105.368L29.346 105.461L29.3462 105.461L29.2976 105.368L29.249 105.274L29.2489 105.275L29.2975 105.368ZM30.9075 104.423L30.9622 104.513C32.775 103.406 34.7285 102.323 36.689 101.235L36.6381 101.143L36.5872 101.051C34.6274 102.139 32.67 103.224 30.8528 104.334L30.9075 104.423ZM36.6381 101.143L36.6884 101.235L36.6891 101.235L36.6389 101.143L36.5886 101.051L36.5878 101.051L36.6381 101.143ZM36.6389 101.143L36.6898 101.235C39.0272 99.9381 41.3747 98.636 43.4987 97.2855L43.4424 97.1968L43.3861 97.1082C41.2683 98.4548 38.9265 99.7538 36.5879 101.051L36.6389 101.143ZM18.2508 70.3814L18.1973 70.4717L18.1981 70.4721L18.2516 70.3818L18.3051 70.2915L18.3043 70.291L18.2508 70.3814ZM18.2516 70.3818L18.197 70.4715L18.1976 70.4719L18.2521 70.3821L18.3067 70.2924L18.3061 70.2921L18.2516 70.3818ZM30.9075 104.423L30.8528 104.334C30.342 104.646 29.7991 104.958 29.2464 105.276L29.2987 105.367L29.3511 105.458C29.9033 105.14 30.4487 104.827 30.9622 104.513L30.9075 104.423ZM29.2987 105.367L29.2466 105.276L29.2464 105.276L29.2985 105.367L29.3506 105.458L29.3508 105.458L29.2987 105.367ZM29.2985 105.367L29.2473 105.275L29.2464 105.276L29.2976 105.368L29.3488 105.459L29.3497 105.459L29.2985 105.367ZM24.3569 104.23L24.4532 104.189L24.4529 104.188L24.3566 104.23L24.2603 104.271L24.2606 104.272L24.3569 104.23ZM24.3566 104.23L24.4526 104.187C24.248 103.726 24.0499 103.279 23.8724 102.864L23.7759 102.906L23.6794 102.947C23.8575 103.363 24.0562 103.811 24.2606 104.272L24.3566 104.23ZM2.18379 57.7152L2.14816 57.6164L2.10067 57.6335L2.1363 57.7323L2.17193 57.8311L2.21942 57.8139L2.18379 57.7152ZM11.1643 65.6802L11.1129 65.7718L11.5223 66.0017L11.5737 65.9101L11.6251 65.8186L11.2157 65.5887L11.1643 65.6802ZM130.538 134.703L130.637 134.668C130.274 133.651 129.792 132.544 129.338 131.5L129.241 131.542L129.145 131.584C129.6 132.629 130.079 133.73 130.439 134.738L130.538 134.703ZM128.876 130.7L128.939 130.616C127.939 129.863 126.11 128.833 124.606 127.987L124.554 128.078L124.503 128.17C126.013 129.02 127.827 130.041 128.813 130.784L128.876 130.7ZM124.554 128.078L124.606 127.987C124.096 127.7 123.624 127.434 123.231 127.205L123.178 127.296L123.125 127.387C123.52 127.616 123.994 127.883 124.503 128.17L124.554 128.078ZM8.7066 61.1719L8.75961 61.0813C8.15765 60.7293 7.55175 60.3669 6.9426 60.0026L6.88871 60.0927L6.83482 60.1828C7.44381 60.547 8.0506 60.9099 8.65359 61.2626L8.7066 61.1719ZM6.88871 60.0927L6.94436 60.0037L6.94427 60.0036L6.88862 60.0927L6.83297 60.1817L6.83306 60.1818L6.88871 60.0927ZM6.88862 60.0927L6.94251 60.0025C5.6263 59.2154 4.29494 58.4192 2.96213 57.7025L2.9124 57.795L2.86267 57.8875C4.19054 58.6015 5.51776 59.3952 6.83473 60.1828L6.88862 60.0927ZM2.9124 57.795L2.96211 57.7025C2.77228 57.6005 2.64331 57.5437 2.51952 57.5347C2.39406 57.5256 2.28486 57.567 2.14808 57.6164L2.18379 57.7152L2.2195 57.8139C2.36801 57.7602 2.43219 57.7389 2.50425 57.7441C2.57799 57.7495 2.67067 57.7843 2.86269 57.8875L2.9124 57.795ZM20.5095 71.7304L20.5623 71.6397C20.0919 71.3658 19.2926 70.8852 18.3079 70.2932L18.2538 70.3831L18.1997 70.4731C19.1836 71.0648 19.9846 71.5464 20.4567 71.8212L20.5095 71.7304ZM18.2538 70.3831L18.3077 70.293L18.3068 70.2925L18.253 70.3827L18.1991 70.4728L18.1999 70.4733L18.2538 70.3831ZM18.253 70.3827L18.3075 70.2929L18.3067 70.2924L18.2521 70.3821L18.1976 70.4719L18.1984 70.4724L18.253 70.3827ZM128.876 130.7L128.78 130.741C128.896 131.012 129.017 131.29 129.14 131.572L129.236 131.53L129.332 131.488C129.21 131.206 129.089 130.928 128.973 130.658L128.876 130.7ZM129.236 131.53L129.14 131.572L129.144 131.582L129.24 131.54L129.337 131.498L129.332 131.489L129.236 131.53ZM129.24 131.54L129.144 131.582L129.145 131.584L129.241 131.542L129.337 131.5L129.336 131.498L129.24 131.54ZM11.1643 65.6802L11.2149 65.5882L11.2142 65.5878L11.1636 65.6798L11.113 65.7718L11.1137 65.7722L11.1643 65.6802ZM11.1636 65.6798L11.213 65.5872L11.2129 65.5871L11.1635 65.6798L11.1141 65.7724L11.1142 65.7725L11.1636 65.6798ZM11.1635 65.6798L11.2149 65.5882C9.96438 64.8863 8.01743 63.7934 7.06063 63.1706L7.00335 63.2586L6.94607 63.3466C7.91016 63.9741 9.86482 65.0712 11.1121 65.7713L11.1635 65.6798ZM3.02236 59.5917L3.10266 59.5241L3.10242 59.5238L3.02212 59.5914L2.94182 59.6591L2.94206 59.6594L3.02236 59.5917ZM3.02212 59.5914L3.10256 59.5239C2.79686 59.1596 2.54155 58.8554 2.38407 58.662L2.30265 58.7283L2.22123 58.7946C2.37994 58.9895 2.63652 59.2953 2.94169 59.6589L3.02212 59.5914ZM1.9122 58.9725L1.81276 59.0062C2.53073 61.1231 3.58445 63.381 4.59452 65.5456L4.68967 65.5012L4.78482 65.4568C3.77358 63.2897 2.7252 61.0427 2.01164 58.9388L1.9122 58.9725ZM4.68967 65.5012L4.59204 65.5398L4.59207 65.5399L4.6897 65.5013L4.78733 65.4626L4.7873 65.4626L4.68967 65.5012ZM18.675 97.7148L18.5783 97.7558C18.7822 98.2362 18.9891 98.7327 19.1998 99.2383L19.2967 99.1979L19.3936 99.1575C19.183 98.6521 18.9758 98.1549 18.7717 97.6738L18.675 97.7148ZM19.2967 99.1979L19.1995 99.2378L19.1997 99.2381L19.2968 99.1982L19.3939 99.1583L19.3938 99.158L19.2967 99.1979ZM19.2968 99.1982L19.1999 99.2386L19.2 99.2388L19.2969 99.1984L19.3938 99.158L19.3937 99.1578L19.2968 99.1982ZM19.2969 99.1984L19.2 99.2388C20.0303 101.231 20.9191 103.364 21.8964 105.174L21.9888 105.124L22.0812 105.074C21.1098 103.276 20.2251 101.153 19.3938 99.158L19.2969 99.1984ZM21.9888 105.124L21.8964 105.174C22.1205 105.589 22.5705 105.943 23.066 106.242C23.5643 106.542 24.1253 106.797 24.5869 107.007L24.6303 106.911L24.6737 106.816C24.2103 106.605 23.6606 106.355 23.1744 106.062C22.6854 105.767 22.2772 105.437 22.0812 105.074L21.9888 105.124ZM24.6303 106.911L24.5869 107.007C24.6856 107.052 24.7796 107.094 24.8679 107.135L24.912 107.04L24.9561 106.945C24.867 106.903 24.7723 106.86 24.6737 106.816L24.6303 106.911ZM24.912 107.04L25.0109 107.005C24.3951 105.278 23.5174 103.34 22.6779 101.487L22.5822 101.53L22.4866 101.573C23.3271 103.429 24.2008 105.358 24.8131 107.075L24.912 107.04ZM22.5822 101.53L22.6779 101.487C22.2894 100.629 21.9089 99.7889 21.5656 98.9946L21.4692 99.0363L21.3728 99.078C21.717 99.8742 22.0982 100.716 22.4866 101.573L22.5822 101.53ZM8.55638 69.1172L8.65183 69.0734L8.6518 69.0733L8.55635 69.1171L8.4609 69.1608L8.46093 69.1609L8.55638 69.1172ZM8.55635 69.1171L8.6533 69.0768C7.83978 67.1203 6.91171 64.8881 6.0327 63.2358L5.94 63.2851L5.8473 63.3345C6.72063 64.9761 7.64463 67.198 8.45939 69.1574L8.55635 69.1171ZM5.94 63.2851L6.0327 63.2358C5.86946 62.929 5.38826 62.3017 4.82867 61.6079C4.26581 60.9101 3.61446 60.1339 3.1028 59.5242L3.02236 59.5917L2.94193 59.6592C3.45386 60.2692 4.10387 61.0438 4.66521 61.7398C5.22982 62.4398 5.69564 63.0494 5.8473 63.3345L5.94 63.2851ZM8.55638 69.1172L8.45947 69.1576L8.45974 69.1582L8.55664 69.1178L8.65355 69.0774L8.65328 69.0767L8.55638 69.1172ZM8.55664 69.1178L8.45936 69.1573L8.45959 69.1579L8.55687 69.1183L8.65414 69.0788L8.65392 69.0783L8.55664 69.1178ZM8.55687 69.1183L8.45991 69.1587C8.66862 69.6606 8.87011 70.1451 9.06155 70.5977L9.15825 70.5568L9.25496 70.5159C9.06382 70.064 8.86258 69.5801 8.65382 69.078L8.55687 69.1183ZM5.9556 68.2617L6.05165 68.2193C5.65763 67.3273 5.22505 66.4002 4.78536 65.458L4.69021 65.5024L4.59506 65.5468C5.03493 66.4894 5.46657 67.4145 5.85955 68.3041L5.9556 68.2617ZM4.69021 65.5024L4.78549 65.4582L4.78526 65.4577L4.68998 65.5019L4.5947 65.546L4.59493 65.5465L4.69021 65.5024ZM4.68998 65.5019L4.78486 65.4569L4.78458 65.4563L4.6897 65.5013L4.59482 65.5462L4.5951 65.5468L4.68998 65.5019ZM229.036 92.6225L229.133 92.5818C228.415 90.8749 227.328 88.2895 226.348 86.088C225.858 84.9875 225.394 83.9816 225.016 83.229C224.827 82.8529 224.659 82.5383 224.519 82.3063C224.449 82.1904 224.385 82.0933 224.328 82.0187C224.274 81.9475 224.218 81.8858 224.163 81.8532L224.11 81.9436L224.056 82.0341C224.073 82.0442 224.108 82.0765 224.161 82.1459C224.211 82.212 224.271 82.302 224.339 82.4147C224.475 82.6399 224.64 82.9489 224.828 83.3232C225.204 84.0714 225.666 85.0738 226.156 86.1735C227.135 88.3725 228.222 90.9559 228.94 92.6632L229.036 92.6225ZM224.11 81.9436L224.056 81.8532L223.836 81.9829L223.89 82.0734L223.943 82.1638L224.163 82.0341L224.11 81.9436ZM223.89 82.0734L223.836 81.9828L223.832 81.9853L223.885 82.0759L223.939 82.1664L223.943 82.1639L223.89 82.0734ZM223.885 82.0759L223.832 81.9854C214.98 87.2062 205.136 93.0116 196.184 97.9506L196.235 98.0425L196.286 98.1345C205.24 93.1937 215.087 87.3867 223.939 82.1663L223.885 82.0759ZM204.753 103.156L204.701 103.247C205.442 103.665 206.094 104.032 206.588 104.316L206.641 104.225L206.693 104.134C206.198 103.849 205.545 103.481 204.805 103.064L204.753 103.156ZM236.863 121.703L236.81 121.794C237.2 122.019 237.663 122.294 238.167 122.592L238.22 122.501L238.274 122.411C237.771 122.113 237.306 121.838 236.915 121.612L236.863 121.703ZM238.22 122.501L238.173 122.595L238.173 122.595L238.22 122.502L238.267 122.408L238.267 122.408L238.22 122.501ZM238.22 122.502L238.169 122.593L238.169 122.593L238.221 122.502L238.272 122.41L238.272 122.41L238.22 122.502ZM238.221 122.502L238.167 122.592C239.785 123.551 241.817 124.754 243.087 125.322L243.13 125.226L243.172 125.13C241.917 124.569 239.897 123.373 238.274 122.411L238.221 122.502ZM229.763 94.336L229.859 94.2936C229.738 94.02 229.479 93.405 229.135 92.5858L229.038 92.6265L228.941 92.6672C229.285 93.4851 229.545 94.1027 229.667 94.3785L229.763 94.336ZM229.038 92.6265L229.135 92.5856L229.133 92.5816L229.036 92.6225L228.94 92.6634L228.941 92.6674L229.038 92.6265ZM204.752 103.155L204.804 103.064C204.45 102.864 204.076 102.653 203.689 102.434L203.637 102.526L203.585 102.617C203.972 102.836 204.347 103.047 204.701 103.247L204.752 103.155ZM224.194 81.1996L224.133 81.114C223.172 81.7944 221.737 82.6019 220.498 83.299L220.549 83.3905L220.601 83.482C221.837 82.7869 223.283 81.9735 224.254 81.2853L224.194 81.1996ZM130.787 133.712L130.884 133.673L130.884 133.673L130.787 133.712L130.689 133.751L130.689 133.751L130.787 133.712ZM130.787 133.712L130.883 133.671C130.438 132.61 130.003 131.575 129.42 130.557L129.329 130.61L129.238 130.662C129.813 131.666 130.243 132.69 130.69 133.752L130.787 133.712ZM129.329 130.61L129.389 130.696C131.086 129.524 134.237 127.75 136.851 126.278L136.799 126.187L136.748 126.095C134.138 127.564 130.977 129.344 129.269 130.523L129.329 130.61ZM136.799 126.187L136.855 126.276L136.855 126.275L136.8 126.186L136.744 126.097L136.744 126.097L136.799 126.187ZM229.285 83.8703L229.188 83.9103C229.527 84.7308 229.796 85.3827 229.934 85.695L230.03 85.6525L230.126 85.6101C229.99 85.3009 229.722 84.6523 229.382 83.8302L229.285 83.8703ZM230.03 85.6525L229.934 85.6951C233.181 93.0284 236.343 100.401 239.505 107.775L239.602 107.733L239.698 107.692C236.536 100.319 233.373 92.9447 230.126 85.61L230.03 85.6525ZM239.602 107.733L239.505 107.775L239.509 107.783L239.605 107.742L239.702 107.701L239.698 107.692L239.602 107.733ZM239.605 107.742L239.509 107.783C241.843 113.225 244.177 118.668 246.545 124.093L246.641 124.051L246.737 124.009C244.37 118.584 242.036 113.143 239.702 107.701L239.605 107.742ZM246.641 124.051L246.58 123.966C246.304 124.164 245.963 124.374 245.639 124.573L245.695 124.663L245.75 124.752C246.072 124.554 246.419 124.34 246.702 124.137L246.641 124.051ZM245.695 124.663L245.64 124.573L245.637 124.575L245.691 124.665L245.746 124.754L245.749 124.752L245.695 124.663ZM245.691 124.665L245.636 124.575C245.52 124.647 245.406 124.717 245.298 124.785L245.354 124.874L245.41 124.963C245.516 124.896 245.63 124.826 245.746 124.754L245.691 124.665ZM244.001 125.301L244.093 125.251C243.109 123.465 241.595 119.864 240.537 117.347L240.44 117.387L240.343 117.428C241.399 119.94 242.918 123.554 243.909 125.352L244.001 125.301ZM240.44 117.387L240.537 117.347C240.32 116.832 240.123 116.363 239.953 115.964L239.857 116.005L239.76 116.046C239.929 116.445 240.126 116.913 240.343 117.428L240.44 117.387ZM227.35 87.1209L227.446 87.08C227.196 86.488 226.913 85.8519 226.624 85.2019L226.528 85.2445L226.432 85.2872C226.721 85.9376 227.003 86.5719 227.253 87.1618L227.35 87.1209ZM226.528 85.2445L226.624 85.2026L226.624 85.2013L226.527 85.2433L226.431 85.2853L226.432 85.2865L226.528 85.2445ZM226.527 85.2433L226.623 85.2006C226.02 83.8428 225.389 82.4244 224.96 81.2047L224.861 81.2395L224.762 81.2744C225.195 82.5036 225.829 83.9303 226.432 85.2859L226.527 85.2433ZM225.787 76.1991L225.727 76.2858C225.742 76.2957 225.768 76.3212 225.806 76.3709C225.843 76.4187 225.885 76.4825 225.933 76.5618C226.03 76.7202 226.145 76.9345 226.275 77.1937C226.536 77.7118 226.852 78.4028 227.19 79.1708C227.865 80.7064 228.624 82.5442 229.188 83.9103L229.285 83.8703L229.382 83.8302C228.818 82.4645 228.059 80.6244 227.382 79.0862C227.044 78.3173 226.726 77.6224 226.463 77.0994C226.332 76.8381 226.214 76.6181 226.113 76.4526C226.062 76.3699 226.016 76.2994 225.973 76.2435C225.932 76.1895 225.889 76.1419 225.846 76.1124L225.787 76.1991ZM196.235 98.0425L196.171 98.126C197.544 99.173 200.88 101.088 203.585 102.617L203.637 102.526L203.689 102.434C200.977 100.901 197.657 98.995 196.299 97.9591L196.235 98.0425ZM204.752 103.155L204.701 103.247L204.701 103.247L204.753 103.156L204.805 103.064L204.804 103.064L204.752 103.155ZM139.385 124.719L139.333 124.629C138.616 125.043 137.721 125.547 136.75 126.094L136.801 126.185L136.853 126.277C137.823 125.73 138.719 125.226 139.438 124.81L139.385 124.719ZM136.801 126.185L136.751 126.094L136.749 126.094L136.8 126.186L136.85 126.278L136.852 126.277L136.801 126.185ZM130.787 133.712L130.69 133.753L130.691 133.755L130.788 133.714L130.884 133.673L130.883 133.671L130.787 133.712ZM130.788 133.714L130.691 133.755L130.798 134.008L130.894 133.968L130.991 133.927L130.884 133.674L130.788 133.714ZM130.894 133.968L130.798 134.008C130.832 134.089 130.866 134.171 130.9 134.252L130.997 134.211L131.094 134.17C131.059 134.089 131.025 134.008 130.991 133.927L130.894 133.968ZM130.997 134.211L130.903 134.257C130.962 134.379 131 134.468 131.029 134.536L131.126 134.495L131.222 134.454C131.193 134.385 131.153 134.292 131.091 134.165L130.997 134.211ZM131.126 134.495L131.029 134.536C131.065 134.622 131.094 134.693 131.144 134.749L131.222 134.679L131.301 134.61C131.279 134.585 131.263 134.551 131.222 134.454L131.126 134.495ZM131.222 134.679L131.144 134.749C131.179 134.79 131.222 134.818 131.274 134.846C131.324 134.873 131.39 134.903 131.476 134.941L131.518 134.845L131.561 134.749C131.473 134.71 131.415 134.684 131.373 134.661C131.333 134.64 131.314 134.625 131.301 134.61L131.222 134.679ZM131.518 134.845L131.475 134.941L131.49 134.947L131.533 134.852L131.576 134.756L131.561 134.749L131.518 134.845ZM131.533 134.852L131.582 134.945C132.762 134.321 133.985 133.58 135.187 132.851L135.133 132.761L135.078 132.672C133.875 133.401 132.658 134.139 131.484 134.759L131.533 134.852ZM135.133 132.761L135.184 132.853L135.184 132.853L135.133 132.761L135.082 132.669L135.082 132.67L135.133 132.761ZM135.133 132.761L135.187 132.851L135.188 132.851L135.134 132.76L135.081 132.67L135.08 132.671L135.133 132.761ZM135.134 132.76L135.193 132.848L135.193 132.847L135.135 132.76L135.077 132.673L135.076 132.673L135.134 132.76ZM135.135 132.76L135.189 132.85L135.193 132.848L135.139 132.758L135.085 132.667L135.081 132.67L135.135 132.76ZM135.139 132.758L135.193 132.847C135.87 132.437 136.541 132.03 137.195 131.65L137.143 131.559L137.09 131.468C136.433 131.85 135.761 132.257 135.084 132.668L135.139 132.758ZM219.515 83.9761L219.567 84.0672C219.881 83.887 220.231 83.6903 220.599 83.4832L220.547 83.3917L220.496 83.3002C220.128 83.5072 219.777 83.7043 219.463 83.8851L219.515 83.9761ZM220.547 83.3917L220.598 83.4835L220.6 83.4823L220.549 83.3905L220.499 83.2987L220.496 83.2999L220.547 83.3917ZM247.435 124.19L247.547 124.367L247.706 124.266L247.623 124.097L247.435 124.19ZM243.758 126.434L243.634 126.603L243.745 126.684L243.864 126.615L243.758 126.434ZM232.48 119.789L232.585 119.608L232.585 119.608L232.48 119.789ZM208.163 105.721L208.268 105.539L208.268 105.539L208.163 105.721ZM119.766 129.065L119.871 128.883L119.871 128.883L119.766 129.065ZM89.507 111.596L89.4018 111.778L89.402 111.778L89.507 111.596ZM66.404 98.2272L66.5091 98.0454L66.5091 98.0454L66.404 98.2272ZM25.5432 108.181L25.414 108.347L25.5272 108.435L25.6505 108.362L25.5432 108.181ZM25.4171 108.083L25.5462 107.917L25.5449 107.916L25.4171 108.083ZM18.9963 99.9261L19.1895 99.8438L19.1892 99.8431L18.9963 99.9261ZM14.948 90.5187L14.755 90.6015L14.7551 90.6017L14.948 90.5187ZM0 55.9757L-0.16718 55.8486L-0.238757 55.9427L-0.195338 56.0527L0 55.9757ZM0.1959 55.7179L0.0909015 55.5361L0.0542984 55.5572L0.0287205 55.5909L0.1959 55.7179ZM87.117 5.535L87.222 5.71687L87.2224 5.71665L87.117 5.535ZM116.865 11.4627L116.76 11.6445L116.76 11.6445L116.865 11.4627ZM196.124 57.2463L196.019 57.4281L196.02 57.4284L196.124 57.2463ZM187.258 103.262L187.153 103.08L187.153 103.08L187.258 103.262ZM144.53 127.955L144.425 127.773L144.425 127.773L144.53 127.955ZM0.511906 57.1353L0.320656 57.2221L0.32138 57.2237L0.511906 57.1353ZM0.511975 57.1355L0.702609 57.0474L0.702501 57.0472L0.511975 57.1355ZM0.512086 57.1357L0.703333 57.049L0.70272 57.0476L0.512086 57.1357ZM1.25775 58.8893L1.0539 58.9397L1.05771 58.9551L1.06381 58.9698L1.25775 58.8893ZM9.56883 78.1716L9.76139 78.0878L9.76112 78.0872L9.56883 78.1716ZM9.56917 78.1724L9.76223 78.0897L9.76174 78.0886L9.56917 78.1724ZM19.4602 101.038L19.2661 101.118V101.118L19.4602 101.038ZM21.426 105.291L21.6064 105.183H21.6064L21.426 105.291ZM23.8739 107.125L23.7704 107.307V107.307L23.8739 107.125ZM41.5739 98.8894L41.4696 98.7071V98.7071L41.5739 98.8894ZM54.5558 91.3975L54.6494 91.2096L54.5476 91.1589L54.4495 91.2164L54.5558 91.3975ZM62.9142 96.1636L63.0219 95.9833L63.0218 95.9833L62.9142 96.1636ZM62.9151 96.1641L62.8074 96.3444L62.8075 96.3445L62.9151 96.1641ZM123.682 131.305L123.576 131.486L123.576 131.486L123.682 131.305ZM123.683 131.305L123.577 131.487L123.579 131.488L123.683 131.305ZM131.227 135.695L131.117 135.874L131.23 135.943L131.341 135.871L131.227 135.695ZM140.57 130.205L140.47 130.02L140.467 130.022L140.57 130.205ZM140.57 130.205L140.67 130.39L140.677 130.386L140.57 130.205ZM140.571 130.204L140.468 130.021L140.465 130.023L140.571 130.204ZM189.361 102.024L189.468 102.205L189.468 102.205L189.361 102.024ZM189.369 102.019L189.476 102.2L189.477 102.199L189.369 102.019ZM189.373 102.017L189.48 102.197L189.481 102.197L189.373 102.017ZM189.373 102.017L189.266 101.836L189.265 101.837L189.373 102.017ZM195.704 98.469L195.821 98.2946L195.723 98.2288L195.616 98.2785L195.704 98.469ZM204.692 103.76L204.59 103.944V103.944L204.692 103.76ZM235.52 121.511L235.623 121.328V121.328L235.52 121.511ZM243.911 116.17L244.104 116.089L244.103 116.086L243.911 116.17ZM243.91 116.169L244.103 116.086L244.101 116.082L243.91 116.169ZM243.91 116.169L243.716 116.25L243.719 116.256L243.91 116.169ZM242.029 111.73L242.221 111.646L242.221 111.646L242.029 111.73ZM235.044 95.6302L235.237 95.5472L235.236 95.5463L235.044 95.6302ZM235.043 95.6279L234.85 95.711L234.85 95.7118L235.043 95.6279ZM225.788 74.4155L225.98 74.3296L225.953 74.2699L225.897 74.236L225.788 74.4155ZM203.927 61.7011L203.823 61.8836V61.8836L203.927 61.7011ZM203.921 61.698L203.817 61.8802L203.817 61.8805L203.921 61.698ZM203.918 61.6961L204.022 61.5139L204.022 61.5136L203.918 61.6961ZM110.968 8.00598L111.075 7.82511L111.075 7.82502L110.968 8.00598ZM110.968 8.00547L110.861 8.18618L110.861 8.18643L110.968 8.00547ZM110.964 8.00354L110.857 8.18399L110.857 8.18425L110.964 8.00354ZM110.963 8.00295L111.071 7.82249L111.07 7.82208L110.963 8.00295ZM96.9215 0L97.0193 -0.185824L96.9349 -0.230237L96.8459 -0.195956L96.9215 0ZM88.5106 4.71697L88.4041 4.53602L88.404 4.53605L88.5106 4.71697ZM88.5088 4.71807L88.615 4.89924L88.6154 4.89899L88.5088 4.71807ZM88.5061 4.71962L88.3999 4.53845L88.3994 4.53878L88.5061 4.71962ZM88.4995 4.72351L88.6062 4.90441L88.6064 4.90427L88.4995 4.72351ZM88.5013 4.72245L88.3946 4.5416L88.3944 4.54169L88.5013 4.72245ZM88.5035 4.72117L88.6102 4.90203L88.6103 4.90201L88.5035 4.72117ZM189.36 102.025L189.253 101.844L189.253 101.844L189.36 102.025ZM123.681 131.305L123.788 131.123L123.785 131.122L123.681 131.305ZM123.677 131.302L123.573 131.484L123.573 131.484L123.677 131.302ZM9.56987 78.174L9.76217 78.0896L9.76176 78.0887L9.56987 78.174ZM9.56948 78.1731L9.37642 78.2558L9.37759 78.2584L9.56948 78.1731ZM123.671 131.299L123.775 131.116L123.775 131.116L123.671 131.299ZM88.4924 4.72771L88.5985 4.90893L88.5991 4.9086L88.4924 4.72771ZM88.4913 4.72836L88.3852 4.54714L88.3847 4.54741L88.4913 4.72836ZM247.435 124.19L247.322 124.013C246.114 124.782 244.89 125.529 243.652 126.252L243.758 126.434L243.864 126.615C245.107 125.889 246.335 125.139 247.547 124.367L247.435 124.19ZM232.48 119.789L232.585 119.608L208.268 105.539L208.163 105.721L208.058 105.903L232.374 119.971L232.48 119.789ZM119.766 129.065L119.871 128.883L89.612 111.414L89.507 111.596L89.402 111.778L119.661 129.247L119.766 129.065ZM89.507 111.596L89.6121 111.414L66.5091 98.0454L66.404 98.2272L66.2988 98.409L89.4018 111.778L89.507 111.596ZM25.5432 108.181L25.6724 108.016L25.5462 107.917L25.4171 108.083L25.2879 108.248L25.414 108.347L25.5432 108.181ZM18.9963 99.9261L19.1892 99.8431L15.1408 90.4357L14.948 90.5187L14.7551 90.6017L18.8034 100.009L18.9963 99.9261ZM0 55.9757L0.16718 56.1027L0.363079 55.845L0.1959 55.7179L0.0287205 55.5909L-0.16718 55.8486L0 55.9757ZM0.1959 55.7179L0.300898 55.8998L87.222 5.71687L87.117 5.535L87.012 5.35314L0.0909015 55.5361L0.1959 55.7179ZM116.865 11.4627L116.76 11.6445L196.019 57.4281L196.124 57.2463L196.229 57.0645L116.97 11.2809L116.865 11.4627ZM187.258 103.262L187.153 103.08L144.425 127.773L144.53 127.955L144.635 128.136L187.363 103.444L187.258 103.262ZM0 55.9757L-0.195338 56.0527C-0.0981623 56.299 0.106672 56.7504 0.320662 57.2221L0.511906 57.1353L0.703149 57.0486C0.486523 56.571 0.287598 56.1323 0.195338 55.8986L0 55.9757ZM0.511906 57.1353L0.32138 57.2237L0.321449 57.2238L0.511975 57.1355L0.702501 57.0472L0.702432 57.047L0.511906 57.1353ZM0.511975 57.1355L0.32134 57.2236L0.321451 57.2238L0.512086 57.1357L0.70272 57.0476L0.702609 57.0474L0.511975 57.1355ZM0.512086 57.1357L0.320843 57.2225C0.484776 57.5839 0.655489 57.9602 0.792685 58.2763C0.933332 58.6003 1.02921 58.8399 1.0539 58.9397L1.25775 58.8893L1.46161 58.8388C1.42657 58.6972 1.31335 58.421 1.17796 58.109C1.03911 57.7892 0.866853 57.4095 0.703328 57.049L0.512086 57.1357ZM1.25775 58.8893L1.06381 58.9698C3.7319 65.3956 6.55713 71.8324 9.37654 78.256L9.56883 78.1716L9.76112 78.0872C6.94142 71.6629 4.1179 65.23 1.4517 58.8087L1.25775 58.8893ZM9.56883 78.1716L9.37627 78.2554L9.37661 78.2562L9.56917 78.1724L9.76174 78.0886L9.76139 78.0878L9.56883 78.1716ZM18.9963 99.9261L18.8031 100.008C18.9481 100.349 19.1031 100.724 19.2661 101.118L19.4602 101.038L19.6542 100.957C19.4915 100.564 19.3356 100.187 19.1895 99.8438L18.9963 99.9261ZM19.4602 101.038L19.2661 101.118C19.8582 102.55 20.5581 104.244 21.2456 105.398L21.426 105.291L21.6064 105.183C20.9381 104.061 20.2506 102.4 19.6542 100.957L19.4602 101.038ZM21.426 105.291L21.2456 105.398C21.4697 105.775 21.8622 106.112 22.305 106.42C22.7511 106.73 23.2718 107.025 23.7704 107.307L23.8739 107.125L23.9775 106.942C23.475 106.657 22.972 106.372 22.5446 106.075C22.1139 105.775 21.783 105.48 21.6064 105.183L21.426 105.291ZM23.8739 107.125L23.7704 107.307C24.3464 107.634 24.8893 107.942 25.2892 108.249L25.4171 108.083L25.5449 107.916C25.117 107.588 24.5454 107.264 23.9775 106.942L23.8739 107.125ZM25.5432 108.181L25.6505 108.362C30.9422 105.216 36.3094 102.145 41.6782 99.0716L41.5739 98.8894L41.4696 98.7071C36.1013 101.78 30.7311 104.853 25.4359 108.001L25.5432 108.181ZM41.5739 98.8894L41.6782 99.0716C46.0187 96.5873 50.3603 94.1024 54.662 91.5787L54.5558 91.3975L54.4495 91.2164C50.15 93.7388 45.8104 96.2226 41.4696 98.7071L41.5739 98.8894ZM54.5558 91.3975L54.4621 91.5855C56.7125 92.7071 59.9283 94.6261 62.8066 96.3439L62.9142 96.1636L63.0218 95.9833C60.1493 94.2689 56.9175 92.34 54.6494 91.2096L54.5558 91.3975ZM62.9142 96.1636L62.8065 96.3439L62.8074 96.3444L62.9151 96.1641L63.0228 95.9839L63.0219 95.9833L62.9142 96.1636ZM62.9151 96.1641L62.8075 96.3445C64.0754 97.1012 65.2773 97.8185 66.2989 98.409L66.404 98.2272L66.5091 98.0454C65.4906 97.4566 64.2914 96.741 63.0227 95.9838L62.9151 96.1641ZM123.682 131.305L123.576 131.486L123.577 131.487L123.683 131.305L123.788 131.124L123.788 131.123L123.682 131.305ZM123.683 131.305L123.579 131.488C126.129 132.937 128.704 134.401 131.117 135.874L131.227 135.695L131.336 135.515C128.916 134.039 126.335 132.571 123.786 131.123L123.683 131.305ZM131.227 135.695L131.341 135.871C134.052 134.12 137.465 132.196 140.673 130.388L140.57 130.205L140.467 130.022C137.262 131.829 133.837 133.759 131.113 135.518L131.227 135.695ZM140.57 130.205L140.669 130.39L140.67 130.39L140.57 130.205L140.471 130.02L140.47 130.02L140.57 130.205ZM140.57 130.205L140.677 130.386L140.677 130.385L140.571 130.204L140.465 130.023L140.464 130.024L140.57 130.205ZM140.571 130.204L140.674 130.387C142.058 129.607 143.403 128.849 144.635 128.136L144.53 127.955L144.425 127.773C143.195 128.484 141.852 129.241 140.468 130.021L140.571 130.204ZM189.361 102.024L189.468 102.205L189.476 102.2L189.369 102.019L189.262 101.838L189.254 101.843L189.361 102.024ZM189.369 102.019L189.477 102.199L189.48 102.197L189.373 102.017L189.265 101.837L189.261 101.839L189.369 102.019ZM189.373 102.017L189.481 102.197L189.481 102.197L189.373 102.017L189.265 101.837L189.265 101.837L189.373 102.017ZM189.373 102.017L189.48 102.198C191.629 100.922 194.194 99.4002 195.792 98.6595L195.704 98.469L195.616 98.2785C193.993 99.0304 191.406 100.566 189.266 101.836L189.373 102.017ZM195.704 98.469L195.587 98.6434C197.91 100.203 201.463 102.192 204.59 103.944L204.692 103.76L204.795 103.577C201.662 101.823 198.127 99.8422 195.821 98.2946L195.704 98.469ZM204.692 103.76L204.59 103.944C205.85 104.65 207.041 105.317 208.058 105.903L208.163 105.721L208.268 105.539C207.248 104.951 206.055 104.283 204.795 103.577L204.692 103.76ZM232.48 119.789L232.374 119.971C233.211 120.458 234.272 121.052 235.417 121.694L235.52 121.511L235.623 121.328C234.476 120.685 233.419 120.093 232.585 119.608L232.48 119.789ZM235.52 121.511L235.417 121.694C238.357 123.341 241.848 125.297 243.634 126.603L243.758 126.434L243.882 126.264C242.07 124.939 238.55 122.968 235.623 121.328L235.52 121.511ZM247.435 124.19L247.623 124.097C246.468 121.762 245.263 118.87 244.104 116.089L243.911 116.17L243.717 116.251C244.874 119.028 246.084 121.933 247.246 124.283L247.435 124.19ZM243.911 116.17L244.103 116.086L244.103 116.086L243.91 116.169L243.718 116.253L243.718 116.254L243.911 116.17ZM243.91 116.169L244.101 116.082L244.101 116.082L243.91 116.169L243.719 116.256L243.719 116.256L243.91 116.169ZM243.91 116.169L244.104 116.088C243.455 114.532 242.822 113.011 242.221 111.646L242.029 111.73L241.836 111.815C242.435 113.175 243.067 114.693 243.716 116.25L243.91 116.169ZM242.029 111.73L242.221 111.646C239.863 106.291 237.55 100.92 235.237 95.5472L235.044 95.6302L234.851 95.7133C237.164 101.086 239.477 106.459 241.836 111.815L242.029 111.73ZM235.044 95.6302L235.236 95.5463L235.235 95.544L235.043 95.6279L234.85 95.7118L234.851 95.7141L235.044 95.6302ZM235.043 95.6279L235.236 95.5449C232.186 88.4613 229.135 81.3761 225.98 74.3296L225.788 74.4155L225.596 74.5013C228.75 81.5445 231.8 88.6269 234.85 95.711L235.043 95.6279ZM225.788 74.4155L225.897 74.236C218.899 69.9844 211.377 65.7013 204.031 61.5187L203.927 61.7011L203.823 61.8836C211.17 66.0669 218.687 70.347 225.679 74.5949L225.788 74.4155ZM203.927 61.7011L204.031 61.5187L204.025 61.5155L203.921 61.698L203.817 61.8805L203.823 61.8836L203.927 61.7011ZM203.921 61.698L204.026 61.5158L204.022 61.5139L203.918 61.6961L203.813 61.8783L203.817 61.8802L203.921 61.698ZM203.918 61.6961L204.022 61.5136C201.391 60.0157 198.783 58.5306 196.229 57.0642L196.124 57.2463L196.02 57.4284C198.574 58.8953 201.183 60.3807 203.814 61.8786L203.918 61.6961ZM116.865 11.4627L116.97 11.2809C115.077 10.1858 113.094 9.01633 111.075 7.82511L110.968 8.00598L110.862 8.18685C112.88 9.37787 114.864 10.5483 116.76 11.6445L116.865 11.4627ZM110.968 8.00598L111.075 7.82502L111.074 7.82451L110.968 8.00547L110.861 8.18643L110.862 8.18694L110.968 8.00598ZM110.968 8.00547L111.075 7.82476L111.071 7.82283L110.964 8.00354L110.857 8.18425L110.861 8.18618L110.968 8.00547ZM110.964 8.00354L111.072 7.82308L111.071 7.82249L110.963 8.00295L110.856 8.1834L110.857 8.18399L110.964 8.00354ZM110.963 8.00295L111.07 7.82208C106.363 5.0447 101.455 2.14917 97.0193 -0.185824L96.9215 0L96.8236 0.185824C101.248 2.51516 106.147 5.40513 110.857 8.18381L110.963 8.00295ZM96.9215 0L96.8459 -0.195956C96.246 0.0352186 94.7771 0.841546 93.1519 1.76926C91.5185 2.70171 89.7052 3.76968 88.4041 4.53602L88.5106 4.71697L88.6172 4.89792C89.9188 4.13131 91.7296 3.06481 93.3602 2.13402C94.999 1.19849 96.4342 0.412811 96.997 0.195956L96.9215 0ZM88.5106 4.71697L88.404 4.53605L88.4022 4.53715L88.5088 4.71807L88.6154 4.89899L88.6173 4.89789L88.5106 4.71697ZM88.5088 4.71807L88.4026 4.5369L88.3999 4.53845L88.5061 4.71962L88.6123 4.90079L88.615 4.89924L88.5088 4.71807ZM88.4995 4.72351L88.6064 4.90427L88.6082 4.90321L88.5013 4.72245L88.3944 4.54169L88.3926 4.54275L88.4995 4.72351ZM88.5013 4.72245L88.6081 4.90331L88.6102 4.90203L88.5035 4.72117L88.3968 4.54031L88.3946 4.5416L88.5013 4.72245ZM88.5035 4.72117L88.6103 4.90201L88.6129 4.90045L88.5061 4.71962L88.3994 4.53878L88.3967 4.54034L88.5035 4.72117ZM189.361 102.024L189.254 101.843L189.253 101.844L189.36 102.025L189.467 102.205L189.468 102.205L189.361 102.024ZM189.36 102.025L189.253 101.844C188.471 102.308 187.749 102.736 187.153 103.08L187.258 103.262L187.362 103.444C187.962 103.099 188.686 102.669 189.467 102.205L189.36 102.025ZM123.682 131.305L123.788 131.124L123.788 131.123L123.681 131.305L123.575 131.486L123.576 131.486L123.682 131.305ZM123.681 131.305L123.785 131.122L123.78 131.119L123.677 131.302L123.573 131.484L123.578 131.487L123.681 131.305ZM14.948 90.5187L15.1409 90.4359C13.3784 86.3285 11.571 82.2108 9.76217 78.0896L9.56987 78.174L9.37758 78.2584C11.1866 82.3799 12.9932 86.496 14.755 90.6015L14.948 90.5187ZM9.56987 78.174L9.76176 78.0887L9.76137 78.0878L9.56948 78.1731L9.37759 78.2584L9.37798 78.2593L9.56987 78.174ZM9.56948 78.1731L9.76253 78.0904L9.76222 78.0897L9.56917 78.1724L9.37613 78.2551L9.37644 78.2558L9.56948 78.1731ZM119.766 129.065L119.66 129.246C120.938 129.986 122.249 130.732 123.567 131.481L123.671 131.299L123.775 131.116C122.456 130.367 121.146 129.622 119.871 128.883L119.766 129.065ZM123.671 131.299L123.567 131.481L123.573 131.484L123.677 131.302L123.781 131.119L123.775 131.116L123.671 131.299ZM88.4995 4.72351L88.3929 4.54261L88.3858 4.54681L88.4924 4.72771L88.5991 4.9086L88.6062 4.90441L88.4995 4.72351ZM88.4924 4.72771L88.3863 4.54648L88.3852 4.54714L88.4913 4.72836L88.5974 4.90959L88.5985 4.90893L88.4924 4.72771ZM88.4913 4.72836L88.3847 4.54741C87.8014 4.89099 87.3231 5.17267 87.0116 5.35336L87.117 5.535L87.2224 5.71665C87.5353 5.53509 88.0151 5.25253 88.5979 4.90931L88.4913 4.72836Z" fill="#BCB7B8" mask="url(#path-1-inside-1_14642_7491)"/>
</svg>
