<svg width="101" height="26" viewBox="0 0 101 26" fill="none" xmlns="http://www.w3.org/2000/svg">
<path d="M39.753 3.75401C40.7985 3.75401 41.646 2.91365 41.646 1.87701C41.646 0.840364 40.7985 0 39.753 0C38.7075 0 37.86 0.840364 37.86 1.87701C37.86 2.91365 38.7075 3.75401 39.753 3.75401Z" fill="#392D2B"/>
<path d="M43.9597 3.75401C45.0052 3.75401 45.8527 2.91365 45.8527 1.87701C45.8527 0.840364 45.0052 0 43.9597 0C42.9142 0 42.0667 0.840364 42.0667 1.87701C42.0667 2.91365 42.9142 3.75401 43.9597 3.75401Z" fill="#392D2B"/>
<path d="M48.1664 3.75401C49.2118 3.75401 50.0594 2.91365 50.0594 1.87701C50.0594 0.840364 49.2118 0 48.1664 0C47.1209 0 46.2734 0.840364 46.2734 1.87701C46.2734 2.91365 47.1209 3.75401 48.1664 3.75401Z" fill="#392D2B"/>
<path d="M64.993 3.75401C66.0385 3.75401 66.886 2.91365 66.886 1.87701C66.886 0.840364 66.0385 0 64.993 0C63.9476 0 63.1 0.840364 63.1 1.87701C63.1 2.91365 63.9476 3.75401 64.993 3.75401Z" fill="#392D2B"/>
<path d="M69.1997 3.75401C70.2452 3.75401 71.0927 2.91365 71.0927 1.87701C71.0927 0.840364 70.2452 0 69.1997 0C68.1542 0 67.3067 0.840364 67.3067 1.87701C67.3067 2.91365 68.1542 3.75401 69.1997 3.75401Z" fill="#392D2B"/>
<path d="M73.4064 3.75401C74.4518 3.75401 75.2994 2.91365 75.2994 1.87701C75.2994 0.840364 74.4518 0 73.4064 0C72.3609 0 71.5134 0.840364 71.5134 1.87701C71.5134 2.91365 72.3609 3.75401 73.4064 3.75401Z" fill="#392D2B"/>
<path d="M77.613 3.75401C78.6585 3.75401 79.506 2.91365 79.506 1.87701C79.506 0.840364 78.6585 0 77.613 0C76.5676 0 75.72 0.840364 75.72 1.87701C75.72 2.91365 76.5676 3.75401 77.613 3.75401Z" fill="#392D2B"/>
<path d="M81.8197 3.75401C82.8652 3.75401 83.7127 2.91365 83.7127 1.87701C83.7127 0.840364 82.8652 0 81.8197 0C80.7742 0 79.9267 0.840364 79.9267 1.87701C79.9267 2.91365 80.7742 3.75401 81.8197 3.75401Z" fill="#392D2B"/>
<path d="M86.0264 3.75401C87.0719 3.75401 87.9194 2.91365 87.9194 1.87701C87.9194 0.840364 87.0719 0 86.0264 0C84.9809 0 84.1334 0.840364 84.1334 1.87701C84.1334 2.91365 84.9809 3.75401 86.0264 3.75401Z" fill="#392D2B"/>
<path d="M90.233 3.75401C91.2785 3.75401 92.126 2.91365 92.126 1.87701C92.126 0.840364 91.2785 0 90.233 0C89.1876 0 88.34 0.840364 88.34 1.87701C88.34 2.91365 89.1876 3.75401 90.233 3.75401Z" fill="#392D2B"/>
<path d="M94.4397 3.75401C95.4852 3.75401 96.3327 2.91365 96.3327 1.87701C96.3327 0.840364 95.4852 0 94.4397 0C93.3942 0 92.5467 0.840364 92.5467 1.87701C92.5467 2.91365 93.3942 3.75401 94.4397 3.75401Z" fill="#392D2B"/>
<path d="M98.6464 3.75401C99.6919 3.75401 100.539 2.91365 100.539 1.87701C100.539 0.840364 99.6919 0 98.6464 0C97.6009 0 96.7534 0.840364 96.7534 1.87701C96.7534 2.91365 97.6009 3.75401 98.6464 3.75401Z" fill="#392D2B"/>
<path d="M1.893 8.20321C2.93848 8.20321 3.786 7.36284 3.786 6.3262C3.786 5.28956 2.93848 4.4492 1.893 4.4492C0.847525 4.4492 0 5.28956 0 6.3262C0 7.36284 0.847525 8.20321 1.893 8.20321Z" fill="#392D2B"/>
<path d="M6.09967 8.20321C7.14515 8.20321 7.99267 7.36284 7.99267 6.3262C7.99267 5.28956 7.14515 4.4492 6.09967 4.4492C5.05419 4.4492 4.20667 5.28956 4.20667 6.3262C4.20667 7.36284 5.05419 8.20321 6.09967 8.20321Z" fill="#392D2B"/>
<path d="M10.3063 8.20321C11.3518 8.20321 12.1993 7.36284 12.1993 6.3262C12.1993 5.28956 11.3518 4.4492 10.3063 4.4492C9.26086 4.4492 8.41334 5.28956 8.41334 6.3262C8.41334 7.36284 9.26086 8.20321 10.3063 8.20321Z" fill="#392D2B"/>
<path d="M27.133 8.20321C28.1785 8.20321 29.026 7.36284 29.026 6.3262C29.026 5.28956 28.1785 4.4492 27.133 4.4492C26.0875 4.4492 25.24 5.28956 25.24 6.3262C25.24 7.36284 26.0875 8.20321 27.133 8.20321Z" fill="#392D2B"/>
<path d="M31.3397 8.20321C32.3852 8.20321 33.2327 7.36284 33.2327 6.3262C33.2327 5.28956 32.3852 4.4492 31.3397 4.4492C30.2942 4.4492 29.4467 5.28956 29.4467 6.3262C29.4467 7.36284 30.2942 8.20321 31.3397 8.20321Z" fill="#392D2B"/>
<path d="M39.753 8.20321C40.7985 8.20321 41.646 7.36284 41.646 6.3262C41.646 5.28956 40.7985 4.4492 39.753 4.4492C38.7075 4.4492 37.86 5.28956 37.86 6.3262C37.86 7.36284 38.7075 8.20321 39.753 8.20321Z" fill="#392D2B"/>
<path d="M43.9597 8.20321C45.0052 8.20321 45.8527 7.36284 45.8527 6.3262C45.8527 5.28956 45.0052 4.4492 43.9597 4.4492C42.9142 4.4492 42.0667 5.28956 42.0667 6.3262C42.0667 7.36284 42.9142 8.20321 43.9597 8.20321Z" fill="#392D2B"/>
<path d="M48.1664 8.20321C49.2118 8.20321 50.0594 7.36284 50.0594 6.3262C50.0594 5.28956 49.2118 4.4492 48.1664 4.4492C47.1209 4.4492 46.2734 5.28956 46.2734 6.3262C46.2734 7.36284 47.1209 8.20321 48.1664 8.20321Z" fill="#392D2B"/>
<path d="M52.373 8.20321C53.4185 8.20321 54.266 7.36284 54.266 6.3262C54.266 5.28956 53.4185 4.4492 52.373 4.4492C51.3275 4.4492 50.48 5.28956 50.48 6.3262C50.48 7.36284 51.3275 8.20321 52.373 8.20321Z" fill="#392D2B"/>
<path d="M60.7864 8.20321C61.8318 8.20321 62.6794 7.36284 62.6794 6.3262C62.6794 5.28956 61.8318 4.4492 60.7864 4.4492C59.7409 4.4492 58.8934 5.28956 58.8934 6.3262C58.8934 7.36284 59.7409 8.20321 60.7864 8.20321Z" fill="#392D2B"/>
<path d="M64.993 8.20321C66.0385 8.20321 66.886 7.36284 66.886 6.3262C66.886 5.28956 66.0385 4.4492 64.993 4.4492C63.9476 4.4492 63.1 5.28956 63.1 6.3262C63.1 7.36284 63.9476 8.20321 64.993 8.20321Z" fill="#392D2B"/>
<path d="M69.1997 8.20321C70.2452 8.20321 71.0927 7.36284 71.0927 6.3262C71.0927 5.28956 70.2452 4.4492 69.1997 4.4492C68.1542 4.4492 67.3067 5.28956 67.3067 6.3262C67.3067 7.36284 68.1542 8.20321 69.1997 8.20321Z" fill="#392D2B"/>
<path d="M73.4064 8.20321C74.4518 8.20321 75.2994 7.36284 75.2994 6.3262C75.2994 5.28956 74.4518 4.4492 73.4064 4.4492C72.3609 4.4492 71.5134 5.28956 71.5134 6.3262C71.5134 7.36284 72.3609 8.20321 73.4064 8.20321Z" fill="#392D2B"/>
<path d="M77.613 8.20321C78.6585 8.20321 79.506 7.36284 79.506 6.3262C79.506 5.28956 78.6585 4.4492 77.613 4.4492C76.5676 4.4492 75.72 5.28956 75.72 6.3262C75.72 7.36284 76.5676 8.20321 77.613 8.20321Z" fill="#392D2B"/>
<path d="M81.8197 8.20321C82.8652 8.20321 83.7127 7.36284 83.7127 6.3262C83.7127 5.28956 82.8652 4.4492 81.8197 4.4492C80.7742 4.4492 79.9267 5.28956 79.9267 6.3262C79.9267 7.36284 80.7742 8.20321 81.8197 8.20321Z" fill="#392D2B"/>
<path d="M86.0264 8.20321C87.0719 8.20321 87.9194 7.36284 87.9194 6.3262C87.9194 5.28956 87.0719 4.4492 86.0264 4.4492C84.9809 4.4492 84.1334 5.28956 84.1334 6.3262C84.1334 7.36284 84.9809 8.20321 86.0264 8.20321Z" fill="#392D2B"/>
<path d="M90.233 8.20321C91.2785 8.20321 92.126 7.36284 92.126 6.3262C92.126 5.28956 91.2785 4.4492 90.233 4.4492C89.1876 4.4492 88.34 5.28956 88.34 6.3262C88.34 7.36284 89.1876 8.20321 90.233 8.20321Z" fill="#392D2B"/>
<path d="M94.4397 8.20321C95.4852 8.20321 96.3327 7.36284 96.3327 6.3262C96.3327 5.28956 95.4852 4.4492 94.4397 4.4492C93.3942 4.4492 92.5467 5.28956 92.5467 6.3262C92.5467 7.36284 93.3942 8.20321 94.4397 8.20321Z" fill="#392D2B"/>
<path d="M98.6464 8.20321C99.6919 8.20321 100.539 7.36284 100.539 6.3262C100.539 5.28956 99.6919 4.4492 98.6464 4.4492C97.6009 4.4492 96.7534 5.28956 96.7534 6.3262C96.7534 7.36284 97.6009 8.20321 98.6464 8.20321Z" fill="#392D2B"/>
<path d="M1.893 12.6524C2.93848 12.6524 3.786 11.812 3.786 10.7754C3.786 9.73876 2.93848 8.89839 1.893 8.89839C0.847525 8.89839 0 9.73876 0 10.7754C0 11.812 0.847525 12.6524 1.893 12.6524Z" fill="#392D2B"/>
<path d="M6.09967 12.6524C7.14515 12.6524 7.99267 11.812 7.99267 10.7754C7.99267 9.73876 7.14515 8.89839 6.09967 8.89839C5.05419 8.89839 4.20667 9.73876 4.20667 10.7754C4.20667 11.812 5.05419 12.6524 6.09967 12.6524Z" fill="#392D2B"/>
<path d="M10.3063 12.6524C11.3518 12.6524 12.1993 11.812 12.1993 10.7754C12.1993 9.73876 11.3518 8.89839 10.3063 8.89839C9.26086 8.89839 8.41334 9.73876 8.41334 10.7754C8.41334 11.812 9.26086 12.6524 10.3063 12.6524Z" fill="#392D2B"/>
<path d="M22.9263 12.6524C23.9718 12.6524 24.8193 11.812 24.8193 10.7754C24.8193 9.73876 23.9718 8.89839 22.9263 8.89839C21.8809 8.89839 21.0333 9.73876 21.0333 10.7754C21.0333 11.812 21.8809 12.6524 22.9263 12.6524Z" fill="#392D2B"/>
<path d="M27.133 12.6524C28.1785 12.6524 29.026 11.812 29.026 10.7754C29.026 9.73876 28.1785 8.89839 27.133 8.89839C26.0875 8.89839 25.24 9.73876 25.24 10.7754C25.24 11.812 26.0875 12.6524 27.133 12.6524Z" fill="#392D2B"/>
<path d="M31.3397 12.6524C32.3852 12.6524 33.2327 11.812 33.2327 10.7754C33.2327 9.73876 32.3852 8.89839 31.3397 8.89839C30.2942 8.89839 29.4467 9.73876 29.4467 10.7754C29.4467 11.812 30.2942 12.6524 31.3397 12.6524Z" fill="#392D2B"/>
<path d="M35.5464 12.6524C36.5918 12.6524 37.4394 11.812 37.4394 10.7754C37.4394 9.73876 36.5918 8.89839 35.5464 8.89839C34.5009 8.89839 33.6534 9.73876 33.6534 10.7754C33.6534 11.812 34.5009 12.6524 35.5464 12.6524Z" fill="#392D2B"/>
<path d="M39.753 12.6524C40.7985 12.6524 41.646 11.812 41.646 10.7754C41.646 9.73876 40.7985 8.89839 39.753 8.89839C38.7075 8.89839 37.86 9.73876 37.86 10.7754C37.86 11.812 38.7075 12.6524 39.753 12.6524Z" fill="#392D2B"/>
<path d="M43.9597 12.6524C45.0052 12.6524 45.8527 11.812 45.8527 10.7754C45.8527 9.73876 45.0052 8.89839 43.9597 8.89839C42.9142 8.89839 42.0667 9.73876 42.0667 10.7754C42.0667 11.812 42.9142 12.6524 43.9597 12.6524Z" fill="#392D2B"/>
<path d="M48.1664 12.6524C49.2118 12.6524 50.0594 11.812 50.0594 10.7754C50.0594 9.73876 49.2118 8.89839 48.1664 8.89839C47.1209 8.89839 46.2734 9.73876 46.2734 10.7754C46.2734 11.812 47.1209 12.6524 48.1664 12.6524Z" fill="#392D2B"/>
<path d="M52.373 12.6524C53.4185 12.6524 54.266 11.812 54.266 10.7754C54.266 9.73876 53.4185 8.89839 52.373 8.89839C51.3275 8.89839 50.48 9.73876 50.48 10.7754C50.48 11.812 51.3275 12.6524 52.373 12.6524Z" fill="#392D2B"/>
<path d="M56.5797 12.6524C57.6252 12.6524 58.4727 11.812 58.4727 10.7754C58.4727 9.73876 57.6252 8.89839 56.5797 8.89839C55.5342 8.89839 54.6867 9.73876 54.6867 10.7754C54.6867 11.812 55.5342 12.6524 56.5797 12.6524Z" fill="#392D2B"/>
<path d="M60.7864 12.6524C61.8318 12.6524 62.6794 11.812 62.6794 10.7754C62.6794 9.73876 61.8318 8.89839 60.7864 8.89839C59.7409 8.89839 58.8934 9.73876 58.8934 10.7754C58.8934 11.812 59.7409 12.6524 60.7864 12.6524Z" fill="#392D2B"/>
<path d="M64.993 12.6524C66.0385 12.6524 66.886 11.812 66.886 10.7754C66.886 9.73876 66.0385 8.89839 64.993 8.89839C63.9476 8.89839 63.1 9.73876 63.1 10.7754C63.1 11.812 63.9476 12.6524 64.993 12.6524Z" fill="#392D2B"/>
<path d="M69.1997 12.6524C70.2452 12.6524 71.0927 11.812 71.0927 10.7754C71.0927 9.73876 70.2452 8.89839 69.1997 8.89839C68.1542 8.89839 67.3067 9.73876 67.3067 10.7754C67.3067 11.812 68.1542 12.6524 69.1997 12.6524Z" fill="#392D2B"/>
<path d="M73.4064 12.6524C74.4518 12.6524 75.2994 11.812 75.2994 10.7754C75.2994 9.73876 74.4518 8.89839 73.4064 8.89839C72.3609 8.89839 71.5134 9.73876 71.5134 10.7754C71.5134 11.812 72.3609 12.6524 73.4064 12.6524Z" fill="#392D2B"/>
<path d="M77.613 12.6524C78.6585 12.6524 79.506 11.812 79.506 10.7754C79.506 9.73876 78.6585 8.89839 77.613 8.89839C76.5676 8.89839 75.72 9.73876 75.72 10.7754C75.72 11.812 76.5676 12.6524 77.613 12.6524Z" fill="#392D2B"/>
<path d="M81.8197 12.6524C82.8652 12.6524 83.7127 11.812 83.7127 10.7754C83.7127 9.73876 82.8652 8.89839 81.8197 8.89839C80.7742 8.89839 79.9267 9.73876 79.9267 10.7754C79.9267 11.812 80.7742 12.6524 81.8197 12.6524Z" fill="#392D2B"/>
<path d="M86.0264 12.6524C87.0719 12.6524 87.9194 11.812 87.9194 10.7754C87.9194 9.73876 87.0719 8.89839 86.0264 8.89839C84.9809 8.89839 84.1334 9.73876 84.1334 10.7754C84.1334 11.812 84.9809 12.6524 86.0264 12.6524Z" fill="#392D2B"/>
<path d="M90.233 12.6524C91.2785 12.6524 92.126 11.812 92.126 10.7754C92.126 9.73876 91.2785 8.89839 90.233 8.89839C89.1876 8.89839 88.34 9.73876 88.34 10.7754C88.34 11.812 89.1876 12.6524 90.233 12.6524Z" fill="#392D2B"/>
<path d="M94.4397 12.6524C95.4852 12.6524 96.3327 11.812 96.3327 10.7754C96.3327 9.73876 95.4852 8.89839 94.4397 8.89839C93.3942 8.89839 92.5467 9.73876 92.5467 10.7754C92.5467 11.812 93.3942 12.6524 94.4397 12.6524Z" fill="#392D2B"/>
<path d="M98.6464 12.6524C99.6919 12.6524 100.539 11.812 100.539 10.7754C100.539 9.73876 99.6919 8.89839 98.6464 8.89839C97.6009 8.89839 96.7534 9.73876 96.7534 10.7754C96.7534 11.812 97.6009 12.6524 98.6464 12.6524Z" fill="#392D2B"/>
<path d="M1.893 17.1016C2.93848 17.1016 3.786 16.2612 3.786 15.2246C3.786 14.188 2.93848 13.3476 1.893 13.3476C0.847525 13.3476 0 14.188 0 15.2246C0 16.2612 0.847525 17.1016 1.893 17.1016Z" fill="#392D2B"/>
<path d="M6.09967 17.1016C7.14515 17.1016 7.99267 16.2612 7.99267 15.2246C7.99267 14.188 7.14515 13.3476 6.09967 13.3476C5.05419 13.3476 4.20667 14.188 4.20667 15.2246C4.20667 16.2612 5.05419 17.1016 6.09967 17.1016Z" fill="#392D2B"/>
<path d="M10.3063 17.1016C11.3518 17.1016 12.1993 16.2612 12.1993 15.2246C12.1993 14.188 11.3518 13.3476 10.3063 13.3476C9.26086 13.3476 8.41334 14.188 8.41334 15.2246C8.41334 16.2612 9.26086 17.1016 10.3063 17.1016Z" fill="#392D2B"/>
<path d="M14.513 17.1016C15.5585 17.1016 16.406 16.2612 16.406 15.2246C16.406 14.188 15.5585 13.3476 14.513 13.3476C13.4675 13.3476 12.62 14.188 12.62 15.2246C12.62 16.2612 13.4675 17.1016 14.513 17.1016Z" fill="#392D2B"/>
<path d="M31.3397 17.1016C32.3852 17.1016 33.2327 16.2612 33.2327 15.2246C33.2327 14.188 32.3852 13.3476 31.3397 13.3476C30.2942 13.3476 29.4467 14.188 29.4467 15.2246C29.4467 16.2612 30.2942 17.1016 31.3397 17.1016Z" fill="#392D2B"/>
<path d="M35.5464 17.1016C36.5918 17.1016 37.4394 16.2612 37.4394 15.2246C37.4394 14.188 36.5918 13.3476 35.5464 13.3476C34.5009 13.3476 33.6534 14.188 33.6534 15.2246C33.6534 16.2612 34.5009 17.1016 35.5464 17.1016Z" fill="#392D2B"/>
<path d="M39.753 17.1016C40.7985 17.1016 41.646 16.2612 41.646 15.2246C41.646 14.188 40.7985 13.3476 39.753 13.3476C38.7075 13.3476 37.86 14.188 37.86 15.2246C37.86 16.2612 38.7075 17.1016 39.753 17.1016Z" fill="#392D2B"/>
<path d="M43.9597 17.1016C45.0052 17.1016 45.8527 16.2612 45.8527 15.2246C45.8527 14.188 45.0052 13.3476 43.9597 13.3476C42.9142 13.3476 42.0667 14.188 42.0667 15.2246C42.0667 16.2612 42.9142 17.1016 43.9597 17.1016Z" fill="#392D2B"/>
<path d="M48.1664 17.1016C49.2118 17.1016 50.0594 16.2612 50.0594 15.2246C50.0594 14.188 49.2118 13.3476 48.1664 13.3476C47.1209 13.3476 46.2734 14.188 46.2734 15.2246C46.2734 16.2612 47.1209 17.1016 48.1664 17.1016Z" fill="#392D2B"/>
<path d="M52.373 17.1016C53.4185 17.1016 54.266 16.2612 54.266 15.2246C54.266 14.188 53.4185 13.3476 52.373 13.3476C51.3275 13.3476 50.48 14.188 50.48 15.2246C50.48 16.2612 51.3275 17.1016 52.373 17.1016Z" fill="#392D2B"/>
<path d="M56.5797 17.1016C57.6252 17.1016 58.4727 16.2612 58.4727 15.2246C58.4727 14.188 57.6252 13.3476 56.5797 13.3476C55.5342 13.3476 54.6867 14.188 54.6867 15.2246C54.6867 16.2612 55.5342 17.1016 56.5797 17.1016Z" fill="#392D2B"/>
<path d="M64.993 17.1016C66.0385 17.1016 66.886 16.2612 66.886 15.2246C66.886 14.188 66.0385 13.3476 64.993 13.3476C63.9476 13.3476 63.1 14.188 63.1 15.2246C63.1 16.2612 63.9476 17.1016 64.993 17.1016Z" fill="#392D2B"/>
<path d="M69.1997 17.1016C70.2452 17.1016 71.0927 16.2612 71.0927 15.2246C71.0927 14.188 70.2452 13.3476 69.1997 13.3476C68.1542 13.3476 67.3067 14.188 67.3067 15.2246C67.3067 16.2612 68.1542 17.1016 69.1997 17.1016Z" fill="#392D2B"/>
<path d="M73.4064 17.1016C74.4518 17.1016 75.2994 16.2612 75.2994 15.2246C75.2994 14.188 74.4518 13.3476 73.4064 13.3476C72.3609 13.3476 71.5134 14.188 71.5134 15.2246C71.5134 16.2612 72.3609 17.1016 73.4064 17.1016Z" fill="#392D2B"/>
<path d="M77.613 17.1016C78.6585 17.1016 79.506 16.2612 79.506 15.2246C79.506 14.188 78.6585 13.3476 77.613 13.3476C76.5676 13.3476 75.72 14.188 75.72 15.2246C75.72 16.2612 76.5676 17.1016 77.613 17.1016Z" fill="#392D2B"/>
<path d="M81.8197 17.1016C82.8652 17.1016 83.7127 16.2612 83.7127 15.2246C83.7127 14.188 82.8652 13.3476 81.8197 13.3476C80.7742 13.3476 79.9267 14.188 79.9267 15.2246C79.9267 16.2612 80.7742 17.1016 81.8197 17.1016Z" fill="#392D2B"/>
<path d="M86.0264 17.1016C87.0719 17.1016 87.9194 16.2612 87.9194 15.2246C87.9194 14.188 87.0719 13.3476 86.0264 13.3476C84.9809 13.3476 84.1334 14.188 84.1334 15.2246C84.1334 16.2612 84.9809 17.1016 86.0264 17.1016Z" fill="#392D2B"/>
<path d="M90.233 17.1016C91.2785 17.1016 92.126 16.2612 92.126 15.2246C92.126 14.188 91.2785 13.3476 90.233 13.3476C89.1876 13.3476 88.34 14.188 88.34 15.2246C88.34 16.2612 89.1876 17.1016 90.233 17.1016Z" fill="#392D2B"/>
<path d="M94.4397 17.1016C95.4852 17.1016 96.3327 16.2612 96.3327 15.2246C96.3327 14.188 95.4852 13.3476 94.4397 13.3476C93.3942 13.3476 92.5467 14.188 92.5467 15.2246C92.5467 16.2612 93.3942 17.1016 94.4397 17.1016Z" fill="#392D2B"/>
<path d="M1.893 21.5508C2.93848 21.5508 3.786 20.7104 3.786 19.6738C3.786 18.6372 2.93848 17.7968 1.893 17.7968C0.847525 17.7968 0 18.6372 0 19.6738C0 20.7104 0.847525 21.5508 1.893 21.5508Z" fill="#392D2B"/>
<path d="M6.09967 21.5508C7.14515 21.5508 7.99267 20.7104 7.99267 19.6738C7.99267 18.6372 7.14515 17.7968 6.09967 17.7968C5.05419 17.7968 4.20667 18.6372 4.20667 19.6738C4.20667 20.7104 5.05419 21.5508 6.09967 21.5508Z" fill="#392D2B"/>
<path d="M10.3063 21.5508C11.3518 21.5508 12.1993 20.7104 12.1993 19.6738C12.1993 18.6372 11.3518 17.7968 10.3063 17.7968C9.26086 17.7968 8.41334 18.6372 8.41334 19.6738C8.41334 20.7104 9.26086 21.5508 10.3063 21.5508Z" fill="#392D2B"/>
<path d="M14.513 21.5508C15.5585 21.5508 16.406 20.7104 16.406 19.6738C16.406 18.6372 15.5585 17.7968 14.513 17.7968C13.4675 17.7968 12.62 18.6372 12.62 19.6738C12.62 20.7104 13.4675 21.5508 14.513 21.5508Z" fill="#392D2B"/>
<path d="M27.133 21.5508C28.1785 21.5508 29.026 20.7104 29.026 19.6738C29.026 18.6372 28.1785 17.7968 27.133 17.7968C26.0875 17.7968 25.24 18.6372 25.24 19.6738C25.24 20.7104 26.0875 21.5508 27.133 21.5508Z" fill="#392D2B"/>
<path d="M31.3397 21.5508C32.3852 21.5508 33.2327 20.7104 33.2327 19.6738C33.2327 18.6372 32.3852 17.7968 31.3397 17.7968C30.2942 17.7968 29.4467 18.6372 29.4467 19.6738C29.4467 20.7104 30.2942 21.5508 31.3397 21.5508Z" fill="#392D2B"/>
<path d="M35.5464 21.5508C36.5918 21.5508 37.4394 20.7104 37.4394 19.6738C37.4394 18.6372 36.5918 17.7968 35.5464 17.7968C34.5009 17.7968 33.6534 18.6372 33.6534 19.6738C33.6534 20.7104 34.5009 21.5508 35.5464 21.5508Z" fill="#392D2B"/>
<path d="M39.753 21.5508C40.7985 21.5508 41.646 20.7104 41.646 19.6738C41.646 18.6372 40.7985 17.7968 39.753 17.7968C38.7075 17.7968 37.86 18.6372 37.86 19.6738C37.86 20.7104 38.7075 21.5508 39.753 21.5508Z" fill="#392D2B"/>
<path d="M43.9597 21.5508C45.0052 21.5508 45.8527 20.7104 45.8527 19.6738C45.8527 18.6372 45.0052 17.7968 43.9597 17.7968C42.9142 17.7968 42.0667 18.6372 42.0667 19.6738C42.0667 20.7104 42.9142 21.5508 43.9597 21.5508Z" fill="#392D2B"/>
<path d="M48.1664 21.5508C49.2118 21.5508 50.0594 20.7104 50.0594 19.6738C50.0594 18.6372 49.2118 17.7968 48.1664 17.7968C47.1209 17.7968 46.2734 18.6372 46.2734 19.6738C46.2734 20.7104 47.1209 21.5508 48.1664 21.5508Z" fill="#392D2B"/>
<path d="M56.5797 21.5508C57.6252 21.5508 58.4727 20.7104 58.4727 19.6738C58.4727 18.6372 57.6252 17.7968 56.5797 17.7968C55.5342 17.7968 54.6867 18.6372 54.6867 19.6738C54.6867 20.7104 55.5342 21.5508 56.5797 21.5508Z" fill="#392D2B"/>
<path d="M60.7864 21.5508C61.8318 21.5508 62.6794 20.7104 62.6794 19.6738C62.6794 18.6372 61.8318 17.7968 60.7864 17.7968C59.7409 17.7968 58.8934 18.6372 58.8934 19.6738C58.8934 20.7104 59.7409 21.5508 60.7864 21.5508Z" fill="#392D2B"/>
<path d="M64.993 21.5508C66.0385 21.5508 66.886 20.7104 66.886 19.6738C66.886 18.6372 66.0385 17.7968 64.993 17.7968C63.9476 17.7968 63.1 18.6372 63.1 19.6738C63.1 20.7104 63.9476 21.5508 64.993 21.5508Z" fill="#392D2B"/>
<path d="M69.1997 21.5508C70.2452 21.5508 71.0927 20.7104 71.0927 19.6738C71.0927 18.6372 70.2452 17.7968 69.1997 17.7968C68.1542 17.7968 67.3067 18.6372 67.3067 19.6738C67.3067 20.7104 68.1542 21.5508 69.1997 21.5508Z" fill="#392D2B"/>
<path d="M73.4064 21.5508C74.4518 21.5508 75.2994 20.7104 75.2994 19.6738C75.2994 18.6372 74.4518 17.7968 73.4064 17.7968C72.3609 17.7968 71.5134 18.6372 71.5134 19.6738C71.5134 20.7104 72.3609 21.5508 73.4064 21.5508Z" fill="#392D2B"/>
<path d="M77.613 21.5508C78.6585 21.5508 79.506 20.7104 79.506 19.6738C79.506 18.6372 78.6585 17.7968 77.613 17.7968C76.5676 17.7968 75.72 18.6372 75.72 19.6738C75.72 20.7104 76.5676 21.5508 77.613 21.5508Z" fill="#392D2B"/>
<path d="M81.8197 21.5508C82.8652 21.5508 83.7127 20.7104 83.7127 19.6738C83.7127 18.6372 82.8652 17.7968 81.8197 17.7968C80.7742 17.7968 79.9267 18.6372 79.9267 19.6738C79.9267 20.7104 80.7742 21.5508 81.8197 21.5508Z" fill="#392D2B"/>
<path d="M86.0264 21.5508C87.0719 21.5508 87.9194 20.7104 87.9194 19.6738C87.9194 18.6372 87.0719 17.7968 86.0264 17.7968C84.9809 17.7968 84.1334 18.6372 84.1334 19.6738C84.1334 20.7104 84.9809 21.5508 86.0264 21.5508Z" fill="#392D2B"/>
<path d="M1.893 26C2.93848 26 3.786 25.1596 3.786 24.123C3.786 23.0864 2.93848 22.246 1.893 22.246C0.847525 22.246 0 23.0864 0 24.123C0 25.1596 0.847525 26 1.893 26Z" fill="#392D2B"/>
<path d="M18.7197 26C19.7652 26 20.6127 25.1596 20.6127 24.123C20.6127 23.0864 19.7652 22.246 18.7197 22.246C17.6742 22.246 16.8267 23.0864 16.8267 24.123C16.8267 25.1596 17.6742 26 18.7197 26Z" fill="#392D2B"/>
<path d="M22.9263 26C23.9718 26 24.8193 25.1596 24.8193 24.123C24.8193 23.0864 23.9718 22.246 22.9263 22.246C21.8809 22.246 21.0333 23.0864 21.0333 24.123C21.0333 25.1596 21.8809 26 22.9263 26Z" fill="#392D2B"/>
<path d="M27.133 26C28.1785 26 29.026 25.1596 29.026 24.123C29.026 23.0864 28.1785 22.246 27.133 22.246C26.0875 22.246 25.24 23.0864 25.24 24.123C25.24 25.1596 26.0875 26 27.133 26Z" fill="#392D2B"/>
<path d="M31.3397 26C32.3852 26 33.2327 25.1596 33.2327 24.123C33.2327 23.0864 32.3852 22.246 31.3397 22.246C30.2942 22.246 29.4467 23.0864 29.4467 24.123C29.4467 25.1596 30.2942 26 31.3397 26Z" fill="#392D2B"/>
<path d="M35.5464 26C36.5918 26 37.4394 25.1596 37.4394 24.123C37.4394 23.0864 36.5918 22.246 35.5464 22.246C34.5009 22.246 33.6534 23.0864 33.6534 24.123C33.6534 25.1596 34.5009 26 35.5464 26Z" fill="#392D2B"/>
<path d="M39.753 26C40.7985 26 41.646 25.1596 41.646 24.123C41.646 23.0864 40.7985 22.246 39.753 22.246C38.7075 22.246 37.86 23.0864 37.86 24.123C37.86 25.1596 38.7075 26 39.753 26Z" fill="#392D2B"/>
<path d="M43.9597 26C45.0052 26 45.8527 25.1596 45.8527 24.123C45.8527 23.0864 45.0052 22.246 43.9597 22.246C42.9142 22.246 42.0667 23.0864 42.0667 24.123C42.0667 25.1596 42.9142 26 43.9597 26Z" fill="#392D2B"/>
<path d="M48.1664 26C49.2118 26 50.0594 25.1596 50.0594 24.123C50.0594 23.0864 49.2118 22.246 48.1664 22.246C47.1209 22.246 46.2734 23.0864 46.2734 24.123C46.2734 25.1596 47.1209 26 48.1664 26Z" fill="#392D2B"/>
<path d="M60.7864 26C61.8318 26 62.6794 25.1596 62.6794 24.123C62.6794 23.0864 61.8318 22.246 60.7864 22.246C59.7409 22.246 58.8934 23.0864 58.8934 24.123C58.8934 25.1596 59.7409 26 60.7864 26Z" fill="#392D2B"/>
<path d="M64.993 26C66.0385 26 66.886 25.1596 66.886 24.123C66.886 23.0864 66.0385 22.246 64.993 22.246C63.9476 22.246 63.1 23.0864 63.1 24.123C63.1 25.1596 63.9476 26 64.993 26Z" fill="#392D2B"/>
<path d="M69.1997 26C70.2452 26 71.0927 25.1596 71.0927 24.123C71.0927 23.0864 70.2452 22.246 69.1997 22.246C68.1542 22.246 67.3067 23.0864 67.3067 24.123C67.3067 25.1596 68.1542 26 69.1997 26Z" fill="#392D2B"/>
<path d="M73.4064 26C74.4518 26 75.2994 25.1596 75.2994 24.123C75.2994 23.0864 74.4518 22.246 73.4064 22.246C72.3609 22.246 71.5134 23.0864 71.5134 24.123C71.5134 25.1596 72.3609 26 73.4064 26Z" fill="#392D2B"/>
<path d="M77.613 26C78.6585 26 79.506 25.1596 79.506 24.123C79.506 23.0864 78.6585 22.246 77.613 22.246C76.5676 22.246 75.72 23.0864 75.72 24.123C75.72 25.1596 76.5676 26 77.613 26Z" fill="#392D2B"/>
<path d="M81.8197 26C82.8652 26 83.7127 25.1596 83.7127 24.123C83.7127 23.0864 82.8652 22.246 81.8197 22.246C80.7742 22.246 79.9267 23.0864 79.9267 24.123C79.9267 25.1596 80.7742 26 81.8197 26Z" fill="#392D2B"/>
<path d="M86.0264 26C87.0719 26 87.9194 25.1596 87.9194 24.123C87.9194 23.0864 87.0719 22.246 86.0264 22.246C84.9809 22.246 84.1334 23.0864 84.1334 24.123C84.1334 25.1596 84.9809 26 86.0264 26Z" fill="#392D2B"/>
<path d="M90.233 26C91.2785 26 92.126 25.1596 92.126 24.123C92.126 23.0864 91.2785 22.246 90.233 22.246C89.1876 22.246 88.34 23.0864 88.34 24.123C88.34 25.1596 89.1876 26 90.233 26Z" fill="#392D2B"/>
<path d="M94.4397 26C95.4852 26 96.3327 25.1596 96.3327 24.123C96.3327 23.0864 95.4852 22.246 94.4397 22.246C93.3942 22.246 92.5467 23.0864 92.5467 24.123C92.5467 25.1596 93.3942 26 94.4397 26Z" fill="#392D2B"/>
<path d="M98.6464 26C99.6919 26 100.539 25.1596 100.539 24.123C100.539 23.0864 99.6919 22.246 98.6464 22.246C97.6009 22.246 96.7534 23.0864 96.7534 24.123C96.7534 25.1596 97.6009 26 98.6464 26Z" fill="#392D2B"/>
</svg>
