<svg width="136" height="210" viewBox="0 0 136 210" fill="none" xmlns="http://www.w3.org/2000/svg">
<path d="M130.03 92.8904L130.24 91.6304" stroke="#BCB7B8" stroke-width="0.5" stroke-linecap="round" stroke-linejoin="round"/>
<path d="M135.041 40.1201L65.9805 0.250076L61.2405 3.01009V50.5901" stroke="#BCB7B8" stroke-width="0.5" stroke-linecap="round" stroke-linejoin="round"/>
<path d="M129.28 95.4402L129.7 94.1502" stroke="#BCB7B8" stroke-width="0.5" stroke-linecap="round" stroke-linejoin="round"/>
<path d="M130.301 104.74V174.04L135.041 171.31" stroke="#BCB7B8" stroke-width="0.5" stroke-linecap="round" stroke-linejoin="round"/>
<path d="M130.3 90.4602V42.8802" stroke="#BCB7B8" stroke-width="0.5" stroke-linecap="round" stroke-linejoin="round"/>
<path d="M135.041 40.1203V171.31" stroke="#BCB7B8" stroke-width="0.5" stroke-linecap="round" stroke-linejoin="round"/>
<path d="M74.0801 131.71L72.8501 132.61" stroke="#BCB7B8" stroke-width="0.5" stroke-linecap="round" stroke-linejoin="round"/>
<path d="M129.7 94.1501L130.03 92.8901" stroke="#BCB7B8" stroke-width="0.5" stroke-linecap="round" stroke-linejoin="round"/>
<path d="M130.301 42.8801L135.041 40.1201" stroke="#BCB7B8" stroke-width="0.5" stroke-linecap="round" stroke-linejoin="round"/>
<path d="M128.05 97.9602L128.71 96.7302L129.28 95.4402" stroke="#BCB7B8" stroke-width="0.5" stroke-linecap="round" stroke-linejoin="round"/>
<path d="M123.67 103L124.63 102.22" stroke="#BCB7B8" stroke-width="0.5" stroke-linecap="round" stroke-linejoin="round"/>
<path d="M126.49 100.27L127.3 99.1603L128.05 97.9603" stroke="#BCB7B8" stroke-width="0.5" stroke-linecap="round" stroke-linejoin="round"/>
<path d="M124.63 102.22L125.59 101.29" stroke="#BCB7B8" stroke-width="0.5" stroke-linecap="round" stroke-linejoin="round"/>
<path d="M74.0804 131.71L122.68 103.66L123.67 103" stroke="#BCB7B8" stroke-width="0.5" stroke-linecap="round" stroke-linejoin="round"/>
<path d="M125.59 101.29L126.49 100.27" stroke="#BCB7B8" stroke-width="0.5" stroke-linecap="round" stroke-linejoin="round"/>
<path d="M0.250488 169.39L0.250488 100.09" stroke="#BCB7B8" stroke-width="0.5" stroke-linecap="round" stroke-linejoin="round"/>
<path d="M53.6202 63.7903L54.6102 63.1303L55.5702 62.3503L56.5302 61.4203L57.4302 60.4003L58.2402 59.2903L58.9902 58.0903L59.6502 56.8603L60.2202 55.5703L60.6402 54.2803L60.9702 53.0203L61.1502 51.7603L61.2402 50.5903" stroke="#BCB7B8" stroke-width="0.5" stroke-linecap="round" stroke-linejoin="round"/>
<path d="M53.6201 63.7903L5.02013 91.8403L3.79012 92.7403L2.65012 93.9403L1.66013 95.3803L0.910126 96.9703L0.430115 98.5603" stroke="#BCB7B8" stroke-width="0.5" stroke-linecap="round" stroke-linejoin="round"/>
<path d="M130.3 174.04L74.0803 141.61" stroke="#BCB7B8" stroke-width="0.5" stroke-linecap="round" stroke-linejoin="round"/>
<path d="M130.3 42.8801L61.2403 3.01013" stroke="#BCB7B8" stroke-width="0.5" stroke-linecap="round" stroke-linejoin="round"/>
<path d="M130.24 91.6301L130.3 90.4601" stroke="#BCB7B8" stroke-width="0.5" stroke-linecap="round" stroke-linejoin="round"/>
<path d="M72.8501 132.61L71.7101 133.81L70.7201 135.25L69.9701 136.84L69.4901 138.43L69.3401 139.96V209.26L74.0801 206.5V141.61V137.2" stroke="#BCB7B8" stroke-width="0.5" stroke-linecap="round" stroke-linejoin="round"/>
<path d="M69.3403 209.26L0.250336 169.39" stroke="#BCB7B8" stroke-width="0.5" stroke-linecap="round" stroke-linejoin="round"/>
<path d="M0.250183 100.09L0.430176 98.5601" stroke="#BCB7B8" stroke-width="0.5" stroke-linecap="round" stroke-linejoin="round"/>
<path d="M130.3 104.74L74.0803 137.2" stroke="#BCB7B8" stroke-width="0.5" stroke-linecap="round" stroke-linejoin="round"/>
</svg>
