<svg width="237" height="208" viewBox="0 0 237 208" fill="none" xmlns="http://www.w3.org/2000/svg">
<g filter="url(#filter0_f_14318_22553)">
<path d="M126.245 73.2721C135.42 73.2721 142.858 80.4423 142.858 89.2867C142.858 89.5842 142.849 89.8797 142.833 90.173C142.763 91.3862 143.981 92.4562 145.172 92.2126C146.288 91.9842 147.446 91.8639 148.632 91.8639C157.807 91.8639 165.246 99.0341 165.246 107.879C165.246 116.723 157.807 123.893 148.632 123.893C145.339 123.893 142.27 122.969 139.689 121.375C138.714 120.774 137.33 121.256 136.968 122.343C134.172 130.718 126.024 136.778 116.407 136.778C107.412 136.778 99.7035 131.477 96.4555 123.94C96.1054 123.128 95.1668 122.719 94.3285 123.001C92.6147 123.578 90.773 123.893 88.855 123.893C79.6799 123.893 72.2418 116.723 72.2417 107.879C72.2417 101.047 76.6795 95.2153 82.9275 92.9144C83.4214 92.7325 83.8014 92.3262 83.9531 91.8223C85.9603 85.1535 92.3442 80.2789 99.9097 80.2789C103.2 80.279 106.266 81.2012 108.847 82.7919C109.721 83.3312 110.927 82.9943 111.403 82.0837C114.138 76.857 119.757 73.2722 126.245 73.2721Z" fill="#AED0F0"/>
</g>
<path d="M126.245 73.2721C135.42 73.2721 142.858 80.4423 142.858 89.2867C142.858 89.5842 142.849 89.8797 142.833 90.173C142.763 91.3862 143.981 92.4562 145.172 92.2126C146.288 91.9842 147.446 91.8639 148.632 91.8639C157.807 91.8639 165.246 99.0341 165.246 107.879C165.246 116.723 157.807 123.893 148.632 123.893C145.339 123.893 142.27 122.969 139.689 121.375C138.714 120.774 137.33 121.256 136.968 122.343C134.172 130.718 126.024 136.778 116.407 136.778C107.412 136.778 99.7035 131.477 96.4555 123.94C96.1054 123.128 95.1668 122.719 94.3285 123.001C92.6147 123.578 90.773 123.893 88.855 123.893C79.6799 123.893 72.2418 116.723 72.2417 107.879C72.2417 101.047 76.6795 95.2153 82.9275 92.9144C83.4214 92.7325 83.8014 92.3262 83.9531 91.8223C85.9603 85.1535 92.3442 80.2789 99.9097 80.2789C103.2 80.279 106.266 81.2012 108.847 82.7919C109.721 83.3312 110.927 82.9943 111.403 82.0837C114.138 76.857 119.757 73.2722 126.245 73.2721Z" fill="#AED0F0"/>
<path d="M25.4289 31.2471C16.81 31.2471 12.0757 41.6868 12.0757 55.8898C12.0757 73.1275 18.6309 88.7872 30.406 88.7872C35.6224 88.7872 41.6862 85.5033 46.6184 80.7167C47.1654 80.1858 48.0601 80.2379 48.5174 80.8477C48.8594 81.3037 48.8459 81.9342 48.4793 82.3707C43.3054 88.5324 36.1514 95.7066 25.1861 95.7066C11.4687 95.7066 0.179199 84.5385 0.179199 63.2947C0.179199 43.1436 9.64783 27.7267 30.0418 27.7267C41.4527 27.7267 46.6726 32.3396 46.6726 36.8311C46.6726 40.1087 44.3661 43.6291 40.2388 43.6291C32.3483 43.6291 34.7761 31.2471 25.4289 31.2471Z" fill="#262521"/>
<path d="M203.455 183.445C189.286 183.445 176.808 172.52 176.808 151.033C176.808 130.882 187.467 115.465 205.015 115.465C214.907 115.465 226.21 120.628 227.289 137.744C227.386 139.284 226.201 140.585 224.665 140.733L192.275 143.851C190.731 144 189.547 145.306 189.627 146.855C190.447 162.83 197.366 176.526 209.175 176.526C215.029 176.526 221.341 173.213 226.608 168.392C227.166 167.881 228.043 167.932 228.517 168.522C228.907 169.008 228.893 169.704 228.474 170.166C222.898 176.315 214.787 183.445 203.455 183.445ZM203.325 118.986C196.174 118.986 191.772 125.503 190.214 135.153C189.933 136.892 191.326 138.408 193.087 138.408H211.892C213.599 138.408 214.971 136.982 214.805 135.284C213.371 120.691 206.979 118.986 203.325 118.986Z" fill="#262521"/>
<path d="M146.644 203.821C147.263 203.884 147.741 204.405 147.741 205.027C147.741 205.695 147.199 206.237 146.531 206.237H118.467C117.807 206.237 117.271 205.702 117.271 205.041C117.271 204.415 117.76 203.895 118.384 203.846C127.132 203.164 127.468 202.46 127.468 190.213V159.015C127.468 148.918 124.962 147.455 120.208 147.297C119.571 147.275 119.053 146.763 119.053 146.126C119.053 145.49 119.57 144.977 120.206 144.943C126.036 144.637 131.216 141.988 137.169 136.904C137.464 136.651 137.891 136.617 138.221 136.823C138.479 136.984 138.637 137.268 138.637 137.573V144.14C138.637 146.59 141.417 147.995 143.411 146.572C150.437 141.561 154.239 139.471 159.88 139.471C169.835 139.471 174.083 146.148 174.083 159.986V190.213C174.083 202.464 174.532 203.052 183.298 203.834C183.919 203.889 184.402 204.41 184.402 205.034C184.402 205.698 183.863 206.237 183.199 206.237H155.134C154.47 206.237 153.932 205.699 153.932 205.035C153.932 204.411 154.416 203.891 155.038 203.835C162.583 203.156 162.915 202.39 162.915 190.213V165.692C162.915 149.911 157.331 146.269 152.111 146.269C145.799 146.269 138.637 152.824 138.637 164.114V190.213C138.637 202.396 139.08 203.045 146.644 203.821Z" fill="#262521"/>
<path d="M95.783 207.451C113.021 207.451 122.489 195.19 122.489 175.16C122.489 153.674 111.2 139.471 94.2049 139.471C76.603 139.471 67.4985 151.732 67.4985 171.64C67.4985 193.248 78.5453 207.451 95.783 207.451ZM96.2686 142.627C104.038 142.627 110.107 150.518 110.107 169.212C110.107 187.178 105.252 204.295 93.3552 204.295C85.2219 204.295 80.2448 196.404 80.2448 177.952C80.2448 159.501 84.8577 142.627 96.2686 142.627Z" fill="#262521"/>
<path d="M70.109 201.334C70.8382 200.934 71.7619 201.135 72.1956 201.845C72.5228 202.38 72.4807 203.066 72.0849 203.553C70.2096 205.86 68.5553 207.451 62.7797 207.451C55.132 207.451 49.5479 202.716 49.5479 194.219V148.657L49.5481 147.443V144.894C49.5481 141.515 49.5481 138.954 49.5333 131.663C49.5319 130.991 50.0761 130.442 50.7478 130.442C51.3677 130.442 51.8941 130.905 52.0255 131.511C52.618 134.24 54.9015 141.376 62.7797 143.144C65.2625 143.701 67.9838 144.316 69.4509 144.648C70.0846 144.792 70.5339 145.355 70.5339 146.005C70.5339 146.694 70.0288 147.28 69.3468 147.381L63.2717 148.282C61.8033 148.5 60.7161 149.761 60.7161 151.245V192.519C60.7161 199.439 63.0225 202.109 67.3927 202.109C68.3708 202.109 69.1173 201.879 70.109 201.334Z" fill="#262521"/>
<path d="M22.4122 183.514C16.5882 183.186 12.2107 180.117 9.07466 179.94C7.54952 179.854 6.36776 180.238 5.57859 181.507C5.15346 182.19 4.46009 182.72 3.65646 182.675C2.73954 182.623 2.0151 181.878 1.98978 180.959L1.43301 160.769C1.40284 159.675 2.27299 158.768 3.3671 158.753C4.23339 158.74 5.00556 159.3 5.26596 160.126C8.60121 170.71 11.2403 178.767 21.5445 180.304C28.2645 180.683 35.0128 177.902 35.4362 170.387C36.3651 153.904 1.78118 151.859 2.86716 131.59C3.37942 122.5 11.3037 114.8 27.2824 115.701C32.6584 116.004 35.2713 117.489 38.258 117.657C39.7824 117.743 40.806 117.097 41.726 115.217C42.0416 114.572 42.6891 114.137 43.406 114.178C44.2502 114.225 44.9224 114.903 44.9638 115.747L45.8456 133.755C45.895 134.764 45.1015 135.615 44.0913 135.636C43.3133 135.653 42.615 135.162 42.3483 134.431C38.8267 124.778 34.5466 119.272 26.8062 118.835C20.6835 118.49 14.9669 121.573 14.6391 127.39C13.8331 141.692 48.1789 144.305 47.0588 166.179C46.3894 178.057 33.0149 184.112 22.4122 183.514Z" fill="#262521"/>
<path d="M236.814 93.2831C236.814 93.9513 236.272 94.493 235.604 94.493H219.255C217.756 94.493 216.542 93.2782 216.542 91.7797C216.542 89.1298 212.953 87.9336 211.04 89.7676C207.092 93.5533 202.762 95.7069 197.604 95.7069C185.222 95.7069 176.647 83.3635 176.647 67.206C176.647 47.3304 188.864 35.0585 203.431 35.0585C206.34 35.0585 209.21 35.5723 211.702 36.3518C213.924 37.0469 216.542 35.4954 216.542 33.1672V31.9267C216.542 24.6077 214.035 23.3464 209.281 23.2021C208.644 23.1828 208.126 22.6701 208.126 22.0332C208.126 21.3963 208.643 20.8833 209.279 20.8499C215.109 20.5439 220.289 17.8952 226.242 12.8109C226.538 12.5582 226.964 12.5234 227.294 12.7296C227.553 12.8912 227.71 13.1747 227.71 13.4796V78.4692C227.71 90.6516 228.153 91.3014 235.718 92.0769C236.337 92.1404 236.814 92.6608 236.814 93.2831ZM201.246 90.1229C207.618 90.1229 213.752 84.5261 216.464 73.0967C216.516 72.8776 216.542 72.65 216.542 72.4249V55.5738C216.542 43.1918 209.015 38.943 202.824 38.943C193.477 38.943 188.665 47.3304 188.665 65.7493C188.665 80.45 192.991 90.1229 201.246 90.1229Z" fill="#262521"/>
<path d="M95.783 0.367554C113.021 0.367554 122.489 12.6282 122.489 32.658C122.489 54.1445 111.2 68.3475 94.2049 68.3475C76.603 68.3475 67.4985 56.0868 67.4985 36.1784C67.4985 14.5705 78.5453 0.367554 95.783 0.367554ZM96.2686 65.1913C104.038 65.1913 110.107 57.3007 110.107 38.6062C110.107 20.6401 105.252 3.52376 93.3552 3.52376C85.2219 3.52376 80.2448 11.4143 80.2448 29.866C80.2448 48.3177 84.8577 65.1913 96.2686 65.1913Z" fill="#262521"/>
<path d="M70.9784 64.7188C71.5975 64.7815 72.0743 65.302 72.0743 65.9243C72.0743 66.5925 71.5326 67.1342 70.8644 67.1342H41.7081C41.0476 67.1342 40.5122 66.5988 40.5122 65.9383C40.5122 65.3121 41.0003 64.7923 41.6246 64.7436C50.373 64.0612 50.7092 63.3574 50.7092 51.1104V19.5442C50.7092 12.2252 48.2025 10.964 43.4483 10.8197C42.8116 10.8004 42.2935 10.2876 42.2935 9.65072C42.2935 9.01381 42.8104 8.50086 43.4464 8.46747C49.277 8.1614 54.4565 5.51272 60.4093 0.42849C60.7051 0.175775 61.1316 0.140908 61.4616 0.34714C61.7202 0.508773 61.8773 0.792229 61.8773 1.0972V51.1104C61.8773 63.2965 63.3198 63.943 70.9784 64.7188Z" fill="#262521"/>
<path d="M173.698 0.422784C173.957 0.584349 174.114 0.867835 174.114 1.17285V50.8181C174.114 51.1049 174.116 51.3854 174.117 51.6595V65.0602C174.117 66.7145 172.776 68.0555 171.122 68.0555H165.941C164.287 68.0555 162.946 66.7145 162.946 65.0602V63.3863C162.946 60.9364 160.166 59.5316 158.171 60.9543C151.145 65.9657 147.343 68.0555 141.702 68.0555C131.748 68.0555 127.499 61.3787 127.499 52.3957V19.6194C127.499 12.1847 126.737 10.6979 122.882 10.551C122.429 10.5338 122.017 10.2736 121.83 9.86171C121.483 9.09803 122.043 8.22677 122.878 8.14006C127.466 7.66317 131.622 5.29128 137.199 0.505131C137.495 0.251864 137.921 0.216777 138.251 0.422784C138.51 0.584349 138.667 0.867835 138.667 1.17285V46.6908C138.667 57.6157 144.251 61.2576 149.471 61.2577C155.784 61.2577 162.946 54.7022 162.946 49.4823V19.6194C162.946 12.3007 160.439 11.0393 155.685 10.895C155.049 10.8757 154.531 10.3631 154.531 9.72632C154.531 9.08956 155.047 8.57673 155.683 8.54335C161.514 8.23728 166.693 5.58851 172.646 0.504286C172.942 0.251701 173.368 0.216777 173.698 0.422784Z" fill="#262521"/>
<path fill-rule="evenodd" clip-rule="evenodd" d="M143.914 97.7035C145.906 97.7035 147.565 98.3673 148.845 99.695L148.988 99.8373C150.221 101.165 150.79 102.967 150.79 105.148C150.79 107.329 150.505 108.42 149.936 109.51C149.367 110.601 148.513 111.454 147.423 112.023C146.332 112.64 145.147 112.924 143.914 112.924C141.875 112.924 140.216 112.261 138.935 110.933C137.655 109.605 137.039 107.708 137.039 105.29C137.039 102.872 137.75 100.643 139.315 99.3157C140.595 98.2251 142.112 97.7035 143.914 97.7035ZM143.914 100.549C142.871 100.549 142.065 100.928 141.354 101.687C140.69 102.445 140.31 103.631 140.31 105.29C140.31 106.95 140.69 108.183 141.354 108.941C142.017 109.7 142.871 110.079 143.914 110.079C144.91 110.079 145.763 109.7 146.427 108.941C147.091 108.183 147.47 106.997 147.47 105.243C147.47 103.488 147.091 102.445 146.427 101.734C145.763 100.975 144.91 100.596 143.914 100.596V100.549Z" fill="#F0EEE9"/>
<path fill-rule="evenodd" clip-rule="evenodd" d="M92.2291 97.5612C93.3671 97.5612 94.3629 97.7034 95.2164 98.0353H95.3586C96.1647 98.4147 96.7811 98.8888 97.2079 99.4578C97.6346 100.074 97.9191 100.833 98.1088 101.781L98.2037 102.255L94.9793 102.682V102.208C94.837 101.592 94.5525 101.165 94.1732 100.833C93.7939 100.548 93.2249 100.359 92.3714 100.359C91.3282 100.359 90.7118 100.548 90.3798 100.786C90.0005 101.07 89.8583 101.355 89.8583 101.639C89.8583 101.829 89.8583 101.971 90.0005 102.113C90.0005 102.161 90.0005 102.161 90.0005 102.161C90.1428 102.303 90.3324 102.493 90.6643 102.635C90.854 102.73 91.5178 102.919 92.6559 103.204C94.3155 103.631 95.4535 104.01 96.1647 104.294C96.876 104.579 97.4924 105.053 97.8717 105.669C98.2985 106.286 98.4882 107.045 98.4882 107.898C98.4882 108.752 98.2511 109.605 97.7295 110.364C97.2079 111.122 96.4966 111.691 95.5957 112.118C94.6948 112.498 93.6516 112.735 92.5136 112.735C90.6643 112.735 89.1944 112.355 88.1512 111.549C87.1081 110.743 86.4916 109.51 86.2071 107.993L86.1123 107.519L89.3367 106.997V107.471C89.5263 108.277 89.8108 108.894 90.285 109.273C90.7592 109.653 91.4704 109.89 92.4662 109.89C93.4619 109.89 94.1258 109.7 94.5525 109.368C94.9793 108.989 95.169 108.609 95.169 108.183C95.169 107.803 95.0267 107.566 94.6948 107.329C94.6 107.282 94.3629 107.139 93.9835 107.045C93.6042 106.902 93.0826 106.76 92.4662 106.618C90.7592 106.191 89.5263 105.812 88.8151 105.48C88.1038 105.148 87.5348 104.626 87.1081 104.01C86.7287 103.393 86.5391 102.682 86.5391 101.924C86.5391 101.26 86.6813 100.596 87.0132 100.027C87.3451 99.4578 87.7719 98.9363 88.2935 98.5569L88.4357 98.4621C88.8151 98.225 89.3367 97.9879 89.9057 97.8457C90.5695 97.656 91.2808 97.5612 92.0394 97.5612H92.2291Z" fill="#F0EEE9"/>
<path fill-rule="evenodd" clip-rule="evenodd" d="M109.631 105.954C109.631 107.187 109.679 107.946 109.773 108.278C109.916 108.799 110.153 109.178 110.532 109.463H110.627C111.006 109.747 111.433 109.89 112.049 109.89C112.666 109.89 113.235 109.747 113.756 109.416C114.278 109.084 114.657 108.704 114.847 108.183C115.084 107.661 115.179 106.808 115.179 105.67V97.8932H118.451V112.498H115.463V111.312C114.42 112.308 113.14 112.83 111.575 112.83C110.722 112.83 109.868 112.64 109.11 112.308C108.351 111.976 107.782 111.549 107.355 110.98C106.976 110.459 106.739 109.795 106.549 109.084C106.454 108.562 106.407 107.803 106.407 106.808V97.8932H109.679V105.954H109.631Z" fill="#F0EEE9"/>
<path fill-rule="evenodd" clip-rule="evenodd" d="M131.775 112.498H128.693V111.597C127.792 112.403 126.701 112.83 125.326 112.83C124.141 112.83 123.05 112.498 122.054 111.834C121.059 111.17 120.3 110.269 119.778 109.131C119.257 107.993 118.972 106.665 118.972 105.195C118.972 103.773 119.209 102.493 119.683 101.307C120.158 100.122 120.916 99.1734 121.912 98.5096C122.908 97.8458 123.998 97.5613 125.231 97.5613C126.132 97.5613 126.938 97.7509 127.649 98.1303L127.792 98.2251C128.076 98.3674 128.313 98.557 128.55 98.7467V94.6688H131.775V112.498ZM125.468 100.406C124.567 100.406 123.856 100.738 123.24 101.497C122.671 102.208 122.339 103.394 122.339 105.195C122.339 106.902 122.718 108.088 123.335 108.847C123.998 109.605 124.757 109.985 125.611 109.985C126.464 109.985 127.223 109.653 127.839 108.894C128.456 108.183 128.787 107.045 128.787 105.385C128.787 103.536 128.408 102.303 127.792 101.544C127.128 100.786 126.369 100.406 125.468 100.406Z" fill="#F0EEE9"/>
<path fill-rule="evenodd" clip-rule="evenodd" d="M103.23 97.8932H105.554V100.643H103.23V108.183C103.23 108.515 103.23 108.752 103.23 108.941C103.23 109.131 103.23 109.226 103.278 109.273C103.278 109.368 103.373 109.463 103.467 109.51C103.562 109.558 103.704 109.605 104.036 109.605C104.368 109.605 104.558 109.605 104.985 109.51H105.459C105.459 109.463 105.886 112.403 105.886 112.403L105.459 112.498C104.795 112.64 104.226 112.687 103.657 112.687C102.756 112.687 102.045 112.545 101.476 112.213C100.954 111.881 100.527 111.502 100.29 110.933C100.148 110.648 100.101 110.269 100.053 109.795C100.006 109.321 99.9585 108.704 99.9585 107.993V100.596H98.2515V97.8458H99.9585V94.6688H103.183V97.8458L103.23 97.8932Z" fill="#F0EEE9"/>
<path fill-rule="evenodd" clip-rule="evenodd" d="M136.327 112.545H133.055V97.8932H136.327V112.498V112.545Z" fill="#F0EEE9"/>
<defs>
<filter id="filter0_f_14318_22553" x="64.6537" y="65.6841" width="108.18" height="78.6819" filterUnits="userSpaceOnUse" color-interpolation-filters="sRGB">
<feFlood flood-opacity="0" result="BackgroundImageFix"/>
<feBlend mode="normal" in="SourceGraphic" in2="BackgroundImageFix" result="shape"/>
<feGaussianBlur stdDeviation="3.794" result="effect1_foregroundBlur_14318_22553"/>
</filter>
</defs>
</svg>
