<svg width="1361" height="1192" viewBox="0 0 1361 1192" fill="none" xmlns="http://www.w3.org/2000/svg">
<g filter="url(#filter0_f_529_998)">
<path d="M725.104 420.852C777.802 420.852 820.524 462.033 820.524 512.832C820.524 514.54 820.475 516.237 820.379 517.921C819.98 524.889 826.977 531.034 833.815 529.637C840.226 528.327 846.875 527.638 853.69 527.638C906.388 527.638 949.111 568.819 949.111 619.618C949.11 670.417 906.388 711.598 853.69 711.599C834.774 711.599 817.147 706.288 802.317 697.134C796.72 693.678 788.772 696.451 786.689 702.691C770.633 750.796 723.837 785.605 668.597 785.605C616.937 785.605 572.657 755.161 554.002 711.871C551.991 707.205 546.6 704.857 541.785 706.478C531.942 709.792 521.366 711.598 510.35 711.599C457.652 711.599 414.93 670.417 414.93 619.618C414.93 580.381 440.418 546.886 476.304 533.67C479.14 532.626 481.323 530.292 482.194 527.397C493.723 489.094 530.393 461.094 573.846 461.094C592.744 461.094 610.356 466.394 625.176 475.531C630.201 478.63 637.125 476.695 639.861 471.464C655.57 441.443 687.841 420.852 725.104 420.852Z" fill="#AED0F0"/>
</g>
<path d="M725.104 420.852C777.802 420.852 820.524 462.033 820.524 512.832C820.524 514.54 820.475 516.237 820.379 517.921C819.98 524.889 826.977 531.034 833.815 529.637C840.226 528.327 846.875 527.638 853.69 527.638C906.388 527.638 949.111 568.819 949.111 619.618C949.11 670.417 906.388 711.598 853.69 711.599C834.774 711.599 817.147 706.288 802.317 697.134C796.72 693.678 788.772 696.451 786.689 702.691C770.633 750.796 723.837 785.605 668.597 785.605C616.937 785.605 572.657 755.161 554.002 711.871C551.991 707.205 546.6 704.857 541.785 706.478C531.942 709.792 521.366 711.598 510.35 711.599C457.652 711.599 414.93 670.417 414.93 619.618C414.93 580.381 440.418 546.886 476.304 533.67C479.14 532.626 481.323 530.292 482.194 527.397C493.723 489.094 530.393 461.094 573.846 461.094C592.744 461.094 610.356 466.394 625.176 475.531C630.201 478.63 637.125 476.695 639.861 471.464C655.57 441.443 687.841 420.852 725.104 420.852Z" fill="#AED0F0"/>
<path d="M146.048 179.468C96.5445 179.468 69.3524 239.43 69.3524 321.006C69.3524 420.014 107.003 509.957 174.635 509.957C204.596 509.957 239.424 491.095 267.753 463.603C270.894 460.554 276.033 460.852 278.66 464.355V464.355C280.624 466.974 280.546 470.596 278.441 473.103C248.724 508.493 207.634 549.699 144.654 549.699C65.8662 549.699 1.02344 485.553 1.02344 363.538C1.02344 247.797 55.4077 159.248 172.543 159.248C238.083 159.248 268.064 185.743 268.064 211.541C268.064 230.366 254.817 250.586 231.111 250.586C185.79 250.586 199.735 179.468 146.048 179.468Z" fill="#F9F9F9"/>
<path d="M1168.57 1053.64C1087.19 1053.64 1015.52 990.887 1015.52 867.477C1015.52 751.736 1076.74 663.188 1177.53 663.188C1234.35 663.188 1299.27 692.839 1305.47 791.148C1306.02 799.993 1299.22 807.466 1290.39 808.315L1104.36 826.226C1095.49 827.08 1088.69 834.58 1089.15 843.481C1093.86 935.233 1133.6 1013.9 1201.42 1013.9C1235.05 1013.9 1271.3 994.867 1301.55 967.177C1304.76 964.244 1309.8 964.538 1312.52 967.925V967.925C1314.76 970.718 1314.68 974.717 1312.27 977.37C1280.25 1012.69 1233.66 1053.64 1168.57 1053.64ZM1167.83 683.407C1126.75 683.407 1101.47 720.839 1092.52 776.264C1090.91 786.253 1098.9 794.965 1109.02 794.965H1217.03C1226.83 794.965 1234.72 786.773 1233.76 777.018C1225.53 693.201 1188.81 683.407 1167.83 683.407Z" fill="#F9F9F9"/>
<path d="M842.278 1170.67C845.833 1171.03 848.576 1174.02 848.576 1177.6V1177.6C848.576 1181.43 845.465 1184.55 841.627 1184.55H680.439C676.646 1184.55 673.57 1181.47 673.57 1177.68V1177.68C673.57 1174.08 676.374 1171.09 679.96 1170.81C730.207 1166.9 732.138 1162.85 732.138 1092.51V913.322C732.138 855.326 717.741 846.926 690.434 846.014C686.778 845.892 683.802 842.952 683.802 839.293V839.293C683.802 835.635 686.77 832.689 690.423 832.497C723.912 830.739 753.661 815.526 787.851 786.324C789.551 784.873 792.001 784.673 793.896 785.857V785.857C795.381 786.785 796.283 788.414 796.283 790.165V827.884C796.283 841.955 812.252 850.023 823.708 841.852C864.063 813.069 885.901 801.067 918.299 801.067C975.473 801.067 999.876 839.415 999.876 918.899V1092.51C999.876 1162.88 1002.45 1166.25 1052.8 1170.74C1056.37 1171.06 1059.14 1174.05 1059.14 1177.64V1177.64C1059.14 1181.45 1056.05 1184.55 1052.23 1184.55H891.038C887.226 1184.55 884.135 1181.45 884.135 1177.64V1177.64C884.135 1174.06 886.915 1171.07 890.488 1170.75C933.821 1166.85 935.73 1162.45 935.73 1092.51V951.669C935.73 861.029 903.658 840.112 873.676 840.112C837.42 840.112 796.283 877.763 796.283 942.605V1092.51C796.283 1162.48 798.831 1166.21 842.278 1170.67Z" fill="#F9F9F9"/>
<path d="M550.147 1191.52C649.154 1191.52 703.538 1121.1 703.538 1006.06C703.538 882.647 638.696 801.071 541.083 801.071C439.984 801.071 387.691 871.491 387.691 985.838C387.691 1109.95 451.14 1191.52 550.147 1191.52ZM552.936 819.199C597.559 819.199 632.421 864.519 632.421 971.893C632.421 1075.08 604.531 1173.39 536.202 1173.39C489.488 1173.39 460.901 1128.07 460.901 1022.09C460.901 916.114 487.396 819.199 552.936 819.199Z" fill="#F9F9F9"/>
<path d="M402.678 1156.39C406.866 1154.09 412.172 1155.25 414.663 1159.32V1159.32C416.542 1162.4 416.3 1166.34 414.027 1169.13C403.256 1182.38 393.754 1191.52 360.582 1191.52C316.656 1191.52 284.583 1164.33 284.583 1115.52V853.831L284.584 846.859V832.217C284.584 812.813 284.584 798.101 284.499 756.224C284.491 752.366 287.616 749.213 291.475 749.213V749.213C295.035 749.213 298.058 751.87 298.813 755.35C302.216 771.024 315.332 812.014 360.582 822.165C374.841 825.364 390.472 828.899 398.898 830.807C402.538 831.631 405.118 834.866 405.118 838.598V838.598C405.118 842.558 402.218 845.921 398.3 846.502L363.407 851.68C354.973 852.931 348.729 860.171 348.729 868.697V1105.76C348.729 1145.5 361.976 1160.84 387.076 1160.84C392.695 1160.84 396.982 1159.52 402.678 1156.39Z" fill="#F9F9F9"/>
<path d="M128.721 1054.04C95.2699 1052.16 70.1268 1034.53 52.1148 1033.51C43.355 1033.02 36.5674 1035.22 32.0347 1042.51C29.5929 1046.44 25.6104 1049.48 20.9947 1049.22V1049.22C15.7282 1048.92 11.5673 1044.64 11.4219 1039.37L8.22401 923.402C8.05076 917.12 13.0485 911.909 19.3327 911.82V911.82C24.3084 911.749 28.7434 914.96 30.239 919.707C49.3954 980.495 64.5531 1026.77 123.737 1035.6C162.334 1037.78 201.093 1021.81 203.526 978.645C208.861 883.972 10.2238 872.227 16.4613 755.808C19.4035 703.598 64.9176 659.375 156.693 664.546C187.571 666.286 202.578 674.814 219.733 675.781C228.488 676.274 234.368 672.563 239.652 661.766C241.464 658.062 245.184 655.566 249.301 655.798V655.798C254.15 656.072 258.011 659.961 258.248 664.812L263.313 768.243C263.597 774.04 259.039 778.927 253.237 779.048V779.048C248.769 779.141 244.758 776.325 243.226 772.126C222.999 716.681 198.416 685.054 153.958 682.549C118.791 680.567 85.9576 698.271 84.0746 731.685C79.4455 813.828 276.715 828.839 270.281 954.474C266.437 1022.69 189.619 1057.47 128.721 1054.04Z" fill="#F9F9F9"/>
<path d="M1360.18 535.784C1360.18 539.622 1357.07 542.733 1353.23 542.733H1259.32C1250.72 542.733 1243.74 535.756 1243.74 527.149V527.149C1243.74 511.929 1223.13 505.059 1212.14 515.592C1189.46 537.336 1164.6 549.706 1134.97 549.706C1063.85 549.706 1014.6 478.809 1014.6 386.007C1014.6 271.849 1084.77 201.364 1168.44 201.364C1185.15 201.364 1201.63 204.315 1215.94 208.792C1228.7 212.785 1243.74 203.873 1243.74 190.501V183.376C1243.74 141.338 1229.34 134.094 1202.03 133.265C1198.38 133.154 1195.4 130.209 1195.4 126.551V126.551C1195.4 122.893 1198.37 119.947 1202.02 119.755C1235.51 117.997 1265.26 102.784 1299.45 73.5822C1301.15 72.1307 1303.6 71.9304 1305.5 73.1149V73.1149C1306.98 74.0433 1307.88 75.6714 1307.88 77.423V450.698C1307.88 520.67 1310.43 524.402 1353.88 528.856C1357.43 529.221 1360.18 532.21 1360.18 535.784V535.784ZM1155.89 517.633C1192.49 517.633 1227.72 485.487 1243.29 419.841C1243.59 418.583 1243.74 417.276 1243.74 415.982V319.196C1243.74 248.078 1200.51 223.675 1164.95 223.675C1111.26 223.675 1083.63 271.849 1083.63 377.64C1083.63 462.076 1108.47 517.633 1155.89 517.633Z" fill="#F9F9F9"/>
<path d="M550.147 2.11133C649.154 2.11133 703.538 72.5319 703.538 187.576C703.538 310.986 638.696 392.562 541.083 392.562C439.984 392.562 387.691 322.142 387.691 207.795C387.691 83.6877 451.14 2.11133 550.147 2.11133ZM552.936 374.434C597.559 374.434 632.421 329.114 632.421 221.74C632.421 118.549 604.531 20.2394 536.202 20.2394C489.488 20.2394 460.901 65.5596 460.901 171.539C460.901 277.519 487.396 374.434 552.936 374.434Z" fill="#F9F9F9"/>
<path d="M407.674 371.721C411.23 372.081 413.968 375.07 413.968 378.644V378.644C413.968 382.482 410.857 385.594 407.019 385.594H239.556C235.763 385.594 232.688 382.518 232.688 378.725V378.725C232.688 375.128 235.491 372.143 239.077 371.863C289.324 367.943 291.255 363.901 291.255 293.559V112.255C291.255 70.217 276.858 62.973 249.551 62.1441C245.895 62.0331 242.919 59.0883 242.919 55.4301V55.4301C242.919 51.7719 245.887 48.8257 249.541 48.634C283.029 46.876 312.778 31.663 346.969 2.46109C348.668 1.00958 351.118 0.809321 353.013 1.99384V1.99384C354.498 2.9222 355.401 4.55026 355.401 6.30188V293.559C355.401 363.551 363.686 367.264 407.674 371.721Z" fill="#F9F9F9"/>
<path d="M997.661 2.42706C999.147 3.35503 1000.05 4.98326 1000.05 6.73517V291.879C1000.05 293.526 1000.06 295.137 1000.07 296.712V373.68C1000.07 383.182 992.364 390.884 982.862 390.884H953.109C943.608 390.884 935.905 383.182 935.905 373.68V364.066C935.905 349.994 919.937 341.926 908.481 350.097C868.125 378.881 846.288 390.884 813.889 390.884C756.716 390.884 732.312 352.535 732.312 300.94V112.685C732.311 69.9829 727.936 61.4433 705.79 60.5997C703.193 60.5008 700.826 59.0063 699.751 56.6407V56.6407C697.758 52.2544 700.975 47.2502 705.767 46.7522C732.121 44.0131 755.991 30.3899 788.027 2.90003C789.722 1.44536 792.172 1.24383 794.067 2.42706V2.42706C795.553 3.35503 796.456 4.98326 796.456 6.73517V268.173C796.457 330.922 828.531 351.839 858.511 351.84C894.767 351.84 935.905 314.188 935.905 284.207V112.685C935.905 70.6493 921.507 63.4045 894.201 62.5756C890.545 62.4646 887.57 59.5204 887.57 55.8631V55.8631C887.57 52.2057 890.538 49.2602 894.19 49.0685C927.679 47.3106 957.429 32.0971 991.619 2.89517C993.318 1.44442 995.766 1.24383 997.661 2.42706V2.42706Z" fill="#F9F9F9"/>
<path fill-rule="evenodd" clip-rule="evenodd" d="M826.588 561.168C838.026 561.168 847.558 564.981 854.912 572.606L855.729 573.424C862.81 581.049 866.078 591.398 866.078 603.926C866.078 616.454 864.444 622.718 861.176 628.982C857.908 635.246 853.005 640.148 846.741 643.416C840.477 646.957 833.669 648.591 826.588 648.591C814.877 648.591 805.345 644.778 797.991 637.152C790.638 629.527 787.098 618.633 787.098 604.743C787.098 590.854 791.183 578.053 800.17 570.428C807.524 564.164 816.239 561.168 826.588 561.168ZM826.588 577.509C820.596 577.509 815.966 579.687 811.881 584.045C808.068 588.403 805.89 595.211 805.89 604.743C805.89 614.275 808.068 621.356 811.881 625.714C815.694 630.071 820.596 632.25 826.588 632.25C832.307 632.25 837.209 630.071 841.022 625.714C844.835 621.356 847.014 614.548 847.014 604.471C847.014 594.394 844.835 588.403 841.022 584.317C837.209 579.96 832.307 577.781 826.588 577.781V577.509Z" fill="#F9F9F9"/>
<path fill-rule="evenodd" clip-rule="evenodd" d="M529.73 560.352C536.267 560.352 541.986 561.169 546.888 563.075H547.705C552.335 565.254 555.875 567.977 558.327 571.245C560.778 574.786 562.412 579.143 563.501 584.59L564.046 587.314L545.526 589.765V587.041C544.709 583.501 543.075 581.05 540.896 579.143C538.718 577.509 535.45 576.42 530.547 576.42C524.556 576.42 521.015 577.509 519.109 578.871C516.93 580.505 516.113 582.139 516.113 583.773C516.113 584.863 516.113 585.68 516.93 586.497C516.93 586.769 516.93 586.769 516.93 586.769C517.747 587.586 518.836 588.676 520.743 589.493C521.832 590.037 525.645 591.127 532.181 592.761C541.713 595.212 548.25 597.391 552.335 599.025C556.42 600.659 559.961 603.382 562.139 606.923C564.59 610.463 565.68 614.821 565.68 619.723C565.68 624.625 564.318 629.527 561.322 633.885C558.327 638.242 554.241 641.511 549.067 643.962C543.892 646.14 537.901 647.502 531.364 647.502C520.743 647.502 512.3 645.323 506.309 640.694C500.317 636.064 496.776 628.983 495.142 620.268L494.598 617.544L513.117 614.548V617.272C514.207 621.902 515.841 625.442 518.564 627.621C521.288 629.8 525.373 631.161 531.092 631.161C536.811 631.161 540.624 630.072 543.075 628.166C545.526 625.987 546.616 623.808 546.616 621.357C546.616 619.178 545.799 617.816 543.892 616.455C543.348 616.182 541.986 615.365 539.807 614.821C537.628 614.004 534.632 613.187 531.092 612.37C521.288 609.918 514.207 607.74 510.121 605.833C506.036 603.927 502.768 600.931 500.317 597.391C498.138 593.85 497.049 589.765 497.049 585.407C497.049 581.595 497.866 577.782 499.772 574.514C501.679 571.245 504.13 568.25 507.126 566.071L507.943 565.526C510.121 564.164 513.117 562.803 516.385 561.986C520.198 560.896 524.283 560.352 528.641 560.352H529.73Z" fill="#F9F9F9"/>
<path fill-rule="evenodd" clip-rule="evenodd" d="M629.691 608.557C629.691 615.638 629.964 619.995 630.508 621.902C631.325 624.897 632.687 627.076 634.866 628.71H635.411C637.589 630.344 640.041 631.161 643.581 631.161C647.122 631.161 650.39 630.344 653.385 628.438C656.381 626.531 658.56 624.353 659.649 621.357C661.011 618.361 661.556 613.459 661.556 606.923V562.258H680.348V646.14H663.19V639.332C657.198 645.051 649.845 648.047 640.858 648.047C635.955 648.047 631.053 646.957 626.696 645.051C622.338 643.144 619.07 640.693 616.619 637.425C614.44 634.429 613.078 630.617 611.989 626.531C611.444 623.536 611.172 619.178 611.172 613.459V562.258H629.964V608.557H629.691Z" fill="#F9F9F9"/>
<path fill-rule="evenodd" clip-rule="evenodd" d="M756.861 646.142H739.159V640.968C733.984 645.597 727.72 648.049 719.822 648.049C713.014 648.049 706.75 646.142 701.031 642.329C695.311 638.517 690.954 633.342 687.958 626.806C684.962 620.269 683.328 612.644 683.328 604.201C683.328 596.031 684.69 588.677 687.413 581.869C690.137 575.06 694.494 569.613 700.214 565.8C705.933 561.987 712.197 560.353 719.278 560.353C724.452 560.353 729.082 561.443 733.167 563.621L733.984 564.166C735.618 564.983 736.98 566.073 738.342 567.162V543.74H756.861V646.142ZM720.639 576.694C715.465 576.694 711.38 578.6 707.839 582.958C704.571 587.043 702.665 593.852 702.665 604.201C702.665 614.005 704.843 620.814 708.384 625.172C712.197 629.529 716.554 631.708 721.457 631.708C726.359 631.708 730.716 629.801 734.257 625.444C737.797 621.359 739.704 614.822 739.704 605.29C739.704 594.669 737.525 587.588 733.984 583.23C730.172 578.873 725.814 576.694 720.639 576.694Z" fill="#F9F9F9"/>
<path fill-rule="evenodd" clip-rule="evenodd" d="M592.913 562.26H606.258V578.056H592.913V621.359C592.913 623.265 592.913 624.627 592.913 625.716C592.913 626.806 592.913 627.35 593.185 627.623C593.185 628.167 593.73 628.712 594.274 628.984C594.819 629.257 595.636 629.529 597.543 629.529C599.449 629.529 600.538 629.529 602.989 628.984H605.713C605.713 628.712 608.164 645.598 608.164 645.598L605.713 646.142C601.9 646.959 598.632 647.232 595.364 647.232C590.189 647.232 586.104 646.415 582.836 644.508C579.84 642.602 577.389 640.423 576.027 637.155C575.21 635.521 574.938 633.342 574.666 630.618C574.393 627.895 574.121 624.355 574.121 620.269V577.783H564.316V561.987H574.121V543.74H592.64V561.987L592.913 562.26Z" fill="#F9F9F9"/>
<path fill-rule="evenodd" clip-rule="evenodd" d="M783.007 646.413H764.215V562.258H783.007V646.14V646.413Z" fill="#F9F9F9"/>
<defs>
<filter id="filter0_f_529_998" x="371.347" y="377.269" width="621.345" height="451.919" filterUnits="userSpaceOnUse" color-interpolation-filters="sRGB">
<feFlood flood-opacity="0" result="BackgroundImageFix"/>
<feBlend mode="normal" in="SourceGraphic" in2="BackgroundImageFix" result="shape"/>
<feGaussianBlur stdDeviation="21.7913" result="effect1_foregroundBlur_529_998"/>
</filter>
</defs>
</svg>
