<svg width="100" height="26" viewBox="0 0 100 26" fill="none" xmlns="http://www.w3.org/2000/svg">
<path d="M60.2728 3.75401C59.2362 3.75401 58.3958 2.91365 58.3958 1.87701C58.3958 0.840364 59.2362 0 60.2728 0C61.3095 0 62.1498 0.840364 62.1498 1.87701C62.1498 2.91365 61.3095 3.75401 60.2728 3.75401Z" fill="#392D2B"/>
<path d="M56.1017 3.75401C55.0651 3.75401 54.2247 2.91365 54.2247 1.87701C54.2247 0.840364 55.0651 0 56.1017 0C57.1383 0 57.9787 0.840364 57.9787 1.87701C57.9787 2.91365 57.1383 3.75401 56.1017 3.75401Z" fill="#392D2B"/>
<path d="M51.9306 3.75401C50.8939 3.75401 50.0536 2.91365 50.0536 1.87701C50.0536 0.840364 50.8939 0 51.9306 0C52.9672 0 53.8076 0.840364 53.8076 1.87701C53.8076 2.91365 52.9672 3.75401 51.9306 3.75401Z" fill="#392D2B"/>
<path d="M35.2461 3.75401C34.2094 3.75401 33.3691 2.91365 33.3691 1.87701C33.3691 0.840364 34.2094 0 35.2461 0C36.2827 0 37.1231 0.840364 37.1231 1.87701C37.1231 2.91365 36.2827 3.75401 35.2461 3.75401Z" fill="#392D2B"/>
<path d="M31.075 3.75401C30.0383 3.75401 29.198 2.91365 29.198 1.87701C29.198 0.840364 30.0383 0 31.075 0C32.1116 0 32.952 0.840364 32.952 1.87701C32.952 2.91365 32.1116 3.75401 31.075 3.75401Z" fill="#392D2B"/>
<path d="M26.9038 3.75401C25.8672 3.75401 25.0268 2.91365 25.0268 1.87701C25.0268 0.840364 25.8672 0 26.9038 0C27.9405 0 28.7808 0.840364 28.7808 1.87701C28.7808 2.91365 27.9405 3.75401 26.9038 3.75401Z" fill="#392D2B"/>
<path d="M22.7327 3.75401C21.6961 3.75401 20.8557 2.91365 20.8557 1.87701C20.8557 0.840364 21.6961 0 22.7327 0C23.7694 0 24.6097 0.840364 24.6097 1.87701C24.6097 2.91365 23.7694 3.75401 22.7327 3.75401Z" fill="#392D2B"/>
<path d="M18.5616 3.75401C17.525 3.75401 16.6846 2.91365 16.6846 1.87701C16.6846 0.840364 17.525 0 18.5616 0C19.5982 0 20.4386 0.840364 20.4386 1.87701C20.4386 2.91365 19.5982 3.75401 18.5616 3.75401Z" fill="#392D2B"/>
<path d="M14.3905 3.75401C13.3538 3.75401 12.5135 2.91365 12.5135 1.87701C12.5135 0.840364 13.3538 0 14.3905 0C15.4271 0 16.2675 0.840364 16.2675 1.87701C16.2675 2.91365 15.4271 3.75401 14.3905 3.75401Z" fill="#392D2B"/>
<path d="M10.2193 3.75401C9.1827 3.75401 8.34235 2.91365 8.34235 1.87701C8.34235 0.840364 9.1827 0 10.2193 0C11.256 0 12.0964 0.840364 12.0964 1.87701C12.0964 2.91365 11.256 3.75401 10.2193 3.75401Z" fill="#392D2B"/>
<path d="M6.04823 3.75401C5.01158 3.75401 4.17122 2.91365 4.17122 1.87701C4.17122 0.840364 5.01158 0 6.04823 0C7.08487 0 7.92523 0.840364 7.92523 1.87701C7.92523 2.91365 7.08487 3.75401 6.04823 3.75401Z" fill="#392D2B"/>
<path d="M1.87711 3.75401C0.840464 3.75401 9.91821e-05 2.91365 9.91821e-05 1.87701C9.91821e-05 0.840364 0.840464 0 1.87711 0C2.91375 0 3.7541 0.840364 3.7541 1.87701C3.7541 2.91365 2.91375 3.75401 1.87711 3.75401Z" fill="#392D2B"/>
<path d="M93.6418 8.20321C92.6052 8.20321 91.7648 7.36284 91.7648 6.3262C91.7648 5.28956 92.6052 4.4492 93.6418 4.4492C94.6785 4.4492 95.5188 5.28956 95.5188 6.3262C95.5188 7.36284 94.6785 8.20321 93.6418 8.20321Z" fill="#392D2B"/>
<path d="M89.4707 8.20321C88.434 8.20321 87.5937 7.36284 87.5937 6.3262C87.5937 5.28956 88.434 4.4492 89.4707 4.4492C90.5073 4.4492 91.3477 5.28956 91.3477 6.3262C91.3477 7.36284 90.5073 8.20321 89.4707 8.20321Z" fill="#392D2B"/>
<path d="M72.7862 8.20321C71.7496 8.20321 70.9092 7.36284 70.9092 6.3262C70.9092 5.28956 71.7496 4.4492 72.7862 4.4492C73.8228 4.4492 74.6632 5.28956 74.6632 6.3262C74.6632 7.36284 73.8228 8.20321 72.7862 8.20321Z" fill="#392D2B"/>
<path d="M68.6151 8.20321C67.5784 8.20321 66.7381 7.36284 66.7381 6.3262C66.7381 5.28956 67.5784 4.4492 68.6151 4.4492C69.6517 4.4492 70.4921 5.28956 70.4921 6.3262C70.4921 7.36284 69.6517 8.20321 68.6151 8.20321Z" fill="#392D2B"/>
<path d="M60.2728 8.20321C59.2362 8.20321 58.3958 7.36284 58.3958 6.3262C58.3958 5.28956 59.2362 4.4492 60.2728 4.4492C61.3095 4.4492 62.1498 5.28956 62.1498 6.3262C62.1498 7.36284 61.3095 8.20321 60.2728 8.20321Z" fill="#392D2B"/>
<path d="M56.1017 8.20321C55.0651 8.20321 54.2247 7.36284 54.2247 6.3262C54.2247 5.28956 55.0651 4.4492 56.1017 4.4492C57.1383 4.4492 57.9787 5.28956 57.9787 6.3262C57.9787 7.36284 57.1383 8.20321 56.1017 8.20321Z" fill="#392D2B"/>
<path d="M51.9306 8.20321C50.8939 8.20321 50.0536 7.36284 50.0536 6.3262C50.0536 5.28956 50.8939 4.4492 51.9306 4.4492C52.9672 4.4492 53.8076 5.28956 53.8076 6.3262C53.8076 7.36284 52.9672 8.20321 51.9306 8.20321Z" fill="#392D2B"/>
<path d="M47.7595 8.20321C46.7228 8.20321 45.8825 7.36284 45.8825 6.3262C45.8825 5.28956 46.7228 4.4492 47.7595 4.4492C48.7961 4.4492 49.6365 5.28956 49.6365 6.3262C49.6365 7.36284 48.7961 8.20321 47.7595 8.20321Z" fill="#392D2B"/>
<path d="M39.4172 8.20321C38.3806 8.20321 37.5402 7.36284 37.5402 6.3262C37.5402 5.28956 38.3806 4.4492 39.4172 4.4492C40.4539 4.4492 41.2942 5.28956 41.2942 6.3262C41.2942 7.36284 40.4539 8.20321 39.4172 8.20321Z" fill="#392D2B"/>
<path d="M35.2461 8.20321C34.2094 8.20321 33.3691 7.36284 33.3691 6.3262C33.3691 5.28956 34.2094 4.4492 35.2461 4.4492C36.2827 4.4492 37.1231 5.28956 37.1231 6.3262C37.1231 7.36284 36.2827 8.20321 35.2461 8.20321Z" fill="#392D2B"/>
<path d="M31.075 8.20321C30.0383 8.20321 29.198 7.36284 29.198 6.3262C29.198 5.28956 30.0383 4.4492 31.075 4.4492C32.1116 4.4492 32.952 5.28956 32.952 6.3262C32.952 7.36284 32.1116 8.20321 31.075 8.20321Z" fill="#392D2B"/>
<path d="M26.9038 8.20321C25.8672 8.20321 25.0268 7.36284 25.0268 6.3262C25.0268 5.28956 25.8672 4.4492 26.9038 4.4492C27.9405 4.4492 28.7808 5.28956 28.7808 6.3262C28.7808 7.36284 27.9405 8.20321 26.9038 8.20321Z" fill="#392D2B"/>
<path d="M22.7327 8.20321C21.6961 8.20321 20.8557 7.36284 20.8557 6.3262C20.8557 5.28956 21.6961 4.4492 22.7327 4.4492C23.7694 4.4492 24.6097 5.28956 24.6097 6.3262C24.6097 7.36284 23.7694 8.20321 22.7327 8.20321Z" fill="#392D2B"/>
<path d="M18.5616 8.20321C17.525 8.20321 16.6846 7.36284 16.6846 6.3262C16.6846 5.28956 17.525 4.4492 18.5616 4.4492C19.5982 4.4492 20.4386 5.28956 20.4386 6.3262C20.4386 7.36284 19.5982 8.20321 18.5616 8.20321Z" fill="#392D2B"/>
<path d="M14.3905 8.20321C13.3538 8.20321 12.5135 7.36284 12.5135 6.3262C12.5135 5.28956 13.3538 4.4492 14.3905 4.4492C15.4271 4.4492 16.2675 5.28956 16.2675 6.3262C16.2675 7.36284 15.4271 8.20321 14.3905 8.20321Z" fill="#392D2B"/>
<path d="M10.2193 8.20321C9.1827 8.20321 8.34235 7.36284 8.34235 6.3262C8.34235 5.28956 9.1827 4.4492 10.2193 4.4492C11.256 4.4492 12.0964 5.28956 12.0964 6.3262C12.0964 7.36284 11.256 8.20321 10.2193 8.20321Z" fill="#392D2B"/>
<path d="M6.04823 8.20321C5.01158 8.20321 4.17122 7.36284 4.17122 6.3262C4.17122 5.28956 5.01158 4.4492 6.04823 4.4492C7.08487 4.4492 7.92523 5.28956 7.92523 6.3262C7.92523 7.36284 7.08487 8.20321 6.04823 8.20321Z" fill="#392D2B"/>
<path d="M1.87711 8.20321C0.840464 8.20321 9.91821e-05 7.36284 9.91821e-05 6.3262C9.91821e-05 5.28956 0.840464 4.4492 1.87711 4.4492C2.91375 4.4492 3.7541 5.28956 3.7541 6.3262C3.7541 7.36284 2.91375 8.20321 1.87711 8.20321Z" fill="#392D2B"/>
<path d="M93.6418 12.6524C92.6052 12.6524 91.7648 11.812 91.7648 10.7754C91.7648 9.73876 92.6052 8.89839 93.6418 8.89839C94.6785 8.89839 95.5188 9.73876 95.5188 10.7754C95.5188 11.812 94.6785 12.6524 93.6418 12.6524Z" fill="#392D2B"/>
<path d="M89.4707 12.6524C88.434 12.6524 87.5937 11.812 87.5937 10.7754C87.5937 9.73876 88.434 8.89839 89.4707 8.89839C90.5073 8.89839 91.3477 9.73876 91.3477 10.7754C91.3477 11.812 90.5073 12.6524 89.4707 12.6524Z" fill="#392D2B"/>
<path d="M76.9573 12.6524C75.9207 12.6524 75.0803 11.812 75.0803 10.7754C75.0803 9.73876 75.9207 8.89839 76.9573 8.89839C77.994 8.89839 78.8343 9.73876 78.8343 10.7754C78.8343 11.812 77.994 12.6524 76.9573 12.6524Z" fill="#392D2B"/>
<path d="M72.7862 12.6524C71.7496 12.6524 70.9092 11.812 70.9092 10.7754C70.9092 9.73876 71.7496 8.89839 72.7862 8.89839C73.8228 8.89839 74.6632 9.73876 74.6632 10.7754C74.6632 11.812 73.8228 12.6524 72.7862 12.6524Z" fill="#392D2B"/>
<path d="M68.6151 12.6524C67.5784 12.6524 66.7381 11.812 66.7381 10.7754C66.7381 9.73876 67.5784 8.89839 68.6151 8.89839C69.6517 8.89839 70.4921 9.73876 70.4921 10.7754C70.4921 11.812 69.6517 12.6524 68.6151 12.6524Z" fill="#392D2B"/>
<path d="M64.444 12.6524C63.4073 12.6524 62.5669 11.812 62.5669 10.7754C62.5669 9.73876 63.4073 8.89839 64.444 8.89839C65.4806 8.89839 66.321 9.73876 66.321 10.7754C66.321 11.812 65.4806 12.6524 64.444 12.6524Z" fill="#392D2B"/>
<path d="M60.2728 12.6524C59.2362 12.6524 58.3958 11.812 58.3958 10.7754C58.3958 9.73876 59.2362 8.89839 60.2728 8.89839C61.3095 8.89839 62.1498 9.73876 62.1498 10.7754C62.1498 11.812 61.3095 12.6524 60.2728 12.6524Z" fill="#392D2B"/>
<path d="M56.1017 12.6524C55.0651 12.6524 54.2247 11.812 54.2247 10.7754C54.2247 9.73876 55.0651 8.89839 56.1017 8.89839C57.1383 8.89839 57.9787 9.73876 57.9787 10.7754C57.9787 11.812 57.1383 12.6524 56.1017 12.6524Z" fill="#392D2B"/>
<path d="M51.9306 12.6524C50.8939 12.6524 50.0536 11.812 50.0536 10.7754C50.0536 9.73876 50.8939 8.89839 51.9306 8.89839C52.9672 8.89839 53.8076 9.73876 53.8076 10.7754C53.8076 11.812 52.9672 12.6524 51.9306 12.6524Z" fill="#392D2B"/>
<path d="M47.7595 12.6524C46.7228 12.6524 45.8825 11.812 45.8825 10.7754C45.8825 9.73876 46.7228 8.89839 47.7595 8.89839C48.7961 8.89839 49.6365 9.73876 49.6365 10.7754C49.6365 11.812 48.7961 12.6524 47.7595 12.6524Z" fill="#392D2B"/>
<path d="M43.5883 12.6524C42.5517 12.6524 41.7113 11.812 41.7113 10.7754C41.7113 9.73876 42.5517 8.89839 43.5883 8.89839C44.625 8.89839 45.4653 9.73876 45.4653 10.7754C45.4653 11.812 44.625 12.6524 43.5883 12.6524Z" fill="#392D2B"/>
<path d="M39.4172 12.6524C38.3806 12.6524 37.5402 11.812 37.5402 10.7754C37.5402 9.73876 38.3806 8.89839 39.4172 8.89839C40.4539 8.89839 41.2942 9.73876 41.2942 10.7754C41.2942 11.812 40.4539 12.6524 39.4172 12.6524Z" fill="#392D2B"/>
<path d="M35.2461 12.6524C34.2094 12.6524 33.3691 11.812 33.3691 10.7754C33.3691 9.73876 34.2094 8.89839 35.2461 8.89839C36.2827 8.89839 37.1231 9.73876 37.1231 10.7754C37.1231 11.812 36.2827 12.6524 35.2461 12.6524Z" fill="#392D2B"/>
<path d="M31.075 12.6524C30.0383 12.6524 29.198 11.812 29.198 10.7754C29.198 9.73876 30.0383 8.89839 31.075 8.89839C32.1116 8.89839 32.952 9.73876 32.952 10.7754C32.952 11.812 32.1116 12.6524 31.075 12.6524Z" fill="#392D2B"/>
<path d="M26.9038 12.6524C25.8672 12.6524 25.0268 11.812 25.0268 10.7754C25.0268 9.73876 25.8672 8.89839 26.9038 8.89839C27.9405 8.89839 28.7808 9.73876 28.7808 10.7754C28.7808 11.812 27.9405 12.6524 26.9038 12.6524Z" fill="#392D2B"/>
<path d="M22.7327 12.6524C21.6961 12.6524 20.8557 11.812 20.8557 10.7754C20.8557 9.73876 21.6961 8.89839 22.7327 8.89839C23.7694 8.89839 24.6097 9.73876 24.6097 10.7754C24.6097 11.812 23.7694 12.6524 22.7327 12.6524Z" fill="#392D2B"/>
<path d="M18.5616 12.6524C17.525 12.6524 16.6846 11.812 16.6846 10.7754C16.6846 9.73876 17.525 8.89839 18.5616 8.89839C19.5982 8.89839 20.4386 9.73876 20.4386 10.7754C20.4386 11.812 19.5982 12.6524 18.5616 12.6524Z" fill="#392D2B"/>
<path d="M14.3905 12.6524C13.3538 12.6524 12.5135 11.812 12.5135 10.7754C12.5135 9.73876 13.3538 8.89839 14.3905 8.89839C15.4271 8.89839 16.2675 9.73876 16.2675 10.7754C16.2675 11.812 15.4271 12.6524 14.3905 12.6524Z" fill="#392D2B"/>
<path d="M10.2193 12.6524C9.1827 12.6524 8.34235 11.812 8.34235 10.7754C8.34235 9.73876 9.1827 8.89839 10.2193 8.89839C11.256 8.89839 12.0964 9.73876 12.0964 10.7754C12.0964 11.812 11.256 12.6524 10.2193 12.6524Z" fill="#392D2B"/>
<path d="M6.04823 12.6524C5.01158 12.6524 4.17122 11.812 4.17122 10.7754C4.17122 9.73876 5.01158 8.89839 6.04823 8.89839C7.08487 8.89839 7.92523 9.73876 7.92523 10.7754C7.92523 11.812 7.08487 12.6524 6.04823 12.6524Z" fill="#392D2B"/>
<path d="M1.87711 12.6524C0.840464 12.6524 9.91821e-05 11.812 9.91821e-05 10.7754C9.91821e-05 9.73876 0.840464 8.89839 1.87711 8.89839C2.91375 8.89839 3.7541 9.73876 3.7541 10.7754C3.7541 11.812 2.91375 12.6524 1.87711 12.6524Z" fill="#392D2B"/>
<path d="M93.6418 17.1016C92.6052 17.1016 91.7648 16.2612 91.7648 15.2246C91.7648 14.188 92.6052 13.3476 93.6418 13.3476C94.6785 13.3476 95.5188 14.188 95.5188 15.2246C95.5188 16.2612 94.6785 17.1016 93.6418 17.1016Z" fill="#392D2B"/>
<path d="M89.4707 17.1016C88.434 17.1016 87.5937 16.2612 87.5937 15.2246C87.5937 14.188 88.434 13.3476 89.4707 13.3476C90.5073 13.3476 91.3477 14.188 91.3477 15.2246C91.3477 16.2612 90.5073 17.1016 89.4707 17.1016Z" fill="#392D2B"/>
<path d="M85.2996 17.1016C84.2629 17.1016 83.4226 16.2612 83.4226 15.2246C83.4226 14.188 84.2629 13.3476 85.2996 13.3476C86.3362 13.3476 87.1766 14.188 87.1766 15.2246C87.1766 16.2612 86.3362 17.1016 85.2996 17.1016Z" fill="#392D2B"/>
<path d="M68.6151 17.1016C67.5784 17.1016 66.7381 16.2612 66.7381 15.2246C66.7381 14.188 67.5784 13.3476 68.6151 13.3476C69.6517 13.3476 70.4921 14.188 70.4921 15.2246C70.4921 16.2612 69.6517 17.1016 68.6151 17.1016Z" fill="#392D2B"/>
<path d="M64.444 17.1016C63.4073 17.1016 62.5669 16.2612 62.5669 15.2246C62.5669 14.188 63.4073 13.3476 64.444 13.3476C65.4806 13.3476 66.321 14.188 66.321 15.2246C66.321 16.2612 65.4806 17.1016 64.444 17.1016Z" fill="#392D2B"/>
<path d="M60.2728 17.1016C59.2362 17.1016 58.3958 16.2612 58.3958 15.2246C58.3958 14.188 59.2362 13.3476 60.2728 13.3476C61.3095 13.3476 62.1498 14.188 62.1498 15.2246C62.1498 16.2612 61.3095 17.1016 60.2728 17.1016Z" fill="#392D2B"/>
<path d="M56.1017 17.1016C55.0651 17.1016 54.2247 16.2612 54.2247 15.2246C54.2247 14.188 55.0651 13.3476 56.1017 13.3476C57.1383 13.3476 57.9787 14.188 57.9787 15.2246C57.9787 16.2612 57.1383 17.1016 56.1017 17.1016Z" fill="#392D2B"/>
<path d="M51.9306 17.1016C50.8939 17.1016 50.0536 16.2612 50.0536 15.2246C50.0536 14.188 50.8939 13.3476 51.9306 13.3476C52.9672 13.3476 53.8076 14.188 53.8076 15.2246C53.8076 16.2612 52.9672 17.1016 51.9306 17.1016Z" fill="#392D2B"/>
<path d="M47.7595 17.1016C46.7228 17.1016 45.8825 16.2612 45.8825 15.2246C45.8825 14.188 46.7228 13.3476 47.7595 13.3476C48.7961 13.3476 49.6365 14.188 49.6365 15.2246C49.6365 16.2612 48.7961 17.1016 47.7595 17.1016Z" fill="#392D2B"/>
<path d="M43.5883 17.1016C42.5517 17.1016 41.7113 16.2612 41.7113 15.2246C41.7113 14.188 42.5517 13.3476 43.5883 13.3476C44.625 13.3476 45.4653 14.188 45.4653 15.2246C45.4653 16.2612 44.625 17.1016 43.5883 17.1016Z" fill="#392D2B"/>
<path d="M35.2461 17.1016C34.2094 17.1016 33.3691 16.2612 33.3691 15.2246C33.3691 14.188 34.2094 13.3476 35.2461 13.3476C36.2827 13.3476 37.1231 14.188 37.1231 15.2246C37.1231 16.2612 36.2827 17.1016 35.2461 17.1016Z" fill="#392D2B"/>
<path d="M31.075 17.1016C30.0383 17.1016 29.198 16.2612 29.198 15.2246C29.198 14.188 30.0383 13.3476 31.075 13.3476C32.1116 13.3476 32.952 14.188 32.952 15.2246C32.952 16.2612 32.1116 17.1016 31.075 17.1016Z" fill="#392D2B"/>
<path d="M26.9038 17.1016C25.8672 17.1016 25.0268 16.2612 25.0268 15.2246C25.0268 14.188 25.8672 13.3476 26.9038 13.3476C27.9405 13.3476 28.7808 14.188 28.7808 15.2246C28.7808 16.2612 27.9405 17.1016 26.9038 17.1016Z" fill="#392D2B"/>
<path d="M22.7327 17.1016C21.6961 17.1016 20.8557 16.2612 20.8557 15.2246C20.8557 14.188 21.6961 13.3476 22.7327 13.3476C23.7694 13.3476 24.6097 14.188 24.6097 15.2246C24.6097 16.2612 23.7694 17.1016 22.7327 17.1016Z" fill="#392D2B"/>
<path d="M18.5616 17.1016C17.525 17.1016 16.6846 16.2612 16.6846 15.2246C16.6846 14.188 17.525 13.3476 18.5616 13.3476C19.5982 13.3476 20.4386 14.188 20.4386 15.2246C20.4386 16.2612 19.5982 17.1016 18.5616 17.1016Z" fill="#392D2B"/>
<path d="M14.3905 17.1016C13.3538 17.1016 12.5135 16.2612 12.5135 15.2246C12.5135 14.188 13.3538 13.3476 14.3905 13.3476C15.4271 13.3476 16.2675 14.188 16.2675 15.2246C16.2675 16.2612 15.4271 17.1016 14.3905 17.1016Z" fill="#392D2B"/>
<path d="M10.2193 17.1016C9.1827 17.1016 8.34235 16.2612 8.34235 15.2246C8.34235 14.188 9.1827 13.3476 10.2193 13.3476C11.256 13.3476 12.0964 14.188 12.0964 15.2246C12.0964 16.2612 11.256 17.1016 10.2193 17.1016Z" fill="#392D2B"/>
<path d="M6.04823 17.1016C5.01158 17.1016 4.17122 16.2612 4.17122 15.2246C4.17122 14.188 5.01158 13.3476 6.04823 13.3476C7.08487 13.3476 7.92523 14.188 7.92523 15.2246C7.92523 16.2612 7.08487 17.1016 6.04823 17.1016Z" fill="#392D2B"/>
<path d="M93.6418 21.5508C92.6052 21.5508 91.7648 20.7104 91.7648 19.6738C91.7648 18.6372 92.6052 17.7968 93.6418 17.7968C94.6785 17.7968 95.5188 18.6372 95.5188 19.6738C95.5188 20.7104 94.6785 21.5508 93.6418 21.5508Z" fill="#392D2B"/>
<path d="M89.4707 21.5508C88.434 21.5508 87.5937 20.7104 87.5937 19.6738C87.5937 18.6372 88.434 17.7968 89.4707 17.7968C90.5073 17.7968 91.3477 18.6372 91.3477 19.6738C91.3477 20.7104 90.5073 21.5508 89.4707 21.5508Z" fill="#392D2B"/>
<path d="M85.2996 21.5508C84.2629 21.5508 83.4226 20.7104 83.4226 19.6738C83.4226 18.6372 84.2629 17.7968 85.2996 17.7968C86.3362 17.7968 87.1766 18.6372 87.1766 19.6738C87.1766 20.7104 86.3362 21.5508 85.2996 21.5508Z" fill="#392D2B"/>
<path d="M72.7862 21.5508C71.7496 21.5508 70.9092 20.7104 70.9092 19.6738C70.9092 18.6372 71.7496 17.7968 72.7862 17.7968C73.8228 17.7968 74.6632 18.6372 74.6632 19.6738C74.6632 20.7104 73.8228 21.5508 72.7862 21.5508Z" fill="#392D2B"/>
<path d="M68.6151 21.5508C67.5784 21.5508 66.7381 20.7104 66.7381 19.6738C66.7381 18.6372 67.5784 17.7968 68.6151 17.7968C69.6517 17.7968 70.4921 18.6372 70.4921 19.6738C70.4921 20.7104 69.6517 21.5508 68.6151 21.5508Z" fill="#392D2B"/>
<path d="M64.444 21.5508C63.4073 21.5508 62.5669 20.7104 62.5669 19.6738C62.5669 18.6372 63.4073 17.7968 64.444 17.7968C65.4806 17.7968 66.321 18.6372 66.321 19.6738C66.321 20.7104 65.4806 21.5508 64.444 21.5508Z" fill="#392D2B"/>
<path d="M60.2728 21.5508C59.2362 21.5508 58.3958 20.7104 58.3958 19.6738C58.3958 18.6372 59.2362 17.7968 60.2728 17.7968C61.3095 17.7968 62.1498 18.6372 62.1498 19.6738C62.1498 20.7104 61.3095 21.5508 60.2728 21.5508Z" fill="#392D2B"/>
<path d="M56.1017 21.5508C55.0651 21.5508 54.2247 20.7104 54.2247 19.6738C54.2247 18.6372 55.0651 17.7968 56.1017 17.7968C57.1383 17.7968 57.9787 18.6372 57.9787 19.6738C57.9787 20.7104 57.1383 21.5508 56.1017 21.5508Z" fill="#392D2B"/>
<path d="M51.9306 21.5508C50.8939 21.5508 50.0536 20.7104 50.0536 19.6738C50.0536 18.6372 50.8939 17.7968 51.9306 17.7968C52.9672 17.7968 53.8076 18.6372 53.8076 19.6738C53.8076 20.7104 52.9672 21.5508 51.9306 21.5508Z" fill="#392D2B"/>
<path d="M43.5883 21.5508C42.5517 21.5508 41.7113 20.7104 41.7113 19.6738C41.7113 18.6372 42.5517 17.7968 43.5883 17.7968C44.625 17.7968 45.4653 18.6372 45.4653 19.6738C45.4653 20.7104 44.625 21.5508 43.5883 21.5508Z" fill="#392D2B"/>
<path d="M39.4172 21.5508C38.3806 21.5508 37.5402 20.7104 37.5402 19.6738C37.5402 18.6372 38.3806 17.7968 39.4172 17.7968C40.4539 17.7968 41.2942 18.6372 41.2942 19.6738C41.2942 20.7104 40.4539 21.5508 39.4172 21.5508Z" fill="#392D2B"/>
<path d="M35.2461 21.5508C34.2094 21.5508 33.3691 20.7104 33.3691 19.6738C33.3691 18.6372 34.2094 17.7968 35.2461 17.7968C36.2827 17.7968 37.1231 18.6372 37.1231 19.6738C37.1231 20.7104 36.2827 21.5508 35.2461 21.5508Z" fill="#392D2B"/>
<path d="M31.075 21.5508C30.0383 21.5508 29.198 20.7104 29.198 19.6738C29.198 18.6372 30.0383 17.7968 31.075 17.7968C32.1116 17.7968 32.952 18.6372 32.952 19.6738C32.952 20.7104 32.1116 21.5508 31.075 21.5508Z" fill="#392D2B"/>
<path d="M26.9038 21.5508C25.8672 21.5508 25.0268 20.7104 25.0268 19.6738C25.0268 18.6372 25.8672 17.7968 26.9038 17.7968C27.9405 17.7968 28.7808 18.6372 28.7808 19.6738C28.7808 20.7104 27.9405 21.5508 26.9038 21.5508Z" fill="#392D2B"/>
<path d="M22.7327 21.5508C21.6961 21.5508 20.8557 20.7104 20.8557 19.6738C20.8557 18.6372 21.6961 17.7968 22.7327 17.7968C23.7694 17.7968 24.6097 18.6372 24.6097 19.6738C24.6097 20.7104 23.7694 21.5508 22.7327 21.5508Z" fill="#392D2B"/>
<path d="M18.5616 21.5508C17.525 21.5508 16.6846 20.7104 16.6846 19.6738C16.6846 18.6372 17.525 17.7968 18.5616 17.7968C19.5982 17.7968 20.4386 18.6372 20.4386 19.6738C20.4386 20.7104 19.5982 21.5508 18.5616 21.5508Z" fill="#392D2B"/>
<path d="M14.3905 21.5508C13.3538 21.5508 12.5135 20.7104 12.5135 19.6738C12.5135 18.6372 13.3538 17.7968 14.3905 17.7968C15.4271 17.7968 16.2675 18.6372 16.2675 19.6738C16.2675 20.7104 15.4271 21.5508 14.3905 21.5508Z" fill="#392D2B"/>
<path d="M81.1284 26C80.0918 26 79.2514 25.1596 79.2514 24.123C79.2514 23.0864 80.0918 22.246 81.1284 22.246C82.1651 22.246 83.0054 23.0864 83.0054 24.123C83.0054 25.1596 82.1651 26 81.1284 26Z" fill="#392D2B"/>
<path d="M76.9573 26C75.9207 26 75.0803 25.1596 75.0803 24.123C75.0803 23.0864 75.9207 22.246 76.9573 22.246C77.994 22.246 78.8343 23.0864 78.8343 24.123C78.8343 25.1596 77.994 26 76.9573 26Z" fill="#392D2B"/>
<path d="M72.7862 26C71.7496 26 70.9092 25.1596 70.9092 24.123C70.9092 23.0864 71.7496 22.246 72.7862 22.246C73.8228 22.246 74.6632 23.0864 74.6632 24.123C74.6632 25.1596 73.8228 26 72.7862 26Z" fill="#392D2B"/>
<path d="M68.6151 26C67.5784 26 66.7381 25.1596 66.7381 24.123C66.7381 23.0864 67.5784 22.246 68.6151 22.246C69.6517 22.246 70.4921 23.0864 70.4921 24.123C70.4921 25.1596 69.6517 26 68.6151 26Z" fill="#392D2B"/>
<path d="M64.444 26C63.4073 26 62.5669 25.1596 62.5669 24.123C62.5669 23.0864 63.4073 22.246 64.444 22.246C65.4806 22.246 66.321 23.0864 66.321 24.123C66.321 25.1596 65.4806 26 64.444 26Z" fill="#392D2B"/>
<path d="M60.2728 26C59.2362 26 58.3958 25.1596 58.3958 24.123C58.3958 23.0864 59.2362 22.246 60.2728 22.246C61.3095 22.246 62.1498 23.0864 62.1498 24.123C62.1498 25.1596 61.3095 26 60.2728 26Z" fill="#392D2B"/>
<path d="M56.1017 26C55.0651 26 54.2247 25.1596 54.2247 24.123C54.2247 23.0864 55.0651 22.246 56.1017 22.246C57.1383 22.246 57.9787 23.0864 57.9787 24.123C57.9787 25.1596 57.1383 26 56.1017 26Z" fill="#392D2B"/>
<path d="M51.9306 26C50.8939 26 50.0536 25.1596 50.0536 24.123C50.0536 23.0864 50.8939 22.246 51.9306 22.246C52.9672 22.246 53.8076 23.0864 53.8076 24.123C53.8076 25.1596 52.9672 26 51.9306 26Z" fill="#392D2B"/>
<path d="M39.4172 26C38.3806 26 37.5402 25.1596 37.5402 24.123C37.5402 23.0864 38.3806 22.246 39.4172 22.246C40.4539 22.246 41.2942 23.0864 41.2942 24.123C41.2942 25.1596 40.4539 26 39.4172 26Z" fill="#392D2B"/>
<path d="M35.2461 26C34.2094 26 33.3691 25.1596 33.3691 24.123C33.3691 23.0864 34.2094 22.246 35.2461 22.246C36.2827 22.246 37.1231 23.0864 37.1231 24.123C37.1231 25.1596 36.2827 26 35.2461 26Z" fill="#392D2B"/>
<path d="M31.075 26C30.0383 26 29.198 25.1596 29.198 24.123C29.198 23.0864 30.0383 22.246 31.075 22.246C32.1116 22.246 32.952 23.0864 32.952 24.123C32.952 25.1596 32.1116 26 31.075 26Z" fill="#392D2B"/>
<path d="M26.9038 26C25.8672 26 25.0268 25.1596 25.0268 24.123C25.0268 23.0864 25.8672 22.246 26.9038 22.246C27.9405 22.246 28.7808 23.0864 28.7808 24.123C28.7808 25.1596 27.9405 26 26.9038 26Z" fill="#392D2B"/>
<path d="M22.7327 26C21.6961 26 20.8557 25.1596 20.8557 24.123C20.8557 23.0864 21.6961 22.246 22.7327 22.246C23.7694 22.246 24.6097 23.0864 24.6097 24.123C24.6097 25.1596 23.7694 26 22.7327 26Z" fill="#392D2B"/>
<path d="M18.5616 26C17.525 26 16.6846 25.1596 16.6846 24.123C16.6846 23.0864 17.525 22.246 18.5616 22.246C19.5982 22.246 20.4386 23.0864 20.4386 24.123C20.4386 25.1596 19.5982 26 18.5616 26Z" fill="#392D2B"/>
<path d="M14.3905 26C13.3538 26 12.5135 25.1596 12.5135 24.123C12.5135 23.0864 13.3538 22.246 14.3905 22.246C15.4271 22.246 16.2675 23.0864 16.2675 24.123C16.2675 25.1596 15.4271 26 14.3905 26Z" fill="#392D2B"/>
<path d="M10.2193 26C9.1827 26 8.34235 25.1596 8.34235 24.123C8.34235 23.0864 9.1827 22.246 10.2193 22.246C11.256 22.246 12.0964 23.0864 12.0964 24.123C12.0964 25.1596 11.256 26 10.2193 26Z" fill="#392D2B"/>
<path d="M6.04823 26C5.01158 26 4.17122 25.1596 4.17122 24.123C4.17122 23.0864 5.01158 22.246 6.04823 22.246C7.08487 22.246 7.92523 23.0864 7.92523 24.123C7.92523 25.1596 7.08487 26 6.04823 26Z" fill="#392D2B"/>
<path d="M1.87711 26C0.840464 26 9.91821e-05 25.1596 9.91821e-05 24.123C9.91821e-05 23.0864 0.840464 22.246 1.87711 22.246C2.91375 22.246 3.7541 23.0864 3.7541 24.123C3.7541 25.1596 2.91375 26 1.87711 26Z" fill="#392D2B"/>
</svg>
