<svg preserveAspectRatio="none" width="100%" height="100%" overflow="visible" style="display: block;" viewBox="0 0 83.0053 26" fill="none" xmlns="http://www.w3.org/2000/svg">
<g id="left texture nav">
<mask id="path-1-inside-1_0_76" fill="white">
<path d="M7.92513 10.7754C7.92513 11.812 7.08477 12.6524 6.04813 12.6524C5.01149 12.6524 4.17112 11.812 4.17112 10.7754C4.17112 9.73876 5.01149 8.89839 6.04813 8.89839C7.08477 8.89839 7.92513 9.73876 7.92513 10.7754Z"/>
<path d="M12.0963 6.3262C12.0963 7.36284 11.2559 8.20321 10.2192 8.20321C9.18261 8.20321 8.34225 7.36284 8.34225 6.3262C8.34225 5.28956 9.18261 4.4492 10.2192 4.4492C11.2559 4.4492 12.0963 5.28956 12.0963 6.3262Z"/>
<path d="M3.75401 24.123C3.75401 25.1596 2.91365 26 1.87701 26C0.840364 26 0 25.1596 0 24.123C0 23.0864 0.840364 22.246 1.87701 22.246C2.91365 22.246 3.75401 23.0864 3.75401 24.123Z"/>
<path d="M12.0963 10.7754C12.0963 11.812 11.2559 12.6524 10.2192 12.6524C9.18261 12.6524 8.34225 11.812 8.34225 10.7754C8.34225 9.73876 9.18261 8.89839 10.2192 8.89839C11.2559 8.89839 12.0963 9.73876 12.0963 10.7754Z"/>
<path d="M16.2674 10.7754C16.2674 11.812 15.427 12.6524 14.3904 12.6524C13.3537 12.6524 12.5134 11.812 12.5134 10.7754C12.5134 9.73876 13.3537 8.89839 14.3904 8.89839C15.427 8.89839 16.2674 9.73876 16.2674 10.7754Z"/>
<path d="M16.2674 6.3262C16.2674 7.36284 15.427 8.20321 14.3904 8.20321C13.3537 8.20321 12.5134 7.36284 12.5134 6.3262C12.5134 5.28956 13.3537 4.4492 14.3904 4.4492C15.427 4.4492 16.2674 5.28956 16.2674 6.3262Z"/>
<path d="M16.2674 15.2246C16.2674 16.2612 15.427 17.1016 14.3904 17.1016C13.3537 17.1016 12.5134 16.2612 12.5134 15.2246C12.5134 14.188 13.3537 13.3476 14.3904 13.3476C15.427 13.3476 16.2674 14.188 16.2674 15.2246Z"/>
<path d="M16.2674 19.6738C16.2674 20.7104 15.427 21.5508 14.3904 21.5508C13.3537 21.5508 12.5134 20.7104 12.5134 19.6738C12.5134 18.6372 13.3537 17.7968 14.3904 17.7968C15.427 17.7968 16.2674 18.6372 16.2674 19.6738Z"/>
<path d="M12.0963 19.6738C12.0963 20.7104 11.2559 21.5508 10.2192 21.5508C9.18261 21.5508 8.34225 20.7104 8.34225 19.6738C8.34225 18.6372 9.18261 17.7968 10.2192 17.7968C11.2559 17.7968 12.0963 18.6372 12.0963 19.6738Z"/>
<path d="M7.92513 24.123C7.92513 25.1596 7.08477 26 6.04813 26C5.01149 26 4.17112 25.1596 4.17112 24.123C4.17112 23.0864 5.01149 22.246 6.04813 22.246C7.08477 22.246 7.92513 23.0864 7.92513 24.123Z"/>
<path d="M12.0963 24.123C12.0963 25.1596 11.2559 26 10.2192 26C9.18261 26 8.34225 25.1596 8.34225 24.123C8.34225 23.0864 9.18261 22.246 10.2192 22.246C11.2559 22.246 12.0963 23.0864 12.0963 24.123Z"/>
<path d="M16.2674 24.123C16.2674 25.1596 15.427 26 14.3904 26C13.3537 26 12.5134 25.1596 12.5134 24.123C12.5134 23.0864 13.3537 22.246 14.3904 22.246C15.427 22.246 16.2674 23.0864 16.2674 24.123Z"/>
<path d="M20.4385 10.7754C20.4385 11.812 19.5981 12.6524 18.5615 12.6524C17.5249 12.6524 16.6845 11.812 16.6845 10.7754C16.6845 9.73876 17.5249 8.89839 18.5615 8.89839C19.5981 8.89839 20.4385 9.73876 20.4385 10.7754Z"/>
<path d="M20.4385 15.2246C20.4385 16.2612 19.5981 17.1016 18.5615 17.1016C17.5249 17.1016 16.6845 16.2612 16.6845 15.2246C16.6845 14.188 17.5249 13.3476 18.5615 13.3476C19.5981 13.3476 20.4385 14.188 20.4385 15.2246Z"/>
<path d="M20.4385 19.6738C20.4385 20.7104 19.5981 21.5508 18.5615 21.5508C17.5249 21.5508 16.6845 20.7104 16.6845 19.6738C16.6845 18.6372 17.5249 17.7968 18.5615 17.7968C19.5981 17.7968 20.4385 18.6372 20.4385 19.6738Z"/>
<path d="M20.4385 24.123C20.4385 25.1596 19.5981 26 18.5615 26C17.5249 26 16.6845 25.1596 16.6845 24.123C16.6845 23.0864 17.5249 22.246 18.5615 22.246C19.5981 22.246 20.4385 23.0864 20.4385 24.123Z"/>
<path d="M24.6096 1.87701C24.6096 2.91365 23.7693 3.75401 22.7326 3.75401C21.696 3.75401 20.8556 2.91365 20.8556 1.87701C20.8556 0.840364 21.696 0 22.7326 0C23.7693 0 24.6096 0.840364 24.6096 1.87701Z"/>
<path d="M24.6096 6.3262C24.6096 7.36284 23.7693 8.20321 22.7326 8.20321C21.696 8.20321 20.8556 7.36284 20.8556 6.3262C20.8556 5.28956 21.696 4.4492 22.7326 4.4492C23.7693 4.4492 24.6096 5.28956 24.6096 6.3262Z"/>
<path d="M24.6096 10.7754C24.6096 11.812 23.7693 12.6524 22.7326 12.6524C21.696 12.6524 20.8556 11.812 20.8556 10.7754C20.8556 9.73876 21.696 8.89839 22.7326 8.89839C23.7693 8.89839 24.6096 9.73876 24.6096 10.7754Z"/>
<path d="M24.6096 15.2246C24.6096 16.2612 23.7693 17.1016 22.7326 17.1016C21.696 17.1016 20.8556 16.2612 20.8556 15.2246C20.8556 14.188 21.696 13.3476 22.7326 13.3476C23.7693 13.3476 24.6096 14.188 24.6096 15.2246Z"/>
<path d="M24.6096 19.6738C24.6096 20.7104 23.7693 21.5508 22.7326 21.5508C21.696 21.5508 20.8556 20.7104 20.8556 19.6738C20.8556 18.6372 21.696 17.7968 22.7326 17.7968C23.7693 17.7968 24.6096 18.6372 24.6096 19.6738Z"/>
<path d="M24.6096 24.123C24.6096 25.1596 23.7693 26 22.7326 26C21.696 26 20.8556 25.1596 20.8556 24.123C20.8556 23.0864 21.696 22.246 22.7326 22.246C23.7693 22.246 24.6096 23.0864 24.6096 24.123Z"/>
</mask>
<path d="M7.92513 10.7754C7.92513 11.812 7.08477 12.6524 6.04813 12.6524C5.01149 12.6524 4.17112 11.812 4.17112 10.7754C4.17112 9.73876 5.01149 8.89839 6.04813 8.89839C7.08477 8.89839 7.92513 9.73876 7.92513 10.7754Z" fill="var(--fill-0, #392D2B)"/>
<path d="M12.0963 6.3262C12.0963 7.36284 11.2559 8.20321 10.2192 8.20321C9.18261 8.20321 8.34225 7.36284 8.34225 6.3262C8.34225 5.28956 9.18261 4.4492 10.2192 4.4492C11.2559 4.4492 12.0963 5.28956 12.0963 6.3262Z" fill="var(--fill-0, #392D2B)"/>
<path d="M3.75401 24.123C3.75401 25.1596 2.91365 26 1.87701 26C0.840364 26 0 25.1596 0 24.123C0 23.0864 0.840364 22.246 1.87701 22.246C2.91365 22.246 3.75401 23.0864 3.75401 24.123Z" fill="var(--fill-0, #392D2B)"/>
<path d="M12.0963 10.7754C12.0963 11.812 11.2559 12.6524 10.2192 12.6524C9.18261 12.6524 8.34225 11.812 8.34225 10.7754C8.34225 9.73876 9.18261 8.89839 10.2192 8.89839C11.2559 8.89839 12.0963 9.73876 12.0963 10.7754Z" fill="var(--fill-0, #392D2B)"/>
<path d="M16.2674 10.7754C16.2674 11.812 15.427 12.6524 14.3904 12.6524C13.3537 12.6524 12.5134 11.812 12.5134 10.7754C12.5134 9.73876 13.3537 8.89839 14.3904 8.89839C15.427 8.89839 16.2674 9.73876 16.2674 10.7754Z" fill="var(--fill-0, #392D2B)"/>
<path d="M16.2674 6.3262C16.2674 7.36284 15.427 8.20321 14.3904 8.20321C13.3537 8.20321 12.5134 7.36284 12.5134 6.3262C12.5134 5.28956 13.3537 4.4492 14.3904 4.4492C15.427 4.4492 16.2674 5.28956 16.2674 6.3262Z" fill="var(--fill-0, #392D2B)"/>
<path d="M16.2674 15.2246C16.2674 16.2612 15.427 17.1016 14.3904 17.1016C13.3537 17.1016 12.5134 16.2612 12.5134 15.2246C12.5134 14.188 13.3537 13.3476 14.3904 13.3476C15.427 13.3476 16.2674 14.188 16.2674 15.2246Z" fill="var(--fill-0, #392D2B)"/>
<path d="M16.2674 19.6738C16.2674 20.7104 15.427 21.5508 14.3904 21.5508C13.3537 21.5508 12.5134 20.7104 12.5134 19.6738C12.5134 18.6372 13.3537 17.7968 14.3904 17.7968C15.427 17.7968 16.2674 18.6372 16.2674 19.6738Z" fill="var(--fill-0, #392D2B)"/>
<path d="M12.0963 19.6738C12.0963 20.7104 11.2559 21.5508 10.2192 21.5508C9.18261 21.5508 8.34225 20.7104 8.34225 19.6738C8.34225 18.6372 9.18261 17.7968 10.2192 17.7968C11.2559 17.7968 12.0963 18.6372 12.0963 19.6738Z" fill="var(--fill-0, #392D2B)"/>
<path d="M7.92513 24.123C7.92513 25.1596 7.08477 26 6.04813 26C5.01149 26 4.17112 25.1596 4.17112 24.123C4.17112 23.0864 5.01149 22.246 6.04813 22.246C7.08477 22.246 7.92513 23.0864 7.92513 24.123Z" fill="var(--fill-0, #392D2B)"/>
<path d="M12.0963 24.123C12.0963 25.1596 11.2559 26 10.2192 26C9.18261 26 8.34225 25.1596 8.34225 24.123C8.34225 23.0864 9.18261 22.246 10.2192 22.246C11.2559 22.246 12.0963 23.0864 12.0963 24.123Z" fill="var(--fill-0, #392D2B)"/>
<path d="M16.2674 24.123C16.2674 25.1596 15.427 26 14.3904 26C13.3537 26 12.5134 25.1596 12.5134 24.123C12.5134 23.0864 13.3537 22.246 14.3904 22.246C15.427 22.246 16.2674 23.0864 16.2674 24.123Z" fill="var(--fill-0, #392D2B)"/>
<path d="M20.4385 10.7754C20.4385 11.812 19.5981 12.6524 18.5615 12.6524C17.5249 12.6524 16.6845 11.812 16.6845 10.7754C16.6845 9.73876 17.5249 8.89839 18.5615 8.89839C19.5981 8.89839 20.4385 9.73876 20.4385 10.7754Z" fill="var(--fill-0, #392D2B)"/>
<path d="M20.4385 15.2246C20.4385 16.2612 19.5981 17.1016 18.5615 17.1016C17.5249 17.1016 16.6845 16.2612 16.6845 15.2246C16.6845 14.188 17.5249 13.3476 18.5615 13.3476C19.5981 13.3476 20.4385 14.188 20.4385 15.2246Z" fill="var(--fill-0, #392D2B)"/>
<path d="M20.4385 19.6738C20.4385 20.7104 19.5981 21.5508 18.5615 21.5508C17.5249 21.5508 16.6845 20.7104 16.6845 19.6738C16.6845 18.6372 17.5249 17.7968 18.5615 17.7968C19.5981 17.7968 20.4385 18.6372 20.4385 19.6738Z" fill="var(--fill-0, #392D2B)"/>
<path d="M20.4385 24.123C20.4385 25.1596 19.5981 26 18.5615 26C17.5249 26 16.6845 25.1596 16.6845 24.123C16.6845 23.0864 17.5249 22.246 18.5615 22.246C19.5981 22.246 20.4385 23.0864 20.4385 24.123Z" fill="var(--fill-0, #392D2B)"/>
<path d="M24.6096 1.87701C24.6096 2.91365 23.7693 3.75401 22.7326 3.75401C21.696 3.75401 20.8556 2.91365 20.8556 1.87701C20.8556 0.840364 21.696 0 22.7326 0C23.7693 0 24.6096 0.840364 24.6096 1.87701Z" fill="var(--fill-0, #392D2B)"/>
<path d="M24.6096 6.3262C24.6096 7.36284 23.7693 8.20321 22.7326 8.20321C21.696 8.20321 20.8556 7.36284 20.8556 6.3262C20.8556 5.28956 21.696 4.4492 22.7326 4.4492C23.7693 4.4492 24.6096 5.28956 24.6096 6.3262Z" fill="var(--fill-0, #392D2B)"/>
<path d="M24.6096 10.7754C24.6096 11.812 23.7693 12.6524 22.7326 12.6524C21.696 12.6524 20.8556 11.812 20.8556 10.7754C20.8556 9.73876 21.696 8.89839 22.7326 8.89839C23.7693 8.89839 24.6096 9.73876 24.6096 10.7754Z" fill="var(--fill-0, #392D2B)"/>
<path d="M24.6096 15.2246C24.6096 16.2612 23.7693 17.1016 22.7326 17.1016C21.696 17.1016 20.8556 16.2612 20.8556 15.2246C20.8556 14.188 21.696 13.3476 22.7326 13.3476C23.7693 13.3476 24.6096 14.188 24.6096 15.2246Z" fill="var(--fill-0, #392D2B)"/>
<path d="M24.6096 19.6738C24.6096 20.7104 23.7693 21.5508 22.7326 21.5508C21.696 21.5508 20.8556 20.7104 20.8556 19.6738C20.8556 18.6372 21.696 17.7968 22.7326 17.7968C23.7693 17.7968 24.6096 18.6372 24.6096 19.6738Z" fill="var(--fill-0, #392D2B)"/>
<path d="M24.6096 24.123C24.6096 25.1596 23.7693 26 22.7326 26C21.696 26 20.8556 25.1596 20.8556 24.123C20.8556 23.0864 21.696 22.246 22.7326 22.246C23.7693 22.246 24.6096 23.0864 24.6096 24.123Z" fill="var(--fill-0, #392D2B)"/>
<path d="M7.92513 10.7754C7.92513 11.812 7.08477 12.6524 6.04813 12.6524C5.01149 12.6524 4.17112 11.812 4.17112 10.7754C4.17112 9.73876 5.01149 8.89839 6.04813 8.89839C7.08477 8.89839 7.92513 9.73876 7.92513 10.7754Z" stroke="var(--stroke-0, #392D2B)" stroke-width="0.65" mask="url(#path-1-inside-1_0_76)"/>
<path d="M12.0963 6.3262C12.0963 7.36284 11.2559 8.20321 10.2192 8.20321C9.18261 8.20321 8.34225 7.36284 8.34225 6.3262C8.34225 5.28956 9.18261 4.4492 10.2192 4.4492C11.2559 4.4492 12.0963 5.28956 12.0963 6.3262Z" stroke="var(--stroke-0, #392D2B)" stroke-width="0.65" mask="url(#path-1-inside-1_0_76)"/>
<path d="M3.75401 24.123C3.75401 25.1596 2.91365 26 1.87701 26C0.840364 26 0 25.1596 0 24.123C0 23.0864 0.840364 22.246 1.87701 22.246C2.91365 22.246 3.75401 23.0864 3.75401 24.123Z" stroke="var(--stroke-0, #392D2B)" stroke-width="0.65" mask="url(#path-1-inside-1_0_76)"/>
<path d="M12.0963 10.7754C12.0963 11.812 11.2559 12.6524 10.2192 12.6524C9.18261 12.6524 8.34225 11.812 8.34225 10.7754C8.34225 9.73876 9.18261 8.89839 10.2192 8.89839C11.2559 8.89839 12.0963 9.73876 12.0963 10.7754Z" stroke="var(--stroke-0, #392D2B)" stroke-width="0.65" mask="url(#path-1-inside-1_0_76)"/>
<path d="M16.2674 10.7754C16.2674 11.812 15.427 12.6524 14.3904 12.6524C13.3537 12.6524 12.5134 11.812 12.5134 10.7754C12.5134 9.73876 13.3537 8.89839 14.3904 8.89839C15.427 8.89839 16.2674 9.73876 16.2674 10.7754Z" stroke="var(--stroke-0, #392D2B)" stroke-width="0.65" mask="url(#path-1-inside-1_0_76)"/>
<path d="M16.2674 6.3262C16.2674 7.36284 15.427 8.20321 14.3904 8.20321C13.3537 8.20321 12.5134 7.36284 12.5134 6.3262C12.5134 5.28956 13.3537 4.4492 14.3904 4.4492C15.427 4.4492 16.2674 5.28956 16.2674 6.3262Z" stroke="var(--stroke-0, #392D2B)" stroke-width="0.65" mask="url(#path-1-inside-1_0_76)"/>
<path d="M16.2674 15.2246C16.2674 16.2612 15.427 17.1016 14.3904 17.1016C13.3537 17.1016 12.5134 16.2612 12.5134 15.2246C12.5134 14.188 13.3537 13.3476 14.3904 13.3476C15.427 13.3476 16.2674 14.188 16.2674 15.2246Z" stroke="var(--stroke-0, #392D2B)" stroke-width="0.65" mask="url(#path-1-inside-1_0_76)"/>
<path d="M16.2674 19.6738C16.2674 20.7104 15.427 21.5508 14.3904 21.5508C13.3537 21.5508 12.5134 20.7104 12.5134 19.6738C12.5134 18.6372 13.3537 17.7968 14.3904 17.7968C15.427 17.7968 16.2674 18.6372 16.2674 19.6738Z" stroke="var(--stroke-0, #392D2B)" stroke-width="0.65" mask="url(#path-1-inside-1_0_76)"/>
<path d="M12.0963 19.6738C12.0963 20.7104 11.2559 21.5508 10.2192 21.5508C9.18261 21.5508 8.34225 20.7104 8.34225 19.6738C8.34225 18.6372 9.18261 17.7968 10.2192 17.7968C11.2559 17.7968 12.0963 18.6372 12.0963 19.6738Z" stroke="var(--stroke-0, #392D2B)" stroke-width="0.65" mask="url(#path-1-inside-1_0_76)"/>
<path d="M7.92513 24.123C7.92513 25.1596 7.08477 26 6.04813 26C5.01149 26 4.17112 25.1596 4.17112 24.123C4.17112 23.0864 5.01149 22.246 6.04813 22.246C7.08477 22.246 7.92513 23.0864 7.92513 24.123Z" stroke="var(--stroke-0, #392D2B)" stroke-width="0.65" mask="url(#path-1-inside-1_0_76)"/>
<path d="M12.0963 24.123C12.0963 25.1596 11.2559 26 10.2192 26C9.18261 26 8.34225 25.1596 8.34225 24.123C8.34225 23.0864 9.18261 22.246 10.2192 22.246C11.2559 22.246 12.0963 23.0864 12.0963 24.123Z" stroke="var(--stroke-0, #392D2B)" stroke-width="0.65" mask="url(#path-1-inside-1_0_76)"/>
<path d="M16.2674 24.123C16.2674 25.1596 15.427 26 14.3904 26C13.3537 26 12.5134 25.1596 12.5134 24.123C12.5134 23.0864 13.3537 22.246 14.3904 22.246C15.427 22.246 16.2674 23.0864 16.2674 24.123Z" stroke="var(--stroke-0, #392D2B)" stroke-width="0.65" mask="url(#path-1-inside-1_0_76)"/>
<path d="M20.4385 10.7754C20.4385 11.812 19.5981 12.6524 18.5615 12.6524C17.5249 12.6524 16.6845 11.812 16.6845 10.7754C16.6845 9.73876 17.5249 8.89839 18.5615 8.89839C19.5981 8.89839 20.4385 9.73876 20.4385 10.7754Z" stroke="var(--stroke-0, #392D2B)" stroke-width="0.65" mask="url(#path-1-inside-1_0_76)"/>
<path d="M20.4385 15.2246C20.4385 16.2612 19.5981 17.1016 18.5615 17.1016C17.5249 17.1016 16.6845 16.2612 16.6845 15.2246C16.6845 14.188 17.5249 13.3476 18.5615 13.3476C19.5981 13.3476 20.4385 14.188 20.4385 15.2246Z" stroke="var(--stroke-0, #392D2B)" stroke-width="0.65" mask="url(#path-1-inside-1_0_76)"/>
<path d="M20.4385 19.6738C20.4385 20.7104 19.5981 21.5508 18.5615 21.5508C17.5249 21.5508 16.6845 20.7104 16.6845 19.6738C16.6845 18.6372 17.5249 17.7968 18.5615 17.7968C19.5981 17.7968 20.4385 18.6372 20.4385 19.6738Z" stroke="var(--stroke-0, #392D2B)" stroke-width="0.65" mask="url(#path-1-inside-1_0_76)"/>
<path d="M20.4385 24.123C20.4385 25.1596 19.5981 26 18.5615 26C17.5249 26 16.6845 25.1596 16.6845 24.123C16.6845 23.0864 17.5249 22.246 18.5615 22.246C19.5981 22.246 20.4385 23.0864 20.4385 24.123Z" stroke="var(--stroke-0, #392D2B)" stroke-width="0.65" mask="url(#path-1-inside-1_0_76)"/>
<path d="M24.6096 1.87701C24.6096 2.91365 23.7693 3.75401 22.7326 3.75401C21.696 3.75401 20.8556 2.91365 20.8556 1.87701C20.8556 0.840364 21.696 0 22.7326 0C23.7693 0 24.6096 0.840364 24.6096 1.87701Z" stroke="var(--stroke-0, #392D2B)" stroke-width="0.65" mask="url(#path-1-inside-1_0_76)"/>
<path d="M24.6096 6.3262C24.6096 7.36284 23.7693 8.20321 22.7326 8.20321C21.696 8.20321 20.8556 7.36284 20.8556 6.3262C20.8556 5.28956 21.696 4.4492 22.7326 4.4492C23.7693 4.4492 24.6096 5.28956 24.6096 6.3262Z" stroke="var(--stroke-0, #392D2B)" stroke-width="0.65" mask="url(#path-1-inside-1_0_76)"/>
<path d="M24.6096 10.7754C24.6096 11.812 23.7693 12.6524 22.7326 12.6524C21.696 12.6524 20.8556 11.812 20.8556 10.7754C20.8556 9.73876 21.696 8.89839 22.7326 8.89839C23.7693 8.89839 24.6096 9.73876 24.6096 10.7754Z" stroke="var(--stroke-0, #392D2B)" stroke-width="0.65" mask="url(#path-1-inside-1_0_76)"/>
<path d="M24.6096 15.2246C24.6096 16.2612 23.7693 17.1016 22.7326 17.1016C21.696 17.1016 20.8556 16.2612 20.8556 15.2246C20.8556 14.188 21.696 13.3476 22.7326 13.3476C23.7693 13.3476 24.6096 14.188 24.6096 15.2246Z" stroke="var(--stroke-0, #392D2B)" stroke-width="0.65" mask="url(#path-1-inside-1_0_76)"/>
<path d="M24.6096 19.6738C24.6096 20.7104 23.7693 21.5508 22.7326 21.5508C21.696 21.5508 20.8556 20.7104 20.8556 19.6738C20.8556 18.6372 21.696 17.7968 22.7326 17.7968C23.7693 17.7968 24.6096 18.6372 24.6096 19.6738Z" stroke="var(--stroke-0, #392D2B)" stroke-width="0.65" mask="url(#path-1-inside-1_0_76)"/>
<path d="M24.6096 24.123C24.6096 25.1596 23.7693 26 22.7326 26C21.696 26 20.8556 25.1596 20.8556 24.123C20.8556 23.0864 21.696 22.246 22.7326 22.246C23.7693 22.246 24.6096 23.0864 24.6096 24.123Z" stroke="var(--stroke-0, #392D2B)" stroke-width="0.65" mask="url(#path-1-inside-1_0_76)"/>
</g>
</svg>
