<svg preserveAspectRatio="none" width="100%" height="100%" overflow="visible" style="display: block;" viewBox="0 0 99.6898 26" fill="none" xmlns="http://www.w3.org/2000/svg">
<g id="right texture nav">
<mask id="path-1-inside-1_0_73" fill="white">
<path d="M39.4171 3.75401C40.4538 3.75401 41.2941 2.91365 41.2941 1.87701C41.2941 0.840364 40.4538 0 39.4171 0C38.3805 0 37.5401 0.840364 37.5401 1.87701C37.5401 2.91365 38.3805 3.75401 39.4171 3.75401Z"/>
<path d="M43.5882 3.75401C44.6249 3.75401 45.4652 2.91365 45.4652 1.87701C45.4652 0.840364 44.6249 0 43.5882 0C42.5516 0 41.7112 0.840364 41.7112 1.87701C41.7112 2.91365 42.5516 3.75401 43.5882 3.75401Z"/>
<path d="M47.7594 3.75401C48.796 3.75401 49.6364 2.91365 49.6364 1.87701C49.6364 0.840364 48.796 0 47.7594 0C46.7227 0 45.8824 0.840364 45.8824 1.87701C45.8824 2.91365 46.7227 3.75401 47.7594 3.75401Z"/>
<path d="M64.4439 3.75401C65.4805 3.75401 66.3209 2.91365 66.3209 1.87701C66.3209 0.840364 65.4805 0 64.4439 0C63.4072 0 62.5668 0.840364 62.5668 1.87701C62.5668 2.91365 63.4072 3.75401 64.4439 3.75401Z"/>
<path d="M68.615 3.75401C69.6516 3.75401 70.492 2.91365 70.492 1.87701C70.492 0.840364 69.6516 0 68.615 0C67.5783 0 66.738 0.840364 66.738 1.87701C66.738 2.91365 67.5783 3.75401 68.615 3.75401Z"/>
<path d="M72.7861 3.75401C73.8227 3.75401 74.6631 2.91365 74.6631 1.87701C74.6631 0.840364 73.8227 0 72.7861 0C71.7495 0 70.9091 0.840364 70.9091 1.87701C70.9091 2.91365 71.7495 3.75401 72.7861 3.75401Z"/>
<path d="M76.9572 3.75401C77.9939 3.75401 78.8342 2.91365 78.8342 1.87701C78.8342 0.840364 77.9939 0 76.9572 0C75.9206 0 75.0802 0.840364 75.0802 1.87701C75.0802 2.91365 75.9206 3.75401 76.9572 3.75401Z"/>
<path d="M81.1283 3.75401C82.165 3.75401 83.0054 2.91365 83.0054 1.87701C83.0054 0.840364 82.165 0 81.1283 0C80.0917 0 79.2513 0.840364 79.2513 1.87701C79.2513 2.91365 80.0917 3.75401 81.1283 3.75401Z"/>
<path d="M85.2995 3.75401C86.3361 3.75401 87.1765 2.91365 87.1765 1.87701C87.1765 0.840364 86.3361 0 85.2995 0C84.2628 0 83.4225 0.840364 83.4225 1.87701C83.4225 2.91365 84.2628 3.75401 85.2995 3.75401Z"/>
<path d="M89.4706 3.75401C90.5072 3.75401 91.3476 2.91365 91.3476 1.87701C91.3476 0.840364 90.5072 0 89.4706 0C88.434 0 87.5936 0.840364 87.5936 1.87701C87.5936 2.91365 88.434 3.75401 89.4706 3.75401Z"/>
<path d="M93.6417 3.75401C94.6784 3.75401 95.5187 2.91365 95.5187 1.87701C95.5187 0.840364 94.6784 0 93.6417 0C92.6051 0 91.7647 0.840364 91.7647 1.87701C91.7647 2.91365 92.6051 3.75401 93.6417 3.75401Z"/>
<path d="M97.8128 3.75401C98.8495 3.75401 99.6898 2.91365 99.6898 1.87701C99.6898 0.840364 98.8495 0 97.8128 0C96.7762 0 95.9358 0.840364 95.9358 1.87701C95.9358 2.91365 96.7762 3.75401 97.8128 3.75401Z"/>
<path d="M1.87701 8.20321C2.91365 8.20321 3.75401 7.36284 3.75401 6.3262C3.75401 5.28956 2.91365 4.4492 1.87701 4.4492C0.840364 4.4492 0 5.28956 0 6.3262C0 7.36284 0.840364 8.20321 1.87701 8.20321Z"/>
<path d="M6.04813 8.20321C7.08477 8.20321 7.92513 7.36284 7.92513 6.3262C7.92513 5.28956 7.08477 4.4492 6.04813 4.4492C5.01149 4.4492 4.17112 5.28956 4.17112 6.3262C4.17112 7.36284 5.01149 8.20321 6.04813 8.20321Z"/>
<path d="M10.2193 8.20321C11.2559 8.20321 12.0963 7.36284 12.0963 6.3262C12.0963 5.28956 11.2559 4.4492 10.2193 4.4492C9.18261 4.4492 8.34225 5.28956 8.34225 6.3262C8.34225 7.36284 9.18261 8.20321 10.2193 8.20321Z"/>
<path d="M26.9037 8.20321C27.9404 8.20321 28.7808 7.36284 28.7808 6.3262C28.7808 5.28956 27.9404 4.4492 26.9037 4.4492C25.8671 4.4492 25.0267 5.28956 25.0267 6.3262C25.0267 7.36284 25.8671 8.20321 26.9037 8.20321Z"/>
<path d="M31.0749 8.20321C32.1115 8.20321 32.9519 7.36284 32.9519 6.3262C32.9519 5.28956 32.1115 4.4492 31.0749 4.4492C30.0382 4.4492 29.1979 5.28956 29.1979 6.3262C29.1979 7.36284 30.0382 8.20321 31.0749 8.20321Z"/>
<path d="M39.4171 8.20321C40.4538 8.20321 41.2941 7.36284 41.2941 6.3262C41.2941 5.28956 40.4538 4.4492 39.4171 4.4492C38.3805 4.4492 37.5401 5.28956 37.5401 6.3262C37.5401 7.36284 38.3805 8.20321 39.4171 8.20321Z"/>
<path d="M43.5882 8.20321C44.6249 8.20321 45.4652 7.36284 45.4652 6.3262C45.4652 5.28956 44.6249 4.4492 43.5882 4.4492C42.5516 4.4492 41.7112 5.28956 41.7112 6.3262C41.7112 7.36284 42.5516 8.20321 43.5882 8.20321Z"/>
<path d="M47.7594 8.20321C48.796 8.20321 49.6364 7.36284 49.6364 6.3262C49.6364 5.28956 48.796 4.4492 47.7594 4.4492C46.7227 4.4492 45.8824 5.28956 45.8824 6.3262C45.8824 7.36284 46.7227 8.20321 47.7594 8.20321Z"/>
<path d="M51.9305 8.20321C52.9671 8.20321 53.8075 7.36284 53.8075 6.3262C53.8075 5.28956 52.9671 4.4492 51.9305 4.4492C50.8938 4.4492 50.0535 5.28956 50.0535 6.3262C50.0535 7.36284 50.8938 8.20321 51.9305 8.20321Z"/>
<path d="M60.2727 8.20321C61.3094 8.20321 62.1497 7.36284 62.1497 6.3262C62.1497 5.28956 61.3094 4.4492 60.2727 4.4492C59.2361 4.4492 58.3957 5.28956 58.3957 6.3262C58.3957 7.36284 59.2361 8.20321 60.2727 8.20321Z"/>
<path d="M64.4439 8.20321C65.4805 8.20321 66.3209 7.36284 66.3209 6.3262C66.3209 5.28956 65.4805 4.4492 64.4439 4.4492C63.4072 4.4492 62.5668 5.28956 62.5668 6.3262C62.5668 7.36284 63.4072 8.20321 64.4439 8.20321Z"/>
<path d="M68.615 8.20321C69.6516 8.20321 70.492 7.36284 70.492 6.3262C70.492 5.28956 69.6516 4.4492 68.615 4.4492C67.5783 4.4492 66.738 5.28956 66.738 6.3262C66.738 7.36284 67.5783 8.20321 68.615 8.20321Z"/>
<path d="M72.7861 8.20321C73.8227 8.20321 74.6631 7.36284 74.6631 6.3262C74.6631 5.28956 73.8227 4.4492 72.7861 4.4492C71.7495 4.4492 70.9091 5.28956 70.9091 6.3262C70.9091 7.36284 71.7495 8.20321 72.7861 8.20321Z"/>
<path d="M76.9572 8.20321C77.9939 8.20321 78.8342 7.36284 78.8342 6.3262C78.8342 5.28956 77.9939 4.4492 76.9572 4.4492C75.9206 4.4492 75.0802 5.28956 75.0802 6.3262C75.0802 7.36284 75.9206 8.20321 76.9572 8.20321Z"/>
<path d="M81.1283 8.20321C82.165 8.20321 83.0054 7.36284 83.0054 6.3262C83.0054 5.28956 82.165 4.4492 81.1283 4.4492C80.0917 4.4492 79.2513 5.28956 79.2513 6.3262C79.2513 7.36284 80.0917 8.20321 81.1283 8.20321Z"/>
<path d="M85.2995 8.20321C86.3361 8.20321 87.1765 7.36284 87.1765 6.3262C87.1765 5.28956 86.3361 4.4492 85.2995 4.4492C84.2628 4.4492 83.4225 5.28956 83.4225 6.3262C83.4225 7.36284 84.2628 8.20321 85.2995 8.20321Z"/>
<path d="M89.4706 8.20321C90.5072 8.20321 91.3476 7.36284 91.3476 6.3262C91.3476 5.28956 90.5072 4.4492 89.4706 4.4492C88.434 4.4492 87.5936 5.28956 87.5936 6.3262C87.5936 7.36284 88.434 8.20321 89.4706 8.20321Z"/>
<path d="M93.6417 8.20321C94.6784 8.20321 95.5187 7.36284 95.5187 6.3262C95.5187 5.28956 94.6784 4.4492 93.6417 4.4492C92.6051 4.4492 91.7647 5.28956 91.7647 6.3262C91.7647 7.36284 92.6051 8.20321 93.6417 8.20321Z"/>
<path d="M97.8128 8.20321C98.8495 8.20321 99.6898 7.36284 99.6898 6.3262C99.6898 5.28956 98.8495 4.4492 97.8128 4.4492C96.7762 4.4492 95.9358 5.28956 95.9358 6.3262C95.9358 7.36284 96.7762 8.20321 97.8128 8.20321Z"/>
<path d="M1.87701 12.6524C2.91365 12.6524 3.75401 11.812 3.75401 10.7754C3.75401 9.73876 2.91365 8.8984 1.87701 8.8984C0.840364 8.8984 0 9.73876 0 10.7754C0 11.812 0.840364 12.6524 1.87701 12.6524Z"/>
<path d="M6.04813 12.6524C7.08477 12.6524 7.92513 11.812 7.92513 10.7754C7.92513 9.73876 7.08477 8.8984 6.04813 8.8984C5.01149 8.8984 4.17112 9.73876 4.17112 10.7754C4.17112 11.812 5.01149 12.6524 6.04813 12.6524Z"/>
<path d="M10.2193 12.6524C11.2559 12.6524 12.0963 11.812 12.0963 10.7754C12.0963 9.73876 11.2559 8.8984 10.2193 8.8984C9.18261 8.8984 8.34225 9.73876 8.34225 10.7754C8.34225 11.812 9.18261 12.6524 10.2193 12.6524Z"/>
<path d="M22.7326 12.6524C23.7693 12.6524 24.6096 11.812 24.6096 10.7754C24.6096 9.73876 23.7693 8.8984 22.7326 8.8984C21.696 8.8984 20.8556 9.73876 20.8556 10.7754C20.8556 11.812 21.696 12.6524 22.7326 12.6524Z"/>
<path d="M26.9037 12.6524C27.9404 12.6524 28.7808 11.812 28.7808 10.7754C28.7808 9.73876 27.9404 8.8984 26.9037 8.8984C25.8671 8.8984 25.0267 9.73876 25.0267 10.7754C25.0267 11.812 25.8671 12.6524 26.9037 12.6524Z"/>
<path d="M31.0749 12.6524C32.1115 12.6524 32.9519 11.812 32.9519 10.7754C32.9519 9.73876 32.1115 8.8984 31.0749 8.8984C30.0382 8.8984 29.1979 9.73876 29.1979 10.7754C29.1979 11.812 30.0382 12.6524 31.0749 12.6524Z"/>
<path d="M35.246 12.6524C36.2826 12.6524 37.123 11.812 37.123 10.7754C37.123 9.73876 36.2826 8.8984 35.246 8.8984C34.2093 8.8984 33.369 9.73876 33.369 10.7754C33.369 11.812 34.2093 12.6524 35.246 12.6524Z"/>
<path d="M39.4171 12.6524C40.4538 12.6524 41.2941 11.812 41.2941 10.7754C41.2941 9.73876 40.4538 8.8984 39.4171 8.8984C38.3805 8.8984 37.5401 9.73876 37.5401 10.7754C37.5401 11.812 38.3805 12.6524 39.4171 12.6524Z"/>
<path d="M43.5882 12.6524C44.6249 12.6524 45.4652 11.812 45.4652 10.7754C45.4652 9.73876 44.6249 8.8984 43.5882 8.8984C42.5516 8.8984 41.7112 9.73876 41.7112 10.7754C41.7112 11.812 42.5516 12.6524 43.5882 12.6524Z"/>
<path d="M47.7594 12.6524C48.796 12.6524 49.6364 11.812 49.6364 10.7754C49.6364 9.73876 48.796 8.8984 47.7594 8.8984C46.7227 8.8984 45.8824 9.73876 45.8824 10.7754C45.8824 11.812 46.7227 12.6524 47.7594 12.6524Z"/>
<path d="M51.9305 12.6524C52.9671 12.6524 53.8075 11.812 53.8075 10.7754C53.8075 9.73876 52.9671 8.8984 51.9305 8.8984C50.8938 8.8984 50.0535 9.73876 50.0535 10.7754C50.0535 11.812 50.8938 12.6524 51.9305 12.6524Z"/>
<path d="M56.1016 12.6524C57.1382 12.6524 57.9786 11.812 57.9786 10.7754C57.9786 9.73876 57.1382 8.8984 56.1016 8.8984C55.065 8.8984 54.2246 9.73876 54.2246 10.7754C54.2246 11.812 55.065 12.6524 56.1016 12.6524Z"/>
<path d="M60.2727 12.6524C61.3094 12.6524 62.1497 11.812 62.1497 10.7754C62.1497 9.73876 61.3094 8.8984 60.2727 8.8984C59.2361 8.8984 58.3957 9.73876 58.3957 10.7754C58.3957 11.812 59.2361 12.6524 60.2727 12.6524Z"/>
<path d="M64.4439 12.6524C65.4805 12.6524 66.3209 11.812 66.3209 10.7754C66.3209 9.73876 65.4805 8.8984 64.4439 8.8984C63.4072 8.8984 62.5668 9.73876 62.5668 10.7754C62.5668 11.812 63.4072 12.6524 64.4439 12.6524Z"/>
<path d="M68.615 12.6524C69.6516 12.6524 70.492 11.812 70.492 10.7754C70.492 9.73876 69.6516 8.8984 68.615 8.8984C67.5783 8.8984 66.738 9.73876 66.738 10.7754C66.738 11.812 67.5783 12.6524 68.615 12.6524Z"/>
<path d="M72.7861 12.6524C73.8227 12.6524 74.6631 11.812 74.6631 10.7754C74.6631 9.73876 73.8227 8.8984 72.7861 8.8984C71.7495 8.8984 70.9091 9.73876 70.9091 10.7754C70.9091 11.812 71.7495 12.6524 72.7861 12.6524Z"/>
<path d="M76.9572 12.6524C77.9939 12.6524 78.8342 11.812 78.8342 10.7754C78.8342 9.73876 77.9939 8.8984 76.9572 8.8984C75.9206 8.8984 75.0802 9.73876 75.0802 10.7754C75.0802 11.812 75.9206 12.6524 76.9572 12.6524Z"/>
<path d="M81.1283 12.6524C82.165 12.6524 83.0054 11.812 83.0054 10.7754C83.0054 9.73876 82.165 8.8984 81.1283 8.8984C80.0917 8.8984 79.2513 9.73876 79.2513 10.7754C79.2513 11.812 80.0917 12.6524 81.1283 12.6524Z"/>
<path d="M85.2995 12.6524C86.3361 12.6524 87.1765 11.812 87.1765 10.7754C87.1765 9.73876 86.3361 8.8984 85.2995 8.8984C84.2628 8.8984 83.4225 9.73876 83.4225 10.7754C83.4225 11.812 84.2628 12.6524 85.2995 12.6524Z"/>
<path d="M89.4706 12.6524C90.5072 12.6524 91.3476 11.812 91.3476 10.7754C91.3476 9.73876 90.5072 8.8984 89.4706 8.8984C88.434 8.8984 87.5936 9.73876 87.5936 10.7754C87.5936 11.812 88.434 12.6524 89.4706 12.6524Z"/>
<path d="M93.6417 12.6524C94.6784 12.6524 95.5187 11.812 95.5187 10.7754C95.5187 9.73876 94.6784 8.8984 93.6417 8.8984C92.6051 8.8984 91.7647 9.73876 91.7647 10.7754C91.7647 11.812 92.6051 12.6524 93.6417 12.6524Z"/>
<path d="M97.8128 12.6524C98.8495 12.6524 99.6898 11.812 99.6898 10.7754C99.6898 9.73876 98.8495 8.8984 97.8128 8.8984C96.7762 8.8984 95.9358 9.73876 95.9358 10.7754C95.9358 11.812 96.7762 12.6524 97.8128 12.6524Z"/>
<path d="M1.87701 17.1016C2.91365 17.1016 3.75401 16.2612 3.75401 15.2246C3.75401 14.188 2.91365 13.3476 1.87701 13.3476C0.840364 13.3476 0 14.188 0 15.2246C0 16.2612 0.840364 17.1016 1.87701 17.1016Z"/>
<path d="M6.04813 17.1016C7.08477 17.1016 7.92513 16.2612 7.92513 15.2246C7.92513 14.188 7.08477 13.3476 6.04813 13.3476C5.01149 13.3476 4.17112 14.188 4.17112 15.2246C4.17112 16.2612 5.01149 17.1016 6.04813 17.1016Z"/>
<path d="M10.2193 17.1016C11.2559 17.1016 12.0963 16.2612 12.0963 15.2246C12.0963 14.188 11.2559 13.3476 10.2193 13.3476C9.18261 13.3476 8.34225 14.188 8.34225 15.2246C8.34225 16.2612 9.18261 17.1016 10.2193 17.1016Z"/>
<path d="M14.3904 17.1016C15.427 17.1016 16.2674 16.2612 16.2674 15.2246C16.2674 14.188 15.427 13.3476 14.3904 13.3476C13.3537 13.3476 12.5134 14.188 12.5134 15.2246C12.5134 16.2612 13.3537 17.1016 14.3904 17.1016Z"/>
<path d="M31.0749 17.1016C32.1115 17.1016 32.9519 16.2612 32.9519 15.2246C32.9519 14.188 32.1115 13.3476 31.0749 13.3476C30.0382 13.3476 29.1979 14.188 29.1979 15.2246C29.1979 16.2612 30.0382 17.1016 31.0749 17.1016Z"/>
<path d="M35.246 17.1016C36.2826 17.1016 37.123 16.2612 37.123 15.2246C37.123 14.188 36.2826 13.3476 35.246 13.3476C34.2093 13.3476 33.369 14.188 33.369 15.2246C33.369 16.2612 34.2093 17.1016 35.246 17.1016Z"/>
<path d="M39.4171 17.1016C40.4538 17.1016 41.2941 16.2612 41.2941 15.2246C41.2941 14.188 40.4538 13.3476 39.4171 13.3476C38.3805 13.3476 37.5401 14.188 37.5401 15.2246C37.5401 16.2612 38.3805 17.1016 39.4171 17.1016Z"/>
<path d="M43.5882 17.1016C44.6249 17.1016 45.4652 16.2612 45.4652 15.2246C45.4652 14.188 44.6249 13.3476 43.5882 13.3476C42.5516 13.3476 41.7112 14.188 41.7112 15.2246C41.7112 16.2612 42.5516 17.1016 43.5882 17.1016Z"/>
<path d="M47.7594 17.1016C48.796 17.1016 49.6364 16.2612 49.6364 15.2246C49.6364 14.188 48.796 13.3476 47.7594 13.3476C46.7227 13.3476 45.8824 14.188 45.8824 15.2246C45.8824 16.2612 46.7227 17.1016 47.7594 17.1016Z"/>
<path d="M51.9305 17.1016C52.9671 17.1016 53.8075 16.2612 53.8075 15.2246C53.8075 14.188 52.9671 13.3476 51.9305 13.3476C50.8938 13.3476 50.0535 14.188 50.0535 15.2246C50.0535 16.2612 50.8938 17.1016 51.9305 17.1016Z"/>
<path d="M56.1016 17.1016C57.1382 17.1016 57.9786 16.2612 57.9786 15.2246C57.9786 14.188 57.1382 13.3476 56.1016 13.3476C55.065 13.3476 54.2246 14.188 54.2246 15.2246C54.2246 16.2612 55.065 17.1016 56.1016 17.1016Z"/>
<path d="M64.4439 17.1016C65.4805 17.1016 66.3209 16.2612 66.3209 15.2246C66.3209 14.188 65.4805 13.3476 64.4439 13.3476C63.4072 13.3476 62.5668 14.188 62.5668 15.2246C62.5668 16.2612 63.4072 17.1016 64.4439 17.1016Z"/>
<path d="M68.615 17.1016C69.6516 17.1016 70.492 16.2612 70.492 15.2246C70.492 14.188 69.6516 13.3476 68.615 13.3476C67.5783 13.3476 66.738 14.188 66.738 15.2246C66.738 16.2612 67.5783 17.1016 68.615 17.1016Z"/>
<path d="M72.7861 17.1016C73.8227 17.1016 74.6631 16.2612 74.6631 15.2246C74.6631 14.188 73.8227 13.3476 72.7861 13.3476C71.7495 13.3476 70.9091 14.188 70.9091 15.2246C70.9091 16.2612 71.7495 17.1016 72.7861 17.1016Z"/>
<path d="M76.9572 17.1016C77.9939 17.1016 78.8342 16.2612 78.8342 15.2246C78.8342 14.188 77.9939 13.3476 76.9572 13.3476C75.9206 13.3476 75.0802 14.188 75.0802 15.2246C75.0802 16.2612 75.9206 17.1016 76.9572 17.1016Z"/>
<path d="M81.1283 17.1016C82.165 17.1016 83.0054 16.2612 83.0054 15.2246C83.0054 14.188 82.165 13.3476 81.1283 13.3476C80.0917 13.3476 79.2513 14.188 79.2513 15.2246C79.2513 16.2612 80.0917 17.1016 81.1283 17.1016Z"/>
<path d="M85.2995 17.1016C86.3361 17.1016 87.1765 16.2612 87.1765 15.2246C87.1765 14.188 86.3361 13.3476 85.2995 13.3476C84.2628 13.3476 83.4225 14.188 83.4225 15.2246C83.4225 16.2612 84.2628 17.1016 85.2995 17.1016Z"/>
<path d="M89.4706 17.1016C90.5072 17.1016 91.3476 16.2612 91.3476 15.2246C91.3476 14.188 90.5072 13.3476 89.4706 13.3476C88.434 13.3476 87.5936 14.188 87.5936 15.2246C87.5936 16.2612 88.434 17.1016 89.4706 17.1016Z"/>
<path d="M93.6417 17.1016C94.6784 17.1016 95.5187 16.2612 95.5187 15.2246C95.5187 14.188 94.6784 13.3476 93.6417 13.3476C92.6051 13.3476 91.7647 14.188 91.7647 15.2246C91.7647 16.2612 92.6051 17.1016 93.6417 17.1016Z"/>
<path d="M1.87701 21.5508C2.91365 21.5508 3.75401 20.7104 3.75401 19.6738C3.75401 18.6372 2.91365 17.7968 1.87701 17.7968C0.840364 17.7968 0 18.6372 0 19.6738C0 20.7104 0.840364 21.5508 1.87701 21.5508Z"/>
<path d="M6.04813 21.5508C7.08477 21.5508 7.92513 20.7104 7.92513 19.6738C7.92513 18.6372 7.08477 17.7968 6.04813 17.7968C5.01149 17.7968 4.17112 18.6372 4.17112 19.6738C4.17112 20.7104 5.01149 21.5508 6.04813 21.5508Z"/>
<path d="M10.2193 21.5508C11.2559 21.5508 12.0963 20.7104 12.0963 19.6738C12.0963 18.6372 11.2559 17.7968 10.2193 17.7968C9.18261 17.7968 8.34225 18.6372 8.34225 19.6738C8.34225 20.7104 9.18261 21.5508 10.2193 21.5508Z"/>
<path d="M14.3904 21.5508C15.427 21.5508 16.2674 20.7104 16.2674 19.6738C16.2674 18.6372 15.427 17.7968 14.3904 17.7968C13.3537 17.7968 12.5134 18.6372 12.5134 19.6738C12.5134 20.7104 13.3537 21.5508 14.3904 21.5508Z"/>
<path d="M26.9037 21.5508C27.9404 21.5508 28.7808 20.7104 28.7808 19.6738C28.7808 18.6372 27.9404 17.7968 26.9037 17.7968C25.8671 17.7968 25.0267 18.6372 25.0267 19.6738C25.0267 20.7104 25.8671 21.5508 26.9037 21.5508Z"/>
<path d="M31.0749 21.5508C32.1115 21.5508 32.9519 20.7104 32.9519 19.6738C32.9519 18.6372 32.1115 17.7968 31.0749 17.7968C30.0382 17.7968 29.1979 18.6372 29.1979 19.6738C29.1979 20.7104 30.0382 21.5508 31.0749 21.5508Z"/>
<path d="M35.246 21.5508C36.2826 21.5508 37.123 20.7104 37.123 19.6738C37.123 18.6372 36.2826 17.7968 35.246 17.7968C34.2093 17.7968 33.369 18.6372 33.369 19.6738C33.369 20.7104 34.2093 21.5508 35.246 21.5508Z"/>
<path d="M39.4171 21.5508C40.4538 21.5508 41.2941 20.7104 41.2941 19.6738C41.2941 18.6372 40.4538 17.7968 39.4171 17.7968C38.3805 17.7968 37.5401 18.6372 37.5401 19.6738C37.5401 20.7104 38.3805 21.5508 39.4171 21.5508Z"/>
<path d="M43.5882 21.5508C44.6249 21.5508 45.4652 20.7104 45.4652 19.6738C45.4652 18.6372 44.6249 17.7968 43.5882 17.7968C42.5516 17.7968 41.7112 18.6372 41.7112 19.6738C41.7112 20.7104 42.5516 21.5508 43.5882 21.5508Z"/>
<path d="M47.7594 21.5508C48.796 21.5508 49.6364 20.7104 49.6364 19.6738C49.6364 18.6372 48.796 17.7968 47.7594 17.7968C46.7227 17.7968 45.8824 18.6372 45.8824 19.6738C45.8824 20.7104 46.7227 21.5508 47.7594 21.5508Z"/>
<path d="M56.1016 21.5508C57.1382 21.5508 57.9786 20.7104 57.9786 19.6738C57.9786 18.6372 57.1382 17.7968 56.1016 17.7968C55.065 17.7968 54.2246 18.6372 54.2246 19.6738C54.2246 20.7104 55.065 21.5508 56.1016 21.5508Z"/>
<path d="M60.2727 21.5508C61.3094 21.5508 62.1497 20.7104 62.1497 19.6738C62.1497 18.6372 61.3094 17.7968 60.2727 17.7968C59.2361 17.7968 58.3957 18.6372 58.3957 19.6738C58.3957 20.7104 59.2361 21.5508 60.2727 21.5508Z"/>
<path d="M64.4439 21.5508C65.4805 21.5508 66.3209 20.7104 66.3209 19.6738C66.3209 18.6372 65.4805 17.7968 64.4439 17.7968C63.4072 17.7968 62.5668 18.6372 62.5668 19.6738C62.5668 20.7104 63.4072 21.5508 64.4439 21.5508Z"/>
<path d="M68.615 21.5508C69.6516 21.5508 70.492 20.7104 70.492 19.6738C70.492 18.6372 69.6516 17.7968 68.615 17.7968C67.5783 17.7968 66.738 18.6372 66.738 19.6738C66.738 20.7104 67.5783 21.5508 68.615 21.5508Z"/>
<path d="M72.7861 21.5508C73.8227 21.5508 74.6631 20.7104 74.6631 19.6738C74.6631 18.6372 73.8227 17.7968 72.7861 17.7968C71.7495 17.7968 70.9091 18.6372 70.9091 19.6738C70.9091 20.7104 71.7495 21.5508 72.7861 21.5508Z"/>
<path d="M76.9572 21.5508C77.9939 21.5508 78.8342 20.7104 78.8342 19.6738C78.8342 18.6372 77.9939 17.7968 76.9572 17.7968C75.9206 17.7968 75.0802 18.6372 75.0802 19.6738C75.0802 20.7104 75.9206 21.5508 76.9572 21.5508Z"/>
<path d="M81.1283 21.5508C82.165 21.5508 83.0054 20.7104 83.0054 19.6738C83.0054 18.6372 82.165 17.7968 81.1283 17.7968C80.0917 17.7968 79.2513 18.6372 79.2513 19.6738C79.2513 20.7104 80.0917 21.5508 81.1283 21.5508Z"/>
<path d="M85.2995 21.5508C86.3361 21.5508 87.1765 20.7104 87.1765 19.6738C87.1765 18.6372 86.3361 17.7968 85.2995 17.7968C84.2628 17.7968 83.4225 18.6372 83.4225 19.6738C83.4225 20.7104 84.2628 21.5508 85.2995 21.5508Z"/>
<path d="M1.87701 26C2.91365 26 3.75401 25.1596 3.75401 24.123C3.75401 23.0864 2.91365 22.246 1.87701 22.246C0.840364 22.246 0 23.0864 0 24.123C0 25.1596 0.840364 26 1.87701 26Z"/>
<path d="M18.5615 26C19.5981 26 20.4385 25.1596 20.4385 24.123C20.4385 23.0864 19.5981 22.246 18.5615 22.246C17.5249 22.246 16.6845 23.0864 16.6845 24.123C16.6845 25.1596 17.5249 26 18.5615 26Z"/>
<path d="M22.7326 26C23.7693 26 24.6096 25.1596 24.6096 24.123C24.6096 23.0864 23.7693 22.246 22.7326 22.246C21.696 22.246 20.8556 23.0864 20.8556 24.123C20.8556 25.1596 21.696 26 22.7326 26Z"/>
<path d="M26.9037 26C27.9404 26 28.7808 25.1596 28.7808 24.123C28.7808 23.0864 27.9404 22.246 26.9037 22.246C25.8671 22.246 25.0267 23.0864 25.0267 24.123C25.0267 25.1596 25.8671 26 26.9037 26Z"/>
<path d="M31.0749 26C32.1115 26 32.9519 25.1596 32.9519 24.123C32.9519 23.0864 32.1115 22.246 31.0749 22.246C30.0382 22.246 29.1979 23.0864 29.1979 24.123C29.1979 25.1596 30.0382 26 31.0749 26Z"/>
<path d="M35.246 26C36.2826 26 37.123 25.1596 37.123 24.123C37.123 23.0864 36.2826 22.246 35.246 22.246C34.2093 22.246 33.369 23.0864 33.369 24.123C33.369 25.1596 34.2093 26 35.246 26Z"/>
<path d="M39.4171 26C40.4538 26 41.2941 25.1596 41.2941 24.123C41.2941 23.0864 40.4538 22.246 39.4171 22.246C38.3805 22.246 37.5401 23.0864 37.5401 24.123C37.5401 25.1596 38.3805 26 39.4171 26Z"/>
<path d="M43.5882 26C44.6249 26 45.4652 25.1596 45.4652 24.123C45.4652 23.0864 44.6249 22.246 43.5882 22.246C42.5516 22.246 41.7112 23.0864 41.7112 24.123C41.7112 25.1596 42.5516 26 43.5882 26Z"/>
<path d="M47.7594 26C48.796 26 49.6364 25.1596 49.6364 24.123C49.6364 23.0864 48.796 22.246 47.7594 22.246C46.7227 22.246 45.8824 23.0864 45.8824 24.123C45.8824 25.1596 46.7227 26 47.7594 26Z"/>
<path d="M60.2727 26C61.3094 26 62.1497 25.1596 62.1497 24.123C62.1497 23.0864 61.3094 22.246 60.2727 22.246C59.2361 22.246 58.3957 23.0864 58.3957 24.123C58.3957 25.1596 59.2361 26 60.2727 26Z"/>
<path d="M64.4439 26C65.4805 26 66.3209 25.1596 66.3209 24.123C66.3209 23.0864 65.4805 22.246 64.4439 22.246C63.4072 22.246 62.5668 23.0864 62.5668 24.123C62.5668 25.1596 63.4072 26 64.4439 26Z"/>
<path d="M68.615 26C69.6516 26 70.492 25.1596 70.492 24.123C70.492 23.0864 69.6516 22.246 68.615 22.246C67.5783 22.246 66.738 23.0864 66.738 24.123C66.738 25.1596 67.5783 26 68.615 26Z"/>
<path d="M72.7861 26C73.8227 26 74.6631 25.1596 74.6631 24.123C74.6631 23.0864 73.8227 22.246 72.7861 22.246C71.7495 22.246 70.9091 23.0864 70.9091 24.123C70.9091 25.1596 71.7495 26 72.7861 26Z"/>
<path d="M76.9572 26C77.9939 26 78.8342 25.1596 78.8342 24.123C78.8342 23.0864 77.9939 22.246 76.9572 22.246C75.9206 22.246 75.0802 23.0864 75.0802 24.123C75.0802 25.1596 75.9206 26 76.9572 26Z"/>
<path d="M81.1283 26C82.165 26 83.0054 25.1596 83.0054 24.123C83.0054 23.0864 82.165 22.246 81.1283 22.246C80.0917 22.246 79.2513 23.0864 79.2513 24.123C79.2513 25.1596 80.0917 26 81.1283 26Z"/>
<path d="M85.2995 26C86.3361 26 87.1765 25.1596 87.1765 24.123C87.1765 23.0864 86.3361 22.246 85.2995 22.246C84.2628 22.246 83.4225 23.0864 83.4225 24.123C83.4225 25.1596 84.2628 26 85.2995 26Z"/>
<path d="M89.4706 26C90.5072 26 91.3476 25.1596 91.3476 24.123C91.3476 23.0864 90.5072 22.246 89.4706 22.246C88.434 22.246 87.5936 23.0864 87.5936 24.123C87.5936 25.1596 88.434 26 89.4706 26Z"/>
<path d="M93.6417 26C94.6784 26 95.5187 25.1596 95.5187 24.123C95.5187 23.0864 94.6784 22.246 93.6417 22.246C92.6051 22.246 91.7647 23.0864 91.7647 24.123C91.7647 25.1596 92.6051 26 93.6417 26Z"/>
<path d="M97.8128 26C98.8495 26 99.6898 25.1596 99.6898 24.123C99.6898 23.0864 98.8495 22.246 97.8128 22.246C96.7762 22.246 95.9358 23.0864 95.9358 24.123C95.9358 25.1596 96.7762 26 97.8128 26Z"/>
</mask>
<path d="M39.4171 3.75401C40.4538 3.75401 41.2941 2.91365 41.2941 1.87701C41.2941 0.840364 40.4538 0 39.4171 0C38.3805 0 37.5401 0.840364 37.5401 1.87701C37.5401 2.91365 38.3805 3.75401 39.4171 3.75401Z" fill="var(--fill-0, #392D2B)"/>
<path d="M43.5882 3.75401C44.6249 3.75401 45.4652 2.91365 45.4652 1.87701C45.4652 0.840364 44.6249 0 43.5882 0C42.5516 0 41.7112 0.840364 41.7112 1.87701C41.7112 2.91365 42.5516 3.75401 43.5882 3.75401Z" fill="var(--fill-0, #392D2B)"/>
<path d="M47.7594 3.75401C48.796 3.75401 49.6364 2.91365 49.6364 1.87701C49.6364 0.840364 48.796 0 47.7594 0C46.7227 0 45.8824 0.840364 45.8824 1.87701C45.8824 2.91365 46.7227 3.75401 47.7594 3.75401Z" fill="var(--fill-0, #392D2B)"/>
<path d="M64.4439 3.75401C65.4805 3.75401 66.3209 2.91365 66.3209 1.87701C66.3209 0.840364 65.4805 0 64.4439 0C63.4072 0 62.5668 0.840364 62.5668 1.87701C62.5668 2.91365 63.4072 3.75401 64.4439 3.75401Z" fill="var(--fill-0, #392D2B)"/>
<path d="M68.615 3.75401C69.6516 3.75401 70.492 2.91365 70.492 1.87701C70.492 0.840364 69.6516 0 68.615 0C67.5783 0 66.738 0.840364 66.738 1.87701C66.738 2.91365 67.5783 3.75401 68.615 3.75401Z" fill="var(--fill-0, #392D2B)"/>
<path d="M72.7861 3.75401C73.8227 3.75401 74.6631 2.91365 74.6631 1.87701C74.6631 0.840364 73.8227 0 72.7861 0C71.7495 0 70.9091 0.840364 70.9091 1.87701C70.9091 2.91365 71.7495 3.75401 72.7861 3.75401Z" fill="var(--fill-0, #392D2B)"/>
<path d="M76.9572 3.75401C77.9939 3.75401 78.8342 2.91365 78.8342 1.87701C78.8342 0.840364 77.9939 0 76.9572 0C75.9206 0 75.0802 0.840364 75.0802 1.87701C75.0802 2.91365 75.9206 3.75401 76.9572 3.75401Z" fill="var(--fill-0, #392D2B)"/>
<path d="M81.1283 3.75401C82.165 3.75401 83.0054 2.91365 83.0054 1.87701C83.0054 0.840364 82.165 0 81.1283 0C80.0917 0 79.2513 0.840364 79.2513 1.87701C79.2513 2.91365 80.0917 3.75401 81.1283 3.75401Z" fill="var(--fill-0, #392D2B)"/>
<path d="M85.2995 3.75401C86.3361 3.75401 87.1765 2.91365 87.1765 1.87701C87.1765 0.840364 86.3361 0 85.2995 0C84.2628 0 83.4225 0.840364 83.4225 1.87701C83.4225 2.91365 84.2628 3.75401 85.2995 3.75401Z" fill="var(--fill-0, #392D2B)"/>
<path d="M89.4706 3.75401C90.5072 3.75401 91.3476 2.91365 91.3476 1.87701C91.3476 0.840364 90.5072 0 89.4706 0C88.434 0 87.5936 0.840364 87.5936 1.87701C87.5936 2.91365 88.434 3.75401 89.4706 3.75401Z" fill="var(--fill-0, #392D2B)"/>
<path d="M93.6417 3.75401C94.6784 3.75401 95.5187 2.91365 95.5187 1.87701C95.5187 0.840364 94.6784 0 93.6417 0C92.6051 0 91.7647 0.840364 91.7647 1.87701C91.7647 2.91365 92.6051 3.75401 93.6417 3.75401Z" fill="var(--fill-0, #392D2B)"/>
<path d="M97.8128 3.75401C98.8495 3.75401 99.6898 2.91365 99.6898 1.87701C99.6898 0.840364 98.8495 0 97.8128 0C96.7762 0 95.9358 0.840364 95.9358 1.87701C95.9358 2.91365 96.7762 3.75401 97.8128 3.75401Z" fill="var(--fill-0, #392D2B)"/>
<path d="M1.87701 8.20321C2.91365 8.20321 3.75401 7.36284 3.75401 6.3262C3.75401 5.28956 2.91365 4.4492 1.87701 4.4492C0.840364 4.4492 0 5.28956 0 6.3262C0 7.36284 0.840364 8.20321 1.87701 8.20321Z" fill="var(--fill-0, #392D2B)"/>
<path d="M6.04813 8.20321C7.08477 8.20321 7.92513 7.36284 7.92513 6.3262C7.92513 5.28956 7.08477 4.4492 6.04813 4.4492C5.01149 4.4492 4.17112 5.28956 4.17112 6.3262C4.17112 7.36284 5.01149 8.20321 6.04813 8.20321Z" fill="var(--fill-0, #392D2B)"/>
<path d="M10.2193 8.20321C11.2559 8.20321 12.0963 7.36284 12.0963 6.3262C12.0963 5.28956 11.2559 4.4492 10.2193 4.4492C9.18261 4.4492 8.34225 5.28956 8.34225 6.3262C8.34225 7.36284 9.18261 8.20321 10.2193 8.20321Z" fill="var(--fill-0, #392D2B)"/>
<path d="M26.9037 8.20321C27.9404 8.20321 28.7808 7.36284 28.7808 6.3262C28.7808 5.28956 27.9404 4.4492 26.9037 4.4492C25.8671 4.4492 25.0267 5.28956 25.0267 6.3262C25.0267 7.36284 25.8671 8.20321 26.9037 8.20321Z" fill="var(--fill-0, #392D2B)"/>
<path d="M31.0749 8.20321C32.1115 8.20321 32.9519 7.36284 32.9519 6.3262C32.9519 5.28956 32.1115 4.4492 31.0749 4.4492C30.0382 4.4492 29.1979 5.28956 29.1979 6.3262C29.1979 7.36284 30.0382 8.20321 31.0749 8.20321Z" fill="var(--fill-0, #392D2B)"/>
<path d="M39.4171 8.20321C40.4538 8.20321 41.2941 7.36284 41.2941 6.3262C41.2941 5.28956 40.4538 4.4492 39.4171 4.4492C38.3805 4.4492 37.5401 5.28956 37.5401 6.3262C37.5401 7.36284 38.3805 8.20321 39.4171 8.20321Z" fill="var(--fill-0, #392D2B)"/>
<path d="M43.5882 8.20321C44.6249 8.20321 45.4652 7.36284 45.4652 6.3262C45.4652 5.28956 44.6249 4.4492 43.5882 4.4492C42.5516 4.4492 41.7112 5.28956 41.7112 6.3262C41.7112 7.36284 42.5516 8.20321 43.5882 8.20321Z" fill="var(--fill-0, #392D2B)"/>
<path d="M47.7594 8.20321C48.796 8.20321 49.6364 7.36284 49.6364 6.3262C49.6364 5.28956 48.796 4.4492 47.7594 4.4492C46.7227 4.4492 45.8824 5.28956 45.8824 6.3262C45.8824 7.36284 46.7227 8.20321 47.7594 8.20321Z" fill="var(--fill-0, #392D2B)"/>
<path d="M51.9305 8.20321C52.9671 8.20321 53.8075 7.36284 53.8075 6.3262C53.8075 5.28956 52.9671 4.4492 51.9305 4.4492C50.8938 4.4492 50.0535 5.28956 50.0535 6.3262C50.0535 7.36284 50.8938 8.20321 51.9305 8.20321Z" fill="var(--fill-0, #392D2B)"/>
<path d="M60.2727 8.20321C61.3094 8.20321 62.1497 7.36284 62.1497 6.3262C62.1497 5.28956 61.3094 4.4492 60.2727 4.4492C59.2361 4.4492 58.3957 5.28956 58.3957 6.3262C58.3957 7.36284 59.2361 8.20321 60.2727 8.20321Z" fill="var(--fill-0, #392D2B)"/>
<path d="M64.4439 8.20321C65.4805 8.20321 66.3209 7.36284 66.3209 6.3262C66.3209 5.28956 65.4805 4.4492 64.4439 4.4492C63.4072 4.4492 62.5668 5.28956 62.5668 6.3262C62.5668 7.36284 63.4072 8.20321 64.4439 8.20321Z" fill="var(--fill-0, #392D2B)"/>
<path d="M68.615 8.20321C69.6516 8.20321 70.492 7.36284 70.492 6.3262C70.492 5.28956 69.6516 4.4492 68.615 4.4492C67.5783 4.4492 66.738 5.28956 66.738 6.3262C66.738 7.36284 67.5783 8.20321 68.615 8.20321Z" fill="var(--fill-0, #392D2B)"/>
<path d="M72.7861 8.20321C73.8227 8.20321 74.6631 7.36284 74.6631 6.3262C74.6631 5.28956 73.8227 4.4492 72.7861 4.4492C71.7495 4.4492 70.9091 5.28956 70.9091 6.3262C70.9091 7.36284 71.7495 8.20321 72.7861 8.20321Z" fill="var(--fill-0, #392D2B)"/>
<path d="M76.9572 8.20321C77.9939 8.20321 78.8342 7.36284 78.8342 6.3262C78.8342 5.28956 77.9939 4.4492 76.9572 4.4492C75.9206 4.4492 75.0802 5.28956 75.0802 6.3262C75.0802 7.36284 75.9206 8.20321 76.9572 8.20321Z" fill="var(--fill-0, #392D2B)"/>
<path d="M81.1283 8.20321C82.165 8.20321 83.0054 7.36284 83.0054 6.3262C83.0054 5.28956 82.165 4.4492 81.1283 4.4492C80.0917 4.4492 79.2513 5.28956 79.2513 6.3262C79.2513 7.36284 80.0917 8.20321 81.1283 8.20321Z" fill="var(--fill-0, #392D2B)"/>
<path d="M85.2995 8.20321C86.3361 8.20321 87.1765 7.36284 87.1765 6.3262C87.1765 5.28956 86.3361 4.4492 85.2995 4.4492C84.2628 4.4492 83.4225 5.28956 83.4225 6.3262C83.4225 7.36284 84.2628 8.20321 85.2995 8.20321Z" fill="var(--fill-0, #392D2B)"/>
<path d="M89.4706 8.20321C90.5072 8.20321 91.3476 7.36284 91.3476 6.3262C91.3476 5.28956 90.5072 4.4492 89.4706 4.4492C88.434 4.4492 87.5936 5.28956 87.5936 6.3262C87.5936 7.36284 88.434 8.20321 89.4706 8.20321Z" fill="var(--fill-0, #392D2B)"/>
<path d="M93.6417 8.20321C94.6784 8.20321 95.5187 7.36284 95.5187 6.3262C95.5187 5.28956 94.6784 4.4492 93.6417 4.4492C92.6051 4.4492 91.7647 5.28956 91.7647 6.3262C91.7647 7.36284 92.6051 8.20321 93.6417 8.20321Z" fill="var(--fill-0, #392D2B)"/>
<path d="M97.8128 8.20321C98.8495 8.20321 99.6898 7.36284 99.6898 6.3262C99.6898 5.28956 98.8495 4.4492 97.8128 4.4492C96.7762 4.4492 95.9358 5.28956 95.9358 6.3262C95.9358 7.36284 96.7762 8.20321 97.8128 8.20321Z" fill="var(--fill-0, #392D2B)"/>
<path d="M1.87701 12.6524C2.91365 12.6524 3.75401 11.812 3.75401 10.7754C3.75401 9.73876 2.91365 8.8984 1.87701 8.8984C0.840364 8.8984 0 9.73876 0 10.7754C0 11.812 0.840364 12.6524 1.87701 12.6524Z" fill="var(--fill-0, #392D2B)"/>
<path d="M6.04813 12.6524C7.08477 12.6524 7.92513 11.812 7.92513 10.7754C7.92513 9.73876 7.08477 8.8984 6.04813 8.8984C5.01149 8.8984 4.17112 9.73876 4.17112 10.7754C4.17112 11.812 5.01149 12.6524 6.04813 12.6524Z" fill="var(--fill-0, #392D2B)"/>
<path d="M10.2193 12.6524C11.2559 12.6524 12.0963 11.812 12.0963 10.7754C12.0963 9.73876 11.2559 8.8984 10.2193 8.8984C9.18261 8.8984 8.34225 9.73876 8.34225 10.7754C8.34225 11.812 9.18261 12.6524 10.2193 12.6524Z" fill="var(--fill-0, #392D2B)"/>
<path d="M22.7326 12.6524C23.7693 12.6524 24.6096 11.812 24.6096 10.7754C24.6096 9.73876 23.7693 8.8984 22.7326 8.8984C21.696 8.8984 20.8556 9.73876 20.8556 10.7754C20.8556 11.812 21.696 12.6524 22.7326 12.6524Z" fill="var(--fill-0, #392D2B)"/>
<path d="M26.9037 12.6524C27.9404 12.6524 28.7808 11.812 28.7808 10.7754C28.7808 9.73876 27.9404 8.8984 26.9037 8.8984C25.8671 8.8984 25.0267 9.73876 25.0267 10.7754C25.0267 11.812 25.8671 12.6524 26.9037 12.6524Z" fill="var(--fill-0, #392D2B)"/>
<path d="M31.0749 12.6524C32.1115 12.6524 32.9519 11.812 32.9519 10.7754C32.9519 9.73876 32.1115 8.8984 31.0749 8.8984C30.0382 8.8984 29.1979 9.73876 29.1979 10.7754C29.1979 11.812 30.0382 12.6524 31.0749 12.6524Z" fill="var(--fill-0, #392D2B)"/>
<path d="M35.246 12.6524C36.2826 12.6524 37.123 11.812 37.123 10.7754C37.123 9.73876 36.2826 8.8984 35.246 8.8984C34.2093 8.8984 33.369 9.73876 33.369 10.7754C33.369 11.812 34.2093 12.6524 35.246 12.6524Z" fill="var(--fill-0, #392D2B)"/>
<path d="M39.4171 12.6524C40.4538 12.6524 41.2941 11.812 41.2941 10.7754C41.2941 9.73876 40.4538 8.8984 39.4171 8.8984C38.3805 8.8984 37.5401 9.73876 37.5401 10.7754C37.5401 11.812 38.3805 12.6524 39.4171 12.6524Z" fill="var(--fill-0, #392D2B)"/>
<path d="M43.5882 12.6524C44.6249 12.6524 45.4652 11.812 45.4652 10.7754C45.4652 9.73876 44.6249 8.8984 43.5882 8.8984C42.5516 8.8984 41.7112 9.73876 41.7112 10.7754C41.7112 11.812 42.5516 12.6524 43.5882 12.6524Z" fill="var(--fill-0, #392D2B)"/>
<path d="M47.7594 12.6524C48.796 12.6524 49.6364 11.812 49.6364 10.7754C49.6364 9.73876 48.796 8.8984 47.7594 8.8984C46.7227 8.8984 45.8824 9.73876 45.8824 10.7754C45.8824 11.812 46.7227 12.6524 47.7594 12.6524Z" fill="var(--fill-0, #392D2B)"/>
<path d="M51.9305 12.6524C52.9671 12.6524 53.8075 11.812 53.8075 10.7754C53.8075 9.73876 52.9671 8.8984 51.9305 8.8984C50.8938 8.8984 50.0535 9.73876 50.0535 10.7754C50.0535 11.812 50.8938 12.6524 51.9305 12.6524Z" fill="var(--fill-0, #392D2B)"/>
<path d="M56.1016 12.6524C57.1382 12.6524 57.9786 11.812 57.9786 10.7754C57.9786 9.73876 57.1382 8.8984 56.1016 8.8984C55.065 8.8984 54.2246 9.73876 54.2246 10.7754C54.2246 11.812 55.065 12.6524 56.1016 12.6524Z" fill="var(--fill-0, #392D2B)"/>
<path d="M60.2727 12.6524C61.3094 12.6524 62.1497 11.812 62.1497 10.7754C62.1497 9.73876 61.3094 8.8984 60.2727 8.8984C59.2361 8.8984 58.3957 9.73876 58.3957 10.7754C58.3957 11.812 59.2361 12.6524 60.2727 12.6524Z" fill="var(--fill-0, #392D2B)"/>
<path d="M64.4439 12.6524C65.4805 12.6524 66.3209 11.812 66.3209 10.7754C66.3209 9.73876 65.4805 8.8984 64.4439 8.8984C63.4072 8.8984 62.5668 9.73876 62.5668 10.7754C62.5668 11.812 63.4072 12.6524 64.4439 12.6524Z" fill="var(--fill-0, #392D2B)"/>
<path d="M68.615 12.6524C69.6516 12.6524 70.492 11.812 70.492 10.7754C70.492 9.73876 69.6516 8.8984 68.615 8.8984C67.5783 8.8984 66.738 9.73876 66.738 10.7754C66.738 11.812 67.5783 12.6524 68.615 12.6524Z" fill="var(--fill-0, #392D2B)"/>
<path d="M72.7861 12.6524C73.8227 12.6524 74.6631 11.812 74.6631 10.7754C74.6631 9.73876 73.8227 8.8984 72.7861 8.8984C71.7495 8.8984 70.9091 9.73876 70.9091 10.7754C70.9091 11.812 71.7495 12.6524 72.7861 12.6524Z" fill="var(--fill-0, #392D2B)"/>
<path d="M76.9572 12.6524C77.9939 12.6524 78.8342 11.812 78.8342 10.7754C78.8342 9.73876 77.9939 8.8984 76.9572 8.8984C75.9206 8.8984 75.0802 9.73876 75.0802 10.7754C75.0802 11.812 75.9206 12.6524 76.9572 12.6524Z" fill="var(--fill-0, #392D2B)"/>
<path d="M81.1283 12.6524C82.165 12.6524 83.0054 11.812 83.0054 10.7754C83.0054 9.73876 82.165 8.8984 81.1283 8.8984C80.0917 8.8984 79.2513 9.73876 79.2513 10.7754C79.2513 11.812 80.0917 12.6524 81.1283 12.6524Z" fill="var(--fill-0, #392D2B)"/>
<path d="M85.2995 12.6524C86.3361 12.6524 87.1765 11.812 87.1765 10.7754C87.1765 9.73876 86.3361 8.8984 85.2995 8.8984C84.2628 8.8984 83.4225 9.73876 83.4225 10.7754C83.4225 11.812 84.2628 12.6524 85.2995 12.6524Z" fill="var(--fill-0, #392D2B)"/>
<path d="M89.4706 12.6524C90.5072 12.6524 91.3476 11.812 91.3476 10.7754C91.3476 9.73876 90.5072 8.8984 89.4706 8.8984C88.434 8.8984 87.5936 9.73876 87.5936 10.7754C87.5936 11.812 88.434 12.6524 89.4706 12.6524Z" fill="var(--fill-0, #392D2B)"/>
<path d="M93.6417 12.6524C94.6784 12.6524 95.5187 11.812 95.5187 10.7754C95.5187 9.73876 94.6784 8.8984 93.6417 8.8984C92.6051 8.8984 91.7647 9.73876 91.7647 10.7754C91.7647 11.812 92.6051 12.6524 93.6417 12.6524Z" fill="var(--fill-0, #392D2B)"/>
<path d="M97.8128 12.6524C98.8495 12.6524 99.6898 11.812 99.6898 10.7754C99.6898 9.73876 98.8495 8.8984 97.8128 8.8984C96.7762 8.8984 95.9358 9.73876 95.9358 10.7754C95.9358 11.812 96.7762 12.6524 97.8128 12.6524Z" fill="var(--fill-0, #392D2B)"/>
<path d="M1.87701 17.1016C2.91365 17.1016 3.75401 16.2612 3.75401 15.2246C3.75401 14.188 2.91365 13.3476 1.87701 13.3476C0.840364 13.3476 0 14.188 0 15.2246C0 16.2612 0.840364 17.1016 1.87701 17.1016Z" fill="var(--fill-0, #392D2B)"/>
<path d="M6.04813 17.1016C7.08477 17.1016 7.92513 16.2612 7.92513 15.2246C7.92513 14.188 7.08477 13.3476 6.04813 13.3476C5.01149 13.3476 4.17112 14.188 4.17112 15.2246C4.17112 16.2612 5.01149 17.1016 6.04813 17.1016Z" fill="var(--fill-0, #392D2B)"/>
<path d="M10.2193 17.1016C11.2559 17.1016 12.0963 16.2612 12.0963 15.2246C12.0963 14.188 11.2559 13.3476 10.2193 13.3476C9.18261 13.3476 8.34225 14.188 8.34225 15.2246C8.34225 16.2612 9.18261 17.1016 10.2193 17.1016Z" fill="var(--fill-0, #392D2B)"/>
<path d="M14.3904 17.1016C15.427 17.1016 16.2674 16.2612 16.2674 15.2246C16.2674 14.188 15.427 13.3476 14.3904 13.3476C13.3537 13.3476 12.5134 14.188 12.5134 15.2246C12.5134 16.2612 13.3537 17.1016 14.3904 17.1016Z" fill="var(--fill-0, #392D2B)"/>
<path d="M31.0749 17.1016C32.1115 17.1016 32.9519 16.2612 32.9519 15.2246C32.9519 14.188 32.1115 13.3476 31.0749 13.3476C30.0382 13.3476 29.1979 14.188 29.1979 15.2246C29.1979 16.2612 30.0382 17.1016 31.0749 17.1016Z" fill="var(--fill-0, #392D2B)"/>
<path d="M35.246 17.1016C36.2826 17.1016 37.123 16.2612 37.123 15.2246C37.123 14.188 36.2826 13.3476 35.246 13.3476C34.2093 13.3476 33.369 14.188 33.369 15.2246C33.369 16.2612 34.2093 17.1016 35.246 17.1016Z" fill="var(--fill-0, #392D2B)"/>
<path d="M39.4171 17.1016C40.4538 17.1016 41.2941 16.2612 41.2941 15.2246C41.2941 14.188 40.4538 13.3476 39.4171 13.3476C38.3805 13.3476 37.5401 14.188 37.5401 15.2246C37.5401 16.2612 38.3805 17.1016 39.4171 17.1016Z" fill="var(--fill-0, #392D2B)"/>
<path d="M43.5882 17.1016C44.6249 17.1016 45.4652 16.2612 45.4652 15.2246C45.4652 14.188 44.6249 13.3476 43.5882 13.3476C42.5516 13.3476 41.7112 14.188 41.7112 15.2246C41.7112 16.2612 42.5516 17.1016 43.5882 17.1016Z" fill="var(--fill-0, #392D2B)"/>
<path d="M47.7594 17.1016C48.796 17.1016 49.6364 16.2612 49.6364 15.2246C49.6364 14.188 48.796 13.3476 47.7594 13.3476C46.7227 13.3476 45.8824 14.188 45.8824 15.2246C45.8824 16.2612 46.7227 17.1016 47.7594 17.1016Z" fill="var(--fill-0, #392D2B)"/>
<path d="M51.9305 17.1016C52.9671 17.1016 53.8075 16.2612 53.8075 15.2246C53.8075 14.188 52.9671 13.3476 51.9305 13.3476C50.8938 13.3476 50.0535 14.188 50.0535 15.2246C50.0535 16.2612 50.8938 17.1016 51.9305 17.1016Z" fill="var(--fill-0, #392D2B)"/>
<path d="M56.1016 17.1016C57.1382 17.1016 57.9786 16.2612 57.9786 15.2246C57.9786 14.188 57.1382 13.3476 56.1016 13.3476C55.065 13.3476 54.2246 14.188 54.2246 15.2246C54.2246 16.2612 55.065 17.1016 56.1016 17.1016Z" fill="var(--fill-0, #392D2B)"/>
<path d="M64.4439 17.1016C65.4805 17.1016 66.3209 16.2612 66.3209 15.2246C66.3209 14.188 65.4805 13.3476 64.4439 13.3476C63.4072 13.3476 62.5668 14.188 62.5668 15.2246C62.5668 16.2612 63.4072 17.1016 64.4439 17.1016Z" fill="var(--fill-0, #392D2B)"/>
<path d="M68.615 17.1016C69.6516 17.1016 70.492 16.2612 70.492 15.2246C70.492 14.188 69.6516 13.3476 68.615 13.3476C67.5783 13.3476 66.738 14.188 66.738 15.2246C66.738 16.2612 67.5783 17.1016 68.615 17.1016Z" fill="var(--fill-0, #392D2B)"/>
<path d="M72.7861 17.1016C73.8227 17.1016 74.6631 16.2612 74.6631 15.2246C74.6631 14.188 73.8227 13.3476 72.7861 13.3476C71.7495 13.3476 70.9091 14.188 70.9091 15.2246C70.9091 16.2612 71.7495 17.1016 72.7861 17.1016Z" fill="var(--fill-0, #392D2B)"/>
<path d="M76.9572 17.1016C77.9939 17.1016 78.8342 16.2612 78.8342 15.2246C78.8342 14.188 77.9939 13.3476 76.9572 13.3476C75.9206 13.3476 75.0802 14.188 75.0802 15.2246C75.0802 16.2612 75.9206 17.1016 76.9572 17.1016Z" fill="var(--fill-0, #392D2B)"/>
<path d="M81.1283 17.1016C82.165 17.1016 83.0054 16.2612 83.0054 15.2246C83.0054 14.188 82.165 13.3476 81.1283 13.3476C80.0917 13.3476 79.2513 14.188 79.2513 15.2246C79.2513 16.2612 80.0917 17.1016 81.1283 17.1016Z" fill="var(--fill-0, #392D2B)"/>
<path d="M85.2995 17.1016C86.3361 17.1016 87.1765 16.2612 87.1765 15.2246C87.1765 14.188 86.3361 13.3476 85.2995 13.3476C84.2628 13.3476 83.4225 14.188 83.4225 15.2246C83.4225 16.2612 84.2628 17.1016 85.2995 17.1016Z" fill="var(--fill-0, #392D2B)"/>
<path d="M89.4706 17.1016C90.5072 17.1016 91.3476 16.2612 91.3476 15.2246C91.3476 14.188 90.5072 13.3476 89.4706 13.3476C88.434 13.3476 87.5936 14.188 87.5936 15.2246C87.5936 16.2612 88.434 17.1016 89.4706 17.1016Z" fill="var(--fill-0, #392D2B)"/>
<path d="M93.6417 17.1016C94.6784 17.1016 95.5187 16.2612 95.5187 15.2246C95.5187 14.188 94.6784 13.3476 93.6417 13.3476C92.6051 13.3476 91.7647 14.188 91.7647 15.2246C91.7647 16.2612 92.6051 17.1016 93.6417 17.1016Z" fill="var(--fill-0, #392D2B)"/>
<path d="M1.87701 21.5508C2.91365 21.5508 3.75401 20.7104 3.75401 19.6738C3.75401 18.6372 2.91365 17.7968 1.87701 17.7968C0.840364 17.7968 0 18.6372 0 19.6738C0 20.7104 0.840364 21.5508 1.87701 21.5508Z" fill="var(--fill-0, #392D2B)"/>
<path d="M6.04813 21.5508C7.08477 21.5508 7.92513 20.7104 7.92513 19.6738C7.92513 18.6372 7.08477 17.7968 6.04813 17.7968C5.01149 17.7968 4.17112 18.6372 4.17112 19.6738C4.17112 20.7104 5.01149 21.5508 6.04813 21.5508Z" fill="var(--fill-0, #392D2B)"/>
<path d="M10.2193 21.5508C11.2559 21.5508 12.0963 20.7104 12.0963 19.6738C12.0963 18.6372 11.2559 17.7968 10.2193 17.7968C9.18261 17.7968 8.34225 18.6372 8.34225 19.6738C8.34225 20.7104 9.18261 21.5508 10.2193 21.5508Z" fill="var(--fill-0, #392D2B)"/>
<path d="M14.3904 21.5508C15.427 21.5508 16.2674 20.7104 16.2674 19.6738C16.2674 18.6372 15.427 17.7968 14.3904 17.7968C13.3537 17.7968 12.5134 18.6372 12.5134 19.6738C12.5134 20.7104 13.3537 21.5508 14.3904 21.5508Z" fill="var(--fill-0, #392D2B)"/>
<path d="M26.9037 21.5508C27.9404 21.5508 28.7808 20.7104 28.7808 19.6738C28.7808 18.6372 27.9404 17.7968 26.9037 17.7968C25.8671 17.7968 25.0267 18.6372 25.0267 19.6738C25.0267 20.7104 25.8671 21.5508 26.9037 21.5508Z" fill="var(--fill-0, #392D2B)"/>
<path d="M31.0749 21.5508C32.1115 21.5508 32.9519 20.7104 32.9519 19.6738C32.9519 18.6372 32.1115 17.7968 31.0749 17.7968C30.0382 17.7968 29.1979 18.6372 29.1979 19.6738C29.1979 20.7104 30.0382 21.5508 31.0749 21.5508Z" fill="var(--fill-0, #392D2B)"/>
<path d="M35.246 21.5508C36.2826 21.5508 37.123 20.7104 37.123 19.6738C37.123 18.6372 36.2826 17.7968 35.246 17.7968C34.2093 17.7968 33.369 18.6372 33.369 19.6738C33.369 20.7104 34.2093 21.5508 35.246 21.5508Z" fill="var(--fill-0, #392D2B)"/>
<path d="M39.4171 21.5508C40.4538 21.5508 41.2941 20.7104 41.2941 19.6738C41.2941 18.6372 40.4538 17.7968 39.4171 17.7968C38.3805 17.7968 37.5401 18.6372 37.5401 19.6738C37.5401 20.7104 38.3805 21.5508 39.4171 21.5508Z" fill="var(--fill-0, #392D2B)"/>
<path d="M43.5882 21.5508C44.6249 21.5508 45.4652 20.7104 45.4652 19.6738C45.4652 18.6372 44.6249 17.7968 43.5882 17.7968C42.5516 17.7968 41.7112 18.6372 41.7112 19.6738C41.7112 20.7104 42.5516 21.5508 43.5882 21.5508Z" fill="var(--fill-0, #392D2B)"/>
<path d="M47.7594 21.5508C48.796 21.5508 49.6364 20.7104 49.6364 19.6738C49.6364 18.6372 48.796 17.7968 47.7594 17.7968C46.7227 17.7968 45.8824 18.6372 45.8824 19.6738C45.8824 20.7104 46.7227 21.5508 47.7594 21.5508Z" fill="var(--fill-0, #392D2B)"/>
<path d="M56.1016 21.5508C57.1382 21.5508 57.9786 20.7104 57.9786 19.6738C57.9786 18.6372 57.1382 17.7968 56.1016 17.7968C55.065 17.7968 54.2246 18.6372 54.2246 19.6738C54.2246 20.7104 55.065 21.5508 56.1016 21.5508Z" fill="var(--fill-0, #392D2B)"/>
<path d="M60.2727 21.5508C61.3094 21.5508 62.1497 20.7104 62.1497 19.6738C62.1497 18.6372 61.3094 17.7968 60.2727 17.7968C59.2361 17.7968 58.3957 18.6372 58.3957 19.6738C58.3957 20.7104 59.2361 21.5508 60.2727 21.5508Z" fill="var(--fill-0, #392D2B)"/>
<path d="M64.4439 21.5508C65.4805 21.5508 66.3209 20.7104 66.3209 19.6738C66.3209 18.6372 65.4805 17.7968 64.4439 17.7968C63.4072 17.7968 62.5668 18.6372 62.5668 19.6738C62.5668 20.7104 63.4072 21.5508 64.4439 21.5508Z" fill="var(--fill-0, #392D2B)"/>
<path d="M68.615 21.5508C69.6516 21.5508 70.492 20.7104 70.492 19.6738C70.492 18.6372 69.6516 17.7968 68.615 17.7968C67.5783 17.7968 66.738 18.6372 66.738 19.6738C66.738 20.7104 67.5783 21.5508 68.615 21.5508Z" fill="var(--fill-0, #392D2B)"/>
<path d="M72.7861 21.5508C73.8227 21.5508 74.6631 20.7104 74.6631 19.6738C74.6631 18.6372 73.8227 17.7968 72.7861 17.7968C71.7495 17.7968 70.9091 18.6372 70.9091 19.6738C70.9091 20.7104 71.7495 21.5508 72.7861 21.5508Z" fill="var(--fill-0, #392D2B)"/>
<path d="M76.9572 21.5508C77.9939 21.5508 78.8342 20.7104 78.8342 19.6738C78.8342 18.6372 77.9939 17.7968 76.9572 17.7968C75.9206 17.7968 75.0802 18.6372 75.0802 19.6738C75.0802 20.7104 75.9206 21.5508 76.9572 21.5508Z" fill="var(--fill-0, #392D2B)"/>
<path d="M81.1283 21.5508C82.165 21.5508 83.0054 20.7104 83.0054 19.6738C83.0054 18.6372 82.165 17.7968 81.1283 17.7968C80.0917 17.7968 79.2513 18.6372 79.2513 19.6738C79.2513 20.7104 80.0917 21.5508 81.1283 21.5508Z" fill="var(--fill-0, #392D2B)"/>
<path d="M85.2995 21.5508C86.3361 21.5508 87.1765 20.7104 87.1765 19.6738C87.1765 18.6372 86.3361 17.7968 85.2995 17.7968C84.2628 17.7968 83.4225 18.6372 83.4225 19.6738C83.4225 20.7104 84.2628 21.5508 85.2995 21.5508Z" fill="var(--fill-0, #392D2B)"/>
<path d="M1.87701 26C2.91365 26 3.75401 25.1596 3.75401 24.123C3.75401 23.0864 2.91365 22.246 1.87701 22.246C0.840364 22.246 0 23.0864 0 24.123C0 25.1596 0.840364 26 1.87701 26Z" fill="var(--fill-0, #392D2B)"/>
<path d="M18.5615 26C19.5981 26 20.4385 25.1596 20.4385 24.123C20.4385 23.0864 19.5981 22.246 18.5615 22.246C17.5249 22.246 16.6845 23.0864 16.6845 24.123C16.6845 25.1596 17.5249 26 18.5615 26Z" fill="var(--fill-0, #392D2B)"/>
<path d="M22.7326 26C23.7693 26 24.6096 25.1596 24.6096 24.123C24.6096 23.0864 23.7693 22.246 22.7326 22.246C21.696 22.246 20.8556 23.0864 20.8556 24.123C20.8556 25.1596 21.696 26 22.7326 26Z" fill="var(--fill-0, #392D2B)"/>
<path d="M26.9037 26C27.9404 26 28.7808 25.1596 28.7808 24.123C28.7808 23.0864 27.9404 22.246 26.9037 22.246C25.8671 22.246 25.0267 23.0864 25.0267 24.123C25.0267 25.1596 25.8671 26 26.9037 26Z" fill="var(--fill-0, #392D2B)"/>
<path d="M31.0749 26C32.1115 26 32.9519 25.1596 32.9519 24.123C32.9519 23.0864 32.1115 22.246 31.0749 22.246C30.0382 22.246 29.1979 23.0864 29.1979 24.123C29.1979 25.1596 30.0382 26 31.0749 26Z" fill="var(--fill-0, #392D2B)"/>
<path d="M35.246 26C36.2826 26 37.123 25.1596 37.123 24.123C37.123 23.0864 36.2826 22.246 35.246 22.246C34.2093 22.246 33.369 23.0864 33.369 24.123C33.369 25.1596 34.2093 26 35.246 26Z" fill="var(--fill-0, #392D2B)"/>
<path d="M39.4171 26C40.4538 26 41.2941 25.1596 41.2941 24.123C41.2941 23.0864 40.4538 22.246 39.4171 22.246C38.3805 22.246 37.5401 23.0864 37.5401 24.123C37.5401 25.1596 38.3805 26 39.4171 26Z" fill="var(--fill-0, #392D2B)"/>
<path d="M43.5882 26C44.6249 26 45.4652 25.1596 45.4652 24.123C45.4652 23.0864 44.6249 22.246 43.5882 22.246C42.5516 22.246 41.7112 23.0864 41.7112 24.123C41.7112 25.1596 42.5516 26 43.5882 26Z" fill="var(--fill-0, #392D2B)"/>
<path d="M47.7594 26C48.796 26 49.6364 25.1596 49.6364 24.123C49.6364 23.0864 48.796 22.246 47.7594 22.246C46.7227 22.246 45.8824 23.0864 45.8824 24.123C45.8824 25.1596 46.7227 26 47.7594 26Z" fill="var(--fill-0, #392D2B)"/>
<path d="M60.2727 26C61.3094 26 62.1497 25.1596 62.1497 24.123C62.1497 23.0864 61.3094 22.246 60.2727 22.246C59.2361 22.246 58.3957 23.0864 58.3957 24.123C58.3957 25.1596 59.2361 26 60.2727 26Z" fill="var(--fill-0, #392D2B)"/>
<path d="M64.4439 26C65.4805 26 66.3209 25.1596 66.3209 24.123C66.3209 23.0864 65.4805 22.246 64.4439 22.246C63.4072 22.246 62.5668 23.0864 62.5668 24.123C62.5668 25.1596 63.4072 26 64.4439 26Z" fill="var(--fill-0, #392D2B)"/>
<path d="M68.615 26C69.6516 26 70.492 25.1596 70.492 24.123C70.492 23.0864 69.6516 22.246 68.615 22.246C67.5783 22.246 66.738 23.0864 66.738 24.123C66.738 25.1596 67.5783 26 68.615 26Z" fill="var(--fill-0, #392D2B)"/>
<path d="M72.7861 26C73.8227 26 74.6631 25.1596 74.6631 24.123C74.6631 23.0864 73.8227 22.246 72.7861 22.246C71.7495 22.246 70.9091 23.0864 70.9091 24.123C70.9091 25.1596 71.7495 26 72.7861 26Z" fill="var(--fill-0, #392D2B)"/>
<path d="M76.9572 26C77.9939 26 78.8342 25.1596 78.8342 24.123C78.8342 23.0864 77.9939 22.246 76.9572 22.246C75.9206 22.246 75.0802 23.0864 75.0802 24.123C75.0802 25.1596 75.9206 26 76.9572 26Z" fill="var(--fill-0, #392D2B)"/>
<path d="M81.1283 26C82.165 26 83.0054 25.1596 83.0054 24.123C83.0054 23.0864 82.165 22.246 81.1283 22.246C80.0917 22.246 79.2513 23.0864 79.2513 24.123C79.2513 25.1596 80.0917 26 81.1283 26Z" fill="var(--fill-0, #392D2B)"/>
<path d="M85.2995 26C86.3361 26 87.1765 25.1596 87.1765 24.123C87.1765 23.0864 86.3361 22.246 85.2995 22.246C84.2628 22.246 83.4225 23.0864 83.4225 24.123C83.4225 25.1596 84.2628 26 85.2995 26Z" fill="var(--fill-0, #392D2B)"/>
<path d="M89.4706 26C90.5072 26 91.3476 25.1596 91.3476 24.123C91.3476 23.0864 90.5072 22.246 89.4706 22.246C88.434 22.246 87.5936 23.0864 87.5936 24.123C87.5936 25.1596 88.434 26 89.4706 26Z" fill="var(--fill-0, #392D2B)"/>
<path d="M93.6417 26C94.6784 26 95.5187 25.1596 95.5187 24.123C95.5187 23.0864 94.6784 22.246 93.6417 22.246C92.6051 22.246 91.7647 23.0864 91.7647 24.123C91.7647 25.1596 92.6051 26 93.6417 26Z" fill="var(--fill-0, #392D2B)"/>
<path d="M97.8128 26C98.8495 26 99.6898 25.1596 99.6898 24.123C99.6898 23.0864 98.8495 22.246 97.8128 22.246C96.7762 22.246 95.9358 23.0864 95.9358 24.123C95.9358 25.1596 96.7762 26 97.8128 26Z" fill="var(--fill-0, #392D2B)"/>
<path d="M39.4171 3.75401C40.4538 3.75401 41.2941 2.91365 41.2941 1.87701C41.2941 0.840364 40.4538 0 39.4171 0C38.3805 0 37.5401 0.840364 37.5401 1.87701C37.5401 2.91365 38.3805 3.75401 39.4171 3.75401Z" stroke="var(--stroke-0, #392D2B)" stroke-width="0.65" mask="url(#path-1-inside-1_0_73)"/>
<path d="M43.5882 3.75401C44.6249 3.75401 45.4652 2.91365 45.4652 1.87701C45.4652 0.840364 44.6249 0 43.5882 0C42.5516 0 41.7112 0.840364 41.7112 1.87701C41.7112 2.91365 42.5516 3.75401 43.5882 3.75401Z" stroke="var(--stroke-0, #392D2B)" stroke-width="0.65" mask="url(#path-1-inside-1_0_73)"/>
<path d="M47.7594 3.75401C48.796 3.75401 49.6364 2.91365 49.6364 1.87701C49.6364 0.840364 48.796 0 47.7594 0C46.7227 0 45.8824 0.840364 45.8824 1.87701C45.8824 2.91365 46.7227 3.75401 47.7594 3.75401Z" stroke="var(--stroke-0, #392D2B)" stroke-width="0.65" mask="url(#path-1-inside-1_0_73)"/>
<path d="M64.4439 3.75401C65.4805 3.75401 66.3209 2.91365 66.3209 1.87701C66.3209 0.840364 65.4805 0 64.4439 0C63.4072 0 62.5668 0.840364 62.5668 1.87701C62.5668 2.91365 63.4072 3.75401 64.4439 3.75401Z" stroke="var(--stroke-0, #392D2B)" stroke-width="0.65" mask="url(#path-1-inside-1_0_73)"/>
<path d="M68.615 3.75401C69.6516 3.75401 70.492 2.91365 70.492 1.87701C70.492 0.840364 69.6516 0 68.615 0C67.5783 0 66.738 0.840364 66.738 1.87701C66.738 2.91365 67.5783 3.75401 68.615 3.75401Z" stroke="var(--stroke-0, #392D2B)" stroke-width="0.65" mask="url(#path-1-inside-1_0_73)"/>
<path d="M72.7861 3.75401C73.8227 3.75401 74.6631 2.91365 74.6631 1.87701C74.6631 0.840364 73.8227 0 72.7861 0C71.7495 0 70.9091 0.840364 70.9091 1.87701C70.9091 2.91365 71.7495 3.75401 72.7861 3.75401Z" stroke="var(--stroke-0, #392D2B)" stroke-width="0.65" mask="url(#path-1-inside-1_0_73)"/>
<path d="M76.9572 3.75401C77.9939 3.75401 78.8342 2.91365 78.8342 1.87701C78.8342 0.840364 77.9939 0 76.9572 0C75.9206 0 75.0802 0.840364 75.0802 1.87701C75.0802 2.91365 75.9206 3.75401 76.9572 3.75401Z" stroke="var(--stroke-0, #392D2B)" stroke-width="0.65" mask="url(#path-1-inside-1_0_73)"/>
<path d="M81.1283 3.75401C82.165 3.75401 83.0054 2.91365 83.0054 1.87701C83.0054 0.840364 82.165 0 81.1283 0C80.0917 0 79.2513 0.840364 79.2513 1.87701C79.2513 2.91365 80.0917 3.75401 81.1283 3.75401Z" stroke="var(--stroke-0, #392D2B)" stroke-width="0.65" mask="url(#path-1-inside-1_0_73)"/>
<path d="M85.2995 3.75401C86.3361 3.75401 87.1765 2.91365 87.1765 1.87701C87.1765 0.840364 86.3361 0 85.2995 0C84.2628 0 83.4225 0.840364 83.4225 1.87701C83.4225 2.91365 84.2628 3.75401 85.2995 3.75401Z" stroke="var(--stroke-0, #392D2B)" stroke-width="0.65" mask="url(#path-1-inside-1_0_73)"/>
<path d="M89.4706 3.75401C90.5072 3.75401 91.3476 2.91365 91.3476 1.87701C91.3476 0.840364 90.5072 0 89.4706 0C88.434 0 87.5936 0.840364 87.5936 1.87701C87.5936 2.91365 88.434 3.75401 89.4706 3.75401Z" stroke="var(--stroke-0, #392D2B)" stroke-width="0.65" mask="url(#path-1-inside-1_0_73)"/>
<path d="M93.6417 3.75401C94.6784 3.75401 95.5187 2.91365 95.5187 1.87701C95.5187 0.840364 94.6784 0 93.6417 0C92.6051 0 91.7647 0.840364 91.7647 1.87701C91.7647 2.91365 92.6051 3.75401 93.6417 3.75401Z" stroke="var(--stroke-0, #392D2B)" stroke-width="0.65" mask="url(#path-1-inside-1_0_73)"/>
<path d="M97.8128 3.75401C98.8495 3.75401 99.6898 2.91365 99.6898 1.87701C99.6898 0.840364 98.8495 0 97.8128 0C96.7762 0 95.9358 0.840364 95.9358 1.87701C95.9358 2.91365 96.7762 3.75401 97.8128 3.75401Z" stroke="var(--stroke-0, #392D2B)" stroke-width="0.65" mask="url(#path-1-inside-1_0_73)"/>
<path d="M1.87701 8.20321C2.91365 8.20321 3.75401 7.36284 3.75401 6.3262C3.75401 5.28956 2.91365 4.4492 1.87701 4.4492C0.840364 4.4492 0 5.28956 0 6.3262C0 7.36284 0.840364 8.20321 1.87701 8.20321Z" stroke="var(--stroke-0, #392D2B)" stroke-width="0.65" mask="url(#path-1-inside-1_0_73)"/>
<path d="M6.04813 8.20321C7.08477 8.20321 7.92513 7.36284 7.92513 6.3262C7.92513 5.28956 7.08477 4.4492 6.04813 4.4492C5.01149 4.4492 4.17112 5.28956 4.17112 6.3262C4.17112 7.36284 5.01149 8.20321 6.04813 8.20321Z" stroke="var(--stroke-0, #392D2B)" stroke-width="0.65" mask="url(#path-1-inside-1_0_73)"/>
<path d="M10.2193 8.20321C11.2559 8.20321 12.0963 7.36284 12.0963 6.3262C12.0963 5.28956 11.2559 4.4492 10.2193 4.4492C9.18261 4.4492 8.34225 5.28956 8.34225 6.3262C8.34225 7.36284 9.18261 8.20321 10.2193 8.20321Z" stroke="var(--stroke-0, #392D2B)" stroke-width="0.65" mask="url(#path-1-inside-1_0_73)"/>
<path d="M26.9037 8.20321C27.9404 8.20321 28.7808 7.36284 28.7808 6.3262C28.7808 5.28956 27.9404 4.4492 26.9037 4.4492C25.8671 4.4492 25.0267 5.28956 25.0267 6.3262C25.0267 7.36284 25.8671 8.20321 26.9037 8.20321Z" stroke="var(--stroke-0, #392D2B)" stroke-width="0.65" mask="url(#path-1-inside-1_0_73)"/>
<path d="M31.0749 8.20321C32.1115 8.20321 32.9519 7.36284 32.9519 6.3262C32.9519 5.28956 32.1115 4.4492 31.0749 4.4492C30.0382 4.4492 29.1979 5.28956 29.1979 6.3262C29.1979 7.36284 30.0382 8.20321 31.0749 8.20321Z" stroke="var(--stroke-0, #392D2B)" stroke-width="0.65" mask="url(#path-1-inside-1_0_73)"/>
<path d="M39.4171 8.20321C40.4538 8.20321 41.2941 7.36284 41.2941 6.3262C41.2941 5.28956 40.4538 4.4492 39.4171 4.4492C38.3805 4.4492 37.5401 5.28956 37.5401 6.3262C37.5401 7.36284 38.3805 8.20321 39.4171 8.20321Z" stroke="var(--stroke-0, #392D2B)" stroke-width="0.65" mask="url(#path-1-inside-1_0_73)"/>
<path d="M43.5882 8.20321C44.6249 8.20321 45.4652 7.36284 45.4652 6.3262C45.4652 5.28956 44.6249 4.4492 43.5882 4.4492C42.5516 4.4492 41.7112 5.28956 41.7112 6.3262C41.7112 7.36284 42.5516 8.20321 43.5882 8.20321Z" stroke="var(--stroke-0, #392D2B)" stroke-width="0.65" mask="url(#path-1-inside-1_0_73)"/>
<path d="M47.7594 8.20321C48.796 8.20321 49.6364 7.36284 49.6364 6.3262C49.6364 5.28956 48.796 4.4492 47.7594 4.4492C46.7227 4.4492 45.8824 5.28956 45.8824 6.3262C45.8824 7.36284 46.7227 8.20321 47.7594 8.20321Z" stroke="var(--stroke-0, #392D2B)" stroke-width="0.65" mask="url(#path-1-inside-1_0_73)"/>
<path d="M51.9305 8.20321C52.9671 8.20321 53.8075 7.36284 53.8075 6.3262C53.8075 5.28956 52.9671 4.4492 51.9305 4.4492C50.8938 4.4492 50.0535 5.28956 50.0535 6.3262C50.0535 7.36284 50.8938 8.20321 51.9305 8.20321Z" stroke="var(--stroke-0, #392D2B)" stroke-width="0.65" mask="url(#path-1-inside-1_0_73)"/>
<path d="M60.2727 8.20321C61.3094 8.20321 62.1497 7.36284 62.1497 6.3262C62.1497 5.28956 61.3094 4.4492 60.2727 4.4492C59.2361 4.4492 58.3957 5.28956 58.3957 6.3262C58.3957 7.36284 59.2361 8.20321 60.2727 8.20321Z" stroke="var(--stroke-0, #392D2B)" stroke-width="0.65" mask="url(#path-1-inside-1_0_73)"/>
<path d="M64.4439 8.20321C65.4805 8.20321 66.3209 7.36284 66.3209 6.3262C66.3209 5.28956 65.4805 4.4492 64.4439 4.4492C63.4072 4.4492 62.5668 5.28956 62.5668 6.3262C62.5668 7.36284 63.4072 8.20321 64.4439 8.20321Z" stroke="var(--stroke-0, #392D2B)" stroke-width="0.65" mask="url(#path-1-inside-1_0_73)"/>
<path d="M68.615 8.20321C69.6516 8.20321 70.492 7.36284 70.492 6.3262C70.492 5.28956 69.6516 4.4492 68.615 4.4492C67.5783 4.4492 66.738 5.28956 66.738 6.3262C66.738 7.36284 67.5783 8.20321 68.615 8.20321Z" stroke="var(--stroke-0, #392D2B)" stroke-width="0.65" mask="url(#path-1-inside-1_0_73)"/>
<path d="M72.7861 8.20321C73.8227 8.20321 74.6631 7.36284 74.6631 6.3262C74.6631 5.28956 73.8227 4.4492 72.7861 4.4492C71.7495 4.4492 70.9091 5.28956 70.9091 6.3262C70.9091 7.36284 71.7495 8.20321 72.7861 8.20321Z" stroke="var(--stroke-0, #392D2B)" stroke-width="0.65" mask="url(#path-1-inside-1_0_73)"/>
<path d="M76.9572 8.20321C77.9939 8.20321 78.8342 7.36284 78.8342 6.3262C78.8342 5.28956 77.9939 4.4492 76.9572 4.4492C75.9206 4.4492 75.0802 5.28956 75.0802 6.3262C75.0802 7.36284 75.9206 8.20321 76.9572 8.20321Z" stroke="var(--stroke-0, #392D2B)" stroke-width="0.65" mask="url(#path-1-inside-1_0_73)"/>
<path d="M81.1283 8.20321C82.165 8.20321 83.0054 7.36284 83.0054 6.3262C83.0054 5.28956 82.165 4.4492 81.1283 4.4492C80.0917 4.4492 79.2513 5.28956 79.2513 6.3262C79.2513 7.36284 80.0917 8.20321 81.1283 8.20321Z" stroke="var(--stroke-0, #392D2B)" stroke-width="0.65" mask="url(#path-1-inside-1_0_73)"/>
<path d="M85.2995 8.20321C86.3361 8.20321 87.1765 7.36284 87.1765 6.3262C87.1765 5.28956 86.3361 4.4492 85.2995 4.4492C84.2628 4.4492 83.4225 5.28956 83.4225 6.3262C83.4225 7.36284 84.2628 8.20321 85.2995 8.20321Z" stroke="var(--stroke-0, #392D2B)" stroke-width="0.65" mask="url(#path-1-inside-1_0_73)"/>
<path d="M89.4706 8.20321C90.5072 8.20321 91.3476 7.36284 91.3476 6.3262C91.3476 5.28956 90.5072 4.4492 89.4706 4.4492C88.434 4.4492 87.5936 5.28956 87.5936 6.3262C87.5936 7.36284 88.434 8.20321 89.4706 8.20321Z" stroke="var(--stroke-0, #392D2B)" stroke-width="0.65" mask="url(#path-1-inside-1_0_73)"/>
<path d="M93.6417 8.20321C94.6784 8.20321 95.5187 7.36284 95.5187 6.3262C95.5187 5.28956 94.6784 4.4492 93.6417 4.4492C92.6051 4.4492 91.7647 5.28956 91.7647 6.3262C91.7647 7.36284 92.6051 8.20321 93.6417 8.20321Z" stroke="var(--stroke-0, #392D2B)" stroke-width="0.65" mask="url(#path-1-inside-1_0_73)"/>
<path d="M97.8128 8.20321C98.8495 8.20321 99.6898 7.36284 99.6898 6.3262C99.6898 5.28956 98.8495 4.4492 97.8128 4.4492C96.7762 4.4492 95.9358 5.28956 95.9358 6.3262C95.9358 7.36284 96.7762 8.20321 97.8128 8.20321Z" stroke="var(--stroke-0, #392D2B)" stroke-width="0.65" mask="url(#path-1-inside-1_0_73)"/>
<path d="M1.87701 12.6524C2.91365 12.6524 3.75401 11.812 3.75401 10.7754C3.75401 9.73876 2.91365 8.8984 1.87701 8.8984C0.840364 8.8984 0 9.73876 0 10.7754C0 11.812 0.840364 12.6524 1.87701 12.6524Z" stroke="var(--stroke-0, #392D2B)" stroke-width="0.65" mask="url(#path-1-inside-1_0_73)"/>
<path d="M6.04813 12.6524C7.08477 12.6524 7.92513 11.812 7.92513 10.7754C7.92513 9.73876 7.08477 8.8984 6.04813 8.8984C5.01149 8.8984 4.17112 9.73876 4.17112 10.7754C4.17112 11.812 5.01149 12.6524 6.04813 12.6524Z" stroke="var(--stroke-0, #392D2B)" stroke-width="0.65" mask="url(#path-1-inside-1_0_73)"/>
<path d="M10.2193 12.6524C11.2559 12.6524 12.0963 11.812 12.0963 10.7754C12.0963 9.73876 11.2559 8.8984 10.2193 8.8984C9.18261 8.8984 8.34225 9.73876 8.34225 10.7754C8.34225 11.812 9.18261 12.6524 10.2193 12.6524Z" stroke="var(--stroke-0, #392D2B)" stroke-width="0.65" mask="url(#path-1-inside-1_0_73)"/>
<path d="M22.7326 12.6524C23.7693 12.6524 24.6096 11.812 24.6096 10.7754C24.6096 9.73876 23.7693 8.8984 22.7326 8.8984C21.696 8.8984 20.8556 9.73876 20.8556 10.7754C20.8556 11.812 21.696 12.6524 22.7326 12.6524Z" stroke="var(--stroke-0, #392D2B)" stroke-width="0.65" mask="url(#path-1-inside-1_0_73)"/>
<path d="M26.9037 12.6524C27.9404 12.6524 28.7808 11.812 28.7808 10.7754C28.7808 9.73876 27.9404 8.8984 26.9037 8.8984C25.8671 8.8984 25.0267 9.73876 25.0267 10.7754C25.0267 11.812 25.8671 12.6524 26.9037 12.6524Z" stroke="var(--stroke-0, #392D2B)" stroke-width="0.65" mask="url(#path-1-inside-1_0_73)"/>
<path d="M31.0749 12.6524C32.1115 12.6524 32.9519 11.812 32.9519 10.7754C32.9519 9.73876 32.1115 8.8984 31.0749 8.8984C30.0382 8.8984 29.1979 9.73876 29.1979 10.7754C29.1979 11.812 30.0382 12.6524 31.0749 12.6524Z" stroke="var(--stroke-0, #392D2B)" stroke-width="0.65" mask="url(#path-1-inside-1_0_73)"/>
<path d="M35.246 12.6524C36.2826 12.6524 37.123 11.812 37.123 10.7754C37.123 9.73876 36.2826 8.8984 35.246 8.8984C34.2093 8.8984 33.369 9.73876 33.369 10.7754C33.369 11.812 34.2093 12.6524 35.246 12.6524Z" stroke="var(--stroke-0, #392D2B)" stroke-width="0.65" mask="url(#path-1-inside-1_0_73)"/>
<path d="M39.4171 12.6524C40.4538 12.6524 41.2941 11.812 41.2941 10.7754C41.2941 9.73876 40.4538 8.8984 39.4171 8.8984C38.3805 8.8984 37.5401 9.73876 37.5401 10.7754C37.5401 11.812 38.3805 12.6524 39.4171 12.6524Z" stroke="var(--stroke-0, #392D2B)" stroke-width="0.65" mask="url(#path-1-inside-1_0_73)"/>
<path d="M43.5882 12.6524C44.6249 12.6524 45.4652 11.812 45.4652 10.7754C45.4652 9.73876 44.6249 8.8984 43.5882 8.8984C42.5516 8.8984 41.7112 9.73876 41.7112 10.7754C41.7112 11.812 42.5516 12.6524 43.5882 12.6524Z" stroke="var(--stroke-0, #392D2B)" stroke-width="0.65" mask="url(#path-1-inside-1_0_73)"/>
<path d="M47.7594 12.6524C48.796 12.6524 49.6364 11.812 49.6364 10.7754C49.6364 9.73876 48.796 8.8984 47.7594 8.8984C46.7227 8.8984 45.8824 9.73876 45.8824 10.7754C45.8824 11.812 46.7227 12.6524 47.7594 12.6524Z" stroke="var(--stroke-0, #392D2B)" stroke-width="0.65" mask="url(#path-1-inside-1_0_73)"/>
<path d="M51.9305 12.6524C52.9671 12.6524 53.8075 11.812 53.8075 10.7754C53.8075 9.73876 52.9671 8.8984 51.9305 8.8984C50.8938 8.8984 50.0535 9.73876 50.0535 10.7754C50.0535 11.812 50.8938 12.6524 51.9305 12.6524Z" stroke="var(--stroke-0, #392D2B)" stroke-width="0.65" mask="url(#path-1-inside-1_0_73)"/>
<path d="M56.1016 12.6524C57.1382 12.6524 57.9786 11.812 57.9786 10.7754C57.9786 9.73876 57.1382 8.8984 56.1016 8.8984C55.065 8.8984 54.2246 9.73876 54.2246 10.7754C54.2246 11.812 55.065 12.6524 56.1016 12.6524Z" stroke="var(--stroke-0, #392D2B)" stroke-width="0.65" mask="url(#path-1-inside-1_0_73)"/>
<path d="M60.2727 12.6524C61.3094 12.6524 62.1497 11.812 62.1497 10.7754C62.1497 9.73876 61.3094 8.8984 60.2727 8.8984C59.2361 8.8984 58.3957 9.73876 58.3957 10.7754C58.3957 11.812 59.2361 12.6524 60.2727 12.6524Z" stroke="var(--stroke-0, #392D2B)" stroke-width="0.65" mask="url(#path-1-inside-1_0_73)"/>
<path d="M64.4439 12.6524C65.4805 12.6524 66.3209 11.812 66.3209 10.7754C66.3209 9.73876 65.4805 8.8984 64.4439 8.8984C63.4072 8.8984 62.5668 9.73876 62.5668 10.7754C62.5668 11.812 63.4072 12.6524 64.4439 12.6524Z" stroke="var(--stroke-0, #392D2B)" stroke-width="0.65" mask="url(#path-1-inside-1_0_73)"/>
<path d="M68.615 12.6524C69.6516 12.6524 70.492 11.812 70.492 10.7754C70.492 9.73876 69.6516 8.8984 68.615 8.8984C67.5783 8.8984 66.738 9.73876 66.738 10.7754C66.738 11.812 67.5783 12.6524 68.615 12.6524Z" stroke="var(--stroke-0, #392D2B)" stroke-width="0.65" mask="url(#path-1-inside-1_0_73)"/>
<path d="M72.7861 12.6524C73.8227 12.6524 74.6631 11.812 74.6631 10.7754C74.6631 9.73876 73.8227 8.8984 72.7861 8.8984C71.7495 8.8984 70.9091 9.73876 70.9091 10.7754C70.9091 11.812 71.7495 12.6524 72.7861 12.6524Z" stroke="var(--stroke-0, #392D2B)" stroke-width="0.65" mask="url(#path-1-inside-1_0_73)"/>
<path d="M76.9572 12.6524C77.9939 12.6524 78.8342 11.812 78.8342 10.7754C78.8342 9.73876 77.9939 8.8984 76.9572 8.8984C75.9206 8.8984 75.0802 9.73876 75.0802 10.7754C75.0802 11.812 75.9206 12.6524 76.9572 12.6524Z" stroke="var(--stroke-0, #392D2B)" stroke-width="0.65" mask="url(#path-1-inside-1_0_73)"/>
<path d="M81.1283 12.6524C82.165 12.6524 83.0054 11.812 83.0054 10.7754C83.0054 9.73876 82.165 8.8984 81.1283 8.8984C80.0917 8.8984 79.2513 9.73876 79.2513 10.7754C79.2513 11.812 80.0917 12.6524 81.1283 12.6524Z" stroke="var(--stroke-0, #392D2B)" stroke-width="0.65" mask="url(#path-1-inside-1_0_73)"/>
<path d="M85.2995 12.6524C86.3361 12.6524 87.1765 11.812 87.1765 10.7754C87.1765 9.73876 86.3361 8.8984 85.2995 8.8984C84.2628 8.8984 83.4225 9.73876 83.4225 10.7754C83.4225 11.812 84.2628 12.6524 85.2995 12.6524Z" stroke="var(--stroke-0, #392D2B)" stroke-width="0.65" mask="url(#path-1-inside-1_0_73)"/>
<path d="M89.4706 12.6524C90.5072 12.6524 91.3476 11.812 91.3476 10.7754C91.3476 9.73876 90.5072 8.8984 89.4706 8.8984C88.434 8.8984 87.5936 9.73876 87.5936 10.7754C87.5936 11.812 88.434 12.6524 89.4706 12.6524Z" stroke="var(--stroke-0, #392D2B)" stroke-width="0.65" mask="url(#path-1-inside-1_0_73)"/>
<path d="M93.6417 12.6524C94.6784 12.6524 95.5187 11.812 95.5187 10.7754C95.5187 9.73876 94.6784 8.8984 93.6417 8.8984C92.6051 8.8984 91.7647 9.73876 91.7647 10.7754C91.7647 11.812 92.6051 12.6524 93.6417 12.6524Z" stroke="var(--stroke-0, #392D2B)" stroke-width="0.65" mask="url(#path-1-inside-1_0_73)"/>
<path d="M97.8128 12.6524C98.8495 12.6524 99.6898 11.812 99.6898 10.7754C99.6898 9.73876 98.8495 8.8984 97.8128 8.8984C96.7762 8.8984 95.9358 9.73876 95.9358 10.7754C95.9358 11.812 96.7762 12.6524 97.8128 12.6524Z" stroke="var(--stroke-0, #392D2B)" stroke-width="0.65" mask="url(#path-1-inside-1_0_73)"/>
<path d="M1.87701 17.1016C2.91365 17.1016 3.75401 16.2612 3.75401 15.2246C3.75401 14.188 2.91365 13.3476 1.87701 13.3476C0.840364 13.3476 0 14.188 0 15.2246C0 16.2612 0.840364 17.1016 1.87701 17.1016Z" stroke="var(--stroke-0, #392D2B)" stroke-width="0.65" mask="url(#path-1-inside-1_0_73)"/>
<path d="M6.04813 17.1016C7.08477 17.1016 7.92513 16.2612 7.92513 15.2246C7.92513 14.188 7.08477 13.3476 6.04813 13.3476C5.01149 13.3476 4.17112 14.188 4.17112 15.2246C4.17112 16.2612 5.01149 17.1016 6.04813 17.1016Z" stroke="var(--stroke-0, #392D2B)" stroke-width="0.65" mask="url(#path-1-inside-1_0_73)"/>
<path d="M10.2193 17.1016C11.2559 17.1016 12.0963 16.2612 12.0963 15.2246C12.0963 14.188 11.2559 13.3476 10.2193 13.3476C9.18261 13.3476 8.34225 14.188 8.34225 15.2246C8.34225 16.2612 9.18261 17.1016 10.2193 17.1016Z" stroke="var(--stroke-0, #392D2B)" stroke-width="0.65" mask="url(#path-1-inside-1_0_73)"/>
<path d="M14.3904 17.1016C15.427 17.1016 16.2674 16.2612 16.2674 15.2246C16.2674 14.188 15.427 13.3476 14.3904 13.3476C13.3537 13.3476 12.5134 14.188 12.5134 15.2246C12.5134 16.2612 13.3537 17.1016 14.3904 17.1016Z" stroke="var(--stroke-0, #392D2B)" stroke-width="0.65" mask="url(#path-1-inside-1_0_73)"/>
<path d="M31.0749 17.1016C32.1115 17.1016 32.9519 16.2612 32.9519 15.2246C32.9519 14.188 32.1115 13.3476 31.0749 13.3476C30.0382 13.3476 29.1979 14.188 29.1979 15.2246C29.1979 16.2612 30.0382 17.1016 31.0749 17.1016Z" stroke="var(--stroke-0, #392D2B)" stroke-width="0.65" mask="url(#path-1-inside-1_0_73)"/>
<path d="M35.246 17.1016C36.2826 17.1016 37.123 16.2612 37.123 15.2246C37.123 14.188 36.2826 13.3476 35.246 13.3476C34.2093 13.3476 33.369 14.188 33.369 15.2246C33.369 16.2612 34.2093 17.1016 35.246 17.1016Z" stroke="var(--stroke-0, #392D2B)" stroke-width="0.65" mask="url(#path-1-inside-1_0_73)"/>
<path d="M39.4171 17.1016C40.4538 17.1016 41.2941 16.2612 41.2941 15.2246C41.2941 14.188 40.4538 13.3476 39.4171 13.3476C38.3805 13.3476 37.5401 14.188 37.5401 15.2246C37.5401 16.2612 38.3805 17.1016 39.4171 17.1016Z" stroke="var(--stroke-0, #392D2B)" stroke-width="0.65" mask="url(#path-1-inside-1_0_73)"/>
<path d="M43.5882 17.1016C44.6249 17.1016 45.4652 16.2612 45.4652 15.2246C45.4652 14.188 44.6249 13.3476 43.5882 13.3476C42.5516 13.3476 41.7112 14.188 41.7112 15.2246C41.7112 16.2612 42.5516 17.1016 43.5882 17.1016Z" stroke="var(--stroke-0, #392D2B)" stroke-width="0.65" mask="url(#path-1-inside-1_0_73)"/>
<path d="M47.7594 17.1016C48.796 17.1016 49.6364 16.2612 49.6364 15.2246C49.6364 14.188 48.796 13.3476 47.7594 13.3476C46.7227 13.3476 45.8824 14.188 45.8824 15.2246C45.8824 16.2612 46.7227 17.1016 47.7594 17.1016Z" stroke="var(--stroke-0, #392D2B)" stroke-width="0.65" mask="url(#path-1-inside-1_0_73)"/>
<path d="M51.9305 17.1016C52.9671 17.1016 53.8075 16.2612 53.8075 15.2246C53.8075 14.188 52.9671 13.3476 51.9305 13.3476C50.8938 13.3476 50.0535 14.188 50.0535 15.2246C50.0535 16.2612 50.8938 17.1016 51.9305 17.1016Z" stroke="var(--stroke-0, #392D2B)" stroke-width="0.65" mask="url(#path-1-inside-1_0_73)"/>
<path d="M56.1016 17.1016C57.1382 17.1016 57.9786 16.2612 57.9786 15.2246C57.9786 14.188 57.1382 13.3476 56.1016 13.3476C55.065 13.3476 54.2246 14.188 54.2246 15.2246C54.2246 16.2612 55.065 17.1016 56.1016 17.1016Z" stroke="var(--stroke-0, #392D2B)" stroke-width="0.65" mask="url(#path-1-inside-1_0_73)"/>
<path d="M64.4439 17.1016C65.4805 17.1016 66.3209 16.2612 66.3209 15.2246C66.3209 14.188 65.4805 13.3476 64.4439 13.3476C63.4072 13.3476 62.5668 14.188 62.5668 15.2246C62.5668 16.2612 63.4072 17.1016 64.4439 17.1016Z" stroke="var(--stroke-0, #392D2B)" stroke-width="0.65" mask="url(#path-1-inside-1_0_73)"/>
<path d="M68.615 17.1016C69.6516 17.1016 70.492 16.2612 70.492 15.2246C70.492 14.188 69.6516 13.3476 68.615 13.3476C67.5783 13.3476 66.738 14.188 66.738 15.2246C66.738 16.2612 67.5783 17.1016 68.615 17.1016Z" stroke="var(--stroke-0, #392D2B)" stroke-width="0.65" mask="url(#path-1-inside-1_0_73)"/>
<path d="M72.7861 17.1016C73.8227 17.1016 74.6631 16.2612 74.6631 15.2246C74.6631 14.188 73.8227 13.3476 72.7861 13.3476C71.7495 13.3476 70.9091 14.188 70.9091 15.2246C70.9091 16.2612 71.7495 17.1016 72.7861 17.1016Z" stroke="var(--stroke-0, #392D2B)" stroke-width="0.65" mask="url(#path-1-inside-1_0_73)"/>
<path d="M76.9572 17.1016C77.9939 17.1016 78.8342 16.2612 78.8342 15.2246C78.8342 14.188 77.9939 13.3476 76.9572 13.3476C75.9206 13.3476 75.0802 14.188 75.0802 15.2246C75.0802 16.2612 75.9206 17.1016 76.9572 17.1016Z" stroke="var(--stroke-0, #392D2B)" stroke-width="0.65" mask="url(#path-1-inside-1_0_73)"/>
<path d="M81.1283 17.1016C82.165 17.1016 83.0054 16.2612 83.0054 15.2246C83.0054 14.188 82.165 13.3476 81.1283 13.3476C80.0917 13.3476 79.2513 14.188 79.2513 15.2246C79.2513 16.2612 80.0917 17.1016 81.1283 17.1016Z" stroke="var(--stroke-0, #392D2B)" stroke-width="0.65" mask="url(#path-1-inside-1_0_73)"/>
<path d="M85.2995 17.1016C86.3361 17.1016 87.1765 16.2612 87.1765 15.2246C87.1765 14.188 86.3361 13.3476 85.2995 13.3476C84.2628 13.3476 83.4225 14.188 83.4225 15.2246C83.4225 16.2612 84.2628 17.1016 85.2995 17.1016Z" stroke="var(--stroke-0, #392D2B)" stroke-width="0.65" mask="url(#path-1-inside-1_0_73)"/>
<path d="M89.4706 17.1016C90.5072 17.1016 91.3476 16.2612 91.3476 15.2246C91.3476 14.188 90.5072 13.3476 89.4706 13.3476C88.434 13.3476 87.5936 14.188 87.5936 15.2246C87.5936 16.2612 88.434 17.1016 89.4706 17.1016Z" stroke="var(--stroke-0, #392D2B)" stroke-width="0.65" mask="url(#path-1-inside-1_0_73)"/>
<path d="M93.6417 17.1016C94.6784 17.1016 95.5187 16.2612 95.5187 15.2246C95.5187 14.188 94.6784 13.3476 93.6417 13.3476C92.6051 13.3476 91.7647 14.188 91.7647 15.2246C91.7647 16.2612 92.6051 17.1016 93.6417 17.1016Z" stroke="var(--stroke-0, #392D2B)" stroke-width="0.65" mask="url(#path-1-inside-1_0_73)"/>
<path d="M1.87701 21.5508C2.91365 21.5508 3.75401 20.7104 3.75401 19.6738C3.75401 18.6372 2.91365 17.7968 1.87701 17.7968C0.840364 17.7968 0 18.6372 0 19.6738C0 20.7104 0.840364 21.5508 1.87701 21.5508Z" stroke="var(--stroke-0, #392D2B)" stroke-width="0.65" mask="url(#path-1-inside-1_0_73)"/>
<path d="M6.04813 21.5508C7.08477 21.5508 7.92513 20.7104 7.92513 19.6738C7.92513 18.6372 7.08477 17.7968 6.04813 17.7968C5.01149 17.7968 4.17112 18.6372 4.17112 19.6738C4.17112 20.7104 5.01149 21.5508 6.04813 21.5508Z" stroke="var(--stroke-0, #392D2B)" stroke-width="0.65" mask="url(#path-1-inside-1_0_73)"/>
<path d="M10.2193 21.5508C11.2559 21.5508 12.0963 20.7104 12.0963 19.6738C12.0963 18.6372 11.2559 17.7968 10.2193 17.7968C9.18261 17.7968 8.34225 18.6372 8.34225 19.6738C8.34225 20.7104 9.18261 21.5508 10.2193 21.5508Z" stroke="var(--stroke-0, #392D2B)" stroke-width="0.65" mask="url(#path-1-inside-1_0_73)"/>
<path d="M14.3904 21.5508C15.427 21.5508 16.2674 20.7104 16.2674 19.6738C16.2674 18.6372 15.427 17.7968 14.3904 17.7968C13.3537 17.7968 12.5134 18.6372 12.5134 19.6738C12.5134 20.7104 13.3537 21.5508 14.3904 21.5508Z" stroke="var(--stroke-0, #392D2B)" stroke-width="0.65" mask="url(#path-1-inside-1_0_73)"/>
<path d="M26.9037 21.5508C27.9404 21.5508 28.7808 20.7104 28.7808 19.6738C28.7808 18.6372 27.9404 17.7968 26.9037 17.7968C25.8671 17.7968 25.0267 18.6372 25.0267 19.6738C25.0267 20.7104 25.8671 21.5508 26.9037 21.5508Z" stroke="var(--stroke-0, #392D2B)" stroke-width="0.65" mask="url(#path-1-inside-1_0_73)"/>
<path d="M31.0749 21.5508C32.1115 21.5508 32.9519 20.7104 32.9519 19.6738C32.9519 18.6372 32.1115 17.7968 31.0749 17.7968C30.0382 17.7968 29.1979 18.6372 29.1979 19.6738C29.1979 20.7104 30.0382 21.5508 31.0749 21.5508Z" stroke="var(--stroke-0, #392D2B)" stroke-width="0.65" mask="url(#path-1-inside-1_0_73)"/>
<path d="M35.246 21.5508C36.2826 21.5508 37.123 20.7104 37.123 19.6738C37.123 18.6372 36.2826 17.7968 35.246 17.7968C34.2093 17.7968 33.369 18.6372 33.369 19.6738C33.369 20.7104 34.2093 21.5508 35.246 21.5508Z" stroke="var(--stroke-0, #392D2B)" stroke-width="0.65" mask="url(#path-1-inside-1_0_73)"/>
<path d="M39.4171 21.5508C40.4538 21.5508 41.2941 20.7104 41.2941 19.6738C41.2941 18.6372 40.4538 17.7968 39.4171 17.7968C38.3805 17.7968 37.5401 18.6372 37.5401 19.6738C37.5401 20.7104 38.3805 21.5508 39.4171 21.5508Z" stroke="var(--stroke-0, #392D2B)" stroke-width="0.65" mask="url(#path-1-inside-1_0_73)"/>
<path d="M43.5882 21.5508C44.6249 21.5508 45.4652 20.7104 45.4652 19.6738C45.4652 18.6372 44.6249 17.7968 43.5882 17.7968C42.5516 17.7968 41.7112 18.6372 41.7112 19.6738C41.7112 20.7104 42.5516 21.5508 43.5882 21.5508Z" stroke="var(--stroke-0, #392D2B)" stroke-width="0.65" mask="url(#path-1-inside-1_0_73)"/>
<path d="M47.7594 21.5508C48.796 21.5508 49.6364 20.7104 49.6364 19.6738C49.6364 18.6372 48.796 17.7968 47.7594 17.7968C46.7227 17.7968 45.8824 18.6372 45.8824 19.6738C45.8824 20.7104 46.7227 21.5508 47.7594 21.5508Z" stroke="var(--stroke-0, #392D2B)" stroke-width="0.65" mask="url(#path-1-inside-1_0_73)"/>
<path d="M56.1016 21.5508C57.1382 21.5508 57.9786 20.7104 57.9786 19.6738C57.9786 18.6372 57.1382 17.7968 56.1016 17.7968C55.065 17.7968 54.2246 18.6372 54.2246 19.6738C54.2246 20.7104 55.065 21.5508 56.1016 21.5508Z" stroke="var(--stroke-0, #392D2B)" stroke-width="0.65" mask="url(#path-1-inside-1_0_73)"/>
<path d="M60.2727 21.5508C61.3094 21.5508 62.1497 20.7104 62.1497 19.6738C62.1497 18.6372 61.3094 17.7968 60.2727 17.7968C59.2361 17.7968 58.3957 18.6372 58.3957 19.6738C58.3957 20.7104 59.2361 21.5508 60.2727 21.5508Z" stroke="var(--stroke-0, #392D2B)" stroke-width="0.65" mask="url(#path-1-inside-1_0_73)"/>
<path d="M64.4439 21.5508C65.4805 21.5508 66.3209 20.7104 66.3209 19.6738C66.3209 18.6372 65.4805 17.7968 64.4439 17.7968C63.4072 17.7968 62.5668 18.6372 62.5668 19.6738C62.5668 20.7104 63.4072 21.5508 64.4439 21.5508Z" stroke="var(--stroke-0, #392D2B)" stroke-width="0.65" mask="url(#path-1-inside-1_0_73)"/>
<path d="M68.615 21.5508C69.6516 21.5508 70.492 20.7104 70.492 19.6738C70.492 18.6372 69.6516 17.7968 68.615 17.7968C67.5783 17.7968 66.738 18.6372 66.738 19.6738C66.738 20.7104 67.5783 21.5508 68.615 21.5508Z" stroke="var(--stroke-0, #392D2B)" stroke-width="0.65" mask="url(#path-1-inside-1_0_73)"/>
<path d="M72.7861 21.5508C73.8227 21.5508 74.6631 20.7104 74.6631 19.6738C74.6631 18.6372 73.8227 17.7968 72.7861 17.7968C71.7495 17.7968 70.9091 18.6372 70.9091 19.6738C70.9091 20.7104 71.7495 21.5508 72.7861 21.5508Z" stroke="var(--stroke-0, #392D2B)" stroke-width="0.65" mask="url(#path-1-inside-1_0_73)"/>
<path d="M76.9572 21.5508C77.9939 21.5508 78.8342 20.7104 78.8342 19.6738C78.8342 18.6372 77.9939 17.7968 76.9572 17.7968C75.9206 17.7968 75.0802 18.6372 75.0802 19.6738C75.0802 20.7104 75.9206 21.5508 76.9572 21.5508Z" stroke="var(--stroke-0, #392D2B)" stroke-width="0.65" mask="url(#path-1-inside-1_0_73)"/>
<path d="M81.1283 21.5508C82.165 21.5508 83.0054 20.7104 83.0054 19.6738C83.0054 18.6372 82.165 17.7968 81.1283 17.7968C80.0917 17.7968 79.2513 18.6372 79.2513 19.6738C79.2513 20.7104 80.0917 21.5508 81.1283 21.5508Z" stroke="var(--stroke-0, #392D2B)" stroke-width="0.65" mask="url(#path-1-inside-1_0_73)"/>
<path d="M85.2995 21.5508C86.3361 21.5508 87.1765 20.7104 87.1765 19.6738C87.1765 18.6372 86.3361 17.7968 85.2995 17.7968C84.2628 17.7968 83.4225 18.6372 83.4225 19.6738C83.4225 20.7104 84.2628 21.5508 85.2995 21.5508Z" stroke="var(--stroke-0, #392D2B)" stroke-width="0.65" mask="url(#path-1-inside-1_0_73)"/>
<path d="M1.87701 26C2.91365 26 3.75401 25.1596 3.75401 24.123C3.75401 23.0864 2.91365 22.246 1.87701 22.246C0.840364 22.246 0 23.0864 0 24.123C0 25.1596 0.840364 26 1.87701 26Z" stroke="var(--stroke-0, #392D2B)" stroke-width="0.65" mask="url(#path-1-inside-1_0_73)"/>
<path d="M18.5615 26C19.5981 26 20.4385 25.1596 20.4385 24.123C20.4385 23.0864 19.5981 22.246 18.5615 22.246C17.5249 22.246 16.6845 23.0864 16.6845 24.123C16.6845 25.1596 17.5249 26 18.5615 26Z" stroke="var(--stroke-0, #392D2B)" stroke-width="0.65" mask="url(#path-1-inside-1_0_73)"/>
<path d="M22.7326 26C23.7693 26 24.6096 25.1596 24.6096 24.123C24.6096 23.0864 23.7693 22.246 22.7326 22.246C21.696 22.246 20.8556 23.0864 20.8556 24.123C20.8556 25.1596 21.696 26 22.7326 26Z" stroke="var(--stroke-0, #392D2B)" stroke-width="0.65" mask="url(#path-1-inside-1_0_73)"/>
<path d="M26.9037 26C27.9404 26 28.7808 25.1596 28.7808 24.123C28.7808 23.0864 27.9404 22.246 26.9037 22.246C25.8671 22.246 25.0267 23.0864 25.0267 24.123C25.0267 25.1596 25.8671 26 26.9037 26Z" stroke="var(--stroke-0, #392D2B)" stroke-width="0.65" mask="url(#path-1-inside-1_0_73)"/>
<path d="M31.0749 26C32.1115 26 32.9519 25.1596 32.9519 24.123C32.9519 23.0864 32.1115 22.246 31.0749 22.246C30.0382 22.246 29.1979 23.0864 29.1979 24.123C29.1979 25.1596 30.0382 26 31.0749 26Z" stroke="var(--stroke-0, #392D2B)" stroke-width="0.65" mask="url(#path-1-inside-1_0_73)"/>
<path d="M35.246 26C36.2826 26 37.123 25.1596 37.123 24.123C37.123 23.0864 36.2826 22.246 35.246 22.246C34.2093 22.246 33.369 23.0864 33.369 24.123C33.369 25.1596 34.2093 26 35.246 26Z" stroke="var(--stroke-0, #392D2B)" stroke-width="0.65" mask="url(#path-1-inside-1_0_73)"/>
<path d="M39.4171 26C40.4538 26 41.2941 25.1596 41.2941 24.123C41.2941 23.0864 40.4538 22.246 39.4171 22.246C38.3805 22.246 37.5401 23.0864 37.5401 24.123C37.5401 25.1596 38.3805 26 39.4171 26Z" stroke="var(--stroke-0, #392D2B)" stroke-width="0.65" mask="url(#path-1-inside-1_0_73)"/>
<path d="M43.5882 26C44.6249 26 45.4652 25.1596 45.4652 24.123C45.4652 23.0864 44.6249 22.246 43.5882 22.246C42.5516 22.246 41.7112 23.0864 41.7112 24.123C41.7112 25.1596 42.5516 26 43.5882 26Z" stroke="var(--stroke-0, #392D2B)" stroke-width="0.65" mask="url(#path-1-inside-1_0_73)"/>
<path d="M47.7594 26C48.796 26 49.6364 25.1596 49.6364 24.123C49.6364 23.0864 48.796 22.246 47.7594 22.246C46.7227 22.246 45.8824 23.0864 45.8824 24.123C45.8824 25.1596 46.7227 26 47.7594 26Z" stroke="var(--stroke-0, #392D2B)" stroke-width="0.65" mask="url(#path-1-inside-1_0_73)"/>
<path d="M60.2727 26C61.3094 26 62.1497 25.1596 62.1497 24.123C62.1497 23.0864 61.3094 22.246 60.2727 22.246C59.2361 22.246 58.3957 23.0864 58.3957 24.123C58.3957 25.1596 59.2361 26 60.2727 26Z" stroke="var(--stroke-0, #392D2B)" stroke-width="0.65" mask="url(#path-1-inside-1_0_73)"/>
<path d="M64.4439 26C65.4805 26 66.3209 25.1596 66.3209 24.123C66.3209 23.0864 65.4805 22.246 64.4439 22.246C63.4072 22.246 62.5668 23.0864 62.5668 24.123C62.5668 25.1596 63.4072 26 64.4439 26Z" stroke="var(--stroke-0, #392D2B)" stroke-width="0.65" mask="url(#path-1-inside-1_0_73)"/>
<path d="M68.615 26C69.6516 26 70.492 25.1596 70.492 24.123C70.492 23.0864 69.6516 22.246 68.615 22.246C67.5783 22.246 66.738 23.0864 66.738 24.123C66.738 25.1596 67.5783 26 68.615 26Z" stroke="var(--stroke-0, #392D2B)" stroke-width="0.65" mask="url(#path-1-inside-1_0_73)"/>
<path d="M72.7861 26C73.8227 26 74.6631 25.1596 74.6631 24.123C74.6631 23.0864 73.8227 22.246 72.7861 22.246C71.7495 22.246 70.9091 23.0864 70.9091 24.123C70.9091 25.1596 71.7495 26 72.7861 26Z" stroke="var(--stroke-0, #392D2B)" stroke-width="0.65" mask="url(#path-1-inside-1_0_73)"/>
<path d="M76.9572 26C77.9939 26 78.8342 25.1596 78.8342 24.123C78.8342 23.0864 77.9939 22.246 76.9572 22.246C75.9206 22.246 75.0802 23.0864 75.0802 24.123C75.0802 25.1596 75.9206 26 76.9572 26Z" stroke="var(--stroke-0, #392D2B)" stroke-width="0.65" mask="url(#path-1-inside-1_0_73)"/>
<path d="M81.1283 26C82.165 26 83.0054 25.1596 83.0054 24.123C83.0054 23.0864 82.165 22.246 81.1283 22.246C80.0917 22.246 79.2513 23.0864 79.2513 24.123C79.2513 25.1596 80.0917 26 81.1283 26Z" stroke="var(--stroke-0, #392D2B)" stroke-width="0.65" mask="url(#path-1-inside-1_0_73)"/>
<path d="M85.2995 26C86.3361 26 87.1765 25.1596 87.1765 24.123C87.1765 23.0864 86.3361 22.246 85.2995 22.246C84.2628 22.246 83.4225 23.0864 83.4225 24.123C83.4225 25.1596 84.2628 26 85.2995 26Z" stroke="var(--stroke-0, #392D2B)" stroke-width="0.65" mask="url(#path-1-inside-1_0_73)"/>
<path d="M89.4706 26C90.5072 26 91.3476 25.1596 91.3476 24.123C91.3476 23.0864 90.5072 22.246 89.4706 22.246C88.434 22.246 87.5936 23.0864 87.5936 24.123C87.5936 25.1596 88.434 26 89.4706 26Z" stroke="var(--stroke-0, #392D2B)" stroke-width="0.65" mask="url(#path-1-inside-1_0_73)"/>
<path d="M93.6417 26C94.6784 26 95.5187 25.1596 95.5187 24.123C95.5187 23.0864 94.6784 22.246 93.6417 22.246C92.6051 22.246 91.7647 23.0864 91.7647 24.123C91.7647 25.1596 92.6051 26 93.6417 26Z" stroke="var(--stroke-0, #392D2B)" stroke-width="0.65" mask="url(#path-1-inside-1_0_73)"/>
<path d="M97.8128 26C98.8495 26 99.6898 25.1596 99.6898 24.123C99.6898 23.0864 98.8495 22.246 97.8128 22.246C96.7762 22.246 95.9358 23.0864 95.9358 24.123C95.9358 25.1596 96.7762 26 97.8128 26Z" stroke="var(--stroke-0, #392D2B)" stroke-width="0.65" mask="url(#path-1-inside-1_0_73)"/>
</g>
</svg>
