<svg width="306" height="257" viewBox="0 0 306 257" fill="none" xmlns="http://www.w3.org/2000/svg">
<g clip-path="url(#clip0_14362_59992)">
<path d="M145.605 195.885V195.219" stroke="#BCB7B8" stroke-width="0.5" stroke-linecap="round" stroke-linejoin="round"/>
<path d="M104.609 172.225L109.803 175.221" stroke="#BCB7B8" stroke-width="0.5" stroke-linecap="round" stroke-linejoin="round"/>
<path d="M75.1782 155.223L80.372 158.219" stroke="#BCB7B8" stroke-width="0.5" stroke-linecap="round" stroke-linejoin="round"/>
<path d="M279.844 98.0467L285.327 101.221" stroke="#BCB7B8" stroke-width="0.5" stroke-linecap="round" stroke-linejoin="round"/>
<path d="M291.097 104.55L296.868 107.879" stroke="#BCB7B8" stroke-width="0.5" stroke-linecap="round" stroke-linejoin="round"/>
<path d="M220.915 151.738L221.58 151.36" stroke="#BCB7B8" stroke-width="0.5" stroke-linecap="round" stroke-linejoin="round"/>
<path d="M220.915 132.073L221.58 131.695" stroke="#BCB7B8" stroke-width="0.5" stroke-linecap="round" stroke-linejoin="round"/>
<path d="M296.868 108.545V107.88" stroke="#BCB7B8" stroke-width="0.5" stroke-linecap="round" stroke-linejoin="round"/>
<path d="M221.581 131.695V151.361" stroke="#BCB7B8" stroke-width="0.5" stroke-linecap="round" stroke-linejoin="round"/>
<path d="M220.915 132.072V151.738" stroke="#BCB7B8" stroke-width="0.5" stroke-linecap="round" stroke-linejoin="round"/>
<path d="M221.58 171.692L220.915 172.069V152.404L221.58 152.027V171.692Z" stroke="#BCB7B8" stroke-width="0.5" stroke-linecap="round" stroke-linejoin="round"/>
<path d="M296.868 128.211L297.445 127.878V87.8814L296.868 88.2144" stroke="#BCB7B8" stroke-width="0.5" stroke-linecap="round" stroke-linejoin="round"/>
<path d="M145.028 175.887L68.8301 131.873V171.892L145.028 215.883V175.887Z" stroke="#BCB7B8" stroke-width="0.5" stroke-linecap="round" stroke-linejoin="round"/>
<path d="M145.027 215.883L145.604 215.55" stroke="#BCB7B8" stroke-width="0.5" stroke-linecap="round" stroke-linejoin="round"/>
<path d="M145.027 175.887L145.604 175.554" stroke="#BCB7B8" stroke-width="0.5" stroke-linecap="round" stroke-linejoin="round"/>
<path d="M139.257 192.889V192.223L133.486 188.893V189.559L139.257 192.889Z" stroke="#BCB7B8" stroke-width="0.5" stroke-linecap="round" stroke-linejoin="round"/>
<path d="M74.6006 154.89V155.556L80.3715 158.885V158.219" stroke="#BCB7B8" stroke-width="0.5" stroke-linecap="round" stroke-linejoin="round"/>
<path d="M104.032 171.892V172.557L109.803 175.887V175.221" stroke="#BCB7B8" stroke-width="0.5" stroke-linecap="round" stroke-linejoin="round"/>
<path d="M74.6006 155.556L75.1777 155.223" stroke="#BCB7B8" stroke-width="0.5" stroke-linecap="round" stroke-linejoin="round"/>
<path d="M104.032 172.558L104.609 172.225" stroke="#BCB7B8" stroke-width="0.5" stroke-linecap="round" stroke-linejoin="round"/>
<path d="M68.985 129.853L68.9185 129.986" stroke="#BCB7B8" stroke-width="0.5" stroke-linecap="round" stroke-linejoin="round"/>
<path d="M292.829 83.8858H293.073L293.317 83.908H293.561L293.805 83.9302L294.027 83.9746" stroke="#BCB7B8" stroke-width="0.5" stroke-linecap="round" stroke-linejoin="round"/>
<path d="M297.046 85.4618L297.157 85.595L297.223 85.7282L297.29 85.8613" stroke="#BCB7B8" stroke-width="0.5" stroke-linecap="round" stroke-linejoin="round"/>
<path d="M297.423 86.2608L297.445 86.4161V86.5493" stroke="#BCB7B8" stroke-width="0.5" stroke-linecap="round" stroke-linejoin="round"/>
<path d="M297.29 85.8615L297.357 85.9946" stroke="#BCB7B8" stroke-width="0.5" stroke-linecap="round" stroke-linejoin="round"/>
<path d="M297.356 85.9944L297.401 86.1276L297.423 86.2607" stroke="#BCB7B8" stroke-width="0.5" stroke-linecap="round" stroke-linejoin="round"/>
<path d="M296.846 85.2178L296.957 85.3287L297.046 85.4619" stroke="#BCB7B8" stroke-width="0.5" stroke-linecap="round" stroke-linejoin="round"/>
<path d="M296.58 84.9736L296.713 85.1068L296.846 85.2178" stroke="#BCB7B8" stroke-width="0.5" stroke-linecap="round" stroke-linejoin="round"/>
<path d="M295.137 84.241L295.359 84.3076" stroke="#BCB7B8" stroke-width="0.5" stroke-linecap="round" stroke-linejoin="round"/>
<path d="M296.269 84.774L296.424 84.8628" stroke="#BCB7B8" stroke-width="0.5" stroke-linecap="round" stroke-linejoin="round"/>
<path d="M294.937 84.1746L295.137 84.2412" stroke="#BCB7B8" stroke-width="0.5" stroke-linecap="round" stroke-linejoin="round"/>
<path d="M294.027 83.9746L294.271 84.019" stroke="#BCB7B8" stroke-width="0.5" stroke-linecap="round" stroke-linejoin="round"/>
<path d="M295.936 84.5738L296.091 84.6626" stroke="#BCB7B8" stroke-width="0.5" stroke-linecap="round" stroke-linejoin="round"/>
<path d="M296.424 84.8627L296.579 84.9736" stroke="#BCB7B8" stroke-width="0.5" stroke-linecap="round" stroke-linejoin="round"/>
<path d="M295.559 84.3966L295.736 84.4854" stroke="#BCB7B8" stroke-width="0.5" stroke-linecap="round" stroke-linejoin="round"/>
<path d="M294.271 84.0191L294.493 84.0635L294.715 84.1079" stroke="#BCB7B8" stroke-width="0.5" stroke-linecap="round" stroke-linejoin="round"/>
<path d="M296.091 84.663L296.269 84.7739" stroke="#BCB7B8" stroke-width="0.5" stroke-linecap="round" stroke-linejoin="round"/>
<path d="M295.359 84.3077L295.559 84.3965" stroke="#BCB7B8" stroke-width="0.5" stroke-linecap="round" stroke-linejoin="round"/>
<path d="M294.715 84.1077L294.937 84.1743" stroke="#BCB7B8" stroke-width="0.5" stroke-linecap="round" stroke-linejoin="round"/>
<path d="M295.736 84.4854L295.936 84.5742" stroke="#BCB7B8" stroke-width="0.5" stroke-linecap="round" stroke-linejoin="round"/>
<path d="M68.9189 129.986L68.8745 130.141L68.8523 130.275L68.8301 130.408V130.541" stroke="#BCB7B8" stroke-width="0.5" stroke-linecap="round" stroke-linejoin="round"/>
<path d="M71.5598 128.122L71.3379 128.166" stroke="#BCB7B8" stroke-width="0.5" stroke-linecap="round" stroke-linejoin="round"/>
<path d="M69.3183 129.342L69.2295 129.476" stroke="#BCB7B8" stroke-width="0.5" stroke-linecap="round" stroke-linejoin="round"/>
<path d="M72.2481 127.966L72.0039 128.011" stroke="#BCB7B8" stroke-width="0.5" stroke-linecap="round" stroke-linejoin="round"/>
<path d="M71.1385 128.233L70.9165 128.322" stroke="#BCB7B8" stroke-width="0.5" stroke-linecap="round" stroke-linejoin="round"/>
<path d="M69.4293 129.21L69.3184 129.343" stroke="#BCB7B8" stroke-width="0.5" stroke-linecap="round" stroke-linejoin="round"/>
<path d="M71.3379 128.166L71.1382 128.233" stroke="#BCB7B8" stroke-width="0.5" stroke-linecap="round" stroke-linejoin="round"/>
<path d="M73.4463 127.878H73.2021" stroke="#BCB7B8" stroke-width="0.5" stroke-linecap="round" stroke-linejoin="round"/>
<path d="M70.7166 128.388L70.5391 128.477" stroke="#BCB7B8" stroke-width="0.5" stroke-linecap="round" stroke-linejoin="round"/>
<path d="M69.1183 129.587L69.0518 129.72" stroke="#BCB7B8" stroke-width="0.5" stroke-linecap="round" stroke-linejoin="round"/>
<path d="M70.1839 128.655L70.0063 128.766" stroke="#BCB7B8" stroke-width="0.5" stroke-linecap="round" stroke-linejoin="round"/>
<path d="M71.782 128.055L71.5601 128.122" stroke="#BCB7B8" stroke-width="0.5" stroke-linecap="round" stroke-linejoin="round"/>
<path d="M72.47 127.944L72.248 127.966" stroke="#BCB7B8" stroke-width="0.5" stroke-linecap="round" stroke-linejoin="round"/>
<path d="M72.9585 127.9L72.7144 127.922" stroke="#BCB7B8" stroke-width="0.5" stroke-linecap="round" stroke-linejoin="round"/>
<path d="M70.5391 128.477L70.3394 128.566" stroke="#BCB7B8" stroke-width="0.5" stroke-linecap="round" stroke-linejoin="round"/>
<path d="M70.9166 128.322L70.7168 128.388" stroke="#BCB7B8" stroke-width="0.5" stroke-linecap="round" stroke-linejoin="round"/>
<path d="M69.6957 128.988L69.5625 129.099" stroke="#BCB7B8" stroke-width="0.5" stroke-linecap="round" stroke-linejoin="round"/>
<path d="M72.0037 128.011L71.7817 128.055" stroke="#BCB7B8" stroke-width="0.5" stroke-linecap="round" stroke-linejoin="round"/>
<path d="M69.0519 129.72L68.9854 129.853" stroke="#BCB7B8" stroke-width="0.5" stroke-linecap="round" stroke-linejoin="round"/>
<path d="M69.5624 129.098L69.4292 129.209" stroke="#BCB7B8" stroke-width="0.5" stroke-linecap="round" stroke-linejoin="round"/>
<path d="M69.8512 128.876L69.6958 128.987" stroke="#BCB7B8" stroke-width="0.5" stroke-linecap="round" stroke-linejoin="round"/>
<path d="M72.7144 127.922L72.4702 127.944" stroke="#BCB7B8" stroke-width="0.5" stroke-linecap="round" stroke-linejoin="round"/>
<path d="M70.0064 128.765L69.8511 128.876" stroke="#BCB7B8" stroke-width="0.5" stroke-linecap="round" stroke-linejoin="round"/>
<path d="M73.2026 127.878L72.9585 127.9" stroke="#BCB7B8" stroke-width="0.5" stroke-linecap="round" stroke-linejoin="round"/>
<path d="M70.3395 128.566L70.1841 128.655" stroke="#BCB7B8" stroke-width="0.5" stroke-linecap="round" stroke-linejoin="round"/>
<path d="M69.2291 129.476L69.1182 129.587" stroke="#BCB7B8" stroke-width="0.5" stroke-linecap="round" stroke-linejoin="round"/>
<path d="M297.445 87.8809V87.2151L145.027 175.221V175.887" stroke="#BCB7B8" stroke-width="0.5" stroke-linecap="round" stroke-linejoin="round"/>
<path d="M68.8301 131.873V131.207L145.028 175.221" stroke="#BCB7B8" stroke-width="0.5" stroke-linecap="round" stroke-linejoin="round"/>
<path d="M69.4072 130.874L68.8301 131.207" stroke="#BCB7B8" stroke-width="0.5" stroke-linecap="round" stroke-linejoin="round"/>
<path d="M297.445 87.2153L296.868 86.8824" stroke="#BCB7B8" stroke-width="0.5" stroke-linecap="round" stroke-linejoin="round"/>
<path d="M68.8301 172.558L145.028 216.549L297.445 128.544V127.878" stroke="#BCB7B8" stroke-width="0.5" stroke-linecap="round" stroke-linejoin="round"/>
<path d="M145.027 216.549V215.883" stroke="#BCB7B8" stroke-width="0.5" stroke-linecap="round" stroke-linejoin="round"/>
<path d="M68.8301 172.558V171.892" stroke="#BCB7B8" stroke-width="0.5" stroke-linecap="round" stroke-linejoin="round"/>
<path d="M75.8882 208.958L75.9326 208.98" stroke="#BCB7B8" stroke-width="0.5" stroke-linecap="round" stroke-linejoin="round"/>
<path d="M76.0878 208.892V208.825L76.0656 208.781L76.0434 208.714L75.999 208.67L75.9768 208.626L75.9324 208.581L75.8881 208.559H75.8437L75.7993 208.581L75.7771 208.603L75.7549 208.626V208.692V208.737L75.7771 208.803L75.7993 208.848L75.8437 208.914L75.8881 208.958" stroke="#BCB7B8" stroke-width="0.5" stroke-linecap="round" stroke-linejoin="round"/>
<path d="M75.9326 208.981L75.977 209.003H75.9992H76.0436L76.0658 208.981L76.088 208.936V208.892" stroke="#BCB7B8" stroke-width="0.5" stroke-linecap="round" stroke-linejoin="round"/>
<path d="M96.4194 220.811L96.4638 220.833" stroke="#BCB7B8" stroke-width="0.5" stroke-linecap="round" stroke-linejoin="round"/>
<path d="M96.5968 220.722V220.656L96.5746 220.611L96.5524 220.545L96.508 220.5L96.4637 220.456L96.4193 220.412L96.3749 220.389H96.3305L96.2861 220.412L96.2639 220.434L96.2417 220.478V220.522V220.567L96.2639 220.633L96.2861 220.678L96.3305 220.744L96.3749 220.789L96.4193 220.811" stroke="#BCB7B8" stroke-width="0.5" stroke-linecap="round" stroke-linejoin="round"/>
<path d="M96.4634 220.833H96.5078H96.5522L96.5744 220.811L96.5966 220.766V220.722" stroke="#BCB7B8" stroke-width="0.5" stroke-linecap="round" stroke-linejoin="round"/>
<path d="M145.605 195.885L203.869 162.237" stroke="#BCB7B8" stroke-width="0.5" stroke-linecap="round" stroke-linejoin="round"/>
<path d="M145.605 195.219L220.915 151.738" stroke="#BCB7B8" stroke-width="0.5" stroke-linecap="round" stroke-linejoin="round"/>
<path d="M296.868 107.879V88.214" stroke="#BCB7B8" stroke-width="0.5" stroke-linecap="round" stroke-linejoin="round"/>
<path d="M145.605 215.551V195.885" stroke="#BCB7B8" stroke-width="0.5" stroke-linecap="round" stroke-linejoin="round"/>
<path d="M75.1777 155.223L74.6006 154.89" stroke="#BCB7B8" stroke-width="0.5" stroke-linecap="round" stroke-linejoin="round"/>
<path d="M104.609 172.225L104.032 171.892" stroke="#BCB7B8" stroke-width="0.5" stroke-linecap="round" stroke-linejoin="round"/>
<path d="M297.445 86.5494L296.868 86.8824L145.028 174.555L69.4072 130.874L68.8301 130.541" stroke="#BCB7B8" stroke-width="0.5" stroke-linecap="round" stroke-linejoin="round"/>
<path d="M70.3394 128.566L221.248 41.448" stroke="#BCB7B8" stroke-width="0.5" stroke-linecap="round" stroke-linejoin="round"/>
<path d="M203.869 162.237L220.915 152.404" stroke="#BCB7B8" stroke-width="0.5" stroke-linecap="round" stroke-linejoin="round"/>
<path d="M221.581 151.361L296.868 107.88" stroke="#BCB7B8" stroke-width="0.5" stroke-linecap="round" stroke-linejoin="round"/>
<path d="M296.868 128.211V108.546" stroke="#BCB7B8" stroke-width="0.5" stroke-linecap="round" stroke-linejoin="round"/>
<path d="M145.605 195.219V175.554" stroke="#BCB7B8" stroke-width="0.5" stroke-linecap="round" stroke-linejoin="round"/>
<path d="M279.844 98.0469L296.868 88.2142" stroke="#BCB7B8" stroke-width="0.5" stroke-linecap="round" stroke-linejoin="round"/>
<path d="M145.605 215.551L220.915 172.069" stroke="#BCB7B8" stroke-width="0.5" stroke-linecap="round" stroke-linejoin="round"/>
<path d="M145.605 175.554L203.869 141.906" stroke="#BCB7B8" stroke-width="0.5" stroke-linecap="round" stroke-linejoin="round"/>
<path d="M221.581 152.026L279.844 118.378L296.868 108.545" stroke="#BCB7B8" stroke-width="0.5" stroke-linecap="round" stroke-linejoin="round"/>
<path d="M203.869 141.905L220.915 132.073" stroke="#BCB7B8" stroke-width="0.5" stroke-linecap="round" stroke-linejoin="round"/>
<path d="M221.581 171.692L296.868 128.211" stroke="#BCB7B8" stroke-width="0.5" stroke-linecap="round" stroke-linejoin="round"/>
<path d="M221.581 131.695L279.844 98.0467" stroke="#BCB7B8" stroke-width="0.5" stroke-linecap="round" stroke-linejoin="round"/>
<path d="M220.915 151.738L203.869 141.905" stroke="#BCB7B8" stroke-width="0.5" stroke-linecap="round" stroke-linejoin="round"/>
<path d="M220.915 172.069L203.869 162.237" stroke="#BCB7B8" stroke-width="0.5" stroke-linecap="round" stroke-linejoin="round"/>
<path d="M279.844 118.378L296.868 128.211" stroke="#BCB7B8" stroke-width="0.5" stroke-linecap="round" stroke-linejoin="round"/>
<path d="M221.248 41.4481L295.936 84.5742" stroke="#BCB7B8" stroke-width="0.5" stroke-linecap="round" stroke-linejoin="round"/>
<path d="M145.027 169.206V174.555" stroke="#BCB7B8" stroke-width="0.5" stroke-linecap="round" stroke-linejoin="round"/>
<path d="M221.248 41.4478V42.5576" stroke="#BCB7B8" stroke-width="0.5" stroke-linecap="round" stroke-linejoin="round"/>
</g>
<defs>
<clipPath id="clip0_14362_59992">
<rect width="257" height="306" fill="white" transform="matrix(0 -1 1 0 0 257)"/>
</clipPath>
</defs>
</svg>
