<svg width="168" height="274" viewBox="0 0 168 274" fill="none" xmlns="http://www.w3.org/2000/svg">
<path d="M122.62 168.91V166.18" stroke="#BCB7B8" stroke-width="0.5" stroke-linecap="round" stroke-linejoin="round"/>
<path d="M2.62012 199.63V196.9" stroke="#BCB7B8" stroke-width="0.5" stroke-linecap="round" stroke-linejoin="round"/>
<path d="M122.62 205.27V168.91" stroke="#BCB7B8" stroke-width="0.5" stroke-linecap="round" stroke-linejoin="round"/>
<path d="M105.73 13.9302L105.73 156.43L122.62 166.18" stroke="#BCB7B8" stroke-width="0.5" stroke-linecap="round" stroke-linejoin="round"/>
<path d="M35.8301 178.84L73.5101 157.09V63.2198" stroke="#BCB7B8" stroke-width="0.5" stroke-linecap="round" stroke-linejoin="round"/>
<path d="M89.0498 54.2201V166.06L73.5098 157.09" stroke="#BCB7B8" stroke-width="0.5" stroke-linecap="round" stroke-linejoin="round"/>
<path d="M89.0498 166.06L105.73 156.43" stroke="#BCB7B8" stroke-width="0.5" stroke-linecap="round" stroke-linejoin="round"/>
<path d="M122.62 166.18L36.0399 216.19L19.1499 206.44L35.8299 196.81" stroke="#BCB7B8" stroke-width="0.5" stroke-linecap="round" stroke-linejoin="round"/>
<path d="M19.3301 44.7699L2.62012 54.3999L2.62012 196.9" stroke="#BCB7B8" stroke-width="0.5" stroke-linecap="round" stroke-linejoin="round"/>
<path d="M36.04 218.89V255.25" stroke="#BCB7B8" stroke-width="0.5" stroke-linecap="round" stroke-linejoin="round"/>
<path d="M33.5799 114.22L21.3999 121.24" stroke="#BCB7B8" stroke-width="0.5" stroke-linecap="round" stroke-linejoin="round"/>
<path d="M21.3999 104.5L33.5799 111.52L21.3999 118.54" stroke="#BCB7B8" stroke-width="0.5" stroke-linecap="round" stroke-linejoin="round"/>
<path d="M33.5801 142.18V114.22" stroke="#BCB7B8" stroke-width="0.5" stroke-linecap="round" stroke-linejoin="round"/>
<path d="M33.5799 83.5601L21.3999 90.5801" stroke="#BCB7B8" stroke-width="0.5" stroke-linecap="round" stroke-linejoin="round"/>
<path d="M21.3999 135.16L33.5799 142.18" stroke="#BCB7B8" stroke-width="0.5" stroke-linecap="round" stroke-linejoin="round"/>
<path d="M36.04 255.25L52.72 245.62V209.26L36.04 218.89" stroke="#BCB7B8" stroke-width="0.5" stroke-linecap="round" stroke-linejoin="round"/>
<path d="M36.0401 218.89L2.62012 199.63L2.62012 235.99L36.0401 255.25" stroke="#BCB7B8" stroke-width="0.5" stroke-linecap="round" stroke-linejoin="round"/>
<path d="M33.5799 111.52V86.26L21.3999 93.28" stroke="#BCB7B8" stroke-width="0.5" stroke-linecap="round" stroke-linejoin="round"/>
<path d="M103.48 101.83L91.2998 108.85" stroke="#BCB7B8" stroke-width="0.5" stroke-linecap="round" stroke-linejoin="round"/>
<path d="M103.48 71.1401V45.9101" stroke="#BCB7B8" stroke-width="0.5" stroke-linecap="round" stroke-linejoin="round"/>
<path d="M91.2998 122.77L103.48 129.79V155.02L91.2998 148" stroke="#BCB7B8" stroke-width="0.5" stroke-linecap="round" stroke-linejoin="round"/>
<path d="M91.2998 64.1201L103.48 71.1401" stroke="#BCB7B8" stroke-width="0.5" stroke-linecap="round" stroke-linejoin="round"/>
<path d="M103.48 43.1802V17.9502L91.2998 24.9702" stroke="#BCB7B8" stroke-width="0.5" stroke-linecap="round" stroke-linejoin="round"/>
<path d="M91.2998 162.04L103.48 155.02" stroke="#BCB7B8" stroke-width="0.5" stroke-linecap="round" stroke-linejoin="round"/>
<path d="M33.5801 195.4V170.14" stroke="#BCB7B8" stroke-width="0.5" stroke-linecap="round" stroke-linejoin="round"/>
<path d="M33.5799 58.2998L21.3999 65.3198" stroke="#BCB7B8" stroke-width="0.5" stroke-linecap="round" stroke-linejoin="round"/>
<path d="M21.3999 202.42L33.5799 195.4" stroke="#BCB7B8" stroke-width="0.5" stroke-linecap="round" stroke-linejoin="round"/>
<path d="M19.1501 206.44L2.62012 196.9" stroke="#BCB7B8" stroke-width="0.5" stroke-linecap="round" stroke-linejoin="round"/>
<path d="M105.94 214.9L122.62 205.27" stroke="#BCB7B8" stroke-width="0.5" stroke-linecap="round" stroke-linejoin="round"/>
<path d="M105.94 178.54L122.62 168.91" stroke="#BCB7B8" stroke-width="0.5" stroke-linecap="round" stroke-linejoin="round"/>
<path d="M33.5799 170.14L21.3999 177.16" stroke="#BCB7B8" stroke-width="0.5" stroke-linecap="round" stroke-linejoin="round"/>
<path d="M33.5799 195.4L21.3999 188.38" stroke="#BCB7B8" stroke-width="0.5" stroke-linecap="round" stroke-linejoin="round"/>
<path d="M33.5799 167.44L21.3999 174.46" stroke="#BCB7B8" stroke-width="0.5" stroke-linecap="round" stroke-linejoin="round"/>
<path d="M2.62012 54.3999L19.1501 63.9099L19.1501 206.44" stroke="#BCB7B8" stroke-width="0.5" stroke-linecap="round" stroke-linejoin="round"/>
<path d="M35.8299 54.2802L19.1499 63.9102" stroke="#BCB7B8" stroke-width="0.5" stroke-linecap="round" stroke-linejoin="round"/>
<path d="M21.3999 160.42L33.5799 167.44V142.18" stroke="#BCB7B8" stroke-width="0.5" stroke-linecap="round" stroke-linejoin="round"/>
<path d="M89.2298 4.39001L72.5498 14.02" stroke="#BCB7B8" stroke-width="0.5" stroke-linecap="round" stroke-linejoin="round"/>
<path d="M103.48 71.1402L91.2998 78.1602" stroke="#BCB7B8" stroke-width="0.5" stroke-linecap="round" stroke-linejoin="round"/>
<path d="M91.2998 92.0801L103.48 99.1001V73.8701L91.2998 80.8901" stroke="#BCB7B8" stroke-width="0.5" stroke-linecap="round" stroke-linejoin="round"/>
<path d="M36.04 216.19V218.89" stroke="#BCB7B8" stroke-width="0.5" stroke-linecap="round" stroke-linejoin="round"/>
<path d="M105.73 13.9301L89.0498 23.5601" stroke="#BCB7B8" stroke-width="0.5" stroke-linecap="round" stroke-linejoin="round"/>
<path d="M103.48 99.1001L91.2998 106.12" stroke="#BCB7B8" stroke-width="0.5" stroke-linecap="round" stroke-linejoin="round"/>
<path d="M35.8301 82.2402L89.0501 51.5202" stroke="#BCB7B8" stroke-width="0.5" stroke-linecap="round" stroke-linejoin="round"/>
<path d="M89.0498 23.5602V26.2603" stroke="#BCB7B8" stroke-width="0.5" stroke-linecap="round" stroke-linejoin="round"/>
<path d="M103.48 129.79V101.83" stroke="#BCB7B8" stroke-width="0.5" stroke-linecap="round" stroke-linejoin="round"/>
<path d="M35.8301 64.3003L73.5101 42.5503" stroke="#BCB7B8" stroke-width="0.5" stroke-linecap="round" stroke-linejoin="round"/>
<path d="M105.94 178.54V214.9L74.4399 196.72" stroke="#BCB7B8" stroke-width="0.5" stroke-linecap="round" stroke-linejoin="round"/>
<path d="M91.2998 36.1602L103.48 43.1802L91.2998 50.2002" stroke="#BCB7B8" stroke-width="0.5" stroke-linecap="round" stroke-linejoin="round"/>
<path d="M103.48 45.9102L91.2998 52.9302" stroke="#BCB7B8" stroke-width="0.5" stroke-linecap="round" stroke-linejoin="round"/>
<path d="M21.3999 76.5401L33.5799 83.5601V58.3" stroke="#BCB7B8" stroke-width="0.5" stroke-linecap="round" stroke-linejoin="round"/>
<path d="M89.0498 26.26V51.52" stroke="#BCB7B8" stroke-width="0.5" stroke-linecap="round" stroke-linejoin="round"/>
<path d="M73.5098 35.26V42.55L89.0498 51.52" stroke="#BCB7B8" stroke-width="0.5" stroke-linecap="round" stroke-linejoin="round"/>
<path d="M167.62 44.1402V228.49" stroke="#BCB7B8" stroke-width="0.5" stroke-linecap="round" stroke-linejoin="round"/>
<path d="M167.62 44.1401L91.6299 0.250122V5.77014" stroke="#BCB7B8" stroke-width="0.5" stroke-linecap="round" stroke-linejoin="round"/>
<path d="M91.63 0.249969L0.25 53.02L0.25 237.34L76.24 281.23" stroke="#BCB7B8" stroke-width="0.5" stroke-linecap="round" stroke-linejoin="round"/>
<path d="M2.62 235.99L0.25 237.34" stroke="#BCB7B8" stroke-width="0.5" stroke-linecap="round" stroke-linejoin="round"/>
<path d="M122.62 205.27L165.25 229.87L167.62 228.49L165.25 227.11" stroke="#BCB7B8" stroke-width="0.5" stroke-linecap="round" stroke-linejoin="round"/>
<path d="M35.8301 196.81V178.84L35.8301 84.9701L73.5101 63.2201L89.0501 54.2201" stroke="#BCB7B8" stroke-width="0.5" stroke-linecap="round" stroke-linejoin="round"/>
<path d="M21.3999 121.24V135.16" stroke="#BCB7B8" stroke-width="0.5" stroke-linecap="round" stroke-linejoin="round"/>
<path d="M21.3999 93.28V104.5V118.54" stroke="#BCB7B8" stroke-width="0.5" stroke-linecap="round" stroke-linejoin="round"/>
<path d="M91.2998 148V162.04" stroke="#BCB7B8" stroke-width="0.5" stroke-linecap="round" stroke-linejoin="round"/>
<path d="M91.2998 52.9302V64.1202V78.1602" stroke="#BCB7B8" stroke-width="0.5" stroke-linecap="round" stroke-linejoin="round"/>
<path d="M21.3999 65.3201V76.5401V90.5801" stroke="#BCB7B8" stroke-width="0.5" stroke-linecap="round" stroke-linejoin="round"/>
<path d="M21.3999 177.16V188.38V202.42" stroke="#BCB7B8" stroke-width="0.5" stroke-linecap="round" stroke-linejoin="round"/>
<path d="M52.7197 209.26L74.4397 196.72L105.94 178.54" stroke="#BCB7B8" stroke-width="0.5" stroke-linecap="round" stroke-linejoin="round"/>
<path d="M21.3999 160.42V174.46" stroke="#BCB7B8" stroke-width="0.5" stroke-linecap="round" stroke-linejoin="round"/>
<path d="M35.8301 57.0103L73.5101 35.2603L89.0501 26.2603" stroke="#BCB7B8" stroke-width="0.5" stroke-linecap="round" stroke-linejoin="round"/>
<path d="M91.2998 80.8901V92.0801V106.12" stroke="#BCB7B8" stroke-width="0.5" stroke-linecap="round" stroke-linejoin="round"/>
<path d="M91.2998 108.85V122.77" stroke="#BCB7B8" stroke-width="0.5" stroke-linecap="round" stroke-linejoin="round"/>
<path d="M89.23 4.39017L91.63 5.77017L105.73 13.9302" stroke="#BCB7B8" stroke-width="0.5" stroke-linecap="round" stroke-linejoin="round"/>
<path d="M35.8301 54.2803L86.7101 24.9103" stroke="#BCB7B8" stroke-width="0.5" stroke-linecap="round" stroke-linejoin="round"/>
<path d="M35.8301 82.2402V64.3002V57.0102" stroke="#BCB7B8" stroke-width="0.5" stroke-linecap="round" stroke-linejoin="round"/>
<path d="M91.2998 24.9702V36.1602V50.2002" stroke="#BCB7B8" stroke-width="0.5" stroke-linecap="round" stroke-linejoin="round"/>
<path d="M165.25 229.87V227.11V48.2801L105.73 13.9301" stroke="#BCB7B8" stroke-width="0.5" stroke-linecap="round" stroke-linejoin="round"/>
<path d="M36.04 255.25L78.64 279.85" stroke="#BCB7B8" stroke-width="0.5" stroke-linecap="round" stroke-linejoin="round"/>
<path d="M86.71 24.9102L88.96 23.6201L89.05 23.5602" stroke="#BCB7B8" stroke-width="0.5" stroke-linecap="round" stroke-linejoin="round"/>
<path d="M72.5501 14.02L19.3301 44.77" stroke="#BCB7B8" stroke-width="0.5" stroke-linecap="round" stroke-linejoin="round"/>
<path d="M21.3999 135.16V160.42" stroke="#BCB7B8" stroke-width="0.5" stroke-linecap="round" stroke-linejoin="round"/>
<path d="M91.2998 148V122.77" stroke="#BCB7B8" stroke-width="0.5" stroke-linecap="round" stroke-linejoin="round"/>
<path d="M0.25 53.0202L76.24 96.9102L167.62 44.1402" stroke="#BCB7B8" stroke-width="0.5" stroke-linecap="round" stroke-linejoin="round"/>
<path d="M76.2397 96.91L76.2397 281.23" stroke="#BCB7B8" stroke-width="0.5" stroke-linecap="round" stroke-linejoin="round"/>
<path d="M165.25 48.2801L78.6401 98.2601L78.6401 279.85" stroke="#BCB7B8" stroke-width="0.5" stroke-linecap="round" stroke-linejoin="round"/>
<path d="M2.62012 54.4003L78.6401 98.2603" stroke="#BCB7B8" stroke-width="0.5" stroke-linecap="round" stroke-linejoin="round"/>
</svg>
