<svg width="48" height="48" viewBox="0 0 48 48" fill="none" xmlns="http://www.w3.org/2000/svg">
<path d="M39.5112 8.4021C37.494 6.36514 35.0915 4.75004 32.4438 3.65091C29.796 2.55179 26.956 1.99062 24.0893 2.00012C12.0773 2.00012 2.28733 11.7901 2.28733 23.8021C2.28733 27.6521 3.29933 31.392 5.19132 34.692L2.11133 46L13.6613 42.964C16.8513 44.702 20.4373 45.626 24.0893 45.626C36.1012 45.626 45.8912 35.836 45.8912 23.8241C45.8912 17.9941 43.6252 12.5161 39.5112 8.4021ZM24.0893 41.93C20.8333 41.93 17.6433 41.05 14.8493 39.4L14.1893 39.004L7.32531 40.808L9.15131 34.12L8.71131 33.438C6.90192 30.5496 5.94135 27.2105 5.93932 23.8021C5.93932 13.8141 14.0793 5.67411 24.0673 5.67411C28.9073 5.67411 33.4612 7.5661 36.8712 10.9981C38.56 12.6786 39.8983 14.6777 40.8084 16.8794C41.7185 19.0811 42.1825 21.4417 42.1732 23.8241C42.2172 33.812 34.0772 41.93 24.0893 41.93ZM34.0332 28.378C33.4832 28.114 30.7993 26.7941 30.3153 26.5961C29.8093 26.4201 29.4573 26.3321 29.0833 26.8601C28.7093 27.4101 27.6753 28.642 27.3673 28.994C27.0593 29.368 26.7293 29.412 26.1793 29.126C25.6293 28.862 23.8693 28.268 21.8013 26.4201C20.1733 24.9681 19.0953 23.1861 18.7653 22.6361C18.4573 22.0861 18.7213 21.8001 19.0073 21.5141C19.2493 21.2721 19.5573 20.8761 19.8213 20.5681C20.0853 20.2601 20.1953 20.0181 20.3713 19.6661C20.5473 19.2921 20.4593 18.9841 20.3273 18.7201C20.1953 18.4561 19.0953 15.7721 18.6553 14.6721C18.2153 13.6161 17.7533 13.7481 17.4233 13.7261H16.3673C15.9933 13.7261 15.4213 13.8581 14.9153 14.4081C14.4313 14.9581 13.0233 16.2781 13.0233 18.9621C13.0233 21.6461 14.9813 24.2421 15.2453 24.5941C15.5093 24.9681 19.0953 30.468 24.5513 32.822C25.8493 33.394 26.8613 33.724 27.6533 33.966C28.9513 34.384 30.1393 34.318 31.0853 34.186C32.1413 34.032 34.3192 32.866 34.7592 31.59C35.2212 30.314 35.2212 29.236 35.0672 28.994C34.9132 28.752 34.5832 28.642 34.0332 28.378Z" fill="#392D2B"/>
</svg>
