<svg width="44" height="44" viewBox="0 0 44 44" fill="none" xmlns="http://www.w3.org/2000/svg">
<path d="M21.9775 2H21.9844C24.5857 1.99138 27.1629 2.50073 29.5654 3.49805C31.968 4.49541 34.148 5.96122 35.9785 7.80957L35.9854 7.81641C39.7233 11.5544 41.7803 16.5234 41.7803 21.8242C41.7802 32.7315 32.8849 41.626 21.9775 41.626C18.663 41.6259 15.4057 40.7874 12.5068 39.208L11.8096 38.8281L11.042 39.0293L2.83887 41.1846L5.00977 33.2178L5.22754 32.417L4.81543 31.6973C3.09532 28.6971 2.17578 25.2993 2.17578 21.8018C2.17595 10.8946 11.0704 2.00022 21.9775 2Z" stroke="#392D2B" stroke-width="4"/>
<path d="M31.9221 26.3785C31.3721 26.1145 28.6881 24.7945 28.2041 24.5965C27.6981 24.4205 27.3461 24.3325 26.9721 24.8605C26.5981 25.4105 25.5641 26.6425 25.2561 26.9945C24.9481 27.3685 24.6181 27.4125 24.0681 27.1265C23.5181 26.8625 21.7581 26.2685 19.6901 24.4205C18.0621 22.9685 16.9841 21.1865 16.6541 20.6365C16.3461 20.0865 16.6101 19.8005 16.8961 19.5145C17.1381 19.2725 17.4461 18.8765 17.7101 18.5685C17.9741 18.2605 18.0841 18.0185 18.2601 17.6665C18.4361 17.2925 18.3481 16.9845 18.2161 16.7205C18.0841 16.4566 16.9841 13.7726 16.5441 12.6726C16.1041 11.6166 15.6421 11.7486 15.3121 11.7266H14.2561C13.8821 11.7266 13.3101 11.8586 12.8041 12.4086C12.3201 12.9586 10.9121 14.2786 10.9121 16.9625C10.9121 19.6465 12.8701 22.2425 13.1341 22.5945C13.3981 22.9685 16.9841 28.4685 22.4401 30.8225C23.7381 31.3945 24.7501 31.7245 25.5421 31.9665C26.8401 32.3845 28.0281 32.3185 28.9741 32.1865C30.0301 32.0325 32.2081 30.8665 32.6481 29.5905C33.1101 28.3145 33.1101 27.2365 32.9561 26.9945C32.8021 26.7525 32.4721 26.6425 31.9221 26.3785Z" fill="#392D2B"/>
</svg>
